<svg xmlns="http://www.w3.org/2000/svg" height="1024" preserveAspectRatio="none" style="display: block;" version="1.1" viewBox="0 0 2048 2048" width="1024">
<defs>
	<linearGradient gradientUnits="userSpaceOnUse" id="Gradient1" x1="993.617" x2="1027.67" y1="639.795" y2="608.766">
		<stop class="stop0" offset="0" stop-color="rgb(243,225,181)" stop-opacity="1"></stop>
		<stop class="stop1" offset="1" stop-color="rgb(246,237,219)" stop-opacity="1"></stop>
	</linearGradient>
</defs>
<path d="M 0 0 L 2048 0 L 2048 2048 L 0 2048 L 0 0 z" fill="rgb(255,255,255)" transform="translate(0,0)"></path>
<path d="M 824.596 704.129 C 833.148 701.229 843.334 698.485 852.209 696.182 C 874.448 690.409 879.72 676.755 898.433 693.649 C 903.108 692.493 913.861 688.592 916.771 693.367 C 915.21 703.108 896.3 710.806 891.705 716.483 C 884.475 725.416 891.814 741.814 889.028 751.487 C 887.603 756.436 877.815 756.616 875.313 763.175 C 871.304 773.684 886.107 771.3 889.586 780.765 C 892.428 788.497 888.962 795.919 886.246 803.135 C 890.114 812.258 893.564 815.787 900.078 822.956 C 903.375 824.531 906.206 826.224 909.585 827.746 C 916.063 830.665 925.328 830.903 927.566 838.626 C 933.009 857.409 932.711 855.333 944.842 868.273 C 947.028 869.747 947.317 869.885 949.09 871.69 C 951.641 873.056 953.172 873.852 955.18 875.87 C 986.998 890.56 994.074 872.165 1024.95 866.081 C 1040.6 862.997 1046.49 866.671 1058.69 874.572 C 1059.9 875.324 1060.59 875.813 1061.73 876.66 C 1064.62 878.298 1067.21 879.865 1069.64 882.127 C 1070.71 882.605 1071.68 883.065 1072.73 883.571 C 1080.28 889.743 1086.07 897.527 1086.72 907.521 C 1086.73 907.684 1086.67 913.138 1087.28 913.337 C 1092.75 915.089 1096.41 912.435 1101.54 916.683 C 1103.06 917.7 1103.23 917.671 1104.19 919.106 C 1112.66 930.753 1102.37 942.954 1101.33 954.973 C 1099.46 976.795 1099.93 991.779 1084.88 1009.19 C 1073.39 1022.47 1062.22 1038.44 1046.39 1047.28 C 1037.48 1051.95 1018.13 1047.76 1007.77 1050.19 C 986.997 1053.13 966.675 1058.62 946.217 1061.32 C 926.166 1050.86 915.696 1033.28 892.65 1024.96 C 874.201 1018.3 861.087 1020.85 843.756 1016.88 C 831.405 1014.06 832.176 989.291 826.849 979.063 C 818.578 963.183 809.911 960.349 794.082 954.817 L 791.534 943.096 C 781.208 934.21 765.696 923.37 760.525 911.195 C 753.772 895.298 761.016 866.561 767.424 851.341 C 772.879 848.342 780.589 843.8 781.278 836.957 C 778.334 829.021 766.861 830.048 762.025 824.536 C 760.702 820.368 761.7 816.484 762.279 812.03 C 767.602 805.676 773.509 802.143 778.789 794.783 C 779.248 776.998 777.601 753.654 786.146 739 C 806.882 726.599 818.457 733.33 824.596 704.129 z" fill="rgb(233,220,192)" transform="translate(0,0)"></path>
<path d="M 824.596 704.129 C 833.148 701.229 843.334 698.485 852.209 696.182 C 874.448 690.409 879.72 676.755 898.433 693.649 C 903.108 692.493 913.861 688.592 916.771 693.367 C 915.21 703.108 896.3 710.806 891.705 716.483 C 884.475 725.416 891.814 741.814 889.028 751.487 C 887.603 756.436 877.815 756.616 875.313 763.175 C 871.304 773.684 886.107 771.3 889.586 780.765 C 892.428 788.497 888.962 795.919 886.246 803.135 C 890.114 812.258 893.564 815.787 900.078 822.956 L 898.678 823.505 C 891.48 816.312 888.776 812.274 884.344 803.157 C 887.705 794.378 889.171 790.861 888.803 781.193 C 887.194 779.091 887.243 779.051 885.152 777.604 C 866.524 767.928 870.333 759.346 888.123 751.782 C 885.421 730.449 881.767 717.865 902.788 706.472 C 903.359 705.97 903.278 705.945 903.952 705.789 C 906.991 703.888 912.103 700.257 913.185 696.797 C 909.66 690.717 901.179 697.39 892.829 691.788 C 891.316 690.481 891.287 690.299 889.983 688.556 C 878.092 684.429 864.073 694.464 852.245 697.964 C 843.948 700.419 834.437 702.901 826.409 705.734 C 815.899 748.71 783.008 719.089 781.886 762.868 C 782.14 769.191 782.029 776.154 781.139 782.415 C 781.221 799.679 776.434 800.75 764.292 812.335 C 763.692 816.183 762.611 820.093 763.931 823.621 C 771.002 828.823 779.55 828.182 783.169 835.539 C 783.984 843.347 774.095 849.276 768.595 853.072 C 763.718 866.475 761.161 878.352 759.795 892.454 C 757.2 919.255 777.746 926.809 793.577 942.828 L 795.493 953.533 L 805.428 957.319 C 840.447 970.507 824.632 999.048 843.322 1014.82 C 847.02 1017.94 887.202 1017.2 895.14 1024.15 C 916.688 1032.63 928.392 1050.95 947.035 1059.32 C 970.461 1055.74 1006.8 1046.12 1028.93 1047.09 C 1033.34 1047.03 1036.19 1047.13 1040.56 1047.56 C 1059.01 1041.91 1085.62 1007.89 1094.52 990.553 C 1098.28 979.627 1097.95 966.629 1099.56 955.219 C 1101.15 943.976 1108.77 932.509 1104.03 922.014 L 1104.19 919.106 C 1112.66 930.753 1102.37 942.954 1101.33 954.973 C 1099.46 976.795 1099.93 991.779 1084.88 1009.19 C 1073.39 1022.47 1062.22 1038.44 1046.39 1047.28 C 1037.48 1051.95 1018.13 1047.76 1007.77 1050.19 C 986.997 1053.13 966.675 1058.62 946.217 1061.32 C 926.166 1050.86 915.696 1033.28 892.65 1024.96 C 874.201 1018.3 861.087 1020.85 843.756 1016.88 C 831.405 1014.06 832.176 989.291 826.849 979.063 C 818.578 963.183 809.911 960.349 794.082 954.817 L 791.534 943.096 C 781.208 934.21 765.696 923.37 760.525 911.195 C 753.772 895.298 761.016 866.561 767.424 851.341 C 772.879 848.342 780.589 843.8 781.278 836.957 C 778.334 829.021 766.861 830.048 762.025 824.536 C 760.702 820.368 761.7 816.484 762.279 812.03 C 767.602 805.676 773.509 802.143 778.789 794.783 C 779.248 776.998 777.601 753.654 786.146 739 C 806.882 726.599 818.457 733.33 824.596 704.129 z" fill="rgb(92,89,83)" transform="translate(0,0)"></path>
<path d="M 781.886 762.868 C 782.14 769.191 782.029 776.154 781.139 782.415 C 780.719 775.487 780.695 769.781 781.886 762.868 z" fill="rgb(175,167,148)" transform="translate(0,0)"></path>
<path d="M 1028.93 1047.09 C 1033.34 1047.03 1036.19 1047.13 1040.56 1047.56 C 1035.35 1048.52 1034.12 1048.25 1028.93 1047.09 z" fill="rgb(175,167,148)" transform="translate(0,0)"></path>
<path d="M 955.18 875.87 C 986.998 890.56 994.074 872.165 1024.95 866.081 C 1040.6 862.997 1046.49 866.671 1058.69 874.572 L 1056.54 875.602 C 1054.8 874.208 1052.18 872.616 1050.25 871.352 C 1049.66 870.835 1049.72 870.812 1049.03 870.524 C 1027.61 858.219 1000.57 880.02 979.323 883.11 C 970.205 884.436 963.2 881.588 955.13 877.441 L 955.18 875.87 z" fill="rgb(92,89,83)" transform="translate(0,0)"></path>
<path d="M 900.078 822.956 C 903.375 824.531 906.206 826.224 909.585 827.746 C 916.063 830.665 925.328 830.903 927.566 838.626 C 933.009 857.409 932.711 855.333 944.842 868.273 L 943.161 869.42 C 939.762 864.704 935.732 861.989 932.304 856.657 C 928.517 850.766 927.85 844.859 925.45 838.16 C 925.145 837.385 925.183 837.3 924.677 836.719 L 922.467 834.503 C 921.717 834.008 921.679 833.907 920.876 833.672 C 911.796 830.191 909.758 829.971 901.037 825.178 C 900.721 823.992 900.765 823.97 900.078 822.956 z" fill="rgb(92,89,83)" transform="translate(0,0)"></path>
<path d="M 1072.73 883.571 C 1080.28 889.743 1086.07 897.527 1086.72 907.521 C 1086.73 907.684 1086.67 913.138 1087.28 913.337 C 1092.75 915.089 1096.41 912.435 1101.54 916.683 L 1099.67 917.445 C 1094.52 915.162 1090.47 915.956 1084.63 915.867 C 1084.44 900.292 1083.73 894.831 1070.32 884.669 L 1072.73 883.571 z" fill="rgb(92,89,83)" transform="translate(0,0)"></path>
<path d="M 1061.73 876.66 C 1064.62 878.298 1067.21 879.865 1069.64 882.127 L 1067.21 882.319 C 1064.63 880.233 1064.14 880.02 1061.17 878.486 L 1061.73 876.66 z" fill="rgb(77,67,62)" transform="translate(0,0)"></path>
<path d="M 1101.54 916.683 C 1103.06 917.7 1103.23 917.671 1104.19 919.106 L 1104.03 922.014 C 1101.87 919.924 1101.25 919.932 1099.67 917.445 L 1101.54 916.683 z" fill="rgb(175,167,148)" transform="translate(0,0)"></path>
<path d="M 1058.69 874.572 C 1059.9 875.324 1060.59 875.813 1061.73 876.66 L 1061.17 878.486 C 1059.38 877.619 1057.98 876.944 1056.54 875.602 L 1058.69 874.572 z" fill="rgb(175,167,148)" transform="translate(0,0)"></path>
<path d="M 949.09 871.69 C 951.641 873.056 953.172 873.852 955.18 875.87 L 952.886 875.986 C 951.625 875.211 950.986 874.787 949.657 874.194 L 949.09 871.69 z" fill="rgb(92,89,83)" transform="translate(0,0)"></path>
<path d="M 944.842 868.273 C 947.028 869.747 947.317 869.885 949.09 871.69 L 946.754 872.067 L 945.947 871.516 L 944.842 868.273 z" fill="rgb(92,89,83)" transform="translate(0,0)"></path>
<path d="M 1069.64 882.127 C 1070.71 882.605 1071.68 883.065 1072.73 883.571 L 1070.32 884.669 L 1069.64 882.127 z" fill="rgb(77,67,62)" transform="translate(0,0)"></path>
<path d="M 943.161 869.42 L 944.842 868.273 L 945.947 871.516 C 944.584 870.65 944.078 870.492 943.161 869.42 z" fill="rgb(175,167,148)" transform="translate(0,0)"></path>
<path d="M 946.754 872.067 L 949.09 871.69 L 949.657 874.194 C 948.062 873.236 947.837 873.26 946.754 872.067 z" fill="rgb(175,167,148)" transform="translate(0,0)"></path>
<path d="M 1654.29 1214.99 C 1652.9 1226 1652.12 1237.08 1651.96 1248.19 C 1659.11 1238.75 1665.79 1231.68 1675.92 1225.42 C 1706.01 1206.8 1719.31 1220.11 1734.94 1245.14 C 1793.88 1185.79 1825.76 1227.12 1820.99 1294.06 C 1818.6 1327.62 1822.66 1395.45 1839.34 1424.31 C 1846.04 1416.94 1851.84 1411.09 1861.62 1407.85 C 1879.55 1401.9 1896.91 1411.9 1901.49 1430.18 C 1904.59 1442.36 1902.64 1455.28 1896.08 1466 C 1868.29 1510.72 1788.91 1487.75 1770.89 1442.92 C 1756.27 1406.54 1757.91 1400.12 1760.35 1361.94 C 1761.24 1347.31 1761.8 1332.67 1762.02 1318.01 C 1762.19 1307.19 1763.64 1277.86 1752.24 1270.65 C 1749.24 1268.75 1743.93 1270.71 1740.79 1271.96 C 1731.18 1294.37 1736.14 1352.51 1745.87 1375.32 C 1747.89 1380.06 1751.38 1386.63 1753.94 1391.3 C 1726.99 1392.85 1693.56 1391.32 1666.3 1391.11 C 1638.23 1390.89 1609.26 1391.59 1581.35 1391.01 L 1581.86 1387.94 C 1581.72 1386.64 1581.72 1386.66 1581.4 1385.37 C 1585.51 1375.89 1590.13 1363.97 1591.48 1353.73 C 1595.45 1323.49 1600.56 1274.83 1582.53 1248.99 C 1608.35 1238.08 1629.63 1226.01 1654.29 1214.99 z" fill="rgb(245,168,23)" transform="translate(0,0)"></path>
<path d="M 1666.26 1384.87 C 1654.01 1360.94 1652.63 1329.89 1652.51 1303.53 C 1652.44 1289.01 1649.52 1268.68 1669.04 1268.22 L 1675.57 1275.8 C 1675.46 1278.52 1679.2 1292.1 1679.07 1297.68 C 1678.35 1328.39 1674.44 1355.4 1666.26 1384.87 z" fill="rgb(255,255,255)" transform="translate(0,0)"></path>
<path d="M 1665.99 1388.71 C 1650.17 1359.01 1650.23 1319.1 1651 1286.17 C 1651.24 1275.83 1656.24 1265.49 1668.04 1266.81 L 1669.04 1268.22 C 1649.52 1268.68 1652.44 1289.01 1652.51 1303.53 C 1652.63 1329.89 1654.01 1360.94 1666.26 1384.87 C 1674.44 1355.4 1678.35 1328.39 1679.07 1297.68 C 1679.2 1292.1 1675.46 1278.52 1675.57 1275.8 C 1687.85 1281.95 1674.56 1371.9 1668.14 1384.18 C 1667.01 1386.35 1667.66 1386.82 1668.73 1388.94 C 1677.07 1390.68 1739.27 1389.9 1751.19 1389.67 C 1747.04 1382.55 1741.44 1370.76 1739.53 1362.83 C 1735.95 1348.02 1727.71 1280.72 1740.79 1271.96 C 1731.18 1294.37 1736.14 1352.51 1745.87 1375.32 C 1747.89 1380.06 1751.38 1386.63 1753.94 1391.3 C 1726.99 1392.85 1693.56 1391.32 1666.3 1391.11 C 1638.23 1390.89 1609.26 1391.59 1581.35 1391.01 L 1581.86 1387.94 C 1591.92 1391.59 1650.36 1388.89 1665.99 1388.71 z" fill="rgb(161,100,21)" transform="translate(0,0)"></path>
<path d="M 858.63 1391.88 C 878.43 1354.98 879.078 1312.27 873.054 1271.4 C 872.346 1266.59 864.974 1254.9 863.209 1248.21 C 864.95 1246.42 927.388 1218.26 933.201 1215.65 C 932.822 1225.49 931.563 1237.2 930.952 1247.29 C 945.777 1228 972.73 1205.45 997.224 1223.32 C 1021.89 1243.28 1015.97 1280.18 1016.99 1308.4 C 1017.27 1315.92 1017.01 1323.85 1017.01 1331.41 C 1021.61 1364.71 1019.03 1393.08 1037.57 1425.07 C 1042.02 1420.26 1045.09 1416.37 1050.81 1413.13 C 1058.8 1405.06 1077.83 1404.82 1086.13 1412.87 C 1090.34 1414.87 1091.64 1416.88 1093.98 1420.74 C 1098.75 1426.06 1100.29 1435.96 1100.02 1442.91 C 1098.64 1477.91 1067.81 1492.91 1036.54 1490.29 C 1024.2 1489.26 1000.62 1483.42 992.798 1473.03 C 968.774 1458.95 954.097 1412.65 955.488 1386.57 C 956.785 1362.23 958.719 1337.5 959.113 1313.06 C 959.328 1299.7 956.6 1287.38 954.391 1274.3 C 944.327 1265.89 935.363 1272.91 933.92 1283.56 C 930.41 1309.45 932.478 1341.34 937.876 1366.78 C 939.365 1373.79 946.501 1385.53 949.862 1391.02 C 923.545 1393.16 885.957 1391.98 858.63 1391.88 z" fill="rgb(217,91,45)" transform="translate(0,0)"></path>
<path d="M 954.391 1274.3 C 957.779 1276.88 959.199 1287.73 959.752 1292.1 C 966.681 1346.84 943.449 1396.92 972.7 1447.82 C 979.312 1459.32 987.606 1464.76 992.798 1473.03 C 968.774 1458.95 954.097 1412.65 955.488 1386.57 C 956.785 1362.23 958.719 1337.5 959.113 1313.06 C 959.328 1299.7 956.6 1287.38 954.391 1274.3 z" fill="rgb(150,51,25)" transform="translate(0,0)"></path>
<path d="M 1015.11 1315.98 C 1015.57 1320.23 1016.14 1327.46 1017.01 1331.41 C 1021.61 1364.71 1019.03 1393.08 1037.57 1425.07 C 1042.02 1420.26 1045.09 1416.37 1050.81 1413.13 C 1045.47 1420.28 1042.55 1420.69 1038.23 1429.34 C 1020.84 1399.17 1013.75 1350.68 1015.11 1315.98 z" fill="rgb(122,52,30)" transform="translate(0,0)"></path>
<path d="M 997.224 1223.32 C 1021.89 1243.28 1015.97 1280.18 1016.99 1308.4 C 1017.27 1315.92 1017.01 1323.85 1017.01 1331.41 C 1016.14 1327.46 1015.57 1320.23 1015.11 1315.98 C 1014.24 1290.97 1018.13 1264.65 1009.29 1240.59 C 1006.93 1234.17 999.282 1228.79 997.224 1223.32 z" fill="rgb(61,28,23)" transform="translate(0,0)"></path>
<path d="M 1086.13 1412.87 C 1090.34 1414.87 1091.64 1416.88 1093.98 1420.74 C 1091.62 1419.21 1086.5 1416.86 1086.27 1414.23 L 1086.13 1412.87 z" fill="rgb(189,78,37)" transform="translate(0,0)"></path>
<path d="M 631.53 1177.15 C 629.758 1175.03 627.73 1173.18 627.223 1170.58 C 637.081 1162.07 701.877 1133.88 714.856 1130.03 C 713.954 1134.77 704.09 1197.52 705.135 1195.62 C 705.101 1213.7 703.704 1234.87 703.158 1253.26 C 703.128 1287.1 701.466 1323.28 706.455 1356.53 C 708.041 1367.1 721.543 1389.61 721.082 1392.78 L 720.252 1393.19 C 696.425 1393.25 660.246 1395.2 637.83 1393.45 C 637.092 1388.76 639.567 1378.96 640.742 1374.11 L 637.16 1372.86 L 636.011 1373.2 C 626.394 1393.15 588.516 1404.88 572.857 1387.14 C 570.089 1385.75 566.575 1383.15 565.643 1380.09 C 560.864 1375.4 556.217 1366.62 553.944 1360.23 C 534.85 1306.55 554.749 1240.1 610.997 1219.67 C 617.348 1216.54 633.961 1211.1 639.444 1217.89 C 641.148 1220.19 642.837 1222.32 644.232 1224.83 C 644.821 1225.15 645.132 1225.56 645.718 1225.18 C 646.07 1223.88 643.229 1211.15 642.73 1209.02 L 641.771 1205.02 C 640.327 1199.2 639.315 1194.58 637.026 1188.99 C 635.517 1185.31 632.397 1180.41 631.53 1177.15 z" fill="rgb(217,91,45)" transform="translate(0,0)"></path>
<path d="M 631.53 1177.15 C 629.758 1175.03 627.73 1173.18 627.223 1170.58 C 637.081 1162.07 701.877 1133.88 714.856 1130.03 C 713.954 1134.77 704.09 1197.52 705.135 1195.62 C 705.101 1213.7 703.704 1234.87 703.158 1253.26 C 703.128 1287.1 701.466 1323.28 706.455 1356.53 C 708.041 1367.1 721.543 1389.61 721.082 1392.78 L 720.252 1393.19 C 706.586 1366.29 702.145 1354.63 700.99 1323.09 C 700.723 1315.82 702.501 1289.63 699.665 1285.85 L 696.8 1288.15 C 685.063 1305.41 667.631 1311.82 651.729 1324.41 C 650.2 1325.48 648.684 1326.57 647.179 1327.67 C 645.704 1327.45 645.675 1327.13 644.866 1325.89 C 650.58 1307.91 652.078 1258.54 641.464 1242.48 C 644.18 1240.72 647.167 1250.55 648.356 1252.88 C 648.154 1245.92 647.803 1239.92 647.338 1233.06 C 646.267 1230.54 643.125 1226.49 644.232 1224.83 C 644.821 1225.15 645.132 1225.56 645.718 1225.18 C 646.07 1223.88 643.229 1211.15 642.73 1209.02 L 641.771 1205.02 C 640.327 1199.2 639.315 1194.58 637.026 1188.99 C 635.517 1185.31 632.397 1180.41 631.53 1177.15 z" fill="rgb(233,220,192)" transform="translate(0,0)"></path>
<path d="M 631.53 1177.15 C 629.758 1175.03 627.73 1173.18 627.223 1170.58 C 637.081 1162.07 701.877 1133.88 714.856 1130.03 C 713.954 1134.77 704.09 1197.52 705.135 1195.62 C 705.101 1213.7 703.704 1234.87 703.158 1253.26 C 700.579 1250.58 700.674 1250.86 699.642 1247.29 C 692.077 1226.69 680.137 1214.83 661.398 1203.21 C 658.016 1201.11 648.121 1196.66 644.435 1197.72 L 642.238 1198.61 C 640.832 1194.65 635.285 1178.12 631.53 1177.15 z" fill="rgb(217,91,45)" transform="translate(0,0)"></path>
<path d="M 699.642 1247.29 C 705.581 1234.79 699.072 1209.73 705.135 1195.62 C 705.101 1213.7 703.704 1234.87 703.158 1253.26 C 700.579 1250.58 700.674 1250.86 699.642 1247.29 z" fill="rgb(189,78,37)" transform="translate(0,0)"></path>
<path d="M 644.435 1197.72 C 648.121 1196.66 658.016 1201.11 661.398 1203.21 C 680.137 1214.83 692.077 1226.69 699.642 1247.29 C 700.674 1250.86 700.579 1250.58 703.158 1253.26 C 703.128 1287.1 701.466 1323.28 706.455 1356.53 C 708.041 1367.1 721.543 1389.61 721.082 1392.78 L 720.252 1393.19 C 706.586 1366.29 702.145 1354.63 700.99 1323.09 C 700.723 1315.82 702.501 1289.63 699.665 1285.85 L 696.8 1288.15 C 709.155 1256.54 690.939 1220.53 661.999 1206.15 C 656.195 1203.27 650.235 1200.66 644.435 1197.72 z" fill="rgb(122,52,30)" transform="translate(0,0)"></path>
<path d="M 647.338 1233.06 L 648.96 1232.98 L 649.045 1233.91 L 650.59 1251 C 651.878 1264.79 650.895 1280.6 650.968 1294.5 C 651.019 1304.18 646.807 1318.66 647.179 1327.67 C 645.704 1327.45 645.675 1327.13 644.866 1325.89 C 650.58 1307.91 652.078 1258.54 641.464 1242.48 C 644.18 1240.72 647.167 1250.55 648.356 1252.88 C 648.154 1245.92 647.803 1239.92 647.338 1233.06 z" fill="rgb(77,67,62)" transform="translate(0,0)"></path>
<path d="M 631.53 1177.15 C 635.285 1178.12 640.832 1194.65 642.238 1198.61 C 645.421 1209.57 647.56 1221.67 648.96 1232.98 L 647.338 1233.06 C 646.267 1230.54 643.125 1226.49 644.232 1224.83 C 644.821 1225.15 645.132 1225.56 645.718 1225.18 C 646.07 1223.88 643.229 1211.15 642.73 1209.02 L 641.771 1205.02 C 640.327 1199.2 639.315 1194.58 637.026 1188.99 C 635.517 1185.31 632.397 1180.41 631.53 1177.15 z" fill="rgb(77,67,62)" transform="translate(0,0)"></path>
<path d="M 612.904 1246.13 C 614.879 1245.1 616.425 1243.18 618.414 1241.81 C 626.079 1236.55 630.893 1238.25 638.887 1239.43 C 639.673 1240.39 640.602 1241.62 641.464 1242.48 C 652.078 1258.54 650.58 1307.91 644.866 1325.89 C 642.338 1331.18 642.308 1331.35 637.908 1335.61 C 628.099 1340.75 621.581 1340.51 614.271 1331.33 C 613.448 1330.29 613.844 1330.56 612.676 1329.91 C 612.024 1328.32 611.362 1326.74 610.69 1325.17 C 600.065 1300.57 600.609 1269.93 612.904 1246.13 z" fill="rgb(255,255,255)" transform="translate(0,0)"></path>
<path d="M 644.389 1359.91 C 642.752 1368.84 640.575 1385.23 637.83 1393.45 C 637.092 1388.76 639.567 1378.96 640.742 1374.11 L 637.16 1372.86 L 636.011 1373.2 C 637.479 1369.17 641.733 1363.82 644.389 1359.91 z" fill="rgb(34,21,8)" transform="translate(0,0)"></path>
<path d="M 637.16 1372.86 C 640.846 1366.97 641.611 1366.94 640.742 1374.11 L 637.16 1372.86 z" fill="rgb(255,255,255)" transform="translate(0,0)"></path>
<path d="M 610.997 1219.67 C 617.348 1216.54 633.961 1211.1 639.444 1217.89 C 638.016 1218.28 626.48 1215.25 622.446 1218.02 C 621.292 1218.82 613.188 1220.89 610.997 1219.67 z" fill="rgb(189,78,37)" transform="translate(0,0)"></path>
<path d="M 612.904 1246.13 C 611.742 1237 640.784 1232.68 638.887 1239.43 C 630.893 1238.25 626.079 1236.55 618.414 1241.81 C 616.425 1243.18 614.879 1245.1 612.904 1246.13 z" fill="rgb(122,52,30)" transform="translate(0,0)"></path>
<path d="M 612.676 1329.91 C 613.844 1330.56 613.448 1330.29 614.271 1331.33 C 621.581 1340.51 628.099 1340.75 637.908 1335.61 L 639.278 1336.18 C 634.546 1339.69 633.12 1339.7 627.538 1341.78 C 622.962 1339.92 612.592 1336.08 612.676 1329.91 z" fill="rgb(122,52,30)" transform="translate(0,0)"></path>
<path d="M 651.729 1324.41 C 650.681 1327.62 642.924 1332.97 639.278 1336.18 L 637.908 1335.61 C 642.308 1331.35 642.338 1331.18 644.866 1325.89 C 645.675 1327.13 645.704 1327.45 647.179 1327.67 C 648.684 1326.57 650.2 1325.48 651.729 1324.41 z" fill="rgb(61,28,23)" transform="translate(0,0)"></path>
<path d="M 565.643 1380.09 C 568.929 1379.45 572.533 1384 572.857 1387.14 C 570.089 1385.75 566.575 1383.15 565.643 1380.09 z" fill="rgb(189,78,37)" transform="translate(0,0)"></path>
<path d="M 165.816 1158.22 C 169.844 1154.56 179.82 1150.62 188.094 1148.14 C 214.65 1140.19 249.186 1142.79 272.801 1158.5 C 272.935 1158.7 273.068 1158.89 273.202 1159.08 C 280.898 1163.35 289.958 1172.07 293.365 1180.38 L 293.807 1180.59 C 301.586 1192.86 301.408 1209.34 295.377 1222.27 C 288.409 1238.19 266.48 1249.52 249.759 1242.07 C 248.312 1241.43 245.704 1240.2 244.832 1238.85 C 240.19 1236.17 239.821 1235.84 237.139 1231.13 C 223.601 1220.31 223.655 1167.42 191.357 1168.82 C 184.452 1169.12 177.888 1171.48 173.41 1176.92 C 136.674 1221.58 159.614 1342.24 230.579 1337.73 C 259.497 1335.89 274.746 1306.82 280.579 1281.87 C 264.049 1293.79 244.576 1309 222.709 1305.97 C 213.828 1304.78 205.812 1300.04 200.509 1292.82 C 194.244 1284.32 191.626 1273.68 193.236 1263.25 C 193.848 1259.38 195.243 1254.35 197.162 1250.97 C 200.628 1243.62 205.581 1237.32 211.103 1248.07 C 232.943 1263.35 249.005 1267.07 275.922 1262.3 C 281.737 1261.26 287.5 1259.93 293.191 1258.34 C 292.889 1275.83 292.477 1293.34 291.95 1310.83 C 290.997 1342.45 292.601 1374.52 291.557 1406.1 C 282.125 1397.62 264.394 1374.81 256.536 1364.12 C 240.988 1381.6 225.176 1393.12 201.18 1394.79 C 187.679 1395.73 165.179 1390.83 155.806 1380.93 C 151.447 1378.49 136.417 1366.4 135.826 1361.98 C 131.656 1358.46 130.84 1357.24 128.092 1352.21 C 127.997 1352.14 127.902 1352.08 127.807 1352.01 C 115.444 1334.55 107.594 1307.95 105.799 1287.3 C 102.527 1249.65 111.981 1211.83 136.04 1182.75 C 140.099 1177.91 146.865 1170.36 152.612 1167.7 C 154.606 1163.67 161.826 1160.09 165.816 1158.22 z" fill="rgb(217,91,45)" transform="translate(0,0)"></path>
<path d="M 295.377 1222.27 C 295.094 1220.4 296.354 1211.39 297.006 1210.03 C 300.883 1201.96 293.058 1185.47 293.807 1180.59 C 301.586 1192.86 301.408 1209.34 295.377 1222.27 z" fill="rgb(150,51,25)" transform="translate(0,0)"></path>
<path d="M 135.826 1361.98 C 138.802 1361.5 137.706 1361.71 139.527 1364.26 C 144.066 1370.62 150.557 1372.98 154.826 1379.47 L 155.806 1380.93 C 151.447 1378.49 136.417 1366.4 135.826 1361.98 z" fill="rgb(189,78,37)" transform="translate(0,0)"></path>
<path d="M 273.202 1159.08 C 280.898 1163.35 289.958 1172.07 293.365 1180.38 C 293.006 1180.11 274.28 1160.7 274.18 1160.54 L 273.202 1159.08 z" fill="rgb(189,78,37)" transform="translate(0,0)"></path>
<path d="M 136.04 1182.75 C 140.099 1177.91 146.865 1170.36 152.612 1167.7 C 150.731 1171.8 139.653 1182.39 136.04 1182.75 z" fill="rgb(189,78,37)" transform="translate(0,0)"></path>
<path d="M 197.162 1250.97 C 200.628 1243.62 205.581 1237.32 211.103 1248.07 C 203.765 1250.03 213.057 1239.15 197.162 1250.97 z" fill="rgb(189,78,37)" transform="translate(0,0)"></path>
<path d="M 152.612 1167.7 C 154.606 1163.67 161.826 1160.09 165.816 1158.22 C 163.6 1161.58 156.39 1167.63 152.612 1167.7 z" fill="rgb(189,78,37)" transform="translate(0,0)"></path>
<path d="M 128.092 1352.21 C 133.45 1355.77 134.824 1356.01 135.826 1361.98 C 131.656 1358.46 130.84 1357.24 128.092 1352.21 z" fill="rgb(189,78,37)" transform="translate(0,0)"></path>
<path d="M 237.139 1231.13 L 238.805 1231.71 C 242.519 1232.93 243.413 1234.84 244.642 1238.3 L 244.832 1238.85 C 240.19 1236.17 239.821 1235.84 237.139 1231.13 z" fill="rgb(189,78,37)" transform="translate(0,0)"></path>
<path d="M 1903.7 1135.59 C 1906.68 1134.24 1909.38 1132.49 1912.44 1132.94 C 1913.13 1135.43 1908.37 1162.78 1907.71 1168.63 C 1904.93 1193.45 1903.72 1218.42 1904.08 1243.39 C 1907.66 1239.87 1910.59 1236.62 1914.83 1233.92 C 1918.27 1228.25 1928.03 1223.03 1934.02 1220.62 C 1945.39 1214.99 1961.23 1217.35 1970.12 1226.65 C 1973.7 1228.67 1979.38 1236.27 1980.64 1239.9 C 1998.01 1263.57 1997.68 1319.16 1982.8 1344.12 C 1976.45 1360.83 1952.3 1386.35 1934.27 1389.37 C 1913.71 1398.13 1858.95 1390.33 1834.93 1391.83 C 1832.53 1391.98 1833.29 1388.74 1833.7 1387.43 C 1855.35 1336.9 1848.35 1260.08 1842.95 1205.52 C 1841.68 1192.69 1838.47 1181.17 1829.28 1171.72 C 1849.44 1160.69 1882.85 1144.53 1903.7 1135.59 z" fill="rgb(245,168,23)" transform="translate(0,0)"></path>
<path d="M 1903.7 1135.59 C 1906.68 1134.24 1909.38 1132.49 1912.44 1132.94 C 1913.13 1135.43 1908.37 1162.78 1907.71 1168.63 C 1904.93 1193.45 1903.72 1218.42 1904.08 1243.39 C 1907.66 1239.87 1910.59 1236.62 1914.83 1233.92 C 1911.97 1238.58 1905.8 1244.22 1901.74 1248.25 C 1901.72 1222.78 1903.02 1197.33 1905.64 1171.99 C 1906.26 1165.92 1910.44 1138.54 1910.46 1135.63 L 1903.7 1135.59 z" fill="rgb(188,126,36)" transform="translate(0,0)"></path>
<path d="M 1833.7 1387.43 C 1833.46 1387.13 1835.02 1388.95 1834.95 1388.95 C 1863.66 1391 1894.64 1391.95 1923.48 1390.51 C 1927.94 1390.29 1929.23 1388.25 1934.27 1389.37 C 1913.71 1398.13 1858.95 1390.33 1834.93 1391.83 C 1832.53 1391.98 1833.29 1388.74 1833.7 1387.43 z" fill="rgb(209,146,54)" transform="translate(0,0)"></path>
<path d="M 1980.64 1239.9 C 1998.01 1263.57 1997.68 1319.16 1982.8 1344.12 C 1983.25 1339.36 1989.31 1321.07 1990.54 1314.28 C 1996.12 1283.52 1988.41 1266.69 1980.64 1239.9 z" fill="rgb(188,126,36)" transform="translate(0,0)"></path>
<path d="M 1934.02 1220.62 C 1945.39 1214.99 1961.23 1217.35 1970.12 1226.65 C 1967.95 1225.97 1966.06 1225.3 1964.15 1223.84 C 1957.06 1218.4 1946.61 1219.97 1938.34 1220.76 C 1936.29 1220.95 1936.76 1222.34 1934.02 1220.62 z" fill="rgb(188,126,36)" transform="translate(0,0)"></path>
<path d="M 1904.95 1271.24 C 1909.73 1270.92 1916.04 1269.82 1920.21 1272.75 C 1931.81 1280.9 1936.65 1300.36 1938.86 1313.51 C 1941.74 1330.57 1941.78 1345.58 1934.87 1361.51 C 1933.29 1363.13 1931.72 1365.16 1929.51 1365.84 C 1927.17 1366.55 1924.63 1366.23 1922.54 1364.96 C 1903.21 1353.16 1903.24 1291.91 1904.95 1271.24 z" fill="rgb(255,255,255)" transform="translate(0,0)"></path>
<path d="M 1150.87 1386.74 C 1136.01 1381.26 1116.99 1361.72 1108.7 1348.24 C 1088.59 1315.57 1082.16 1274.22 1090.67 1236.99 C 1097.57 1206.38 1114.09 1176.33 1141.36 1159.59 C 1179.51 1137.86 1214.42 1133.54 1252.46 1158.55 C 1289.19 1182.69 1293.72 1247.65 1238.12 1243.19 C 1212.45 1241.13 1200.94 1203.57 1188.53 1186.01 C 1180.46 1174.58 1166.73 1162.67 1151.84 1172.61 C 1137.86 1180.88 1135.32 1198.08 1135.47 1213.19 C 1135.75 1242.12 1142.74 1269.3 1158.69 1293.45 C 1185.97 1334.75 1236.32 1345.42 1277.11 1317.03 C 1273.95 1339.65 1258.48 1371.99 1237.08 1382.59 C 1216.68 1399.2 1173.26 1399.84 1150.87 1386.74 z" fill="rgb(245,168,23)" transform="translate(0,0)"></path>
<path d="M 1150.87 1386.74 C 1160.04 1388.22 1167.13 1391.65 1176.97 1392.97 C 1192.06 1394.99 1206.62 1394.09 1221.06 1388.92 C 1226.66 1386.91 1231.63 1383.94 1237.08 1382.59 C 1216.68 1399.2 1173.26 1399.84 1150.87 1386.74 z" fill="rgb(188,126,36)" transform="translate(0,0)"></path>
<path d="M 347.826 1227.79 C 362.414 1217.83 380.3 1213.92 397.715 1216.88 C 418.165 1220.35 436.332 1231.97 448.06 1249.07 C 471.006 1282.32 472.595 1342.78 441.27 1371 C 438.908 1375.37 432.376 1379.6 428.41 1382.58 C 407.488 1398.29 379.076 1399.32 355.46 1388.83 C 336.692 1380.56 322.003 1365.14 314.657 1345.99 C 304.083 1325.47 303.8 1289.78 313.694 1269 C 319.322 1253.05 331.801 1234.65 347.826 1227.79 z" fill="rgb(217,91,45)" transform="translate(0,0)"></path>
<path d="M 347.826 1227.79 C 362.414 1217.83 380.3 1213.92 397.715 1216.88 C 418.165 1220.35 436.332 1231.97 448.06 1249.07 C 471.006 1282.32 472.595 1342.78 441.27 1371 C 441.738 1369.69 450.664 1355.44 452.222 1352.8 C 464.157 1332.03 464.728 1308.36 461.23 1285.1 C 454.656 1241.4 409.133 1205.44 365.329 1221.43 C 360.553 1223.17 352.506 1227.07 347.826 1227.79 z" fill="rgb(122,52,30)" transform="translate(0,0)"></path>
<path d="M 313.694 1269 C 315.426 1271.92 309.996 1283.53 309.681 1288.52 C 308.822 1302.15 307.22 1316.18 310.996 1329.56 C 312.039 1333.52 316.281 1343.34 314.657 1345.99 C 304.083 1325.47 303.8 1289.78 313.694 1269 z" fill="rgb(189,78,37)" transform="translate(0,0)"></path>
<path d="M 369.004 1243.92 C 377.899 1244.25 381.237 1247.47 386.777 1254.48 C 401.429 1273.05 424.881 1350.51 402.44 1366.74 C 379.038 1367.35 363.436 1305.75 361.847 1288.1 C 360.517 1273.32 356.699 1254.68 369.004 1243.92 z" fill="rgb(255,255,255)" transform="translate(0,0)"></path>
<path d="M 1499.98 1247.22 C 1518.02 1236.78 1550.57 1223.03 1570.38 1213.13 C 1566.49 1252.36 1559.48 1334.46 1573.14 1369.52 L 1574.11 1372.05 C 1577.14 1377 1578.83 1380.19 1581.4 1385.37 C 1581.72 1386.66 1581.72 1386.64 1581.86 1387.94 L 1581.35 1391.01 C 1573.33 1390.94 1511.4 1395.61 1510.79 1395.29 C 1508.16 1390.96 1508.02 1370.92 1507.96 1365.41 C 1504.15 1371.11 1501.33 1376.41 1496.34 1381.02 C 1493.63 1385.79 1486.73 1389.56 1481.85 1391.58 C 1454 1403.16 1434.45 1391.65 1426.97 1363.23 C 1417.94 1328.88 1429.69 1295.48 1416.42 1262.09 C 1416.54 1259.38 1413.36 1255.74 1411.6 1253.25 C 1432.97 1242.84 1454.24 1232.23 1475.41 1221.43 L 1474.04 1220.66 L 1486.43 1214.43 C 1484.82 1227.78 1469.51 1342.07 1493.71 1346.71 C 1512.76 1350.37 1508.13 1280.34 1506.02 1271.69 C 1505.46 1260.92 1493.7 1253.71 1495.06 1249.84 L 1499.98 1247.22 z" fill="rgb(245,168,23)" transform="translate(0,0)"></path>
<path d="M 1474.04 1220.66 L 1486.43 1214.43 C 1484.82 1227.78 1469.51 1342.07 1493.71 1346.71 C 1512.76 1350.37 1508.13 1280.34 1506.02 1271.69 C 1505.46 1260.92 1493.7 1253.71 1495.06 1249.84 L 1499.98 1247.22 C 1498.65 1248.59 1498.09 1249.19 1496.85 1250.7 C 1506.42 1262.98 1510.33 1272.62 1509.62 1288.38 C 1508.69 1308.96 1515.77 1338 1494.59 1348.99 C 1465.19 1349.06 1484.4 1235.84 1484.23 1218.71 C 1481.41 1217.92 1478.69 1219.94 1475.41 1221.43 L 1474.04 1220.66 z" fill="rgb(161,100,21)" transform="translate(0,0)"></path>
<path d="M 1496.34 1381.02 C 1500.28 1372.5 1504.06 1369.49 1509.41 1356.97 L 1508.78 1366.5 C 1508.59 1369.6 1509.08 1390.12 1511.66 1393.57 C 1513.9 1394.83 1519.7 1394.25 1521.5 1394.02 C 1541.5 1391.48 1561.54 1390.35 1581.67 1388.64 C 1580.08 1385.88 1572.87 1374.47 1574.11 1372.05 C 1577.14 1377 1578.83 1380.19 1581.4 1385.37 C 1581.72 1386.66 1581.72 1386.64 1581.86 1387.94 L 1581.35 1391.01 C 1573.33 1390.94 1511.4 1395.61 1510.79 1395.29 C 1508.16 1390.96 1508.02 1370.92 1507.96 1365.41 C 1504.15 1371.11 1501.33 1376.41 1496.34 1381.02 z" fill="rgb(34,21,8)" transform="translate(0,0)"></path>
<path d="M 743.13 1237.63 C 758.472 1223.38 778.82 1215.77 799.747 1216.45 C 815.553 1216.98 831.589 1222.63 842.613 1234.31 C 850.771 1242.92 855.153 1254.43 854.788 1266.29 C 854.324 1279.44 848.681 1291 838.881 1299.64 C 816.461 1319.4 788.902 1316.84 761.275 1314.93 C 767.839 1321.52 776.093 1327.51 780.998 1332.52 C 783.232 1333.08 783.937 1333.75 786.004 1334.88 C 803.999 1344.73 812.68 1341.45 829.271 1334.44 C 835.196 1327.58 836.968 1322.92 840.732 1314.73 L 847.384 1323.88 C 860.145 1339.14 859.497 1360.82 844.23 1373.98 C 839.994 1380.2 830.189 1386.17 823.192 1388.78 C 815.724 1392.18 806.631 1394.14 798.428 1394.63 C 777.785 1395.85 757.502 1388.82 742.04 1375.09 C 724.841 1359.74 714.839 1336.07 714.353 1313.33 C 713.705 1283.03 718.099 1264.94 738.356 1242.86 C 739.969 1241.14 741.561 1239.39 743.13 1237.63 z" fill="rgb(217,91,45)" transform="translate(0,0)"></path>
<path d="M 743.13 1237.63 C 746.767 1239.29 747.203 1238.16 751.679 1236.78 L 751.993 1237.52 C 759.51 1236.13 756.278 1238.97 757.593 1247.11 C 760.04 1262.27 765.422 1272.48 773.638 1285.07 C 774.112 1285.94 773.882 1285.46 774.3 1286.53 C 776.373 1288.42 776.336 1288.52 778.82 1289.67 C 781.671 1292 784.105 1294.57 786.782 1297.11 L 787.129 1297.55 L 788.821 1298.68 C 795.288 1303.02 802.555 1308.82 810.291 1303.76 C 811.99 1310.4 772.326 1308.98 768.509 1309.36 C 766.574 1308.92 764.635 1308.49 762.693 1308.07 C 752.76 1308.2 727.435 1309.16 716.689 1307.75 C 716.287 1307.69 716.059 1306.04 716.037 1305.5 L 715.873 1301.06 C 715.983 1299.04 715.826 1298.87 716.722 1297.26 C 718.208 1273.23 723.883 1261.42 740.138 1244.15 L 738.356 1242.86 C 739.969 1241.14 741.561 1239.39 743.13 1237.63 z" fill="rgb(233,220,192)" transform="translate(0,0)"></path>
<path d="M 787.129 1297.55 L 788.821 1298.68 C 795.288 1303.02 802.555 1308.82 810.291 1303.76 C 811.99 1310.4 772.326 1308.98 768.509 1309.36 C 766.574 1308.92 764.635 1308.49 762.693 1308.07 C 773.575 1308 787.27 1307.02 798.64 1306.64 C 794.212 1304.06 791.336 1302.37 787.06 1299.54 L 787.129 1297.55 z" fill="rgb(61,28,23)" transform="translate(0,0)"></path>
<path d="M 743.13 1237.63 C 746.767 1239.29 747.203 1238.16 751.679 1236.78 L 751.993 1237.52 C 747.313 1240.06 744.668 1240.72 740.138 1244.15 L 738.356 1242.86 C 739.969 1241.14 741.561 1239.39 743.13 1237.63 z" fill="rgb(122,52,30)" transform="translate(0,0)"></path>
<path d="M 778.82 1289.67 C 781.671 1292 784.105 1294.57 786.782 1297.11 L 783.891 1297.01 C 782.146 1294.98 780.993 1293.84 779.026 1292.06 L 778.82 1289.67 z" fill="rgb(37,39,32)" transform="translate(0,0)"></path>
<path d="M 715.873 1301.06 C 715.983 1299.04 715.826 1298.87 716.722 1297.26 C 716.989 1299.51 717.103 1299.32 715.873 1301.06 z" fill="rgb(152,141,127)" transform="translate(0,0)"></path>
<path d="M 786.782 1297.11 L 787.129 1297.55 L 787.06 1299.54 C 785.435 1298.56 785.387 1298.42 783.891 1297.01 L 786.782 1297.11 z" fill="rgb(152,141,127)" transform="translate(0,0)"></path>
<path d="M 774.3 1286.53 C 776.373 1288.42 776.336 1288.52 778.82 1289.67 L 779.026 1292.06 C 776.742 1289.77 776.197 1289.15 774.3 1286.53 z" fill="rgb(152,141,127)" transform="translate(0,0)"></path>
<path d="M 751.679 1236.78 L 753.291 1236.34 C 756.353 1235.47 778.916 1231.49 778.42 1236.96 C 781.324 1238.31 786.422 1241.81 788.799 1242.41 L 800.639 1254.11 C 801.165 1256.01 803.118 1258.69 804.208 1260.39 C 813.083 1274.27 812.781 1288.21 810.291 1303.76 C 802.555 1308.82 795.288 1303.02 788.821 1298.68 L 787.129 1297.55 L 786.782 1297.11 C 784.105 1294.57 781.671 1292 778.82 1289.67 C 776.336 1288.52 776.373 1288.42 774.3 1286.53 C 773.882 1285.46 774.112 1285.94 773.638 1285.07 C 765.422 1272.48 760.04 1262.27 757.593 1247.11 C 756.278 1238.97 759.51 1236.13 751.993 1237.52 L 751.679 1236.78 z" fill="rgb(255,255,255)" transform="translate(0,0)"></path>
<path d="M 751.679 1236.78 L 753.291 1236.34 C 756.353 1235.47 778.916 1231.49 778.42 1236.96 C 773.654 1236.1 760.654 1234.83 759.956 1236.51 C 755.679 1246.78 766.646 1271.99 772.95 1280.67 C 777.178 1286.49 777.631 1286.79 778.82 1289.67 C 776.336 1288.52 776.373 1288.42 774.3 1286.53 C 773.882 1285.46 774.112 1285.94 773.638 1285.07 C 765.422 1272.48 760.04 1262.27 757.593 1247.11 C 756.278 1238.97 759.51 1236.13 751.993 1237.52 L 751.679 1236.78 z" fill="rgb(77,67,62)" transform="translate(0,0)"></path>
<path d="M 823.192 1388.78 C 815.724 1392.18 806.631 1394.14 798.428 1394.63 C 777.785 1395.85 757.502 1388.82 742.04 1375.09 C 724.841 1359.74 714.839 1336.07 714.353 1313.33 C 713.705 1283.03 718.099 1264.94 738.356 1242.86 L 740.138 1244.15 C 723.883 1261.42 718.208 1273.23 716.722 1297.26 C 715.826 1298.87 715.983 1299.04 715.873 1301.06 L 716.037 1305.5 C 716.059 1306.04 716.287 1307.69 716.689 1307.75 C 727.435 1309.16 752.76 1308.2 762.693 1308.07 C 764.635 1308.49 766.574 1308.92 768.509 1309.36 C 761.328 1309.83 719.06 1308.86 716.156 1311.1 L 715.584 1313.75 L 716.175 1315.36 C 716.829 1317 716.895 1317.88 716.638 1319.64 C 720.294 1362.49 756.027 1396.54 799.968 1392.92 C 807.977 1392.26 815.58 1389.64 823.192 1388.78 z" fill="rgb(77,67,62)" transform="translate(0,0)"></path>
<path d="M 715.584 1313.75 L 716.175 1315.36 C 716.829 1317 716.895 1317.88 716.638 1319.64 C 715.516 1318.11 715.667 1316.94 715.65 1315.11 L 715.584 1313.75 z" fill="rgb(189,78,37)" transform="translate(0,0)"></path>
<path d="M 844.23 1373.98 C 847.407 1366.32 851.622 1363.9 853.631 1354.5 C 855.566 1345.38 853.703 1335.87 848.471 1328.16 C 846.998 1326 846.182 1325.75 847.384 1323.88 C 860.145 1339.14 859.497 1360.82 844.23 1373.98 z" fill="rgb(150,51,25)" transform="translate(0,0)"></path>
<path d="M 780.998 1332.52 C 783.232 1333.08 783.937 1333.75 786.004 1334.88 C 803.999 1344.73 812.68 1341.45 829.271 1334.44 C 829.411 1335.1 829.472 1334.91 829.323 1335.53 C 825.133 1340.11 814.496 1342.54 808.5 1343.07 C 802.72 1343.59 782.684 1338.29 780.998 1332.52 z" fill="rgb(122,52,30)" transform="translate(0,0)"></path>
<path d="M 788.799 1242.41 C 797.266 1245.25 798.241 1246.49 800.639 1254.11 L 788.799 1242.41 z" fill="rgb(189,78,37)" transform="translate(0,0)"></path>
<path d="M 1009.43 401.519 C 1063.95 408.039 1140.79 443.195 1166.09 494.675 C 1156.62 488.607 1145.5 479.541 1136.24 474.053 C 1112.63 460.06 1079.68 450.884 1052.7 446.268 C 1076.6 462.081 1110.93 501.543 1117.88 529.525 C 1115.82 529.308 1115.07 526.869 1113.24 524.297 C 1106.21 514.328 1097.82 505.383 1088.33 497.716 C 1075.59 487.423 1066.23 483.389 1052.28 476.227 C 998.375 448.563 948.424 449.434 889.934 455.359 C 904.231 465.978 918.023 474.574 932.248 484.728 C 939.905 490.194 947.896 500.815 957.47 507.778 C 970.311 521.19 1021.76 554.216 1039.61 565.408 C 1043.65 567.939 1069.71 579.229 1076.34 582.419 C 1058.32 584.388 1050.36 582.991 1032.93 580.546 C 973.423 572.195 942.848 526.711 898.844 492.29 C 867.899 468.084 840.55 454.823 803.363 441.374 C 891.539 416.683 961.131 405.822 1048.77 443.524 C 1035.91 430.262 1018.67 417.123 1009.43 401.519 z" fill="rgb(233,220,192)" transform="translate(0,0)"></path>
<path d="M 518.792 1139.86 C 528.154 1135.89 535.246 1133.22 544.9 1130.03 C 534.624 1177.13 534.071 1211.05 533.749 1259.07 C 533.98 1276 534.043 1292.92 533.94 1309.85 C 533.885 1344.57 532.395 1362.19 550.879 1393.09 C 538.893 1394.51 520.569 1394.12 508.064 1394.04 C 493.365 1393.94 476.444 1394.38 461.896 1393.79 C 463.488 1385.76 465.399 1377.8 467.626 1369.93 C 478.956 1313.22 480.089 1245.69 466.624 1188.88 C 465.049 1182.23 459.157 1177.13 456.339 1170.74 C 458.153 1168.35 461.013 1167.59 463.895 1166.37 C 468.042 1162.32 511.056 1143.13 518.792 1139.86 z" fill="rgb(217,91,45)" transform="translate(0,0)"></path>
<path d="M 467.626 1369.93 C 478.956 1313.22 480.089 1245.69 466.624 1188.88 C 465.049 1182.23 459.157 1177.13 456.339 1170.74 C 458.153 1168.35 461.013 1167.59 463.895 1166.37 L 458.601 1171.27 L 462.725 1177.23 C 468.143 1184.91 469.823 1195.39 472.861 1204.45 C 523.783 1219.81 543.758 1268.87 517.103 1314.86 C 515.516 1326.15 483.722 1340.61 473.896 1344.79 C 473.012 1350.16 470.904 1366.64 468.006 1369.81 L 467.626 1369.93 z" fill="rgb(233,220,192)" transform="translate(0,0)"></path>
<path d="M 467.626 1369.93 C 478.956 1313.22 480.089 1245.69 466.624 1188.88 C 465.049 1182.23 459.157 1177.13 456.339 1170.74 C 458.153 1168.35 461.013 1167.59 463.895 1166.37 L 458.601 1171.27 L 462.725 1177.23 C 468.143 1184.91 469.823 1195.39 472.861 1204.45 C 475.228 1219.3 477.242 1239.45 477.058 1254.4 C 477.943 1257.8 478.176 1258.34 477.697 1261.78 C 478.049 1275.26 478.048 1288.74 477.693 1302.21 C 476.73 1304.14 476.966 1304.45 477.206 1306.77 C 476.929 1319.25 476.537 1330.57 474.466 1342.99 C 485.668 1338.08 495.951 1333.33 505.729 1325.71 C 507.683 1324.19 516.418 1315.24 517.103 1314.86 C 515.516 1326.15 483.722 1340.61 473.896 1344.79 C 473.012 1350.16 470.904 1366.64 468.006 1369.81 L 467.626 1369.93 z" fill="rgb(92,89,83)" transform="translate(0,0)"></path>
<path d="M 477.058 1254.4 C 477.943 1257.8 478.176 1258.34 477.697 1261.78 C 476.447 1259.36 476.925 1257.16 477.058 1254.4 z" fill="rgb(175,167,148)" transform="translate(0,0)"></path>
<path d="M 477.206 1306.77 C 476.966 1304.45 476.73 1304.14 477.693 1302.21 C 478.004 1304.46 478.296 1304.89 477.206 1306.77 z" fill="rgb(175,167,148)" transform="translate(0,0)"></path>
<path d="M 518.792 1139.86 C 528.154 1135.89 535.246 1133.22 544.9 1130.03 C 534.624 1177.13 534.071 1211.05 533.749 1259.07 C 528.47 1232.64 535.774 1160.16 542.527 1132.43 C 536.913 1134.65 524.255 1140.36 518.792 1139.86 z" fill="rgb(150,51,25)" transform="translate(0,0)"></path>
<path d="M 759.28 728.825 C 762.616 727.817 761.796 726.334 764.123 726.005 C 765.365 726.716 761.259 732.241 760.822 733.006 C 757.383 739.03 754.978 743.363 753.628 750.175 L 753.269 751.589 C 751.641 757.783 747.891 765.699 745.589 771.915 C 724.488 828.908 731.353 902.238 760.962 954.756 C 768.548 967.944 776.966 980.637 786.164 992.757 C 788.304 995.564 798.777 1008.32 799.272 1009.89 C 804.04 1014.13 818.861 1028.98 823.081 1033.74 C 831.723 1039.54 840.259 1046.62 848.622 1052.79 C 904.649 1094.11 975.081 1102.74 1042.13 1089.67 C 1077.67 1082.75 1104.33 1070.06 1134.87 1050.56 L 1138.77 1047.72 C 1141.11 1046.04 1146.71 1041.03 1149.02 1040.88 C 1151.68 1037.57 1152.12 1036.45 1156.01 1035.31 C 1158.3 1031.48 1162.3 1026.69 1166.94 1029.86 C 1171.48 1031.45 1172.61 1032 1176.73 1034.5 C 1155.08 1062.11 1123.99 1085.22 1092.13 1101.15 C 1022.54 1135.96 936.49 1129.87 868.935 1092.91 C 866.609 1091.64 855.934 1085.69 854.87 1083.79 C 851.559 1082.23 845.453 1079.29 843.303 1076.34 C 838.001 1074.06 830.79 1068.68 826.993 1064.18 C 824.375 1063.95 823.607 1062.16 821.992 1060.15 C 819.3 1059.98 817.758 1057.51 815.77 1055.41 C 813.492 1054.65 811.259 1051.86 809.8 1050.09 C 803.081 1045.49 791.998 1033.82 786.841 1027.3 C 783.66 1024.93 773.368 1012.67 771.581 1009.11 C 768.149 1005.62 765.389 1001.48 763.094 997.164 C 760.029 994.491 753.764 983.729 751.528 979.837 C 733.5 948.455 724.787 920.687 718.445 885.226 C 716.125 864.479 714.843 822.504 722.818 803.014 C 730.306 776.252 742.667 751.102 759.28 728.825 z" fill="rgb(209,146,54)" transform="translate(0,0)"></path>
<path d="M 722.818 803.014 C 724.9 805.099 721.792 813.479 721.242 816.971 C 720.143 823.954 718.862 830.272 719.193 837.499 C 715.714 851.607 722.014 872.775 718.445 885.226 C 716.125 864.479 714.843 822.504 722.818 803.014 z" fill="rgb(188,126,36)" transform="translate(0,0)"></path>
<path d="M 799.272 1009.89 C 804.04 1014.13 818.861 1028.98 823.081 1033.74 C 814.952 1030.96 802.032 1018.06 799.272 1009.89 z" fill="rgb(188,126,36)" transform="translate(0,0)"></path>
<path d="M 786.841 1027.3 L 789.491 1028.29 C 794.521 1030.13 806.808 1045.24 809.8 1050.09 C 803.081 1045.49 791.998 1033.82 786.841 1027.3 z" fill="rgb(188,126,36)" transform="translate(0,0)"></path>
<path d="M 826.993 1064.18 C 832.957 1065.81 840.148 1071.05 843.303 1076.34 C 838.001 1074.06 830.79 1068.68 826.993 1064.18 z" fill="rgb(188,126,36)" transform="translate(0,0)"></path>
<path d="M 1134.87 1050.56 L 1138.77 1047.72 C 1141.11 1046.04 1146.71 1041.03 1149.02 1040.88 C 1147.97 1045.53 1139.96 1050.44 1134.87 1050.56 z" fill="rgb(188,126,36)" transform="translate(0,0)"></path>
<path d="M 1156.01 1035.31 C 1158.3 1031.48 1162.3 1026.69 1166.94 1029.86 C 1166.33 1030.26 1163.55 1031.15 1164.47 1030.47 C 1160.92 1033.07 1160.22 1033.94 1156.01 1035.31 z" fill="rgb(188,126,36)" transform="translate(0,0)"></path>
<path d="M 843.303 1076.34 C 849.026 1076.76 851.264 1079.25 854.87 1083.79 C 851.559 1082.23 845.453 1079.29 843.303 1076.34 z" fill="rgb(188,126,36)" transform="translate(0,0)"></path>
<path d="M 763.094 997.164 C 768.784 1000.9 769.53 1002.19 771.581 1009.11 C 768.149 1005.62 765.389 1001.48 763.094 997.164 z" fill="rgb(188,126,36)" transform="translate(0,0)"></path>
<path d="M 1149.02 1040.88 C 1151.68 1037.57 1152.12 1036.45 1156.01 1035.31 C 1155.04 1039.25 1154.03 1039.7 1150.26 1040.58 L 1149.02 1040.88 z" fill="rgb(188,126,36)" transform="translate(0,0)"></path>
<path d="M 815.77 1055.41 C 819.282 1056.46 822.984 1056.25 821.992 1060.15 C 819.3 1059.98 817.758 1057.51 815.77 1055.41 z" fill="rgb(188,126,36)" transform="translate(0,0)"></path>
<path d="M 821.992 1060.15 C 825.437 1061.17 827.899 1060.52 826.993 1064.18 C 824.375 1063.95 823.607 1062.16 821.992 1060.15 z" fill="rgb(188,126,36)" transform="translate(0,0)"></path>
<path d="M 1272.85 1248.48 C 1292.91 1240.78 1324.84 1224.02 1344.81 1214.05 C 1344.66 1224.95 1344.11 1236.85 1343.54 1247.73 C 1349.37 1240.78 1355.23 1229.09 1364.88 1225.07 C 1370.28 1219.15 1381.51 1217.75 1389.1 1216.44 C 1406.69 1222.73 1410.81 1234.38 1411.29 1251.71 L 1474.04 1220.66 L 1475.41 1221.43 C 1454.24 1232.23 1432.97 1242.84 1411.6 1253.25 C 1413.36 1255.74 1416.54 1259.38 1416.42 1262.09 C 1413.81 1259.66 1412.77 1257.8 1410.82 1254.88 C 1408.56 1261.41 1406.68 1267.62 1402.03 1272.92 C 1381.31 1302.01 1363.75 1272.17 1345.44 1275.69 C 1344.51 1283.65 1345.04 1294.48 1345.04 1302.52 C 1345.07 1323.61 1345.79 1346.87 1353.8 1366.59 C 1354.41 1368.09 1354.5 1368.31 1354.6 1369.84 C 1358.62 1376.89 1362.57 1383.97 1366.45 1391.09 C 1337.38 1391.9 1298.74 1391.88 1269.54 1391.09 C 1273.47 1384.88 1276.9 1379.4 1280.42 1372.95 C 1289.48 1341.26 1298.97 1274.42 1272.85 1248.48 z" fill="rgb(245,168,23)" transform="translate(0,0)"></path>
<path d="M 1272.85 1248.48 C 1292.91 1240.78 1324.84 1224.02 1344.81 1214.05 C 1344.66 1224.95 1344.11 1236.85 1343.54 1247.73 C 1349.37 1240.78 1355.23 1229.09 1364.88 1225.07 C 1370.28 1219.15 1381.51 1217.75 1389.1 1216.44 C 1406.69 1222.73 1410.81 1234.38 1411.29 1251.71 L 1474.04 1220.66 L 1475.41 1221.43 C 1454.24 1232.23 1432.97 1242.84 1411.6 1253.25 C 1413.36 1255.74 1416.54 1259.38 1416.42 1262.09 C 1413.81 1259.66 1412.77 1257.8 1410.82 1254.88 C 1408.56 1261.41 1406.68 1267.62 1402.03 1272.92 C 1381.31 1302.01 1363.75 1272.17 1345.44 1275.69 C 1343.91 1275.39 1343.68 1276.47 1342.72 1277.64 C 1329.53 1280.45 1302.59 1275.53 1288.59 1272.86 C 1291.59 1293.68 1294.15 1356.89 1280.42 1372.95 C 1289.48 1341.26 1298.97 1274.42 1272.85 1248.48 z" fill="rgb(217,91,45)" transform="translate(0,0)"></path>
<path d="M 1389.1 1216.44 C 1406.69 1222.73 1410.81 1234.38 1411.29 1251.71 L 1474.04 1220.66 L 1475.41 1221.43 C 1454.24 1232.23 1432.97 1242.84 1411.6 1253.25 C 1413.36 1255.74 1416.54 1259.38 1416.42 1262.09 C 1413.81 1259.66 1412.77 1257.8 1410.82 1254.88 C 1408.56 1261.41 1406.68 1267.62 1402.03 1272.92 C 1402.77 1267.61 1407.24 1262.36 1408.34 1257.49 C 1412.29 1240.04 1402.78 1213.47 1380.58 1219.56 C 1375.43 1220.97 1371.52 1222.95 1366.64 1224.52 L 1364.88 1225.07 C 1370.28 1219.15 1381.51 1217.75 1389.1 1216.44 z" fill="rgb(150,51,25)" transform="translate(0,0)"></path>
<path d="M 1343.54 1247.73 C 1349.37 1240.78 1355.23 1229.09 1364.88 1225.07 C 1361.48 1230.53 1345.24 1242.31 1343.31 1253.89 C 1343.24 1254.33 1342.89 1255.12 1342.49 1255.42 C 1340.94 1254.54 1342.66 1249.14 1343.54 1247.73 z" fill="rgb(61,28,23)" transform="translate(0,0)"></path>
<path d="M 1342.72 1277.64 C 1343.68 1276.47 1343.91 1275.39 1345.44 1275.69 C 1344.51 1283.65 1345.04 1294.48 1345.04 1302.52 C 1345.07 1323.61 1345.79 1346.87 1353.8 1366.59 C 1354.41 1368.09 1354.5 1368.31 1354.6 1369.84 C 1352.04 1369.19 1349.52 1361.51 1348.93 1358.95 L 1347.41 1352.65 C 1341.28 1328.73 1344.34 1301.86 1342.72 1277.64 z" fill="rgb(188,126,36)" transform="translate(0,0)"></path>
<path d="M 925.583 558.109 C 937.074 562.156 947.87 568.572 959.373 572.892 C 963.273 574.357 968.399 576.005 972.005 577.724 C 990.998 583.803 1007.22 588.782 1027.37 590.013 C 1044.11 591.036 1059.67 589.16 1076.27 589.126 C 1122.93 589.033 1159.74 620.247 1173.95 664.194 C 1139.03 672.005 1119.88 674.463 1085.81 664.812 C 1065.2 675.357 1017.34 656.309 1000.78 642.268 C 987.496 630.999 945.863 597.193 943.642 581.188 C 946.302 579.797 947.092 580.677 950.86 581.352 L 954.097 577.631 C 944.348 570.311 935.652 564.736 925.583 558.109 z" fill="rgb(245,168,23)" transform="translate(0,0)"></path>
<path d="M 954.097 577.631 C 956.062 578.659 957.824 579.758 959.856 580.814 C 960.93 582.55 969.953 588.101 972.281 589.716 C 1013.07 618.867 1037.54 646.391 1085.81 664.812 C 1065.2 675.357 1017.34 656.309 1000.78 642.268 C 987.496 630.999 945.863 597.193 943.642 581.188 C 946.302 579.797 947.092 580.677 950.86 581.352 L 954.097 577.631 z" fill="url(#Gradient1)" transform="translate(0,0)"></path>
<path d="M 954.097 577.631 C 956.062 578.659 957.824 579.758 959.856 580.814 C 960.93 582.55 969.953 588.101 972.281 589.716 C 972.682 593.937 972.004 594.405 968.438 591.87 C 962.92 587.947 956.669 584.751 950.86 581.352 L 954.097 577.631 z" fill="rgb(233,220,192)" transform="translate(0,0)"></path>
<path d="M 925.583 558.109 C 937.074 562.156 947.87 568.572 959.373 572.892 C 963.273 574.357 968.399 576.005 972.005 577.724 C 969.086 579.35 950.167 571.074 945.773 569.412 C 950.297 572.822 956.637 576.753 959.856 580.814 C 957.824 579.758 956.062 578.659 954.097 577.631 C 944.348 570.311 935.652 564.736 925.583 558.109 z" fill="rgb(108,72,42)" transform="translate(0,0)"></path>
<path d="M 1365.1 814.044 C 1365.97 844.959 1363.7 868.578 1355.38 898.292 C 1346.91 928.506 1330.1 962.389 1309.55 985.546 C 1277.3 1021.91 1249.35 1025.48 1204.09 1028.58 C 1209.95 985.046 1232.2 943.544 1272.66 924.488 C 1321.36 901.557 1341.05 884.451 1359.23 832.361 C 1361.36 826.278 1362.86 820.384 1365.1 814.044 z" fill="rgb(209,146,54)" transform="translate(0,0)"></path>
<path d="M 1365.1 814.044 C 1365.97 844.959 1363.7 868.578 1355.38 898.292 C 1354.28 891.146 1358.33 883.067 1359.18 875.53 C 1359.56 872.138 1360.58 866.586 1361.17 863.023 C 1362.63 854.136 1362.98 845.966 1363.69 836.996 C 1364.06 832.221 1363.91 830.876 1359.23 832.361 C 1361.36 826.278 1362.86 820.384 1365.1 814.044 z" fill="rgb(161,100,21)" transform="translate(0,0)"></path>
<path d="M 1326.27 652.462 C 1337.49 698.295 1343.26 731.048 1341.74 778.511 C 1342.78 794.335 1335.64 825.121 1329.38 840.095 C 1314.69 875.197 1284.78 895.112 1250.5 908.943 C 1241.88 856.494 1241.6 827.008 1278.28 783.336 C 1292.1 766.876 1302.98 753.845 1311.92 733.891 C 1320.68 714.348 1320.94 695.905 1324.97 676.091 C 1325.28 668.208 1325.71 660.331 1326.27 652.462 z" fill="rgb(209,146,54)" transform="translate(0,0)"></path>
<path d="M 1326.27 652.462 C 1337.49 698.295 1343.26 731.048 1341.74 778.511 C 1341.07 773.715 1341.33 767.953 1341.15 763.066 C 1339.98 730.213 1336.36 696.576 1327.58 664.816 C 1326.7 668.763 1326.06 673.272 1325.39 677.302 L 1324.97 676.091 C 1325.28 668.208 1325.71 660.331 1326.27 652.462 z" fill="rgb(108,72,42)" transform="translate(0,0)"></path>
<path d="M 919.619 467.71 C 962.173 459.603 1037.95 468.169 1073.92 493.875 C 1076.68 495.85 1083.32 500.32 1085.26 502.918 C 1090.41 506.444 1092.6 508.687 1096.18 513.672 C 1113.29 530.542 1118.37 555.971 1119.66 579.058 C 1081.16 579.277 1055.07 574.002 1023.65 550.468 C 1015.44 544.319 1002.32 535.595 995.66 528.161 C 993.052 526.25 987.349 521.819 985.875 518.995 C 981.26 515.864 978.422 513.247 974.687 509.192 C 968.24 504.514 961.18 497.247 954.035 491.887 C 948.148 487.471 940.498 482.499 935.119 478.207 C 931.946 476.39 919.903 470.312 919.619 467.71 z" fill="rgb(209,146,54)" transform="translate(0,0)"></path>
<path d="M 936.424 477.544 C 944.068 481.458 970.993 500.473 974.003 507.611 L 974.687 509.192 C 968.24 504.514 961.18 497.247 954.035 491.887 C 948.148 487.471 940.498 482.499 935.119 478.207 L 936.424 477.544 z" fill="rgb(188,126,36)" transform="translate(0,0)"></path>
<path d="M 919.619 467.71 C 923.688 468.75 932.877 474.973 936.424 477.544 L 935.119 478.207 C 931.946 476.39 919.903 470.312 919.619 467.71 z" fill="rgb(61,28,23)" transform="translate(0,0)"></path>
<path d="M 985.875 518.995 C 990.124 517.738 994.383 524.478 995.66 528.161 C 993.052 526.25 987.349 521.819 985.875 518.995 z" fill="rgb(188,126,36)" transform="translate(0,0)"></path>
<path d="M 1085.26 502.918 C 1090.41 506.444 1092.6 508.687 1096.18 513.672 C 1088.65 510.982 1089.16 509.079 1085.26 502.918 z" fill="rgb(188,126,36)" transform="translate(0,0)"></path>
<path d="M 1135.39 976.132 C 1110.37 936.588 1129.87 866.291 1112.6 822.404 C 1111.02 818.378 1106.08 809.372 1105.65 805.986 C 1107.59 807.054 1120.48 829.053 1122.91 832.841 C 1124.61 834.337 1138.32 850.983 1141.09 854.091 C 1148.24 862.088 1186.33 891.144 1188.35 897.869 C 1192.16 901.477 1193.31 903.03 1195.79 907.81 C 1203 915.965 1209.05 934.253 1210.45 944.974 C 1214.2 973.587 1202.64 1000.77 1185.42 1022.94 C 1178.57 1020.24 1166.58 1015.67 1161.64 1010.17 C 1156.31 1006.27 1152.81 1002.74 1148.87 997.374 C 1144.97 993.655 1137.02 981.543 1135.39 976.132 z" fill="rgb(217,91,45)" transform="translate(0,0)"></path>
<path d="M 1135.39 976.132 C 1110.37 936.588 1129.87 866.291 1112.6 822.404 C 1111.02 818.378 1106.08 809.372 1105.65 805.986 C 1107.59 807.054 1120.48 829.053 1122.91 832.841 L 1116.63 827.284 L 1115.94 828.008 C 1117.82 835.797 1122.16 856.591 1121.98 863.943 C 1122.84 867.028 1123.21 867.51 1122.84 870.622 C 1123.69 895.886 1121.49 919.024 1125.98 944.168 C 1127.89 954.869 1133.66 967.033 1135.39 976.132 z" fill="rgb(122,52,30)" transform="translate(0,0)"></path>
<path d="M 1121.98 863.943 C 1122.84 867.028 1123.21 867.51 1122.84 870.622 C 1121.71 868.578 1122 866.21 1121.98 863.943 z" fill="rgb(189,78,37)" transform="translate(0,0)"></path>
<path d="M 1148.87 997.374 L 1151.49 998.302 C 1154.57 999.366 1160.47 1006.86 1161.64 1010.17 C 1156.31 1006.27 1152.81 1002.74 1148.87 997.374 z" fill="rgb(189,78,37)" transform="translate(0,0)"></path>
<path d="M 1188.35 897.869 C 1192.16 901.477 1193.31 903.03 1195.79 907.81 C 1189.69 903.528 1189.93 904.413 1188.35 897.869 z" fill="rgb(189,78,37)" transform="translate(0,0)"></path>
<path d="M 1236.36 545.926 L 1237.68 543.194 C 1238.86 545.826 1240.38 548.234 1241.7 550.788 C 1269.99 590.657 1296.93 656.266 1289.63 705.732 C 1285.43 734.176 1268.45 757.998 1247.59 777.214 C 1228.9 753.524 1209.52 714.236 1213.51 683.488 C 1215.61 667.299 1225.86 642.01 1233.24 626.875 C 1233.67 623.134 1235.08 619.543 1235.83 615.98 C 1240.32 594.811 1239.45 572.868 1237.05 551.49 C 1236.8 549.235 1236.85 548.198 1236.36 545.926 z" fill="rgb(209,146,54)" transform="translate(0,0)"></path>
<path d="M 1236.36 545.926 L 1237.68 543.194 C 1238.86 545.826 1240.38 548.234 1241.7 550.788 C 1237.67 551.802 1238.62 556.752 1239.88 560.507 C 1242.5 568.358 1240.05 624.572 1233.24 626.875 C 1233.67 623.134 1235.08 619.543 1235.83 615.98 C 1240.32 594.811 1239.45 572.868 1237.05 551.49 C 1236.8 549.235 1236.85 548.198 1236.36 545.926 z" fill="rgb(161,100,21)" transform="translate(0,0)"></path>
<path d="M 1077.83 457.294 C 1085.3 460.564 1110.43 471.997 1116.15 476.336 C 1122.45 478.366 1151.45 495.951 1154.22 499.995 C 1158.59 502.527 1160.57 503.677 1163.41 507.541 L 1163.86 507.751 C 1170.01 510.721 1186.18 526.71 1190.02 532.829 C 1198.76 538.152 1211.32 564.188 1214.19 575.653 C 1221.19 603.622 1217.62 636.857 1203.05 661.773 C 1172.83 639.983 1146.54 615.273 1139.5 577.67 C 1132.29 539.113 1126.42 525.611 1107.45 492.004 C 1104.94 488.237 1102.74 484.727 1100.06 481.041 C 1092.46 470.065 1087.35 466.043 1077.83 457.294 z" fill="rgb(209,146,54)" transform="translate(0,0)"></path>
<path d="M 1077.83 457.294 C 1085.3 460.564 1110.43 471.997 1116.15 476.336 C 1110.24 474.992 1095.2 466.844 1087.78 463.757 C 1091.83 468.39 1098.86 475.646 1101.5 480.854 L 1100.06 481.041 C 1092.46 470.065 1087.35 466.043 1077.83 457.294 z" fill="rgb(108,72,42)" transform="translate(0,0)"></path>
<path d="M 1163.86 507.751 C 1170.01 510.721 1186.18 526.71 1190.02 532.829 C 1187.23 531.056 1164.64 511.173 1164.2 509.14 L 1163.86 507.751 z" fill="rgb(188,126,36)" transform="translate(0,0)"></path>
<path d="M 1101.5 480.854 C 1105.48 484.016 1107.57 486.571 1107.45 492.004 C 1104.94 488.237 1102.74 484.727 1100.06 481.041 L 1101.5 480.854 z" fill="rgb(188,126,36)" transform="translate(0,0)"></path>
<path d="M 1154.22 499.995 C 1158.59 502.527 1160.57 503.677 1163.41 507.541 C 1157.88 506.868 1157.31 504.804 1154.22 499.995 z" fill="rgb(188,126,36)" transform="translate(0,0)"></path>
<path d="M 1086.5 757.631 C 1087.14 756.89 1087 757.246 1087.16 756.687 C 1086.93 755.816 1081.51 751.21 1080.42 750.126 C 1083.82 751.549 1089.66 754.439 1093.07 755.058 L 1094.99 755.466 C 1107.54 758.189 1123.06 767.847 1135.93 771.044 C 1170.62 779.66 1199.87 780.478 1220.86 814.341 C 1237.46 841.128 1237.66 871.535 1231.12 901.894 C 1214.7 890.623 1181.62 878.258 1167.85 862.317 C 1164.74 861.422 1156.48 851.917 1154.11 849.076 C 1126.35 815.018 1126.86 791.822 1086.5 757.631 z" fill="rgb(217,91,45)" transform="translate(0,0)"></path>
<path d="M 1154.11 849.076 L 1155.55 849.247 C 1157.57 849.412 1158.67 850.161 1159.5 852.243 C 1161.28 856.699 1169.33 858.314 1167.85 862.317 C 1164.74 861.422 1156.48 851.917 1154.11 849.076 z" fill="rgb(189,78,37)" transform="translate(0,0)"></path>
<path d="M 1098.14 724.515 C 1093 721.218 1069.38 699.268 1060.75 692.577 C 1055.02 688.108 1049.09 683.89 1043 679.935 C 1040.23 678.158 1019.65 666.501 1019.26 665.523 C 1019.75 664.36 1022.55 665.92 1023 666.112 C 1032.56 670.296 1042.23 674.227 1052 677.902 C 1069 681.587 1084.68 685.158 1102.17 685.898 C 1115.49 686.461 1129.9 684.335 1142.94 684.846 C 1168.25 685.839 1193.6 701.082 1207.29 722.234 C 1217.41 737.868 1219.37 754.583 1221.19 772.692 C 1178.36 770.046 1132.28 756.565 1099.51 726.24 C 1098.97 725.742 1098.56 725.116 1098.14 724.515 z" fill="rgb(209,146,54)" transform="translate(0,0)"></path>
<path d="M 1098.14 724.515 C 1093 721.218 1069.38 699.268 1060.75 692.577 C 1055.02 688.108 1049.09 683.89 1043 679.935 C 1040.23 678.158 1019.65 666.501 1019.26 665.523 C 1019.75 664.36 1022.55 665.92 1023 666.112 C 1032.56 670.296 1042.23 674.227 1052 677.902 C 1046.7 677.952 1044.36 676.624 1039.06 675.516 C 1054.37 685.342 1060.06 690.079 1074 700.874 C 1074.67 701.717 1074.45 701.525 1075.4 702.059 C 1077.63 704.101 1079.64 705.909 1081.97 707.856 C 1082.86 709.058 1083 709.254 1084.34 710.021 C 1086.5 712.059 1089.99 715.62 1092.15 717.246 C 1094.42 719.707 1095.2 720.921 1098.07 722.424 L 1098.14 724.515 z" fill="rgb(108,72,42)" transform="translate(0,0)"></path>
<path d="M 1092.15 717.246 C 1095.23 718.816 1096.2 719.3 1098.07 722.424 C 1095.2 720.921 1094.42 719.707 1092.15 717.246 z" fill="rgb(188,126,36)" transform="translate(0,0)"></path>
<path d="M 1081.97 707.856 C 1083.54 708.475 1083.7 708.497 1084.34 710.021 C 1083 709.254 1082.86 709.058 1081.97 707.856 z" fill="rgb(188,126,36)" transform="translate(0,0)"></path>
<path d="M 1351.45 634.459 C 1354.28 636.452 1355.51 642.259 1356.56 645.778 C 1376.98 714.345 1376.95 796.543 1341.8 860.575 C 1340.61 861.68 1340.03 861.963 1338.68 862.862 C 1330.55 852.41 1344.93 801.859 1347.19 788.969 C 1353.21 754.811 1348.8 707.456 1337.59 675.381 C 1342.96 661.769 1345.11 648.808 1351.45 634.459 z" fill="rgb(233,220,192)" transform="translate(0,0)"></path>
<path d="M 1266.97 528.591 C 1281.66 539.812 1305.62 596.036 1309.88 615.23 C 1319.68 659.426 1321.45 680.261 1299.07 718.647 C 1295.64 723.89 1292.17 729.112 1288.67 734.311 C 1296.13 717.326 1300.5 703.975 1299.63 685.023 C 1298.29 655.458 1292.36 626.864 1282.55 598.944 C 1278 586.019 1271.15 573.968 1268.19 560.589 C 1266.04 550.662 1266.78 538.807 1266.97 528.591 z" fill="rgb(233,220,192)" transform="translate(0,0)"></path>
<path d="M 1166.3 456.323 C 1187.11 472.143 1229.19 510.036 1235.54 534.621 L 1233.68 534.709 C 1231.76 532.877 1232.87 533.521 1230.09 533.192 C 1227.17 538.488 1232.31 551.033 1232.27 559.701 C 1232.21 572.508 1230.99 581.29 1229.14 593.743 C 1227.42 588.933 1226.06 583.624 1224.5 578.714 C 1214.92 548.508 1199.46 520.903 1172.14 504.079 C 1171.64 488.392 1168.92 471.811 1166.3 456.323 z" fill="rgb(233,220,192)" transform="translate(0,0)"></path>
<path d="M 1369.48 819.085 C 1374.81 807.8 1381.68 796.748 1386.19 785.461 C 1395.97 829.088 1387.9 879.546 1363.98 917.564 C 1360.1 923.749 1355.73 929.615 1350.92 935.107 C 1345.66 939.155 1345.41 938.332 1348.06 932.837 C 1364.43 896.59 1375.81 859.453 1369.48 819.085 z" fill="rgb(233,220,192)" transform="translate(0,0)"></path>
<path d="M 1348.06 932.837 C 1349.02 933.583 1349.97 934.34 1350.92 935.107 C 1345.66 939.155 1345.41 938.332 1348.06 932.837 z" fill="rgb(245,235,202)" transform="translate(0,0)"></path>
<path d="M 788.638 695.755 L 789.208 697.28 C 770.584 714.586 765.216 731.765 753.628 750.175 C 754.978 743.363 757.383 739.03 760.822 733.006 C 761.259 732.241 765.365 726.716 764.123 726.005 C 761.796 726.334 762.616 727.817 759.28 728.825 C 770.911 712.821 774.825 709.957 788.07 696.347 L 788.638 695.755 z" fill="rgb(108,72,42)" transform="translate(0,0)"></path>
<path d="M 1056.69 736.745 C 1064.7 740.258 1088.33 751.072 1094.99 755.466 L 1093.07 755.058 C 1089.66 754.439 1083.82 751.549 1080.42 750.126 C 1081.51 751.21 1086.93 755.816 1087.16 756.687 C 1087 757.246 1087.14 756.89 1086.5 757.631 C 1078.61 751.542 1065.96 744.612 1059.59 739.229 L 1056.69 736.745 z" fill="rgb(122,52,30)" transform="translate(0,0)"></path>
<path d="M 1235.54 534.621 C 1236.66 538.295 1235.65 539.339 1237.68 543.194 L 1236.36 545.926 C 1235.64 541.426 1234.55 538.955 1233.68 534.709 L 1235.54 534.621 z" fill="rgb(245,235,202)" transform="translate(0,0)"></path>
<path d="M 788.638 695.755 C 793.137 690.194 798.846 688.663 789.208 697.28 L 788.638 695.755 z" fill="rgb(191,186,187)" transform="translate(0,0)"></path>
<metadata><recraft-signature>{"signed_by": "recraft", "signature_b64": "GYEKikGobE+8a+0yIWiAkEuEOf5w62xnr99dgWATOXnV6wyWUNgiBkGWGl6VYAXOfWs0fo1o2YCjKxFFLL1XCw==", "signing_algo": "Ed25519", "generation_timestamp": 1783365345, "identifier": "2761c9fb-e180-463c-8978-cd9c8cfdd150"}</recraft-signature></metadata></svg>