<svg xmlns="http://www.w3.org/2000/svg" height="1024" preserveAspectRatio="none" style="display: block;" version="1.1" viewBox="0 0 2048 2048" width="1024">
<defs>
	<linearGradient gradientUnits="userSpaceOnUse" id="Gradient1" x1="804.918" x2="767.809" y1="745.297" y2="615.06">
		<stop class="stop0" offset="0" stop-color="rgb(248,218,183)" stop-opacity="1"></stop>
		<stop class="stop1" offset="1" stop-color="rgb(255,255,255)" stop-opacity="1"></stop>
	</linearGradient>
</defs>
<path d="M 0 0 L 2048 0 L 2048 2048 L 0 2048 L 0 0 z" fill="rgb(255,255,255)" transform="translate(0,0)"></path>
<path d="M 1169.69 612.394 C 1166.91 597.396 1160.57 584.389 1159.88 568.508 C 1158.8 543.45 1174.07 510.289 1174.67 487.908 C 1175.06 473.646 1160.36 443.781 1158.11 426.493 C 1163.95 425.512 1166.92 424.959 1172.57 423.177 L 1173.87 422.759 C 1178.36 437.327 1195.58 481.791 1193.41 492.843 C 1189.48 512.891 1176.46 543.526 1174 565.959 C 1174.25 568.232 1174.37 573.507 1175.31 575.137 L 1175.7 575.816 C 1174.74 579.407 1175.45 583.242 1177.63 586.251 C 1176.82 586.9 1176.63 587.244 1175.74 587.408 L 1175.26 587.839 C 1178.36 599.148 1181.55 610.431 1184.84 621.686 C 1240.61 659.852 1250.84 687.176 1248.66 754.587 L 1233.67 773.884 C 1238.49 774.116 1244.06 774.245 1248.79 774.77 C 1242.89 790.939 1240.24 799.38 1243.29 816.836 C 1138.73 848.588 1010.06 852.339 902.473 833.98 C 876.284 829.51 849.432 822.4 823.583 815.887 L 823.807 773.251 C 927.288 806.913 1020.92 810.302 1128.97 801.716 L 1125.16 799.42 C 1116.56 800.416 1099.32 800.335 1090.15 800.523 C 1058.49 801.445 1026.79 801.001 995.165 799.192 C 954.803 797.593 858.787 781.706 823.655 765.744 C 824.098 758.876 823.947 750.069 824.025 743.049 L 824.199 734.537 C 824.993 709.402 825.934 695.364 833.059 670.606 C 837.51 665.74 844.213 651.511 852.04 643.365 C 859.416 635.687 875.245 625.094 879.303 619.223 C 884.765 618.308 887.91 616.368 892.081 612.831 C 895.269 612.654 915.561 603.324 920.05 601.41 C 920.197 589.491 920.141 579.066 919.643 567.163 C 938.679 574.434 954.042 576.998 974.229 579.477 C 979.317 580.102 989.441 580.741 993.658 581.749 C 1053.33 583.864 1089.96 585.703 1149.43 568.753 C 1147.41 580.286 1146.93 591.813 1146.26 603.476 C 1154.74 606.327 1161.56 608.51 1169.69 612.394 z" fill="rgb(183,62,21)" transform="translate(0,0)"></path>
<path d="M 919.643 567.163 C 938.679 574.434 954.042 576.998 974.229 579.477 C 979.317 580.102 989.441 580.741 993.658 581.749 C 984.617 582.402 985.541 583.005 983.679 592.06 C 978.729 591.896 964.848 589.317 962.132 592.122 C 949.815 604.846 977.542 605.122 981.891 605.802 C 988.755 614.379 1012.54 619.163 1023.69 622.259 C 1069.36 634.778 1141.82 655.608 1141.53 714.399 C 1141.46 728.073 1131.44 745.022 1121.4 754.039 C 1110.04 764.239 1093.28 771.012 1078.99 776.792 C 1050.88 788.158 1019.38 787.97 990.506 796.582 L 995.165 799.192 C 954.803 797.593 858.787 781.706 823.655 765.744 C 824.098 758.876 823.947 750.069 824.025 743.049 L 824.199 734.537 C 824.993 709.402 825.934 695.364 833.059 670.606 C 837.51 665.74 844.213 651.511 852.04 643.365 C 859.416 635.687 875.245 625.094 879.303 619.223 C 884.765 618.308 887.91 616.368 892.081 612.831 C 895.269 612.654 915.561 603.324 920.05 601.41 C 920.197 589.491 920.141 579.066 919.643 567.163 z" fill="rgb(216,84,46)" transform="translate(0,0)"></path>
<path d="M 919.333 632.869 L 920.56 632.978 L 921.27 633.959 C 888.6 661.963 872.323 701.125 863.1 742.209 C 862.304 745.752 861.273 753.875 859.791 756.677 L 858.854 755.422 C 852.185 730.377 845.968 706.881 857.235 682.203 C 870.107 654.01 892.34 643.411 919.333 632.869 z" fill="rgb(252,230,204)" transform="translate(0,0)"></path>
<path d="M 981.891 605.802 C 977.542 605.122 949.815 604.846 962.132 592.122 C 964.848 589.317 978.729 591.896 983.679 592.06 L 1009.51 594.032 C 1012.9 594.307 1017.86 595.014 1020.04 597.985 C 1021.01 599.283 1021.33 600.949 1020.92 602.514 C 1018.66 610.947 988.791 606.344 981.891 605.802 z" fill="rgb(252,230,204)" transform="translate(0,0)"></path>
<path d="M 1125.16 799.42 C 1125.67 799.281 1140.89 798.141 1140.51 798.081 C 1145.18 798.815 1198.17 790.596 1198.4 790.741 L 1198.47 790.926 C 1196.63 793.836 1134.84 801.214 1128.97 801.716 L 1125.16 799.42 z" fill="rgb(223,171,149)" transform="translate(0,0)"></path>
<path d="M 1174 565.959 C 1174.25 568.232 1174.37 573.507 1175.31 575.137 L 1175.7 575.816 C 1174.74 579.407 1175.45 583.242 1177.63 586.251 C 1176.82 586.9 1176.63 587.244 1175.74 587.408 L 1175.26 587.839 C 1172.9 580.027 1172.44 573.991 1174 565.959 z" fill="rgb(244,227,228)" transform="translate(0,0)"></path>
<path d="M 887.442 803.679 C 906.354 802.577 939.759 814.199 960.469 812.986 C 962.51 812.866 975.65 813.997 977.465 815.074 C 985.177 819.654 983.292 824.883 978.472 830.646 C 958.039 834.141 918.446 825.174 896.986 822.343 C 883.35 820.544 878.186 815.126 887.442 803.679 z" fill="rgb(252,230,204)" transform="translate(0,0)"></path>
<path d="M 310.081 1275.39 C 321.261 1273.94 464.891 1273.85 470.307 1275.1 C 472.432 1275.59 471.676 1275.13 472.873 1276.92 C 469.768 1281.27 456.323 1285.28 449.762 1292.48 C 426.828 1317.67 430.8 1356.37 430.678 1388.3 C 430.592 1417.09 430.677 1445.87 430.931 1474.66 C 439.917 1463.98 452.43 1451.63 462.198 1441.23 L 514.28 1385.21 C 531.277 1367.1 558.236 1344.41 558.551 1318 C 558.609 1311.99 557.373 1306.04 554.928 1300.55 C 547.759 1284.29 537.396 1285.89 528.247 1276.17 L 529.327 1275.19 C 557.633 1274.04 586.956 1275.14 615.375 1274.89 C 624.33 1274.82 666.902 1273.93 670.82 1276.54 C 670.115 1278.04 669.383 1278.94 667.559 1279.36 C 597.487 1295.33 556.98 1356.3 509.765 1405.73 C 538.798 1445.56 568.645 1484.68 598.741 1523.83 C 629.457 1562.58 658.213 1606.2 695.219 1639.36 C 743.181 1682.33 786.674 1686.49 842.525 1659.07 C 827.564 1682.79 807.892 1694.68 781.892 1703.19 C 758.879 1708.82 734.92 1709.4 711.659 1704.91 C 618.058 1687.58 569.212 1609.32 516.952 1538.25 C 498.248 1512.82 477.132 1486.21 459.619 1460.56 C 450.152 1471.14 440.592 1481.64 430.941 1492.05 C 430.898 1506.42 430.913 1521.61 430.83 1535.92 C 430.54 1586.24 428.229 1616.84 478.623 1639.45 C 478.098 1642.94 475.405 1643.52 472.079 1643.43 C 415.106 1641.76 357.302 1644.66 300.417 1642.81 C 310.713 1635.2 322.064 1633.11 333.351 1623.05 C 359.793 1599.48 356.653 1563.67 356.771 1531.54 L 356.919 1464.5 L 356.924 1381.79 C 356.908 1359.25 357.589 1339.21 354.316 1316.2 C 349.982 1285.74 331.656 1272.31 304.142 1292.05 C 298.569 1296.05 291.932 1303.95 293.486 1311.41 C 293.897 1313.38 308.082 1320.89 310.291 1322.85 C 341.693 1343.39 333.046 1383.87 296.074 1391.11 C 281.379 1394.09 266.11 1390.76 253.987 1381.94 C 229.15 1364.14 227.545 1326.59 246.668 1304.05 C 263.065 1284.72 285.781 1277.97 310.081 1275.39 z" fill="rgb(183,62,21)" transform="translate(0,0)"></path>
<path d="M 1179.33 928.751 C 1181.97 930.872 1187.41 958.933 1188.61 964.349 C 1209.3 948.701 1227.28 934.889 1254.21 933.286 C 1279.23 931.797 1302.84 941.061 1321.39 957.766 C 1350.96 984.302 1365.32 1022.58 1367.28 1061.5 C 1370.58 1126.9 1330.12 1198.34 1258.43 1199.38 C 1226.16 1199.85 1205.6 1191.58 1182.1 1169.41 C 1182.86 1183.76 1182.62 1198.31 1182.39 1212.67 C 1182.39 1251.78 1190.64 1268.34 1223.43 1288.84 C 1207.38 1289.68 1186.5 1289.16 1170.08 1289.17 L 1075.11 1289.14 C 1080.16 1285.65 1085.21 1283.02 1090.14 1279.12 C 1117.77 1257.27 1115.2 1223.43 1115.15 1191.25 L 1115.08 1135.63 L 1115.12 1072.51 C 1115.11 1026.22 1119.1 1005.57 1081.12 974.971 C 1124.77 969.393 1146.55 956.021 1179.33 928.751 z" fill="rgb(183,62,21)" transform="translate(0,0)"></path>
<path d="M 1217.23 966.369 C 1258.15 967.662 1275.47 1003.79 1286.64 1038.52 C 1297.63 1072.71 1299.65 1176.94 1255.39 1189.01 C 1186.85 1189.13 1174.31 1067.59 1181.45 1019.28 C 1185.12 994.428 1186.56 969.647 1217.23 966.369 z" fill="rgb(255,255,255)" transform="translate(0,0)"></path>
<path d="M 885.184 928.871 C 887.48 931.135 893.56 962.987 894.746 968.43 C 912.779 951.578 935.012 936.35 959.361 934.811 C 1053.13 928.884 1094.27 1050.83 1061.75 1124.12 C 1043.33 1165.66 1009.66 1195.86 964.815 1200.47 C 936.262 1203.41 908.331 1185.53 888.081 1168.07 L 888.13 1210.59 C 888.824 1250.53 892.433 1267.77 929.352 1288.69 C 912.65 1289.63 890.766 1289.12 873.824 1289.11 L 782.533 1289.14 C 791.695 1283.05 804.574 1274.42 809.602 1263.6 C 828.699 1220.78 818.99 1166.01 820.163 1119.31 C 818.49 1085.33 824.891 1048.89 817.254 1015.62 C 812.935 996.81 801.348 984.421 785.497 975.328 C 823.258 971.963 857.544 954.34 885.184 928.871 z" fill="rgb(183,62,21)" transform="translate(0,0)"></path>
<path d="M 918.587 968.341 C 925.527 968.25 932.43 969.363 938.991 971.628 C 1002.95 993.803 1008.55 1104.57 989.933 1157.19 C 985.321 1170.23 978.852 1180.04 966.128 1185.99 C 927.662 1197.05 897.353 1143.36 892.178 1112.49 C 887.347 1083.68 883.355 1055.59 886.804 1026.25 C 889.511 1003.22 891.161 973.411 918.587 968.341 z" fill="rgb(255,255,255)" transform="translate(0,0)"></path>
<path d="M 644.486 936.866 C 716.703 934.526 777.107 991.245 779.313 1063.47 C 781.52 1135.69 724.69 1195.99 652.464 1198.06 C 580.427 1200.13 520.318 1143.48 518.117 1071.45 C 515.917 999.412 572.456 939.199 644.486 936.866 z" fill="rgb(183,62,21)" transform="translate(0,0)"></path>
<path d="M 634.442 945.088 C 661.681 945.481 683.905 982.697 691.758 1005.7 C 708.12 1053.64 711.803 1114.63 690.816 1161.84 C 684.377 1176.32 677.08 1185.18 662.053 1190.66 C 636.989 1190.21 619.085 1154.55 609.647 1135.22 C 587.954 1090.79 578.121 968.569 634.442 945.088 z" fill="rgb(255,255,255)" transform="translate(0,0)"></path>
<path d="M 335.859 829.37 C 381.502 824.313 436.411 838.718 464.484 877.435 C 480.097 899.496 487.487 924.709 478.77 951.338 C 466.927 987.513 408.065 998.458 385.64 967.176 C 371.785 947.712 386.977 918.789 407.199 912.327 C 431.86 904.445 439.24 897.274 422.084 872.738 C 397.564 835.746 330.478 833.822 298.121 860.181 C 231.556 914.406 231.645 1041.85 282.651 1106.5 C 303.872 1133.4 328.514 1149.28 361.878 1153.63 C 403.334 1160.54 457.373 1142.16 477.925 1104.18 C 480.533 1099.36 490.838 1079.7 493.478 1077.37 L 494.709 1077.93 C 495.735 1082.91 494.098 1089.23 492.804 1094.12 C 475.299 1160.34 407.748 1200.01 342.51 1199.29 C 250.506 1198.26 178.042 1138.68 165.378 1047.29 C 158.327 996.6 171.951 945.202 203.186 904.659 C 237.105 860.402 280.797 836.432 335.859 829.37 z" fill="rgb(183,62,21)" transform="translate(0,0)"></path>
<path d="M 788.707 1383.37 C 838.044 1378.91 898.814 1406.15 906.195 1459.46 C 915.527 1526.86 794.31 1522.58 750.081 1525.47 C 761.295 1566.13 778.444 1600.83 826.17 1602.43 C 856.37 1603.44 885.355 1593.92 900.887 1566.22 C 902.89 1562.65 909.961 1548.36 911.967 1546.5 L 916.369 1548.1 C 914.195 1564.78 902.936 1588.13 893.118 1601.71 C 875.485 1626.09 849.314 1641.22 819.677 1645.86 C 786.268 1651.4 752.041 1643.16 724.818 1623.02 C 632.181 1553.94 667.622 1399.19 788.707 1383.37 z" fill="rgb(183,62,21)" transform="translate(0,0)"></path>
<path d="M 787.238 1393.06 C 813.458 1391.66 830.432 1420.52 834.232 1443.07 C 841.717 1487.48 830.316 1502.98 788.238 1511.14 C 775.226 1512.94 762.224 1514.82 749.232 1516.77 C 741.433 1478.24 744.114 1410.78 787.238 1393.06 z" fill="rgb(255,255,255)" transform="translate(0,0)"></path>
<path d="M 1631.3 1383.38 C 1681.05 1379.27 1740.99 1407.33 1748.73 1462.68 C 1750 1472.53 1745.8 1487.96 1738.42 1494.9 C 1706.45 1524.97 1632.95 1523.51 1591.79 1525.46 C 1596.62 1544.04 1603.2 1563.83 1615.55 1578.89 C 1646.58 1616.72 1718.92 1611.42 1742.39 1567.75 C 1744.57 1563.7 1751.96 1548.44 1754.48 1546.33 L 1758.56 1547.38 C 1743.87 1601.77 1716.09 1640.03 1656.58 1647.41 C 1623.71 1651.54 1590.55 1642.33 1564.52 1621.85 C 1475 1550.87 1512.11 1395.77 1631.3 1383.38 z" fill="rgb(183,62,21)" transform="translate(0,0)"></path>
<path d="M 1632.65 1393.26 C 1656.37 1393.27 1672.03 1422.04 1675.85 1442.41 C 1684.96 1491.06 1670.8 1503.84 1627.24 1512.05 C 1614.91 1513.58 1602.61 1515.35 1590.36 1517.37 C 1584.63 1478.55 1584.81 1405.69 1632.65 1393.26 z" fill="rgb(255,255,255)" transform="translate(0,0)"></path>
<path d="M 1517.81 936.414 C 1548.2 935.328 1574.2 941.461 1599.12 960.091 C 1614.85 971.846 1630.26 994.147 1632.28 1014.12 C 1633.55 1025.58 1629.95 1037.05 1622.34 1045.72 C 1596.55 1075.35 1514.52 1075.15 1476.05 1077.09 C 1486.07 1126.07 1512.41 1158.09 1566.37 1152.25 C 1600.42 1148.56 1623.98 1134.52 1636.53 1101.8 C 1637.05 1100.45 1639.64 1100.31 1640.75 1100.21 L 1642.52 1101.69 L 1642.22 1104.22 C 1636.63 1123.16 1629.02 1143.03 1615.94 1158.11 C 1572.09 1208.65 1493.44 1210.82 1443.65 1168.74 C 1417.25 1146.41 1400.86 1114.46 1398.11 1079.99 C 1392.54 1006.47 1442.89 941.647 1517.81 936.414 z" fill="rgb(183,62,21)" transform="translate(0,0)"></path>
<path d="M 1514.59 946.149 C 1538.74 944.328 1557.04 970.806 1560.18 992.105 C 1567.1 1039.05 1557.39 1055.12 1512.24 1062.67 C 1499.79 1064.82 1487.31 1066.75 1474.79 1068.47 C 1469.09 1029.67 1467.96 961.378 1514.59 946.149 z" fill="rgb(255,255,255)" transform="translate(0,0)"></path>
<path d="M 1470.28 1262.97 L 1471.4 1263.66 C 1471.64 1267.78 1471.02 1271.83 1470.45 1275.9 C 1467.08 1299.69 1467.34 1323.44 1467.25 1347.43 C 1467.14 1378.58 1467.3 1409.73 1467.72 1440.88 L 1468.51 1536.24 C 1468.68 1549.86 1468.43 1563.68 1468.99 1577.35 C 1469.87 1598.75 1480.51 1622.2 1498.33 1634.69 C 1501.8 1637.12 1507.27 1638.68 1509.78 1641.66 L 1508.91 1642.96 C 1496.33 1644.13 1471.25 1643.19 1457.63 1643.14 C 1425 1642.92 1392.37 1642.95 1359.75 1643.2 L 1356.77 1642.96 L 1355.92 1641.94 C 1358.67 1638.08 1368.6 1634.21 1372.66 1630.82 C 1385.77 1619.8 1395.39 1602.98 1397.01 1585.75 C 1399.91 1554.91 1398.29 1523.07 1398.46 1492.02 L 1398.76 1407.68 C 1398.76 1394.53 1399.29 1377.23 1398.52 1364.35 C 1397.88 1354.33 1396.31 1344.39 1393.83 1334.67 C 1387.54 1310.27 1373.77 1302.92 1354.75 1291.59 C 1406.98 1288.7 1423.1 1284.15 1470.28 1262.97 z" fill="rgb(183,62,21)" transform="translate(0,0)"></path>
<path d="M 1751.8 928.911 C 1755.43 932.863 1758.56 972.679 1759.38 981.106 L 1760.16 979.919 C 1774.81 957.992 1798.38 940.597 1824.38 935.365 C 1850.46 930.588 1879.9 938.07 1884.16 968.549 C 1887.83 994.836 1868.36 1009.47 1856.04 1030.29 C 1850.81 1039.15 1845.8 1050.02 1839.71 1058.09 C 1838.22 1036.9 1842.04 1022.18 1825.73 1004.25 C 1815.95 993.557 1802.32 987.2 1787.85 986.584 C 1767.09 985.897 1759.74 999.852 1756.59 1018.12 C 1752.93 1039.36 1754.1 1061.71 1754.39 1083.26 L 1755.07 1133.14 C 1761.28 1168.41 1768.41 1177.96 1800.44 1194.41 C 1791.74 1195.1 1781.83 1195.28 1773.11 1195.1 C 1729.11 1194.19 1683.85 1196.4 1639.99 1194.42 C 1662.68 1183.54 1679.28 1170.22 1682.55 1142.94 C 1686.89 1106.64 1685.54 1066.2 1683.66 1029.62 C 1682.48 1006.61 1669.7 989.83 1652.12 976.278 C 1692.63 972.137 1721.97 955.417 1751.8 928.911 z" fill="rgb(183,62,21)" transform="translate(0,0)"></path>
<path d="M 1243.07 1302.32 C 1243.77 1302.72 1244.9 1303.68 1245.59 1304.22 C 1251.13 1318.16 1249.35 1367.66 1249.51 1385.45 C 1258.86 1385.24 1321.89 1383.68 1326.15 1386.46 C 1326.66 1389.7 1326.85 1389.73 1326.23 1392.88 C 1323.34 1394.56 1258.22 1393.44 1249.68 1393.3 C 1250.12 1442.37 1249 1491.65 1249.32 1540.73 C 1249.43 1558.33 1249.96 1581.87 1260.99 1596.44 C 1268.02 1605.65 1278.52 1611.57 1290.03 1612.82 C 1319.73 1615.83 1336.71 1592.45 1346.23 1567.95 C 1348.21 1562.84 1351.76 1550.75 1355.6 1547.49 C 1363.18 1552.46 1347.8 1588.78 1344.18 1596.22 C 1339.31 1605.53 1332.95 1613.98 1325.36 1621.24 C 1292.78 1652.36 1231.7 1661.89 1198 1626.5 C 1171.95 1599.15 1177.74 1552.48 1177.54 1517.46 C 1177.32 1477.16 1176.69 1435.53 1178.04 1394.98 C 1169.66 1394.97 1142.86 1395.9 1137.23 1391.87 L 1137.57 1390.71 C 1187.6 1374.16 1225.77 1356.2 1243.07 1302.32 z" fill="rgb(183,62,21)" transform="translate(0,0)"></path>
<path d="M 1026.48 1303.2 C 1031.62 1305.42 1032.01 1315.11 1032.26 1320.41 C 1033.27 1341.78 1032.92 1363.66 1032.92 1385.05 C 1042.16 1384.99 1106.03 1383.33 1108.92 1386.78 C 1108.91 1391.28 1109.62 1389.47 1107.6 1392.73 C 1105.2 1393.85 1041.41 1393.62 1032.98 1393.66 L 1032.65 1500.46 C 1032.54 1530.58 1026.44 1582.65 1052.08 1602.78 C 1061.72 1610.48 1074.12 1613.87 1086.34 1612.15 C 1127.34 1606 1131.91 1547.15 1140.64 1546.45 C 1145.95 1553.78 1131.56 1588.97 1127.12 1597.49 C 1121.61 1606.13 1117.8 1611.8 1110.55 1619.23 C 1092.09 1638.36 1066.62 1649.13 1040.03 1649.03 C 996.382 1649.19 967.677 1622.72 962.613 1580.18 C 959.673 1555.49 961.172 1526.05 961.316 1500.99 C 961.456 1465.66 961.394 1430.32 961.13 1394.99 C 947.689 1393.49 930.394 1395.67 918.078 1393.08 L 918.391 1392 C 927.065 1387.34 944.7 1384.07 955.6 1378.71 C 993.373 1360.13 1011.95 1341.49 1026.48 1303.2 z" fill="rgb(183,62,21)" transform="translate(0,0)"></path>
<path d="M 728.645 559.621 C 756.179 564.865 777.251 587.777 789.143 612.037 C 801.259 636.757 805.334 659.605 833.059 670.606 C 825.934 695.364 824.993 709.402 824.199 734.537 L 824.025 743.049 C 823.947 750.069 824.098 758.876 823.655 765.744 C 811.241 761.643 799.181 759.49 788.102 752.014 C 736.587 717.25 765.907 630.164 733.943 602.376 C 720.456 590.65 700.725 591.817 684.135 592.92 C 696.8 583.025 715.478 567.816 728.645 559.621 z" fill="rgb(183,62,21)" transform="translate(0,0)"></path>
<path d="M 824.025 743.049 C 807.882 743.965 796.718 739.404 785.915 726.989 C 766.569 704.757 764.517 673.497 761.855 645.492 C 761.002 636.512 759.173 624.792 759.757 615.989 L 762.036 615.342 C 780.48 630.808 762.648 708.334 824.199 734.537 L 824.025 743.049 z" fill="url(#Gradient1)" transform="translate(0,0)"></path>
<path d="M 1030.62 512.058 C 1029.63 511.61 1028.65 511.174 1027.65 510.749 C 1015.84 505.796 1009.68 494.021 1017.51 481.985 C 1021.27 476.201 1030.52 475.205 1037 474.677 C 1047.06 475.377 1059.43 481.7 1059.51 493.482 C 1059.58 502.081 1052.42 504.628 1047.4 509.89 C 1047.96 512.9 1048.49 515.592 1049.2 518.57 C 1081.09 522.482 1101.43 528.696 1123.64 552.082 C 1131.87 553.712 1140.06 554.347 1146.32 559.77 L 1146.7 561.815 C 1136.3 576.276 1040.62 579.124 1019.74 577.01 C 1002.62 577.794 928.229 574.088 920.344 560.023 L 921.156 558.591 C 925.536 556.104 936.075 554.617 941.169 554.207 C 942.21 553.146 943.256 552.091 944.308 551.041 C 971.609 523.823 992.476 517.833 1029.9 517.841 C 1031.45 514.411 1031.02 516.237 1030.62 512.058 z" fill="rgb(216,84,46)" transform="translate(0,0)"></path>
<path d="M 1030.62 512.058 C 1029.63 511.61 1028.65 511.174 1027.65 510.749 C 1015.84 505.796 1009.68 494.021 1017.51 481.985 C 1021.27 476.201 1030.52 475.205 1037 474.677 C 1047.06 475.377 1059.43 481.7 1059.51 493.482 C 1059.58 502.081 1052.42 504.628 1047.4 509.89 C 1047.96 512.9 1048.49 515.592 1049.2 518.57 C 1081.09 522.482 1101.43 528.696 1123.64 552.082 C 1131.87 553.712 1140.06 554.347 1146.32 559.77 L 1146.7 561.815 C 1136.3 576.276 1040.62 579.124 1019.74 577.01 C 1022.79 574.066 1029.69 572.686 1033.94 571.75 C 1051.14 567.965 1065.92 564.793 1081.99 557.47 C 1067.72 542.781 1048.34 534.475 1029.47 527.458 C 1029.35 525.364 1029.77 520.176 1029.9 517.841 C 1031.45 514.411 1031.02 516.237 1030.62 512.058 z" fill="rgb(183,62,21)" transform="translate(0,0)"></path>
<path d="M 1030.62 512.058 C 1029.63 511.61 1028.65 511.174 1027.65 510.749 C 1015.84 505.796 1009.68 494.021 1017.51 481.985 C 1021.27 476.201 1030.52 475.205 1037 474.677 C 1037.6 475.736 1038.21 476.785 1038.84 477.825 L 1037.5 478.978 C 1026.54 488.236 1027.59 488.81 1029.68 503.188 C 1030.32 505.186 1030.05 505.352 1030.2 507.54 C 1030.32 509.048 1030.45 510.554 1030.62 512.058 z" fill="rgb(216,84,46)" transform="translate(0,0)"></path>
<path d="M 1029.68 503.188 C 1019.17 506.339 1008.14 478.602 1038.84 477.825 L 1037.5 478.978 C 1026.54 488.236 1027.59 488.81 1029.68 503.188 z" fill="rgb(255,255,255)" transform="translate(0,0)"></path>
<path d="M 1010.79 529.319 C 1016.01 528.792 1021.63 528.882 1026.91 528.828 C 1013.71 540.921 1010.73 546.214 1008.05 563.726 C 999.03 562.56 989.047 561.405 979.995 560.709 C 973.918 559.862 967.158 559.349 961.193 558.206 C 973.757 539.428 989.354 533.107 1010.79 529.319 z" fill="rgb(252,230,204)" transform="translate(0,0)"></path>
<path d="M 1019.79 343.418 C 1052.83 341.643 1120.9 348.75 1143.24 374.021 C 1143.32 388.693 1141.55 396.013 1132.27 407.597 C 1096.19 391.09 1061.41 383.49 1021.62 385.798 C 994.639 386.528 968.834 391.52 943.22 400.577 C 936.199 403.06 915.762 413.445 910.008 414.32 C 900.332 408.88 903.2 389 905.523 379.933 C 930.954 356.742 985.903 345.731 1019.79 343.418 z" fill="rgb(183,62,21)" transform="translate(0,0)"></path>
<path d="M 981.593 358.203 C 1002.92 355.218 1003.88 371.226 985.999 375.907 L 984.116 376.391 C 983.573 376.537 983.029 376.684 982.486 376.831 L 978.484 377.798 C 957.407 382.446 944.329 387.839 925.276 396.578 C 921.926 397.722 918.03 398.586 915.075 396.455 C 892.3 380.033 972.584 359.922 981.593 358.203 z" fill="rgb(252,230,204)" transform="translate(0,0)"></path>
<path d="M 1368.45 553.938 C 1377.76 548.37 1390.35 543.748 1392.76 533.065 C 1395.39 530.179 1404.07 529.041 1407.88 528.843 C 1450.15 526.65 1477.21 559.564 1507.22 580.771 C 1451.22 580.833 1434.24 632.728 1374.07 609.477 C 1342 597.082 1339.76 595.383 1320.83 565.597 C 1325.41 563.467 1329.39 561.576 1334.13 559.781 C 1340.77 567.156 1344.17 576.097 1351.14 583.161 L 1352.5 583.217 C 1351.54 577.303 1347.85 575.651 1345.26 570.235 C 1343.4 566.333 1342.19 562.785 1340.88 558.683 C 1345.05 559.246 1350.56 560.165 1354.65 560.218 C 1357.52 559.912 1358.9 559.497 1361.74 559.992 C 1369.85 559.923 1377.08 558.969 1384.96 558.768 C 1388.59 561.628 1407.65 576.088 1410 578.614 L 1410.8 575.387 C 1406.13 572.276 1394.76 562.893 1391.03 558.937 C 1397.41 556.905 1394.54 559.28 1396.23 554.457 C 1397.96 551.208 1404.7 548.278 1408.25 546.381 L 1407.41 544.394 C 1399.56 546.899 1395.54 549.293 1388.65 553.847 L 1368.45 553.938 z" fill="rgb(209,145,72)" transform="translate(0,0)"></path>
<path d="M 1396.23 554.457 C 1408.18 556.036 1421.75 555.533 1433.51 553.459 C 1434.35 553.31 1435.27 553.377 1436.09 553.661 L 1436.34 554.166 C 1435.22 556.331 1431.01 555.594 1430.46 557.12 C 1430.93 557.955 1463.59 567.437 1465.45 569.346 L 1465.48 569.472 C 1462.28 569.593 1442.66 563.916 1438.02 562.802 L 1434.02 561.809 C 1430.9 560.998 1427.7 560.696 1424.52 560.173 C 1432.96 568.092 1439.45 571.482 1448.28 579.67 C 1437.82 573.623 1427.74 566.938 1418.09 559.654 C 1408.39 559.143 1400.83 558.884 1391.03 558.937 C 1397.41 556.905 1394.54 559.28 1396.23 554.457 z" fill="rgb(248,242,230)" transform="translate(0,0)"></path>
<path d="M 1354.65 560.218 C 1357.52 559.912 1358.9 559.497 1361.74 559.992 C 1361.1 560.285 1360.05 560.757 1360.32 561.056 C 1364.54 565.766 1380.16 580.059 1383.41 583.895 L 1387.01 588.22 C 1375.09 579.868 1365.32 569.961 1354.65 560.218 z" fill="rgb(248,242,230)" transform="translate(0,0)"></path>
<path d="M 1407.41 544.394 C 1408.08 544.101 1414.67 540.698 1415.12 542.553 C 1414.51 543.964 1409.8 545.761 1408.25 546.381 L 1407.41 544.394 z" fill="rgb(252,230,204)" transform="translate(0,0)"></path>
<path d="M 1410.8 575.387 C 1413.58 578.331 1416.54 581.671 1410 578.614 L 1410.8 575.387 z" fill="rgb(252,230,204)" transform="translate(0,0)"></path>
<path d="M 1198.63 341.246 C 1201.18 344.315 1211.55 356.967 1214.28 358.733 C 1233.72 371.263 1253.1 372.648 1271.48 389.196 C 1285.33 401.67 1292.83 414.301 1294.43 433.366 C 1294.86 438.482 1294.96 447.541 1291.73 451.205 C 1288.68 451.06 1285.13 447.808 1282.45 445.817 C 1282.41 447.029 1279.87 486.021 1275.66 468.973 C 1272.71 461.805 1271.89 460.86 1275.47 453.817 L 1273.29 453.828 L 1271.72 454.596 L 1269.99 453.959 C 1265.88 447.98 1265.32 442.646 1264.25 435.628 C 1261.47 433.805 1263.15 435.817 1260.73 435.395 C 1260.21 434.882 1260.36 433.849 1260.33 433.197 C 1256.05 424.512 1251.56 420.038 1247.6 410.095 C 1245.62 408.582 1244.97 408.787 1242.98 407.662 C 1237 401.73 1231.89 397.09 1230.26 388.681 L 1227.92 388.957 L 1226.9 389.548 C 1226.17 390.582 1225.46 391.628 1224.76 392.687 C 1230.28 397.196 1237.37 405.95 1241.18 412.026 L 1240.78 413.525 L 1240.85 416.308 C 1250.3 418.365 1256.17 429.394 1256.78 438.453 C 1256.37 441.238 1257.01 440.783 1259.47 442.048 C 1263.02 444.917 1265.67 453.65 1266.64 458.018 C 1265.69 460.177 1266.43 459.544 1264.9 460.344 C 1266 462.874 1265.91 462.747 1268.34 464.237 C 1269.87 468.201 1271.82 476.178 1273.03 480.592 C 1267.37 478.615 1261.65 476.509 1255.89 474.881 L 1255.37 475.915 L 1257.97 481.352 C 1254.68 483.467 1242.52 485.467 1238.72 484.714 C 1183.25 473.733 1195.99 374.678 1198.63 341.246 z" fill="rgb(209,145,72)" transform="translate(0,0)"></path>
<path d="M 1209.57 367.291 C 1213.59 371.862 1216.73 376.811 1221.59 381.382 C 1222.64 382.367 1224.61 386.924 1226.9 389.548 C 1226.17 390.582 1225.46 391.628 1224.76 392.687 C 1223.41 392.29 1217.86 391.215 1218.22 389.108 C 1219.06 388.066 1220.82 388.308 1221.38 387.029 C 1221.38 387.044 1210.59 371.087 1208.88 368.268 L 1209.57 367.291 z" fill="rgb(248,242,230)" transform="translate(0,0)"></path>
<path d="M 1260.33 433.197 C 1261.72 421.707 1260.71 418.116 1263.33 404.952 C 1264.14 415.975 1263.86 424.795 1264.25 435.628 C 1261.47 433.805 1263.15 435.817 1260.73 435.395 C 1260.21 434.882 1260.36 433.849 1260.33 433.197 z" fill="rgb(248,242,230)" transform="translate(0,0)"></path>
<path d="M 1268.34 464.237 L 1260.49 463.177 C 1257.12 462.718 1237.26 458.323 1235.7 456.727 L 1235.72 456.568 C 1236.36 456.254 1262.12 460.015 1264.9 460.344 C 1266 462.874 1265.91 462.747 1268.34 464.237 z" fill="rgb(252,230,204)" transform="translate(0,0)"></path>
<path d="M 1273.29 453.828 C 1274.11 449.87 1276.84 425.978 1278.6 425.854 C 1280.98 429.378 1276.82 449.013 1275.47 453.817 L 1273.29 453.828 z" fill="rgb(248,242,230)" transform="translate(0,0)"></path>
<path d="M 1275.66 468.973 C 1279.83 467.869 1278.09 451.752 1282.45 445.817 C 1282.41 447.029 1279.87 486.021 1275.66 468.973 z" fill="rgb(211,150,75)" transform="translate(0,0)"></path>
<path d="M 1259.47 442.048 C 1256.66 441.788 1237.14 440.849 1236.18 439.428 C 1236.1 436.873 1254.37 438.255 1256.78 438.453 C 1256.37 441.238 1257.01 440.783 1259.47 442.048 z" fill="rgb(248,242,230)" transform="translate(0,0)"></path>
<path d="M 1242.98 407.662 C 1243.71 404.971 1240.71 383.234 1244.85 394.489 C 1245.47 396.177 1246.81 406.68 1247.6 410.095 C 1245.62 408.582 1244.97 408.787 1242.98 407.662 z" fill="rgb(248,242,230)" transform="translate(0,0)"></path>
<path d="M 1240.85 416.308 C 1238.84 416.2 1221.58 414.613 1220.27 413.131 L 1220.39 412.631 C 1221.43 412.058 1237.62 413.574 1240.78 413.525 L 1240.85 416.308 z" fill="rgb(252,230,204)" transform="translate(0,0)"></path>
<path d="M 1227.92 388.957 C 1226 379.473 1228.16 375.814 1229.94 386.903 L 1230.26 388.681 L 1227.92 388.957 z" fill="rgb(248,242,230)" transform="translate(0,0)"></path>
<path d="M 1208.88 368.268 C 1208.21 366.291 1206.7 363.406 1207.56 361.351 C 1207.8 361.485 1208.05 361.619 1208.3 361.753 L 1208.35 361.74 C 1209.46 363.571 1208.67 364.641 1209.57 367.291 L 1208.88 368.268 z" fill="rgb(223,171,149)" transform="translate(0,0)"></path>
<path d="M 854.815 342.466 C 854.663 379.251 871.314 435.954 837.153 463.362 C 835.638 464.578 833.145 463.44 831.617 462.932 L 830.844 461.336 C 831.496 458.335 832.092 456.716 831.587 453.662 C 828.045 451.264 827.316 452.241 822.378 451.584 C 823.59 450.251 824.825 448.94 826.084 447.652 L 825.362 446.536 C 819.219 446.099 812.085 449.326 802.24 449.431 L 799.644 448.255 C 796.122 449.676 794.97 449.217 791.234 448.728 C 789.125 449.322 788.29 449.697 786.21 450.584 C 781.538 446.898 780.752 431.964 776.501 425.098 C 775.643 431.38 778.388 443.292 779.637 449.762 C 772.273 450.544 765.227 450.939 757.792 451.876 C 762.196 412.155 769.122 391.353 808.554 372.688 C 832.161 361.515 836.819 361.793 854.815 342.466 z" fill="rgb(209,145,72)" transform="translate(0,0)"></path>
<path d="M 830.494 395.491 C 839.103 383.482 841.561 374.299 848.988 362.829 L 847.071 368.919 C 843.32 380.76 839.778 386.764 833.57 396.958 C 835.914 396.029 842.15 392.923 844.161 393.379 C 845.516 395.432 833.893 400.135 832.101 401.031 C 827.065 408.238 823.138 415.96 818.272 423.489 C 828.543 420.741 829.481 420.118 839.11 415.949 C 830.901 424.055 825.486 425.404 814.564 427.563 C 809.977 435.032 806.56 441.935 802.24 449.431 L 799.644 448.255 C 802.004 442.402 807.066 434.096 810.162 427.742 C 809.473 416.56 808.123 405.314 807.745 394.223 C 812.055 406.033 812.616 411.41 813.156 424.058 C 818.455 415.909 822.927 408.076 828.077 400.004 C 827.567 395.752 824.581 380.066 827.505 377.496 C 829.033 382.121 829.584 390.252 830.494 395.491 z" fill="rgb(248,242,230)" transform="translate(0,0)"></path>
<path d="M 786.21 450.584 C 789.057 445.959 789.431 444.354 791.331 439.077 C 792.071 436.991 792.852 434.919 793.673 432.863 C 793.023 439.831 793.033 441.892 791.234 448.728 C 789.125 449.322 788.29 449.697 786.21 450.584 z" fill="rgb(248,242,230)" transform="translate(0,0)"></path>
<path d="M 547.18 581.829 C 572.628 557.935 623.045 518.688 660.063 532.355 C 662.723 535.192 661.904 534.107 662.256 538.928 C 663.271 540.377 682.416 552.223 686.442 555.119 L 663.733 555.04 C 660.954 555.626 658.966 555.954 656.146 555.974 C 648.794 556.104 638.241 557.414 631.811 556.61 C 628.26 559.069 629.692 559.046 629.284 562.968 L 628.6 563.815 L 630.057 565.677 C 638.15 558.687 651.681 560.093 662.838 559.833 C 655.563 567.439 648.069 574.833 640.366 582.004 C 647.592 580.437 661.726 565.827 669.308 560.099 C 675.364 560.013 688.335 558.916 692.626 562.138 C 691.203 570.368 671.822 583.734 671.696 590.173 C 676.239 589.259 695.812 566.569 699.204 560.852 C 703.208 561.574 708.036 561.89 712.148 562.271 C 695.383 574.403 684.645 578.746 676.007 596.718 C 673.671 601.578 650.047 614.898 643.615 618.65 C 611.112 609.337 597.547 593.552 567.408 584.278 C 562.731 582.838 552.337 582.206 547.18 581.829 z" fill="rgb(211,150,75)" transform="translate(0,0)"></path>
<path d="M 626.275 558.528 C 624.975 558.167 616.785 556.206 616.445 555.949 C 610.886 551.752 630.897 556.188 631.811 556.61 C 628.26 559.069 629.692 559.046 629.284 562.968 C 622.818 560.754 615.186 564.338 608.466 565.84 L 604.471 566.745 C 600.388 567.608 596.497 568.75 592.55 570.02 C 592.114 570.161 586.935 572.215 587.666 570.652 C 588.093 569.74 590.293 569.15 590.957 568.877 C 600.34 565.017 610.13 562.332 620.008 560.083 C 622.762 559.465 623.389 559.434 626.275 558.528 z" fill="rgb(248,242,230)" transform="translate(0,0)"></path>
<path d="M 656.146 555.974 C 659.408 549.546 628.394 545.458 638.022 543.32 C 643.604 542.081 658.995 550.473 663.733 555.04 C 660.954 555.626 658.966 555.954 656.146 555.974 z" fill="rgb(248,242,230)" transform="translate(0,0)"></path>
<path d="M 630.057 565.677 C 629.466 566.305 607.449 579.51 607.59 579.509 L 607.437 579.258 C 609.767 574.279 623.698 566.914 628.6 563.815 L 630.057 565.677 z" fill="rgb(252,230,204)" transform="translate(0,0)"></path>
<path d="M 638.415 734.766 C 642.513 732.404 641.848 731.973 645.943 731.915 L 646.654 732.889 C 653.661 742.314 657.2 729.05 666.325 733.894 C 671.587 744.32 670.007 781.669 666.535 793.507 C 660.18 815.176 635.333 818.316 619.842 831.427 C 611.013 838.899 607.425 844.933 601.15 854.422 C 601.145 844.079 601.532 833.169 599.824 823.032 C 597.389 808.588 584.748 748.621 603.204 741.271 C 604.629 743.255 604.764 743.724 605.756 745.989 C 608.019 745.744 622.391 739.859 625.01 738.544 C 621.048 742.177 617.669 744.91 614.598 749.34 L 615.518 752.115 L 616.896 751.078 C 622.224 747.149 620.546 752.001 627.719 742.328 C 627.612 747.284 628.722 761.049 626.237 763.441 L 626.486 765.748 L 627.348 766.784 C 628.512 768.228 629.268 766.987 631.405 766.956 C 632.174 766.658 633.345 766.344 633.907 765.743 C 628.99 758.587 630.518 744.164 635.306 737.247 C 637.704 737.536 638.557 737.5 638.415 734.766 z" fill="rgb(209,145,72)" transform="translate(0,0)"></path>
<path d="M 626.486 765.748 L 627.348 766.784 C 628.512 768.228 629.268 766.987 631.405 766.956 C 629.449 770.671 629.738 772.634 628.748 775.971 C 625.557 786.722 626.107 791.442 629.938 801.531 C 630.221 802.277 630.067 803.896 629.581 804.65 C 627.654 804.683 627.231 796.011 624.635 795.916 C 621.354 798.429 616.572 818.247 611.64 821.593 C 609.672 822.062 609.029 818.89 610.07 817.556 C 616.647 809.126 618.554 801.973 621.898 791.966 C 620.85 792.634 613.696 798.033 612.831 797.412 C 612.465 794.99 619.655 790.33 621.468 788.757 C 623.588 782.919 627.292 771.864 626.486 765.748 z" fill="rgb(248,242,230)" transform="translate(0,0)"></path>
<path d="M 635.306 737.247 C 637.704 737.536 638.557 737.5 638.415 734.766 C 642.881 739.349 652.081 748.083 652.19 754.063 C 652.198 754.495 652.462 755.239 652.688 755.631 L 653.146 755.889 C 653.602 755.627 654.058 755.365 654.514 755.104 L 654.513 754.931 C 655.802 754.896 662.053 767.448 660.501 770.632 L 660.007 770.75 C 659.484 770.325 655.488 756.337 648.382 752.661 C 648.877 752.916 640.259 740.988 635.306 737.247 z" fill="rgb(252,230,204)" transform="translate(0,0)"></path>
<path d="M 633.907 765.743 C 636.067 769.016 646.41 787.557 644.506 790.692 C 643.113 789.183 641.162 785.045 640.048 783.087 C 637.031 777.784 634.149 772.405 631.405 766.956 C 632.174 766.658 633.345 766.344 633.907 765.743 z" fill="rgb(252,230,204)" transform="translate(0,0)"></path>
<path d="M 626.486 765.748 C 624.834 766.898 610.997 779.115 610.076 776.953 C 611.32 773.695 622.645 765.341 626.237 763.441 L 626.486 765.748 z" fill="rgb(252,230,204)" transform="translate(0,0)"></path>
<path d="M 614.598 749.34 L 615.518 752.115 C 607.107 763.035 608.427 756.693 614.598 749.34 z" fill="rgb(248,242,230)" transform="translate(0,0)"></path>
<path d="M 1391.36 725.836 C 1398.71 731.788 1401.16 729.548 1409.69 734.961 C 1411.1 736.152 1411.94 736.822 1413.4 737.897 C 1414.69 747.014 1418.15 762.166 1414.51 769.802 L 1417.55 770.996 C 1419.67 776.098 1421.57 785.202 1422.93 790.863 C 1424.72 791.912 1424.03 793.534 1423.54 795.317 C 1427.62 797.388 1426 792.043 1425.79 789.8 L 1421.56 768.796 C 1420.76 767.182 1421.15 766.181 1421.37 764.396 L 1421.44 762.819 C 1419.96 758.756 1419.19 747.615 1418.7 742.732 C 1425.37 748.051 1433.37 754.997 1440.91 758.533 C 1432.88 749.799 1428.13 744.781 1418.58 737.777 C 1429.59 742.589 1432.69 745.526 1443.73 739.498 C 1458.98 768.433 1452.14 785.807 1448.31 816.658 C 1446.83 828.585 1445.89 840.879 1444.93 852.896 C 1422.39 816.769 1377.93 819.964 1376.27 774.235 C 1375.43 751.147 1379.83 744.572 1391.36 725.836 z" fill="rgb(209,145,72)" transform="translate(0,0)"></path>
<path d="M 1422.93 790.863 C 1424.72 791.912 1424.03 793.534 1423.54 795.317 C 1427.62 797.388 1426 792.043 1425.79 789.8 C 1428.02 791.348 1428.69 791.793 1431.1 792.99 L 1430.33 794.472 C 1427.71 795.335 1426.83 795.026 1427.84 797.982 C 1429.67 803.352 1431.45 809.263 1434.38 814.136 C 1435.61 816.179 1438.03 814.352 1439.04 815.975 C 1439.15 818.439 1436.31 817.054 1435.56 818.154 C 1434.8 819.253 1437.88 822.797 1436.23 823.77 C 1432.71 822.193 1426.18 801.616 1423.68 796.404 L 1423.08 797.302 C 1420.59 801.108 1419.64 802.604 1417.49 806.528 C 1417.24 806.604 1416.99 806.681 1416.74 806.757 C 1413.72 805.957 1422.22 794.584 1422.93 790.863 z" fill="rgb(248,242,230)" transform="translate(0,0)"></path>
<path d="M 1409.69 734.961 C 1411.1 736.152 1411.94 736.822 1413.4 737.897 C 1404.02 744.8 1393.32 756.693 1387.5 766.899 C 1387.1 767.597 1385.5 771.273 1384.53 771.478 C 1382.48 761.69 1402.83 741.37 1409.69 734.961 z" fill="rgb(248,242,230)" transform="translate(0,0)"></path>
<path d="M 1421.44 762.819 C 1426.09 766.61 1436.52 773.927 1438.32 779.555 L 1437.82 780.106 C 1434.33 778.038 1426.42 766.993 1421.56 768.796 C 1420.76 767.182 1421.15 766.181 1421.37 764.396 L 1421.44 762.819 z" fill="rgb(252,230,204)" transform="translate(0,0)"></path>
<path d="M 1414.51 769.802 L 1417.55 770.996 C 1416.16 772.414 1404.37 790.797 1404.31 790.369 C 1403.57 785.497 1412.52 772.908 1414.51 769.802 z" fill="rgb(252,230,204)" transform="translate(0,0)"></path>
<path d="M 1431.1 792.99 C 1444.12 800.446 1440.6 803.752 1430.33 794.472 L 1431.1 792.99 z" fill="rgb(223,171,149)" transform="translate(0,0)"></path>
<path d="M 1268.42 573.079 C 1275.19 570.584 1282.06 568.25 1288.47 564.904 C 1291.08 563.546 1294.74 559.591 1296.37 559.356 C 1297.21 559.707 1299.34 564.805 1299.93 565.922 C 1299.64 567.356 1300.53 569.604 1300.54 571.864 C 1301.62 577.977 1303.17 583.233 1303.01 589.505 C 1302.74 600.363 1288.2 615.208 1277.99 616.741 C 1254.69 620.24 1237.11 618.981 1216.26 631.402 C 1218.86 622.723 1220.16 617.216 1222.25 608.525 C 1223.24 604.533 1224.26 600.548 1225.31 596.57 C 1228.6 584.248 1231.31 579.484 1239.21 569.776 C 1244.21 571.101 1253.16 573.915 1257.71 574.067 C 1261.08 573.738 1265.47 573.817 1268.42 573.079 z" fill="rgb(211,150,75)" transform="translate(0,0)"></path>
<path d="M 1268.42 573.079 C 1275.19 570.584 1282.06 568.25 1288.47 564.904 C 1291.08 563.546 1294.74 559.591 1296.37 559.356 C 1297.21 559.707 1299.34 564.805 1299.93 565.922 C 1299.64 567.356 1300.53 569.604 1300.54 571.864 C 1294.26 567.757 1289.03 600.533 1285.62 594.909 C 1284.44 592.966 1291.55 576.415 1293.11 572.561 C 1285.95 575.319 1279.75 577.668 1272.72 580.938 C 1271.25 586.34 1269 591.024 1267.77 596.486 C 1267.63 597.138 1266.73 602.728 1265.45 602.245 C 1264.33 600.169 1267.81 586.448 1268.45 582.982 C 1262.03 587.411 1256.1 592.134 1250.22 597.317 C 1246.65 600.458 1251.76 607.6 1245.82 610.166 C 1244.16 609.269 1247.47 603.354 1244.91 602.044 C 1242.49 602.141 1237.04 608.873 1235.05 610.512 C 1234.39 611.047 1228.96 617.223 1227.88 615.299 C 1231.54 608.222 1248.34 594.857 1254.82 589.425 C 1254.23 589.465 1235.67 591.215 1237.43 591.844 C 1236.75 590.346 1241.8 588.273 1242.58 588.05 C 1250.22 585.859 1256.87 587.671 1263.32 581.904 C 1264.32 581.011 1268.55 579.204 1267.03 576.549 C 1265.73 574.266 1260.35 574.556 1257.71 574.067 C 1261.08 573.738 1265.47 573.817 1268.42 573.079 z" fill="rgb(248,242,230)" transform="translate(0,0)"></path>
<path d="M 1268.42 573.079 C 1275.19 570.584 1282.06 568.25 1288.47 564.904 C 1291.08 563.546 1294.74 559.591 1296.37 559.356 C 1297.21 559.707 1299.34 564.805 1299.93 565.922 C 1291.84 569.389 1279.91 573.426 1271.56 576.578 C 1271.32 576.668 1268.55 573.239 1268.42 573.079 z" fill="rgb(211,150,75)" transform="translate(0,0)"></path>
<path d="M 886.023 427.74 C 899.119 428.37 904.611 430.532 911.389 417.828 L 912.016 416.632 L 913.45 417.179 C 910.827 430.519 888.363 479.954 889.704 487.828 C 899.294 544.137 915.766 553.034 892.081 612.831 C 887.91 616.368 884.765 618.308 879.303 619.223 C 903.688 566.008 881.514 539.599 869.31 488.299 C 868.072 483.095 883.093 436.319 886.023 427.74 z" fill="rgb(183,62,21)" transform="translate(0,0)"></path>
<path d="M 1312.73 502.53 C 1320.39 506.654 1321.18 508.442 1326.14 515.062 C 1330.9 512.171 1334.16 510.349 1339.16 507.961 C 1352.45 512.715 1372.51 526.481 1386.48 534.376 C 1383.7 536.47 1380.84 538.473 1377.93 540.383 C 1352.85 555.185 1348.71 549.052 1319.23 546.804 C 1312.05 530.067 1307.04 520.424 1312.73 502.53 z" fill="rgb(211,150,75)" transform="translate(0,0)"></path>
<path d="M 740.206 502.831 C 742.39 504.227 742.259 510.918 742.841 514.017 L 744.072 521.482 C 741.819 527.33 738.486 535.928 735.687 541.388 L 734.767 543.154 L 733.948 544.779 L 732.879 545.089 C 729.455 546.144 725.986 547.047 722.483 547.796 L 718.429 548.63 C 701.481 551.957 690.95 549.734 676.409 540.518 L 674.673 539.438 C 672.531 538.058 670.238 536.301 668.119 534.793 L 668.947 534.178 C 680.625 525.507 693.223 518.137 706.148 511.51 C 718.365 505.246 720.149 508.597 727.035 518.355 C 731.858 508.777 731.536 509.914 740.206 502.831 z" fill="rgb(211,150,75)" transform="translate(0,0)"></path>
<path d="M 749.799 493.37 C 758.953 496.598 761.626 495.488 769.487 497.232 C 791.067 502.021 806.755 517.508 786.828 536.653 C 776.851 542.375 761.498 550.024 754.53 534.865 C 747.952 520.555 744.772 508.761 749.799 493.37 z" fill="rgb(211,150,75)" transform="translate(0,0)"></path>
<path d="M 590.488 645.816 C 601.012 647.934 608.488 649.335 618.753 652.993 C 618.936 653.983 619.068 654.981 619.207 655.978 C 619.801 660.251 627.671 685.929 629.734 687.482 C 631.031 688.458 634.063 687.705 635.423 687.526 C 635.975 687.454 636.753 687.383 637.237 687.748 C 637.464 687.92 637.609 688.157 637.62 688.444 C 637.672 689.888 636.46 692.121 635.909 693.473 C 634.382 697.224 631.81 699.827 628.023 701.28 C 625.253 702.343 622.428 702.796 619.508 703.173 C 618.331 703.325 617.165 703.558 615.992 703.749 C 612.826 704.265 609.512 704.371 606.315 704.727 C 607.166 696.817 607.234 678.927 609.751 673.341 L 608.621 670.569 C 601.531 672.227 595.883 672.737 588.483 671.265 L 584.55 670.459 C 582.086 669.246 581.139 668.825 578.546 667.98 C 582.531 661.517 587.277 652.573 590.488 645.816 z" fill="rgb(211,150,75)" transform="translate(0,0)"></path>
<path d="M 608.621 670.569 C 624.109 667.521 619.377 672.06 609.751 673.341 L 608.621 670.569 z" fill="rgb(248,242,230)" transform="translate(0,0)"></path>
<path d="M 714.973 782.099 C 718.982 783.475 723.195 784.982 725.61 788.688 C 726.146 789.511 727.333 791.293 728.492 791.078 C 732.212 790.388 736.613 784.834 739.05 782.238 C 746.345 787.068 752.983 792.266 759.734 797.84 C 755.836 808.538 754.699 812.94 748.936 823.205 C 748.57 823.66 747.358 825.459 746.47 825.09 C 732.547 819.288 718.837 811.153 705.98 803.19 C 703.874 801.886 701.61 798.969 700.029 797.045 L 698.865 795.651 C 704.089 790.519 709.077 786.411 714.973 782.099 z" fill="rgb(211,150,75)" transform="translate(0,0)"></path>
<path d="M 790.93 482.296 C 799.254 481.919 821.228 481.437 828.808 488.022 C 830.116 489.158 828.972 494.795 828.657 496.433 C 825.895 510.826 819.912 518.224 807.617 525.898 C 806.117 526.69 800.731 529.783 799.275 529.488 C 799.11 528.972 799.365 527.1 799.561 526.601 C 806.468 509.026 788.248 497.413 774.117 493.278 C 780.536 487.408 782.492 484.453 790.93 482.296 z" fill="rgb(211,150,75)" transform="translate(0,0)"></path>
<path d="M 1331.35 783.719 C 1331.12 783.662 1345.77 794.33 1348.45 795.956 C 1333.77 809.827 1318.89 815.997 1300.24 823.191 C 1292.48 822.596 1289.62 803.693 1288.27 797.372 C 1293.92 792.068 1299.7 789.286 1306.54 785.526 L 1308.27 784.566 C 1313.03 788.007 1314.87 789.079 1319.72 791.966 C 1323.92 789.218 1327.33 786.731 1331.35 783.719 z" fill="rgb(211,150,75)" transform="translate(0,0)"></path>
<path d="M 1292.69 732.16 C 1306.16 730.898 1305.43 732.534 1317.79 737.132 L 1315.91 737.775 C 1298.84 743.775 1298.9 748.473 1297.99 765.89 C 1290.6 766.077 1278.03 766.54 1270.76 767.411 C 1262.26 768.386 1253.72 768.98 1245.16 769.189 C 1258.68 751.706 1270.69 738.185 1292.69 732.16 z" fill="rgb(211,150,75)" transform="translate(0,0)"></path>
<path d="M 710.8 738.192 C 720.665 737.289 708.518 743.377 706.464 745.472 C 693.755 758.43 698.484 767.416 709.438 779.038 C 700.389 787.335 692.102 795.083 681.525 801.275 C 677.869 802.979 674.224 804.804 670.547 806.528 C 672.516 791.343 672.288 772.67 680.448 759.811 C 688.271 747.485 696.53 741.288 710.8 738.192 z" fill="rgb(211,150,75)" transform="translate(0,0)"></path>
<path d="M 1355.77 459.106 C 1363.36 464.241 1371.25 483.668 1374.97 492.639 C 1359.21 495.332 1351.86 494.476 1336.87 502.039 C 1336.62 502.2 1336.37 502.361 1336.12 502.522 L 1332.71 504.664 C 1332.23 504.962 1330.92 505.793 1330.33 505.643 C 1329.94 504.629 1330.99 501.233 1330.65 499.008 C 1329.43 490.908 1326.81 484.14 1323.79 476.616 C 1335.65 468.304 1342.24 464.203 1355.77 459.106 z" fill="rgb(211,150,75)" transform="translate(0,0)"></path>
<path d="M 696.298 459.872 C 705.186 462.518 722.255 470.24 729.047 476.469 C 725.316 484.42 721.864 491.488 721.62 500.507 C 721.602 501.201 721.647 503.142 721.436 503.867 C 719.933 504.331 717.422 502.731 716.06 502.042 C 699.052 494.571 696.464 494.93 678.085 493.529 C 681.95 479.501 686.127 470.697 696.298 459.872 z" fill="rgb(211,150,75)" transform="translate(0,0)"></path>
<path d="M 704.908 614.991 C 715.583 614.896 728.418 624.312 729.013 635.029 C 729.278 639.801 711.723 652.812 707.811 656.355 C 702.733 658.654 700.026 658.8 694.467 657.071 C 689.6 655.774 691.003 650.534 689.229 646.969 C 680.537 629.503 686.473 622.501 704.908 614.991 z" fill="rgb(211,150,75)" transform="translate(0,0)"></path>
<path d="M 1406.21 632.598 C 1422.44 634.237 1427.22 637.105 1424.93 654.998 C 1424.15 661.066 1418.91 683.638 1410.77 682.336 C 1401.79 679.352 1399.4 678.059 1391.55 672.665 C 1389.04 664.93 1389.04 662.95 1388.7 654.596 C 1395.8 645.315 1399.97 643.115 1406.21 632.598 z" fill="rgb(211,150,75)" transform="translate(0,0)"></path>
<path d="M 1147.97 374.403 C 1160.86 378.553 1170.92 382.616 1177.87 394.981 C 1185.06 407.75 1180.49 413.33 1168.31 419.514 C 1154.98 422.983 1147.27 416.722 1136.21 409.482 C 1146.57 392.021 1146.28 393.509 1147.97 374.403 z" fill="rgb(183,62,21)" transform="translate(0,0)"></path>
<path d="M 1322.1 656.13 C 1313.11 646.693 1295.15 636.391 1308.85 621.457 C 1311.75 618.301 1319.24 611.88 1323.5 612.833 C 1368.16 622.819 1336.48 646.723 1326.41 658.389 C 1324.91 657.533 1323.71 656.755 1322.1 656.13 z" fill="rgb(211,150,75)" transform="translate(0,0)"></path>
<path d="M 1318.92 743.142 C 1330.33 742.365 1331.1 742.449 1339.49 752.002 C 1351.58 765.775 1335.25 775.552 1324.78 783.1 C 1323.51 784.014 1319.93 786.736 1318.25 785.6 C 1307.32 778.202 1298.07 763.633 1304.94 750.458 C 1307.39 745.775 1314.26 744.217 1318.92 743.142 z" fill="rgb(211,150,75)" transform="translate(0,0)"></path>
<path d="M 720.523 742.999 C 721.683 742.922 722.843 742.863 724.004 742.823 C 729.991 742.675 738.514 744.819 742.388 749.397 C 751.784 760.497 735.236 778.312 728.548 784.961 C 705.631 773.311 687.079 757.062 720.523 742.999 z" fill="rgb(211,150,75)" transform="translate(0,0)"></path>
<path d="M 748.551 730.342 C 752.283 729.67 756.129 729.848 759.907 729.947 C 776.802 755.967 774.47 750.764 798.524 767.254 C 788.721 769.059 788.231 769.157 778.061 769.242 C 767.732 768.719 759.718 766.789 749.648 765.223 C 749.66 763.831 749.691 761.775 749.934 760.495 C 753.86 739.761 729.704 739.311 727.457 736.814 C 727.473 732.893 745.809 730.723 748.551 730.342 z" fill="rgb(209,145,72)" transform="translate(0,0)"></path>
<path d="M 610.118 617.159 C 615.002 616.866 623.291 616.912 627.451 619.261 C 628.042 620.494 645.691 622.961 641.257 626.108 C 626.463 636.607 623.613 624.449 619.433 648.44 C 616.144 647.382 610.759 645.666 607.516 644.905 C 589.732 640.116 585.75 638.562 567.089 636.446 C 582.404 626.738 591.862 620.962 610.118 617.159 z" fill="rgb(211,150,75)" transform="translate(0,0)"></path>
<path d="M 1350.35 638.198 C 1355.79 638.026 1373.56 636.607 1376.5 639.952 C 1383.85 648.312 1383.12 666.903 1383.07 676.986 C 1373.77 672.503 1362.56 669.16 1354.33 663.421 C 1351.23 661.259 1346.44 656.59 1342.64 653.661 C 1340.33 654.673 1339.12 655.261 1336.94 656.522 C 1336.1 656.273 1335.46 656.139 1334.69 655.733 C 1335.41 655.029 1336.12 654.324 1336.84 653.619 C 1341.59 648.505 1345.85 643.491 1350.35 638.198 z" fill="rgb(211,150,75)" transform="translate(0,0)"></path>
<path d="M 1334.69 655.733 C 1335.41 655.029 1336.12 654.324 1336.84 653.619 L 1342.64 653.661 C 1340.33 654.673 1339.12 655.261 1336.94 656.522 C 1336.1 656.273 1335.46 656.139 1334.69 655.733 z" fill="rgb(209,145,72)" transform="translate(0,0)"></path>
<path d="M 827.104 514.707 C 827.461 514.816 827.818 514.925 828.174 515.035 C 837.07 518.046 845.852 521.381 854.503 525.035 C 847.548 534.982 837.331 547.149 825.039 549.668 C 813.986 548.362 804.522 546.296 796.585 537.626 L 795.659 536.651 C 811.821 530.459 815.601 528.795 827.104 514.707 z" fill="rgb(211,150,75)" transform="translate(0,0)"></path>
<path d="M 1295.82 541.788 C 1294.79 544.704 1293.61 551.015 1289.58 551.008 C 1282.04 550.843 1273.88 551.674 1266.84 548.316 C 1255.61 542.961 1253.48 528.763 1261.88 519.884 C 1266.68 514.813 1274.82 513.898 1281.65 514.06 L 1283.43 513.772 C 1286 521.779 1292.03 533.823 1295.82 541.788 z" fill="rgb(209,145,72)" transform="translate(0,0)"></path>
<path d="M 651.838 638.262 C 657.779 636.288 673.406 636.923 680.244 637.003 C 681.353 640.931 686.625 653.176 685.134 655.452 C 680.137 663.076 657.246 673.325 649.056 677.207 C 648.368 663.673 648.007 662.077 650.578 648.736 C 648.433 646.486 645.51 647.5 646.084 644.528 C 646.347 643.167 648.433 639.463 650.068 640.064 C 650.208 640.53 650.349 640.997 650.489 641.463 L 650.673 641.508 C 651.449 640.048 650.189 640.796 651.838 638.262 z" fill="rgb(211,150,75)" transform="translate(0,0)"></path>
<path d="M 650.578 648.736 C 648.433 646.486 645.51 647.5 646.084 644.528 C 646.347 643.167 648.433 639.463 650.068 640.064 C 650.208 640.53 650.349 640.997 650.489 641.463 L 650.673 641.508 C 651.449 640.048 650.189 640.796 651.838 638.262 C 652.188 642.309 651.88 644.799 650.578 648.736 z" fill="rgb(248,242,230)" transform="translate(0,0)"></path>
<path d="M 1333.6 739.172 C 1345.57 741.766 1360.47 751.73 1365.2 763.432 C 1369.26 773.455 1371.12 785.459 1372.52 796.173 C 1372.97 799.626 1365.04 797.415 1363.81 797.18 C 1359.14 795.35 1338.47 787.083 1338.81 779.965 C 1338.92 777.494 1348.1 769.27 1350.57 766.914 C 1344.67 750.183 1345.21 753.018 1334.69 740.493 L 1333.6 739.172 z" fill="rgb(211,150,75)" transform="translate(0,0)"></path>
<path d="M 1366.73 498.334 C 1376.48 496.593 1396.17 498.844 1406.87 499.357 C 1402.45 507.699 1394.78 523.393 1386.69 527.644 C 1371.28 520.552 1358.92 510.661 1342.9 504.56 C 1352.95 500.725 1356.31 499.72 1366.73 498.334 z" fill="rgb(211,150,75)" transform="translate(0,0)"></path>
<path d="M 1266.7 485.239 C 1269.61 484.648 1270.56 484.274 1270.96 487.434 C 1271.65 492.935 1272.56 499.737 1273.77 505.086 L 1274.55 508.472 C 1273.76 508.761 1265.92 511.478 1266.09 511.51 C 1260.25 510.439 1251.19 528.114 1252.48 527.588 C 1251.29 527.331 1249.87 525.189 1249.17 524.29 C 1238.85 511.52 1221.96 494.765 1247.01 489.18 L 1251.51 488.186 C 1253.01 487.869 1255.01 487.441 1256.51 487.168 L 1266.7 485.239 z" fill="rgb(211,150,75)" transform="translate(0,0)"></path>
<path d="M 663.318 499.401 C 676.469 497.41 696.531 499.513 708.976 504.479 C 700.442 508.796 692.746 513.367 684.429 517.924 C 678.452 521.589 672.595 524.961 666.588 528.73 C 655.364 518.076 653.624 513.93 645.876 501.104 C 651.624 500.547 657.613 500.046 663.318 499.401 z" fill="rgb(211,150,75)" transform="translate(0,0)"></path>
<path d="M 1425.05 619.161 C 1448.33 617.487 1459.51 625.131 1477.99 638.983 C 1467.99 638.827 1464.15 639.022 1454.23 641.111 C 1447.49 641.652 1437.67 644.37 1431.02 645.968 C 1425.56 628.876 1421.16 630.566 1404.56 625.798 C 1411.31 623.394 1418.1 620.819 1425.05 619.161 z" fill="rgb(209,145,72)" transform="translate(0,0)"></path>
<path d="M 1235.98 514.529 C 1239.33 517.869 1243.16 525.565 1246.36 528.641 C 1264.03 545.615 1244.33 548.233 1227.88 549.621 C 1223.74 547.366 1203.65 530.381 1211.95 524.077 C 1215.44 521.424 1227.58 518.538 1232.99 515.961 L 1235.98 514.529 z" fill="rgb(209,145,72)" transform="translate(0,0)"></path>
<path d="M 744.944 429.953 C 747.956 432.883 751.687 450.386 752.718 454.955 C 747.202 460.185 738.81 468.111 733.304 473.016 C 731.18 471.732 729.073 470.415 727.04 468.991 C 721.938 466.064 717.076 463.304 711.875 460.542 C 722.02 445.026 728.598 438.638 744.944 429.953 z" fill="rgb(211,150,75)" transform="translate(0,0)"></path>
<path d="M 1310.28 431.405 C 1320.75 438.374 1334.97 449.231 1342.34 459.409 C 1337.51 462.519 1332.6 465.499 1327.61 468.344 C 1325.05 470.223 1322.76 471.79 1320.22 473.759 C 1313.37 466.822 1306.69 461.542 1300.14 454.824 C 1301.55 448.836 1303.47 442.895 1304.76 436.939 C 1305.71 432.604 1306.06 433.12 1310.28 431.405 z" fill="rgb(211,150,75)" transform="translate(0,0)"></path>
<path d="M 754.526 836.228 C 755.411 836.705 756.295 837.182 757.18 837.66 L 775.553 847.462 C 776.021 847.704 776.488 847.946 776.956 848.188 C 774.179 857.276 770.009 867.255 762.956 873.899 C 758.034 880.88 752.386 873.973 744.271 871.831 C 731.076 868.348 739.811 862.349 744.038 855.392 L 744.561 854.517 C 745.743 853.536 746.005 853.296 747.016 852.098 C 747.657 848.726 751.963 841.704 753.95 837.445 L 754.526 836.228 z" fill="rgb(211,150,75)" transform="translate(0,0)"></path>
<path d="M 744.561 854.517 C 748.345 857.375 752.211 860.123 756.155 862.756 C 758.816 864.536 759.628 865.486 761.696 867.803 C 764.155 872.812 761.963 869.818 762.956 873.899 C 758.034 880.88 752.386 873.973 744.271 871.831 C 731.076 868.348 739.811 862.349 744.038 855.392 L 744.561 854.517 z" fill="rgb(209,145,72)" transform="translate(0,0)"></path>
<path d="M 747.016 852.098 C 751.879 856.224 756.403 860.844 761.64 864.571 C 763.586 865.955 764.718 867.171 761.696 867.803 C 759.628 865.486 758.816 864.536 756.155 862.756 C 752.211 860.123 748.345 857.375 744.561 854.517 C 745.743 853.536 746.005 853.296 747.016 852.098 z" fill="rgb(252,230,204)" transform="translate(0,0)"></path>
<path d="M 1300.82 640.066 C 1300.39 639.734 1314.28 654.475 1316.31 656.444 C 1307.17 663.837 1297.75 670.25 1288.48 677.313 C 1285.03 680.06 1282.31 682.254 1278.96 685.159 C 1278.51 676.496 1277.1 660.302 1279.64 651.744 C 1281.09 646.824 1295.55 641.977 1300.82 640.066 z" fill="rgb(211,150,75)" transform="translate(0,0)"></path>
<path d="M 643.341 457.408 C 653.27 458.9 671.818 462.602 679.908 468.16 L 681.534 469.244 C 678.996 475.216 676.095 482.018 673.386 487.886 C 672.85 491.509 673.594 494.741 669.118 494.82 C 665.27 494.851 661.423 494.954 657.579 495.13 C 649.61 479.651 645.82 475.32 643.341 457.408 z" fill="rgb(211,150,75)" transform="translate(0,0)"></path>
<path d="M 573.906 675.805 L 584.606 676.26 C 590.855 677.17 596.704 676.968 603.002 677.174 C 603.216 688.5 602.785 693.823 601.691 704.887 C 590.699 705.949 582.379 706.302 571.294 706.315 C 571.389 695.888 570.075 685.587 573.906 675.805 z" fill="rgb(211,150,75)" transform="translate(0,0)"></path>
<path d="M 1407.46 702.404 C 1414.18 704.457 1421.05 705.959 1428.01 706.896 C 1432.25 707.466 1436.46 708.278 1440.65 709.166 C 1439.76 720.159 1439.39 726.628 1437.41 737.483 C 1423.47 733.703 1415.92 731.914 1404.19 723.307 C 1405.25 716.475 1406.57 709.184 1407.46 702.404 z" fill="rgb(211,150,75)" transform="translate(0,0)"></path>
<path d="M 1406.01 458.3 C 1414.43 458.401 1398.21 491.725 1395.82 495.374 C 1392.28 494.846 1382.09 494.121 1380.46 492.663 C 1377.92 484.501 1375.17 476.716 1371.43 468.986 C 1383.26 463.018 1392.9 460.369 1406.01 458.3 z" fill="rgb(211,150,75)" transform="translate(0,0)"></path>
<path d="M 699.57 693.663 C 703.96 696.787 714.988 706.746 719.388 710.679 C 716.835 710.424 717.069 710.964 715.898 713.104 C 696.062 741.346 693.566 737.327 677.736 711.253 C 683.486 706.801 691.779 700.412 696.8 695.293 C 698.519 695.128 698.568 695.085 699.57 693.663 z" fill="rgb(211,150,75)" transform="translate(0,0)"></path>
<path d="M 699.57 693.663 C 703.96 696.787 714.988 706.746 719.388 710.679 C 716.835 710.424 717.069 710.964 715.898 713.104 C 708.765 705.563 703.499 705.183 696.8 695.293 C 698.519 695.128 698.568 695.085 699.57 693.663 z" fill="rgb(248,242,230)" transform="translate(0,0)"></path>
<path d="M 1349.23 666.495 C 1351.21 667.203 1367.34 676.554 1367.65 677.277 C 1370.51 683.895 1360.29 704.056 1354.68 707.319 C 1347.01 701.552 1339.69 695.729 1331.89 690.058 C 1337.58 681.842 1343.14 674.42 1349.23 666.495 z" fill="rgb(211,150,75)" transform="translate(0,0)"></path>
<path d="M 694.073 799.871 C 694.554 800.104 695.166 800.349 695.534 800.726 C 701.168 806.504 709.273 810.533 716.193 814.871 L 717.808 815.894 C 712.928 826.049 708.547 832.479 701.813 841.582 C 701.911 841.463 699.145 845.141 698.478 844.065 C 691.929 833.501 686.432 820.37 680.882 809.219 C 685.502 806.121 689.57 803.088 694.073 799.871 z" fill="rgb(209,145,72)" transform="translate(0,0)"></path>
<path d="M 1330.49 694.572 C 1340.34 700.869 1342.95 702.164 1352.27 710.474 C 1349.4 715.162 1339.93 732.185 1336.45 734.187 C 1330.07 730.604 1315.36 720.316 1312.76 712.446 C 1311.7 709.232 1318.17 709.903 1320.21 708.286 C 1322.93 706.126 1328.98 696.679 1330.49 694.572 z" fill="rgb(211,150,75)" transform="translate(0,0)"></path>
<path d="M 1353.66 798.665 C 1367.78 802.448 1355.76 820.967 1353.66 829.773 C 1352.34 835.344 1344.38 851.335 1339.4 838.474 C 1334.55 830.989 1330.05 825.7 1325.72 817.601 C 1339.74 809.426 1341.06 809.09 1353.66 798.665 z" fill="rgb(211,150,75)" transform="translate(0,0)"></path>
<path d="M 634.064 704.134 C 636.24 704.347 640.23 717.756 642.069 721.377 C 636.416 725.071 631.111 728.172 625.008 730.996 C 622.034 732.373 620.392 734.806 616.982 734.908 C 614.858 734.972 614.418 734.547 613.03 736.15 C 605.011 741.102 607.342 737.118 605.852 728.501 C 604.881 722.886 605.042 716.064 604.995 710.316 C 615.024 709.045 624.586 707.768 634.064 704.134 z" fill="rgb(211,150,75)" transform="translate(0,0)"></path>
<path d="M 681.106 664.682 C 685.643 665.554 691.355 681.582 694.546 686.855 L 696.241 689.645 C 690.121 695.245 683.634 700.428 676.822 705.161 C 669.184 709.401 664.174 680.709 662.948 675.61 C 668.934 671.859 674.988 668.215 681.106 664.682 z" fill="rgb(211,150,75)" transform="translate(0,0)"></path>
<path d="M 1290.53 770.42 C 1300.15 768.941 1300.13 772.665 1305.67 780.447 C 1296.69 786.503 1287.33 791.266 1278 797.314 C 1272.91 799.699 1269.58 800.778 1264.39 802.653 C 1265.04 789.541 1265.28 785.421 1267.46 772.702 C 1276.21 771.42 1281.9 771.092 1290.53 770.42 z" fill="rgb(209,145,72)" transform="translate(0,0)"></path>
<path d="M 718.366 668.499 C 725.469 673.262 729.225 676.474 735.787 682.171 C 729.531 695.148 725.682 699.593 719.388 710.679 C 714.988 706.746 703.96 696.787 699.57 693.663 C 700.91 689.817 714.53 673.52 718.366 668.499 z" fill="rgb(211,150,75)" transform="translate(0,0)"></path>
<path d="M 1320 818.902 C 1322.67 819.628 1329.07 831.864 1331.21 835.249 C 1322.56 844.379 1316.74 849.64 1306.01 856.577 C 1301.72 849.826 1295.77 839.108 1291.88 831.905 C 1301.23 827.231 1310.61 823.88 1320 818.902 z" fill="rgb(211,150,75)" transform="translate(0,0)"></path>
<path d="M 1291.77 455.773 C 1296.52 458.548 1313.87 474.36 1318.21 478.853 C 1321.43 482.179 1327.08 499.999 1326.41 505.643 C 1315.59 495.812 1301.59 490.612 1289.66 480.321 C 1290.12 472.259 1290.13 463.69 1291.77 455.773 z" fill="rgb(211,150,75)" transform="translate(0,0)"></path>
<path d="M 1336.84 604.225 C 1357.9 605.043 1366.83 615.513 1380.11 629.5 C 1388.05 627.726 1395.94 626.059 1403.88 624.203 C 1400.76 626.023 1397.6 627.493 1394.31 628.988 C 1392.15 629.905 1385.7 632.986 1383.55 632.975 C 1376.66 632.94 1370.45 633.179 1363.5 633.733 C 1361.55 633.608 1352.73 634.752 1351.49 633.601 C 1350.63 632.807 1351.53 627.305 1350.08 624.481 C 1347.2 618.133 1339.38 612.603 1332.67 610.552 C 1324.82 608.151 1332.4 605.579 1336.84 604.225 z" fill="rgb(211,150,75)" transform="translate(0,0)"></path>
<path d="M 697.988 602.882 C 698.601 603.018 702.727 608.637 703.387 609.499 C 695.262 612.814 683.97 617.243 681.168 626.524 C 680.615 628.354 680.896 631.38 679.755 632.872 C 679.091 633.741 653.557 632.843 650.75 632.88 C 649.375 632.886 647.895 633.095 646.568 632.681 C 645.131 632.233 646.27 630.067 646.692 629.378 C 653.623 618.057 666.439 611.96 679.013 609.242 C 682.951 608.48 686.997 607.508 690.981 607.074 C 694.373 606.704 695.923 607.479 697.434 604.086 L 697.988 602.882 z" fill="rgb(211,150,75)" transform="translate(0,0)"></path>
<path d="M 1365.12 432.003 C 1366.06 431.884 1367.62 431.667 1368.28 432.318 C 1370.88 434.876 1378.34 450.731 1378.98 453.511 L 1380.19 458.823 C 1374.94 461.557 1373.2 462.71 1368.57 466.009 C 1364.83 460.914 1363.04 458.54 1360.2 452.784 C 1358.29 451.957 1348.5 457.134 1346.47 458.217 C 1342.68 452.045 1342.12 450.844 1337.6 445.13 C 1347.66 438.754 1353.66 435.64 1365.12 432.003 z" fill="rgb(211,150,75)" transform="translate(0,0)"></path>
<path d="M 733.281 638.261 C 737.056 639.36 739.05 641.558 742.66 640.204 C 743.341 641.6 743.214 642.101 743.375 643.872 C 743.183 646.237 745.247 667.146 745.66 670.002 C 749.826 698.819 732.108 664.676 720.938 664.967 C 715.718 665.103 725.492 659.884 714.681 656.255 L 713.399 655.739 C 716.271 653.263 729.203 641.651 731.351 640.311 L 733.281 638.261 z" fill="rgb(209,145,72)" transform="translate(0,0)"></path>
<path d="M 733.281 638.261 C 737.056 639.36 739.05 641.558 742.66 640.204 C 743.341 641.6 743.214 642.101 743.375 643.872 C 738.838 642.978 735.697 641.711 731.351 640.311 L 733.281 638.261 z" fill="rgb(248,242,230)" transform="translate(0,0)"></path>
<path d="M 1454.24 645.219 C 1457.57 645.346 1464.67 667.311 1466.91 672.126 C 1457.27 671.897 1449.51 671.933 1439.91 671.047 C 1436.2 670.816 1430.84 669.932 1426.93 669.492 C 1429.28 661.268 1429.53 659.065 1430.57 650.97 C 1438.04 648.997 1446.83 646.644 1454.24 645.219 z" fill="rgb(211,150,75)" transform="translate(0,0)"></path>
<path d="M 1282.42 799.991 C 1285.97 800.46 1284.86 811.354 1288.53 817.796 C 1291.37 822.785 1290.17 821.437 1294.46 826.794 C 1285.22 832.549 1284.62 834.04 1274.25 838.479 C 1264.45 842.137 1264.15 815.246 1263.24 808.972 C 1269.57 805.817 1276.04 803.159 1282.42 799.991 z" fill="rgb(211,150,75)" transform="translate(0,0)"></path>
<path d="M 722.179 818.465 C 731.805 823.406 741.33 827.693 750.607 833.259 C 746.795 841.099 743.349 847.433 738.965 855.097 C 735.181 857.194 715.653 837.755 712.566 834.69 C 715.987 829.413 719.194 824.001 722.179 818.465 z" fill="rgb(211,150,75)" transform="translate(0,0)"></path>
<path d="M 683.236 432.713 C 693.954 433.645 705.698 439.965 715.598 444.266 C 707.371 456.422 711.347 459.868 699.546 455.508 C 691.491 454.267 691.205 458.626 684.951 464.394 C 681.858 462.948 678.697 461.582 675.78 459.799 L 674.485 459.028 C 677.149 449.675 679.199 441.636 683.236 432.713 z" fill="rgb(211,150,75)" transform="translate(0,0)"></path>
<path d="M 1310.8 666.894 C 1318.79 675.354 1318.65 677.658 1329.45 687.695 C 1325.87 694.025 1321.03 703.38 1315.35 707.458 C 1314.61 707.324 1311.23 706.903 1310.66 706.32 C 1304.93 700.512 1298.74 688.196 1296.73 680.694 L 1296.19 678.863 C 1301.3 674.726 1305.8 671.317 1310.8 666.894 z" fill="rgb(209,145,72)" transform="translate(0,0)"></path>
<path d="M 1446.08 675.967 C 1452.76 675.949 1459.63 675.858 1466.26 676.567 L 1468.24 676.766 C 1471.44 688.061 1471.85 695.276 1472.08 707.185 C 1462.56 707.142 1455.71 706.571 1446.26 705.607 C 1446.07 695.735 1446.27 685.897 1446.08 675.967 z" fill="rgb(211,150,75)" transform="translate(0,0)"></path>
<path d="M 747.853 769.108 C 757.926 771.505 768.281 772.951 778.51 774.451 C 778.814 777.741 783.007 805.947 778.23 804.161 C 768.065 797.847 751.154 785.147 741.515 777.507 C 743.835 774.631 745.653 772.029 747.853 769.108 z" fill="rgb(209,145,72)" transform="translate(0,0)"></path>
<path d="M 1275.88 842.313 C 1281.6 839.676 1282.98 839.462 1288.17 835.757 C 1289.91 839.073 1296.94 851.734 1298.88 854.045 C 1299.78 854.847 1299.85 855.027 1300.66 856.083 L 1300.91 856.571 C 1302.94 860.668 1304.74 862.553 1307.72 866.085 C 1296.63 872.832 1295.37 873.219 1282.73 876.467 C 1277.2 866.403 1278.45 854.559 1275.88 842.313 z" fill="rgb(209,145,72)" transform="translate(0,0)"></path>
<path d="M 1285.32 867.504 C 1289.43 863.26 1294.47 857.872 1298.88 854.045 C 1299.78 854.847 1299.85 855.027 1300.66 856.083 C 1294.55 862.156 1293.04 863.869 1285.32 867.504 z" fill="rgb(248,242,230)" transform="translate(0,0)"></path>
<path d="M 1310.16 608.353 C 1311.29 608.383 1316.04 608.196 1316.52 609.454 C 1316.4 609.95 1315.96 610.27 1315.52 610.521 C 1307.89 614.819 1299.28 623.64 1299.62 633.014 C 1299.67 634.225 1299.94 635.414 1299.55 636.602 C 1299.05 637.075 1279.58 646.143 1277.39 647.212 C 1277.12 647.326 1272.07 649.867 1272.27 648.051 C 1273.29 639.171 1279.89 626.189 1284.84 618.995 C 1289.84 611.739 1302.12 609.367 1310.16 608.353 z" fill="rgb(211,150,75)" transform="translate(0,0)"></path>
<path d="M 1478.17 709.526 L 1479.43 709.778 C 1479.47 715.186 1479.7 715.526 1478.47 720.596 C 1477.95 724.165 1478.11 729.307 1478.08 733.042 C 1473.45 733.068 1448.88 733.957 1445.98 731.023 C 1443.85 728.873 1445.13 715.053 1445.51 710.89 C 1455.38 710.993 1468.51 711.793 1477.83 710.924 L 1478.17 709.526 z" fill="rgb(211,150,75)" transform="translate(0,0)"></path>
<path d="M 1478.17 709.526 L 1479.43 709.778 C 1479.47 715.186 1479.7 715.526 1478.47 720.596 C 1478.34 717.09 1478.48 714.4 1477.83 710.924 L 1478.17 709.526 z" fill="rgb(248,242,230)" transform="translate(0,0)"></path>
<path d="M 791.701 476.74 C 787.985 464.988 780.848 454.879 796.005 456.04 C 806.008 456.807 806.368 454.664 815.863 459.388 C 821.659 454.279 834.928 459.978 819.977 461.447 C 828.789 467.591 823.962 467.561 821.616 479.618 C 809.839 477.383 803.629 477.022 791.701 476.74 z" fill="rgb(211,150,75)" transform="translate(0,0)"></path>
<path d="M 815.863 459.388 C 821.659 454.279 834.928 459.978 819.977 461.447 C 818.106 461.218 817.445 460.346 815.863 459.388 z" fill="rgb(211,150,75)" transform="translate(0,0)"></path>
<path d="M 1425.44 672.844 C 1430.76 673.442 1436.33 674.667 1441.79 675.394 C 1441.84 686.345 1441.32 693.743 1440.76 704.578 C 1437.44 704.043 1434 703.302 1430.71 702.887 L 1428.93 702.632 C 1422.14 701.265 1415.71 699.621 1409.01 697.989 C 1409.03 696.392 1409.53 689.278 1410.12 688.285 C 1411.78 687.366 1414.32 688.836 1415.98 688.018 C 1420.14 685.967 1423.71 676.545 1425.44 672.844 z" fill="rgb(211,150,75)" transform="translate(0,0)"></path>
<path d="M 762.892 801.224 C 769.254 804.616 775.169 808.867 781.628 812.387 C 781.035 816.161 777.447 842.836 771.636 840.363 C 762.936 836.053 758.654 833.328 750.544 828.5 L 751.264 827.51 C 757.259 819.432 760.456 810.923 762.892 801.224 z" fill="rgb(211,150,75)" transform="translate(0,0)"></path>
<path d="M 569.82 710.663 C 580.754 711.215 588.957 711.102 599.811 710.921 C 599.975 719.012 600.793 724.914 601.297 732.838 C 590.48 733.166 579.657 733.178 568.84 732.873 C 569.028 725.341 569.592 718.175 569.82 710.663 z" fill="rgb(209,145,72)" transform="translate(0,0)"></path>
<path d="M 1337.2 408.58 C 1342.06 410.258 1352.62 425.052 1354.89 430.399 C 1347.5 434.219 1341.57 437.595 1334.37 441.587 C 1330.55 442.716 1320.08 431.415 1316.93 428.609 C 1324.49 422.554 1330.47 415.512 1337.2 408.58 z" fill="rgb(211,150,75)" transform="translate(0,0)"></path>
<path d="M 712.756 408.562 C 719.152 411.357 729.278 424.782 733.35 430.444 C 731.18 432.282 721.53 440.488 719.373 441.006 C 710.871 436.628 702.62 433.853 694.622 429.773 C 700.517 422.547 706.753 415.74 712.756 408.562 z" fill="rgb(211,150,75)" transform="translate(0,0)"></path>
<path d="M 631.088 634.924 C 633.003 634.994 637.06 634.387 638.038 636.518 C 640.431 642.017 641.961 654.004 640.644 660 C 638.021 671.941 645.744 678.931 634.488 683.619 C 630.221 678.315 628.523 674.022 626.926 667.374 C 623.93 654.896 619.035 643.239 631.088 634.924 z" fill="rgb(211,150,75)" transform="translate(0,0)"></path>
<path d="M 772.194 455.963 C 772.916 456.045 773.639 456.122 774.362 456.193 C 781.686 456.849 785.325 470.893 787.334 477.265 C 778.483 482.67 774.797 485.938 766.634 492.166 C 760.366 491.764 759.252 491.138 753.167 488.877 C 756.348 483.937 759.207 479.399 762.307 474.177 C 764.121 472.553 766.683 461.629 769.492 462.001 C 773.925 462.587 773.019 460.186 772.194 455.963 z" fill="rgb(211,150,75)" transform="translate(0,0)"></path>
<path d="M 896.726 380.875 C 898.935 383.094 898.114 387.584 897.64 390.475 C 895.729 402.151 898.913 409.493 903.256 419.781 C 896.513 421.872 895.334 422.721 888.377 422.989 C 881.142 415.974 881.067 414.76 878.48 404.935 C 882.101 391.926 884.651 388.68 896.726 380.875 z" fill="rgb(183,62,21)" transform="translate(0,0)"></path>
<path d="M 790.166 540.103 C 807.859 552.481 806.212 553.719 828.882 554.084 C 819.356 558.935 814.98 560.636 804.588 562.971 C 788.017 560.89 780.715 558.155 766.437 549.331 C 777.845 546.258 779.645 545.549 790.166 540.103 z" fill="rgb(211,150,75)" transform="translate(0,0)"></path>
<path d="M 1257.2 545.165 C 1257.54 545.398 1258.19 545.805 1258.45 546.135 C 1266.14 555.67 1275.97 555.023 1287.73 555.919 C 1278.62 564.094 1275.08 566.567 1262.4 567.276 C 1249.2 565.682 1240.95 563.961 1230.65 555.515 C 1241.63 553.975 1248.77 552.521 1257.2 545.165 z" fill="rgb(211,150,75)" transform="translate(0,0)"></path>
<path d="M 1285.69 487.325 C 1294.41 490.518 1300.51 494.616 1308.52 498.838 C 1299.32 516.918 1306.02 526.422 1312.04 543.792 C 1312.16 544.218 1312.46 544.935 1312.3 545.317 L 1312.06 545.394 C 1310.44 545.035 1307.88 540.53 1306.7 539.276 C 1292.93 524.625 1287.89 506.762 1285.69 487.325 z" fill="rgb(211,150,75)" transform="translate(0,0)"></path>
<path d="M 653.229 427.902 C 663.607 428.416 668.377 429.731 678.283 431.855 C 675.102 438.896 672.998 444.569 670.473 451.733 C 667.36 460.779 664.719 457.011 653.138 454.679 C 652.914 445.441 652.782 437.149 653.229 427.902 z" fill="rgb(211,150,75)" transform="translate(0,0)"></path>
<path d="M 1388.79 676.708 C 1396.58 682.768 1396.47 683.113 1405.97 686.714 C 1404.9 690.614 1403.98 694.549 1403.18 698.513 C 1401.87 704.881 1400.76 711.243 1399.43 717.621 C 1399.13 718.019 1399.01 718.353 1398.62 718.418 C 1398.4 718.324 1386.05 705.506 1384.57 704.06 C 1385.65 695.575 1387.12 685.033 1388.79 676.708 z" fill="rgb(211,150,75)" transform="translate(0,0)"></path>
<path d="M 1389.21 429.319 C 1390.82 429.069 1396.76 428.293 1397.4 429.31 C 1399.56 432.73 1397.58 450.365 1397.51 454.093 C 1394.47 455.005 1391.52 456.164 1388.5 457.009 L 1384.81 458.023 C 1381.65 447.9 1377.77 441.328 1374.12 431.715 L 1389.21 429.319 z" fill="rgb(211,150,75)" transform="translate(0,0)"></path>
<path d="M 1461.31 644.326 C 1462.75 644.192 1470.17 643.43 1471.05 643.781 C 1478.94 646.944 1489.32 669.92 1487.82 676.903 L 1473.66 677.984 C 1473.44 677.131 1473.22 676.278 1473 675.425 L 1471.77 671.016 C 1469.09 661.748 1462.53 648.939 1461.31 644.326 z" fill="rgb(211,150,75)" transform="translate(0,0)"></path>
<path d="M 1175.7 575.816 C 1177.19 570.251 1182.34 566.461 1188.1 566.688 C 1193.85 566.915 1198.68 571.098 1199.73 576.763 C 1200.78 582.428 1197.77 588.064 1192.47 590.337 C 1187.18 592.61 1181.02 590.913 1177.63 586.251 C 1175.45 583.242 1174.74 579.407 1175.7 575.816 z" fill="rgb(183,62,21)" transform="translate(0,0)"></path>
<path d="M 1186.09 573.763 C 1189 572.746 1192.19 574.226 1193.29 577.102 C 1194.39 579.978 1193 583.206 1190.15 584.385 C 1188.24 585.177 1186.05 584.868 1184.43 583.578 C 1182.81 582.288 1182.02 580.22 1182.37 578.179 C 1182.71 576.139 1184.14 574.447 1186.09 573.763 z" fill="rgb(255,255,255)" transform="translate(0,0)"></path>
<path d="M 873.681 567.363 C 878.076 566.561 882.561 568.202 885.4 571.652 C 888.239 575.101 888.986 579.818 887.353 583.976 C 885.72 588.134 881.962 591.082 877.535 591.677 C 870.907 592.569 864.779 588.007 863.733 581.402 C 862.686 574.797 867.103 568.565 873.681 567.363 z" fill="rgb(183,62,21)" transform="translate(0,0)"></path>
<path d="M 872.576 574.725 C 875.222 573.329 878.499 574.31 879.941 576.931 C 881.384 579.552 880.461 582.846 877.867 584.335 C 876.147 585.322 874.028 585.304 872.325 584.288 C 870.622 583.272 869.6 581.415 869.652 579.433 C 869.704 577.45 870.822 575.65 872.576 574.725 z" fill="rgb(255,255,255)" transform="translate(0,0)"></path>
<path d="M 1328.25 659.867 C 1330.67 658.441 1332.36 657.303 1334.69 655.733 C 1335.46 656.139 1336.1 656.273 1336.94 656.522 C 1341.33 658.459 1342.4 659.461 1346.3 662.469 C 1342.22 668.847 1335.94 677.534 1330.69 682.875 L 1327.84 680.279 C 1322.19 675.1 1319.45 668.604 1315.91 662.002 C 1315.61 661.441 1317.52 657.449 1317.67 657.063 C 1319.15 656.762 1320.63 656.451 1322.1 656.13 C 1323.71 656.755 1324.91 657.533 1326.41 658.389 C 1327.02 658.882 1327.64 659.374 1328.25 659.867 z" fill="rgb(211,150,75)" transform="translate(0,0)"></path>
<path d="M 1322.1 656.13 C 1323.71 656.755 1324.91 657.533 1326.41 658.389 C 1327.02 658.882 1327.64 659.374 1328.25 659.867 C 1325.4 660.272 1321.76 658.114 1317.67 657.063 C 1319.15 656.762 1320.63 656.451 1322.1 656.13 z" fill="rgb(252,230,204)" transform="translate(0,0)"></path>
<path d="M 574.293 642.88 C 591.075 643.809 582.284 648.118 577.174 660.008 C 573.524 668.503 573.334 671.882 565.085 676.053 C 551.847 678.54 555.953 673.701 560.405 664.235 C 563.956 656.688 568.815 649.158 574.293 642.88 z" fill="rgb(211,150,75)" transform="translate(0,0)"></path>
<path d="M 710.206 660.604 L 713.087 660.634 C 717.25 667.899 703.69 680.222 698.543 685.884 C 693.454 676.713 690.299 669.702 687.046 659.719 C 697.866 660.409 699.821 662.188 710.206 660.604 z" fill="rgb(211,150,75)" transform="translate(0,0)"></path>
<path d="M 1373.36 678.213 C 1377.09 679.989 1378.67 682.066 1381.64 684.973 C 1380.36 698.036 1377.41 705.17 1370.36 716.691 C 1366.44 714.512 1363.84 712.892 1360.06 710.402 C 1368.29 697.605 1369.78 692.649 1373.36 678.213 z" fill="rgb(211,150,75)" transform="translate(0,0)"></path>
<path d="M 722.513 714.484 C 722.956 713.616 739.766 685.773 739.4 686.121 C 742.506 685.453 750.261 693.568 745.731 698.786 C 740.1 705.274 735.302 714.134 730.268 721.437 L 729.44 720.37 C 727.439 717.725 726.246 716.454 723.67 714.415 L 722.513 714.484 z" fill="rgb(209,145,72)" transform="translate(0,0)"></path>
<path d="M 1290.77 682.657 C 1290.85 682.723 1306.75 709.699 1308.16 712.018 L 1301.85 722.148 C 1296.35 716.027 1288.12 697.894 1284.68 689.938 C 1286.85 687.15 1288.41 685.303 1290.77 682.657 z" fill="rgb(211,150,75)" transform="translate(0,0)"></path>
<path d="M 782.906 774.481 C 786.69 774.693 790.691 773.436 791.835 777.472 C 795.251 789.53 796.696 801.22 795.142 813.701 C 791.791 813.827 789.306 811.082 785.687 808.844 C 785.271 796.499 785.441 786.708 782.906 774.481 z" fill="rgb(209,145,72)" transform="translate(0,0)"></path>
<path d="M 1310.86 563.534 C 1312.88 573.038 1322.48 594.048 1322.56 604.876 C 1322.58 607.061 1316.19 605.82 1315.31 602.417 L 1314.28 598.466 C 1311.8 588.563 1307.53 571.117 1303.91 562.005 C 1298.14 547.439 1302.81 542.454 1305.54 552.789 L 1305.51 554.82 C 1305.38 560.053 1307.15 560.792 1310.86 563.534 z" fill="rgb(209,145,72)" transform="translate(0,0)"></path>
<path d="M 835.672 487.218 C 839.154 489.554 846.177 497.619 848.492 501.101 L 849.4 502.39 C 849.208 504.802 849.618 517.475 845.6 516.285 C 840.983 514.448 836.457 512.375 831.793 510.656 L 830.012 509.959 C 831.367 505.841 832.894 500.676 833.804 496.488 C 834.49 493.411 835.113 490.32 835.672 487.218 z" fill="rgb(209,145,72)" transform="translate(0,0)"></path>
<path d="M 1478.17 709.526 C 1477.74 702.984 1477.88 696.501 1476.92 689.992 C 1477.15 689.6 1475.38 684.007 1476.46 683.711 C 1488.55 680.416 1487.25 684.237 1489.07 693.985 C 1490.26 700.338 1490.89 705.648 1491.38 712.288 L 1489.67 711.867 C 1486.3 710.972 1482.87 710.278 1479.43 709.778 L 1478.17 709.526 z" fill="rgb(211,150,75)" transform="translate(0,0)"></path>
<path d="M 708.882 838.397 C 710.479 839.623 736.91 862.622 736.773 862.317 C 736.464 863.551 733.38 866.187 732.307 867.278 C 731.278 868.142 730.856 868.648 729.364 867.64 C 720.965 861.969 711.394 854.76 706.131 845.99 C 705.338 844.668 708.349 839.413 708.882 838.397 z" fill="rgb(209,145,72)" transform="translate(0,0)"></path>
<path d="M 559.822 680.842 C 561.407 680.768 566.947 679.599 566.902 682.409 C 566.765 691.148 567.574 700.754 566.383 709.297 C 566.281 710.025 563.391 710.021 563.246 710.028 C 560.677 710.011 557.964 710.069 555.418 710.004 C 555.203 710.035 554.005 709.756 554.032 709.402 C 554.681 700.987 555.755 688.143 559.822 680.842 z" fill="rgb(211,150,75)" transform="translate(0,0)"></path>
<path d="M 656.95 678.164 C 658.085 679.413 658.327 680.265 658.794 681.984 C 660.952 689.932 662.914 698.301 667.041 705.484 C 667.315 705.96 668.859 708.215 668.614 708.707 C 667.974 709.988 663.566 711.765 662.342 712.358 C 661.799 712.541 659.004 713.625 658.563 712.72 C 655.622 706.681 653.347 698.049 652.25 691.477 C 650.847 683.075 648.713 683.511 655.274 679.268 L 656.95 678.164 z" fill="rgb(211,150,75)" transform="translate(0,0)"></path>
<path d="M 786.43 814.279 C 789.734 815.721 794.007 816.497 793.439 820.496 C 792.089 830.011 790.935 840.25 787.562 849.302 C 784.372 847.658 781.078 846.019 777.924 844.359 C 781.35 833.903 783.759 824.854 786.43 814.279 z" fill="rgb(209,145,72)" transform="translate(0,0)"></path>
<path d="M 734.307 479.076 C 734.87 478.588 735.432 478.1 735.995 477.612 C 738.325 479.534 740.658 481.186 742.999 483.078 L 740.978 484.977 C 741.614 485.511 746.342 489.236 745.788 489.987 C 740.931 496.565 732.186 503.071 726.2 508.936 C 727.608 496.583 727.656 490.491 734.307 479.076 z" fill="rgb(211,150,75)" transform="translate(0,0)"></path>
<path d="M 734.307 479.076 C 734.87 478.588 735.432 478.1 735.995 477.612 C 738.325 479.534 740.658 481.186 742.999 483.078 L 740.978 484.977 C 738.396 482.974 736.671 481.296 734.307 479.076 z" fill="rgb(252,230,204)" transform="translate(0,0)"></path>
<path d="M 1256.6 812.877 C 1256.87 812.911 1258.26 813.052 1258.32 813.378 C 1259.93 823.245 1262.08 833.7 1263.67 843.609 C 1263.74 844.017 1261.26 844.686 1261.02 844.708 C 1258.98 844.891 1257.36 845.539 1255.49 846.269 C 1255.5 846.566 1255.56 847.516 1255.41 847.844 L 1255.5 848.344 C 1252.99 841.286 1252.47 830.471 1251.09 822.99 C 1249.62 815.038 1250.15 816.395 1256.6 812.877 z" fill="rgb(209,145,72)" transform="translate(0,0)"></path>
<path d="M 1257.78 772.37 C 1262.55 773.69 1262.89 774.612 1261.09 780.489 C 1258.82 787.898 1261.16 804.549 1255.01 808.225 L 1251.64 810.224 C 1245.17 808.454 1254.3 776.883 1256.68 773.87 L 1257.78 772.37 z" fill="rgb(209,145,72)" transform="translate(0,0)"></path>
<path d="M 733.281 638.261 C 731.125 617.764 729.869 625.098 717.098 611.648 C 718.112 609.396 727.475 611.807 729.54 612.933 C 739.979 618.628 741.142 629.649 742.66 640.204 C 739.05 641.558 737.056 639.36 733.281 638.261 z" fill="rgb(209,145,72)" transform="translate(0,0)"></path>
<path d="M 735.995 477.612 C 744.762 469.25 750.33 465.269 759.257 457.69 C 757.025 466.733 755.357 478.058 749.378 485.455 C 748.78 486.194 743.739 483.529 742.999 483.078 C 740.658 481.186 738.325 479.534 735.995 477.612 z" fill="rgb(211,150,75)" transform="translate(0,0)"></path>
<path d="M 1368.49 398.781 C 1372.39 399.646 1373.88 407.332 1373.27 409.394 C 1376.03 406.781 1354.19 418.601 1353.72 418.89 C 1352.53 417.513 1347.92 412.592 1348.44 411.5 C 1350.19 407.831 1365.67 400.247 1368.49 398.781 z" fill="rgb(211,150,75)" transform="translate(0,0)"></path>
<path d="M 1333.85 839.856 C 1334.98 841.144 1337.74 844.852 1336.56 846.456 C 1330.65 854.486 1320.32 862.598 1313.13 869.038 C 1311.23 866.681 1306.43 862.446 1310.46 860.025 C 1319.66 854.513 1326.87 847.935 1333.85 839.856 z" fill="rgb(209,145,72)" transform="translate(0,0)"></path>
<path d="M 1228.96 493.974 C 1228.85 493.844 1233.22 509.315 1233.87 511.08 C 1227.84 513.828 1222.17 515.842 1215.91 517.983 C 1215.31 518.208 1214.5 518.627 1213.85 518.338 C 1211.24 514.628 1226.14 497.294 1228.96 493.974 z" fill="rgb(211,150,75)" transform="translate(0,0)"></path>
<path d="M 682.223 398.284 C 683.617 398.985 684.999 399.71 686.368 400.458 C 688.34 401.545 701.586 408.659 702.243 410.925 C 702.59 412.12 698.765 416.187 697.766 417.41 C 694.631 416.731 682.289 410.085 678.503 408.187 C 679.694 404.868 681.017 401.598 682.223 398.284 z" fill="rgb(211,150,75)" transform="translate(0,0)"></path>
<path d="M 677.251 413.688 C 683.803 416.191 699.465 419.702 689.798 429.03 C 683.249 427.665 678.408 427.444 671.737 425.492 C 672.025 424.78 672.303 424.064 672.572 423.345 C 673.845 419.907 674.653 418.641 676.345 415.437 L 677.251 413.688 z" fill="rgb(211,150,75)" transform="translate(0,0)"></path>
<path d="M 1372.66 414.911 C 1377.87 415.575 1384.17 428.15 1375 427.482 C 1371.4 427.22 1371.46 425.827 1367.79 427.563 C 1367.48 427.638 1356.72 433.024 1358.31 422.541 C 1358.46 421.55 1370.33 415.985 1372.66 414.911 z" fill="rgb(209,145,72)" transform="translate(0,0)"></path>
<path d="M 661.603 408.631 C 676.279 410.808 669.338 414.417 665.915 424.609 C 664.069 424.661 659.018 423.078 656.905 422.422 C 658.133 418.485 660.15 412.413 661.603 408.631 z" fill="rgb(211,150,75)" transform="translate(0,0)"></path>
<path d="M 673.303 714.064 C 676.001 717.231 690.293 733.156 683.755 735.24 C 672.126 730.467 677.892 729.111 671.089 719.964 C 668.371 716.31 668.541 717.929 673.303 714.064 z" fill="rgb(211,150,75)" transform="translate(0,0)"></path>
<path d="M 644.334 688.72 C 647.37 692.249 647.278 703.944 648.603 708.578 C 649.437 711.497 647.427 713.247 645.661 715.476 C 638.3 710.105 640.621 695.746 644.334 688.72 z" fill="rgb(211,150,75)" transform="translate(0,0)"></path>
<path d="M 763.72 555.465 C 777.747 560.372 779.632 559.963 769.601 567.015 C 761.706 573.314 758.944 564.147 763.72 555.465 z" fill="rgb(211,150,75)" transform="translate(0,0)"></path>
<path d="M 1388.61 409.125 C 1390.01 410.457 1390.06 410.935 1390.69 413.005 L 1392.01 417.499 C 1393.8 423.804 1393.21 423.996 1386.64 425.339 C 1384.56 420.937 1382.37 416.596 1380.27 412.194 C 1382.63 411.126 1386.08 409.99 1388.61 409.125 z" fill="rgb(211,150,75)" transform="translate(0,0)"></path>
<path d="M 1358.29 711.803 C 1359.18 712.89 1360.67 715.026 1360.61 716.169 C 1360.45 719.113 1345.91 736.64 1344.36 738.527 L 1343.57 738.002 C 1340.49 735.995 1355.93 714.644 1358.29 711.803 z" fill="rgb(211,150,75)" transform="translate(0,0)"></path>
<path d="M 1270.7 843.648 C 1275.18 845.443 1275.26 864.805 1275.35 864.67 C 1274.72 864.932 1274.53 864.725 1273.76 864.477 C 1271.34 860.491 1265.97 852.523 1265.42 847.619 C 1265.32 846.681 1269.27 844.584 1269.94 844.151 L 1270.7 843.648 z" fill="rgb(211,150,75)" transform="translate(0,0)"></path>
<path d="M 746.583 532.795 C 747.842 534.174 752.995 541.925 752.787 544.341 C 752.772 544.511 749.78 545.99 749.28 546.292 C 747.5 546.529 745.706 546.894 743.935 547.027 C 743.679 547.046 742.372 546.96 742.376 546.662 C 742.431 543.079 745.359 535.881 746.583 532.795 z" fill="rgb(211,150,75)" transform="translate(0,0)"></path>
<path d="M 830.07 470.095 C 837.318 472.522 837.532 476.863 836.677 484.174 C 826.572 479.108 826.54 480.897 830.07 470.095 z" fill="rgb(211,150,75)" transform="translate(0,0)"></path>
<path d="M 1305.54 552.789 C 1305.93 553.605 1308.46 560.112 1309.42 560.201 C 1315.8 560.7 1323.19 550.477 1329.39 553.63 C 1329.54 553.706 1329.68 554.417 1329.66 554.43 C 1325.5 557.18 1318.81 559.533 1314.56 562.122 C 1312.78 563.205 1311.44 563.369 1310.86 563.534 C 1307.15 560.792 1305.38 560.053 1305.51 554.82 L 1305.54 552.789 z" fill="rgb(211,150,75)" transform="translate(0,0)"></path>
<path d="M 1281.65 514.06 C 1279.94 509.778 1274.39 488.392 1276.63 484.609 L 1277 484.394 C 1278.66 485.426 1282.72 509.812 1283.43 513.772 L 1281.65 514.06 z" fill="rgb(211,150,75)" transform="translate(0,0)"></path>
<path d="M 573.906 675.805 C 575.578 672.813 576.074 670.336 578.546 667.98 C 581.139 668.825 582.086 669.246 584.55 670.459 C 577.329 672.639 578.51 673.7 584.606 676.26 L 573.906 675.805 z" fill="rgb(248,242,230)" transform="translate(0,0)"></path>
<path d="M 722.513 714.484 L 723.67 714.415 C 722.965 715.409 715.429 732.752 712.338 729.563 C 712.01 727.93 720.99 716.019 722.513 714.484 z" fill="rgb(211,150,75)" transform="translate(0,0)"></path>
<path d="M 751.557 553.318 C 756.127 553.147 754.232 560.635 749.775 558.411 C 739.969 554.398 743.045 554.628 751.557 553.318 z" fill="rgb(211,150,75)" transform="translate(0,0)"></path>
<path d="M 711.813 598.258 C 718.909 600.616 715.718 603.255 712.177 608.392 C 707.473 609.609 711.172 599.992 711.813 598.258 z" fill="rgb(211,150,75)" transform="translate(0,0)"></path>
<path d="M 731.645 551.375 C 733.498 553.06 735.834 554.998 731.663 554.782 C 731.068 554.726 730.128 554.886 729.673 554.408 C 729.615 553.671 730.422 553.021 730.863 552.497 L 731.645 551.375 z" fill="rgb(209,145,72)" transform="translate(0,0)"></path>
<path d="M 710.206 660.604 C 711.651 658.069 711.681 657.878 713.399 655.739 L 714.681 656.255 C 713.65 658.219 713.702 658.37 713.087 660.634 L 710.206 660.604 z" fill="rgb(248,242,230)" transform="translate(0,0)"></path>
<metadata><recraft-signature>{"signed_by": "recraft", "signature_b64": "rn/NSFOc9MCcnKtcZDNjun/330eFmHff/4iXVdR/clptzfq5f9SN9E04jFFfXzuOR02+Ouq91aMdvjci/78wAw==", "signing_algo": "Ed25519", "generation_timestamp": 1783365419, "identifier": "bb34653a-9fe2-487a-8c23-1b5f50f74911"}</recraft-signature></metadata></svg>