<svg xmlns="http://www.w3.org/2000/svg" height="1024" preserveAspectRatio="none" style="display: block;" version="1.1" viewBox="0 0 2048 2048" width="1024">
<path d="M 0 0 L 2048 0 L 2048 2048 L 0 2048 L 0 0 z" fill="rgb(255,255,255)" transform="translate(0,0)"></path>
<path d="M 1020.56 274.809 C 1025.48 280.157 1066.88 405.319 1073.29 422.958 C 1104.89 510.528 1137.09 597.883 1169.88 685.015 C 1158.35 697.751 1142.7 712.265 1130.43 724.757 C 1120.51 734.861 1103.6 752.993 1092.98 761.214 C 1068.34 700.808 1045.96 639.593 1020.69 579.207 L 1019.97 578.249 C 1016.05 580.22 957.045 742.942 951.073 759.116 C 926.628 740.037 894.491 707.99 871.158 685.878 C 874.354 675.69 880.202 662.945 883.904 652.343 C 895.97 617.787 910.802 583.008 922.864 548.604 L 981.841 380.4 C 994.133 345.684 1006.73 308.8 1020.56 274.809 z" fill="rgb(49,86,244)" transform="translate(0,0)"></path>
<path d="M 851.363 709.028 C 857.734 708.641 913.048 769.967 920.166 778.705 C 909.968 783.024 895.977 787.676 885.309 791.705 L 804.667 822.216 C 777.938 832.248 750.201 842.381 724.461 854.692 C 769.741 867.16 817.681 884.209 861.932 900.24 C 883.589 908.085 908.594 916.958 929.69 925.683 C 908.933 950.059 879.185 980.384 856.076 1002.65 L 745.872 964.925 C 688.522 944.94 631.337 924.485 574.322 903.562 C 529.859 887.603 475.609 869.319 432.484 851.825 C 443.341 847.199 463.132 841.132 475.129 836.972 L 564.329 805.95 C 588.616 797.4 612.707 788.03 636.968 779.498 C 707.909 754.442 779.391 730.947 851.363 709.028 z" fill="rgb(49,86,244)" transform="translate(0,0)"></path>
<path d="M 951.691 947.823 C 956.023 952.134 1016.61 1124.96 1021.32 1138.73 C 1030.17 1116.48 1038.58 1091 1046.67 1068.25 C 1060.86 1028.06 1075.89 988.175 1091.74 948.617 C 1115.98 968.202 1147.65 998.342 1171.78 1019.76 C 1146.2 1093.47 1116.2 1166.15 1088.03 1238.86 C 1063.5 1304.82 1045.05 1369.58 1021.25 1435.03 C 1009.65 1401.32 996.956 1367.4 985.135 1333.6 C 966.951 1281.6 950.002 1226.91 930.882 1175.38 C 912.257 1125.18 891.655 1074.94 874.004 1024.2 C 899.049 998.583 926.028 972.955 951.691 947.823 z" fill="rgb(49,86,244)" transform="translate(0,0)"></path>
<path d="M 1189.48 705.66 C 1262.17 730.06 1334.21 759.419 1407.59 784.063 L 1533.25 825.054 C 1556.06 832.639 1588.27 843.09 1609.33 853.089 C 1583.87 861.544 1559.72 870.709 1534.49 879.515 L 1375.26 934.891 C 1349.94 943.741 1324.6 953.806 1299.12 961.862 C 1262.84 974.847 1226.39 987.367 1189.79 999.42 C 1184.24 991.632 1120.64 927.565 1112.65 922.451 C 1128.43 915.447 1153.8 908.598 1171.16 902.886 C 1221.1 886.461 1270.56 871.903 1320.32 854.717 C 1277.03 839.397 1234.61 821.124 1190.67 807.071 C 1167.77 799.745 1143.52 791.21 1121.26 782.386 C 1141.26 761.638 1171.05 727.797 1189.48 705.66 z" fill="rgb(49,86,244)" transform="translate(0,0)"></path>
<path d="M 1099.14 415.32 C 1168.06 427.216 1221.05 447.73 1278.22 488.22 C 1373.95 555.864 1439 658.652 1459.17 774.119 C 1440.31 766.82 1419.18 760.577 1399.84 754.219 C 1374.98 745.886 1350.18 737.376 1325.44 728.688 C 1316.67 708.216 1306.3 688.468 1294.42 669.63 C 1265.1 623.567 1228.17 587.153 1179.15 562.445 C 1169.54 557.601 1154.39 550.382 1143.96 548.081 C 1133 520.191 1123.63 488.146 1113.35 459.771 C 1110.74 452.575 1100.02 421.578 1099.14 415.32 z" fill="rgb(27,12,109)" transform="translate(0,0)"></path>
<path d="M 932.245 417.334 L 942.239 416.547 C 927.617 459.253 914.085 505.311 898.396 547.401 C 864.561 559.83 827.309 579.103 801.087 603.989 C 771.842 631.743 729.036 686.13 718.432 724.901 C 705.655 730.558 687.464 736.514 673.925 741.383 L 593.759 769.919 L 583.331 773.828 C 595.118 705.15 622.975 640.233 664.63 584.372 C 676.562 568.157 689.602 554.304 703.445 539.83 C 764.409 476.087 844.444 430.988 932.245 417.334 z" fill="rgb(27,12,109)" transform="translate(0,0)"></path>
<path d="M 1455.49 932.886 L 1457.28 933.323 C 1458.21 937.36 1454.4 951.544 1453.3 956.45 C 1441.92 1007.11 1419.98 1053.76 1392.04 1097.33 C 1341.84 1174.81 1268.39 1234.39 1182.23 1267.52 C 1154.04 1278.11 1129.43 1283.84 1100.23 1290.2 C 1098.67 1290.22 1099.57 1290.32 1097.58 1289.61 C 1097.49 1282.98 1139.58 1174.4 1144.97 1158.65 C 1235.97 1118.35 1283.65 1068.51 1324.02 978.646 C 1339.57 974.016 1356.99 967.453 1372.56 962.037 L 1455.49 932.886 z" fill="rgb(27,12,109)" transform="translate(0,0)"></path>
<path d="M 581.524 932.171 C 624.955 948.795 676.376 967.793 720.04 982.687 C 726.441 999.34 734.152 1015.46 743.101 1030.89 C 774.925 1084.57 837.668 1142.54 898.729 1157.94 C 915.046 1200.23 930.02 1247.26 944.572 1290.41 C 886.437 1283.06 814.66 1251.57 766.666 1218.36 C 670.145 1150.61 603.752 1047.98 581.524 932.171 z" fill="rgb(27,12,109)" transform="translate(0,0)"></path>
<path d="M 122.943 1573.89 L 154.137 1574.06 C 154.008 1630.36 154.189 1686.67 154.68 1742.98 L 122.636 1742.78 C 118.284 1736.16 113.685 1729.43 108.848 1723.16 C 85.2691 1692.59 64.2357 1659.24 40.3102 1629.03 C 40.2364 1666.93 39.9389 1704.83 39.4177 1742.73 C 28.9905 1742.67 18.5631 1742.7 8.13662 1742.84 C 8.66872 1686.57 8.59997 1630.29 7.93038 1574.03 C 18.2502 1573.97 28.5701 1574.09 38.8863 1574.37 C 63.3957 1610.68 96.3702 1651.27 122.748 1688.22 C 123.942 1651.81 122.978 1610.66 122.943 1573.89 z" fill="rgb(27,12,109)" transform="translate(0,0)"></path>
<path d="M 718.499 1618.19 C 739.123 1616.49 751.923 1620.43 766.882 1634.78 L 766.886 1620.99 L 794.974 1621.05 L 794.959 1742.62 C 786.009 1742.93 776.328 1742.95 767.444 1742.17 C 767.248 1738.75 767.359 1734.15 765.913 1731.21 C 762.844 1731.39 762.634 1732.61 759.689 1735.29 C 754.906 1739.47 747.619 1742.26 741.44 1743.62 C 657.715 1762.06 636.782 1633.86 718.499 1618.19 z" fill="rgb(27,12,109)" transform="translate(0,0)"></path>
<path d="M 723.427 1645.16 C 730.96 1644.57 736.702 1644.04 743.866 1646.51 C 770.875 1655.84 774.9 1695.73 752.932 1712.48 C 748.494 1715.86 745.615 1716.51 740.774 1718.4 C 690.803 1725.58 680.091 1659.63 723.427 1645.16 z" fill="rgb(255,255,255)" transform="translate(0,0)"></path>
<path d="M 234.977 1618.23 C 269.957 1611.79 303.501 1635.03 309.763 1670.04 C 316.026 1705.05 292.618 1738.48 257.575 1744.56 C 222.781 1750.61 189.643 1727.4 183.425 1692.64 C 177.207 1657.88 200.246 1624.62 234.977 1618.23 z" fill="rgb(27,12,109)" transform="translate(0,0)"></path>
<path d="M 239.587 1645.16 C 290.029 1642.12 294.781 1702.51 254.938 1717.66 C 205.172 1722.62 197.654 1658.19 239.587 1645.16 z" fill="rgb(255,255,255)" transform="translate(0,0)"></path>
<path d="M 1359.43 1563.73 C 1363.36 1563.6 1367.08 1563.07 1370.65 1564.59 C 1370.69 1564.91 1370.96 1566.42 1370.96 1566.67 C 1371.18 1622.23 1371.51 1677.82 1371.21 1733.39 C 1371.19 1736.41 1371.41 1740.64 1369.73 1742.83 C 1365.92 1743 1365.61 1743.33 1362.19 1741.5 C 1357.91 1736.14 1359.95 1723.51 1360.02 1715.34 C 1342.48 1746.39 1305.82 1755.99 1277.56 1732.29 C 1273.94 1728.89 1270.7 1725.1 1267.9 1721 C 1247.49 1690.57 1254.68 1647.48 1285.8 1627.53 C 1297.69 1619.94 1312.14 1617.48 1325.87 1620.7 C 1342.37 1624.6 1350.98 1634.68 1359.3 1648.16 C 1359.99 1620.69 1359.49 1591.31 1359.43 1563.73 z" fill="rgb(27,12,109)" transform="translate(0,0)"></path>
<path d="M 1306.69 1631.18 C 1331.65 1628.61 1349.56 1641.02 1357.48 1664.9 C 1362.12 1679.25 1360.8 1694.87 1353.81 1708.23 C 1346.47 1721.92 1337.26 1728.38 1322.93 1732.92 C 1264.13 1744.52 1244.67 1650.7 1306.69 1631.18 z" fill="rgb(255,255,255)" transform="translate(0,0)"></path>
<path d="M 1752.11 1620.61 C 1785.93 1618.53 1815.08 1644.15 1817.36 1677.95 C 1819.64 1711.76 1794.2 1741.06 1760.41 1743.54 C 1726.33 1746.04 1696.73 1720.33 1694.43 1686.25 C 1692.13 1652.16 1718.01 1622.71 1752.11 1620.61 z" fill="rgb(27,12,109)" transform="translate(0,0)"></path>
<path d="M 1746.87 1631.15 C 1814.68 1625.8 1821.83 1715.87 1766.27 1733.23 C 1755.16 1734.64 1746.97 1734.68 1736.45 1729.5 C 1724.36 1723.4 1715.3 1712.6 1711.41 1699.62 C 1702.17 1669.86 1715.56 1640.06 1746.87 1631.15 z" fill="rgb(255,255,255)" transform="translate(0,0)"></path>
<path d="M 552.445 1562.47 L 557.544 1562.52 C 559.883 1564.92 558.657 1622.63 558.696 1629.49 C 586.943 1609.22 627.964 1612.08 638.163 1650.78 C 641.311 1662.73 640.189 1678.92 640.28 1691.51 L 640.68 1742.92 L 610.298 1742.77 C 610.434 1716.65 610.385 1690.53 610.149 1664.42 C 606.685 1649.91 599.781 1644.4 584.943 1643.42 C 579.941 1643.17 574.722 1644.51 570.696 1647.52 C 559.816 1655.66 558.943 1670.79 558.924 1683.18 C 558.894 1703.08 558.93 1722.93 558.982 1742.8 L 528.965 1742.92 L 529.185 1562.82 L 552.445 1562.47 z" fill="rgb(27,12,109)" transform="translate(0,0)"></path>
<path d="M 1169.8 1573.54 C 1175.5 1583.89 1189.19 1619.35 1194.31 1631.66 L 1241.13 1742.85 L 1228.1 1743.02 C 1221.89 1726.85 1215.22 1710.86 1208.1 1695.06 L 1160.21 1695.11 C 1146.68 1695.07 1133.15 1695.33 1119.63 1695.88 C 1112.68 1711.45 1106.09 1727.17 1099.84 1743.03 L 1086.68 1742.94 C 1110 1686.7 1135.55 1630.36 1158.25 1574.03 L 1169.8 1573.54 z" fill="rgb(27,12,109)" transform="translate(0,0)"></path>
<path d="M 1163.5 1590.51 C 1166.66 1593.27 1199.23 1673.74 1203.86 1684.5 C 1191.14 1684.96 1178.25 1684.83 1165.5 1684.86 C 1151.82 1684.93 1138.14 1684.93 1124.46 1684.85 C 1137.11 1652.9 1151.02 1622.22 1163.5 1590.51 z" fill="rgb(255,255,255)" transform="translate(0,0)"></path>
<path d="M 968.439 1618.33 C 995.122 1616.29 1010.48 1622.52 1026.84 1643.87 C 1018.68 1648.33 1010.76 1653.26 1002.8 1658.09 C 992.455 1647.62 981.638 1641.59 966.443 1646.15 C 957.274 1648.95 949.671 1655.42 945.44 1664.02 C 936.101 1683.01 942.73 1706.67 962.885 1714.89 C 974.472 1719.62 985.906 1718.18 996.137 1710.94 C 999.314 1708.69 1000.83 1706.05 1004.57 1704.47 L 1007.68 1705.76 C 1014.11 1711.51 1019.19 1714.16 1026.7 1718.09 C 1025.91 1719.3 1025.11 1720.49 1024.29 1721.67 C 1005.44 1748.66 962.414 1753.2 938.169 1733.74 C 892.919 1697.42 908.672 1626.23 968.439 1618.33 z" fill="rgb(27,12,109)" transform="translate(0,0)"></path>
<path d="M 445.744 1583.14 L 475.002 1582.86 L 475.011 1621.03 C 484.027 1620.99 493.188 1621.15 502.216 1621.23 L 502.258 1644.76 L 475.089 1644.99 C 474.974 1662.67 473.529 1685.5 476.818 1702.82 C 479.488 1716.88 494.981 1715.51 506.769 1715.99 L 506.697 1739.25 C 506.66 1741.77 506.825 1740.9 505.898 1743.19 C 493.519 1748.8 461.879 1741.33 454.141 1730.9 C 439.776 1711.53 444.631 1668.5 444.52 1645.17 L 425.142 1644.74 L 425.057 1624.83 C 452.367 1618.94 445.611 1607.24 445.744 1583.14 z" fill="rgb(27,12,109)" transform="translate(0,0)"></path>
<path d="M 605.252 480.227 C 644.741 481.036 685.867 482.985 725.144 482.977 C 702.534 497.063 678.037 520.634 660.951 540.619 C 640.726 566.461 629.878 578.564 612.773 606.719 C 612.491 566.404 616.779 517.723 605.252 480.227 z" fill="rgb(27,12,109)" transform="translate(0,0)"></path>
<path d="M 612.659 1104.51 C 615.647 1107.42 632.429 1133.5 637.422 1139.99 C 663.75 1174.17 687.72 1197.01 721.761 1223.09 L 721.421 1223.88 L 716.25 1224.01 C 676.959 1224.25 645.282 1223.55 605.38 1226.11 C 616.007 1192.8 613.026 1140.71 612.659 1104.51 z" fill="rgb(27,12,109)" transform="translate(0,0)"></path>
<path d="M 1327.01 1220.15 C 1358.34 1199.19 1387.3 1166.16 1409.69 1135.93 C 1416.99 1126.09 1424.42 1112.85 1431.67 1103.83 C 1430.26 1136.54 1426.42 1196.49 1437.87 1225.3 C 1418.05 1225.64 1338.91 1221.28 1327.02 1224.83 C 1327.05 1223.38 1327.13 1221.54 1327.01 1220.15 z" fill="rgb(27,12,109)" transform="translate(0,0)"></path>
<path d="M 1325.32 482.47 C 1331.41 482.292 1337.86 482.418 1343.98 482.594 C 1374.95 483.488 1405.67 482.625 1436.63 482.044 C 1428.14 510.696 1429.91 563.377 1429.94 594.25 C 1429.96 596.199 1429.82 596.493 1429.49 598.433 L 1428.37 597.996 C 1406.51 566.427 1386.03 539.454 1358.15 512.567 C 1352.97 507.569 1326.5 485.955 1325.32 482.47 z" fill="rgb(27,12,109)" transform="translate(0,0)"></path>
<path d="M 393.947 1618.19 C 399.919 1617.75 404.904 1618.07 410.87 1618.34 L 410.84 1653.06 C 382.94 1643.94 367.083 1656.59 367.04 1685.46 C 367.011 1704.57 367.08 1723.88 367.171 1743 L 341.75 1742.88 C 338.502 1742.82 339.869 1743.41 337.363 1741.74 C 336.436 1730.18 337.06 1710.69 337.091 1698.51 L 337.236 1620.76 L 366.956 1620.78 C 366.989 1625.93 367.122 1631.12 367.217 1636.27 C 375.144 1624.39 380.599 1621.78 393.947 1618.19 z" fill="rgb(27,12,109)" transform="translate(0,0)"></path>
<path d="M 885.901 1619.27 C 889.684 1618.83 898.921 1618.98 903.028 1618.95 L 902.811 1651.34 C 892.508 1650.52 874.927 1648.32 868.087 1656.92 C 853.927 1674.74 858.951 1721.29 859.046 1742.78 L 831.897 1742.77 C 830.619 1742.65 830.607 1742.43 829.357 1741.77 C 828.562 1729.55 829.023 1712.43 829.018 1699.92 L 829.298 1620.8 L 858.833 1620.67 L 858.952 1636.5 C 867.364 1624.71 872.018 1621.74 885.901 1619.27 z" fill="rgb(27,12,109)" transform="translate(0,0)"></path>
<path d="M 2024.28 1621.75 L 2037.29 1621.89 L 2000.97 1702.93 C 1997.41 1711.31 1993.44 1719.95 1989.51 1728.51 C 1980.15 1748.92 1972.37 1778.12 1948.06 1784.94 C 1942.33 1786.55 1929.72 1787.02 1924.78 1784.16 C 1923.92 1780 1924.24 1778.81 1924.63 1774.47 C 1932.51 1774.31 1943.27 1775.57 1950.06 1772.11 C 1962.57 1765.74 1968.19 1751.18 1972.54 1738.71 C 1966.38 1723.17 1917.76 1629.3 1917.62 1623.42 L 1919.63 1622.37 C 1922.33 1622.2 1925.66 1621.6 1928.21 1622.62 C 1930.26 1623.43 1974.63 1717.89 1978.93 1726.72 C 1992.78 1694.83 2012.78 1653.13 2024.28 1621.75 z" fill="rgb(27,12,109)" transform="translate(0,0)"></path>
<path d="M 1627.41 1619.43 C 1645.43 1619.53 1660.9 1623.54 1670.8 1639.96 C 1668.3 1642.24 1665.77 1643.89 1663.01 1645.82 C 1662.2 1644.69 1661.34 1643.58 1660.44 1642.5 C 1646.18 1625.13 1598.01 1624.41 1597.93 1651.12 C 1597.85 1676.25 1653.62 1669.6 1667.94 1689.25 C 1685.61 1713.48 1669.77 1738.25 1643.48 1743.91 C 1635.91 1745.54 1629.98 1745.16 1622.77 1744.82 C 1621.8 1744.64 1620.84 1744.45 1619.88 1744.25 C 1602.51 1740.71 1591.71 1734.39 1581.75 1719.33 C 1584.3 1717.13 1587.43 1714.95 1590.17 1712.93 C 1592.23 1716.01 1595.05 1719.42 1597.82 1721.87 C 1607.55 1730.63 1620.45 1735 1633.5 1733.96 C 1648.99 1732.83 1666 1723.37 1662.84 1705.89 C 1658.27 1680.56 1612.65 1686.13 1596.22 1671.54 C 1590.89 1666.8 1587.81 1663.13 1587.09 1655.78 C 1584.35 1630.52 1606.01 1621 1627.41 1619.43 z" fill="rgb(27,12,109)" transform="translate(0,0)"></path>
<path d="M 1506.74 1621.43 C 1509.93 1621.34 1512.59 1620.81 1515.22 1622.39 C 1513.7 1628.76 1505.73 1645.09 1502.81 1652.41 C 1490.89 1682.33 1474.75 1713.16 1463.46 1743.01 L 1451.49 1742.96 C 1436.45 1709.03 1421.61 1675 1406.99 1640.88 C 1404.55 1634.93 1400.2 1628.97 1401.38 1623.31 C 1404.94 1620.99 1406.94 1621.75 1411.73 1621.63 C 1424.04 1655.77 1442.55 1694.34 1457.12 1728.48 C 1473.8 1694.91 1487.59 1658.8 1502.43 1624.37 C 1503.61 1621.63 1504.17 1622.14 1506.74 1621.43 z" fill="rgb(27,12,109)" transform="translate(0,0)"></path>
<path d="M 1893.77 1621.24 L 1906.65 1620.85 L 1906.42 1631.75 C 1893.39 1632.34 1881.53 1633.58 1871.86 1643.4 C 1862.61 1652.59 1859.83 1665.74 1859.84 1678.4 C 1859.86 1699.88 1859.99 1721.41 1860.1 1742.9 C 1856.45 1743.06 1853.27 1743.58 1849.93 1742.29 C 1847.91 1738.98 1848.64 1738.81 1848.56 1734.25 L 1848.1 1622.04 C 1851.7 1621.93 1853.79 1621.57 1857.17 1622.87 C 1861.49 1627.92 1859.56 1639.51 1859.73 1647.8 L 1860.26 1646.86 C 1868.73 1632.2 1877.6 1625.52 1893.77 1621.24 z" fill="rgb(27,12,109)" transform="translate(0,0)"></path>
<path d="M 1541.3 1621.45 L 1552.92 1621.41 L 1552.95 1742.72 L 1541.69 1742.43 C 1541.04 1702.11 1540.91 1661.78 1541.3 1621.45 z" fill="rgb(27,12,109)" transform="translate(0,0)"></path>
<path d="M 1541.84 1577.42 C 1544.99 1575.62 1548.87 1575.66 1551.99 1577.53 C 1555.1 1579.39 1556.98 1582.78 1556.9 1586.41 C 1556.82 1590.04 1554.79 1593.34 1551.6 1595.06 C 1546.73 1597.68 1540.67 1595.9 1537.99 1591.06 C 1535.32 1586.23 1537.03 1580.15 1541.84 1577.42 z" fill="rgb(27,12,109)" transform="translate(0,0)"></path>
<path d="M 1327.01 1220.15 C 1327.13 1221.54 1327.05 1223.38 1327.02 1224.83 C 1326.35 1224.72 1325.67 1224.63 1324.99 1224.54 C 1319.66 1223.89 1324.61 1221.79 1327.01 1220.15 z" fill="rgb(35,25,123)" transform="translate(0,0)"></path>
<metadata><recraft-signature>{"signed_by": "recraft", "signature_b64": "LkkXCItyMRZjzkMhgMtAMrevjxtpd7fESDUfIPKvPYCWeU993Um8qNlCbws6Aqestd1pilc4D2axdS+V+wDZCQ==", "signing_algo": "Ed25519", "generation_timestamp": 1783365447, "identifier": "4aad50a2-0efe-480c-93d7-2c4366fdc28a"}</recraft-signature></metadata></svg>