<svg xmlns="http://www.w3.org/2000/svg" height="1024" preserveAspectRatio="none" style="display: block;" version="1.1" viewBox="0 0 2048 2048" width="1024">
<path d="M 0 0 L 2048 0 L 2048 2048 L 0 2048 L 0 0 z" fill="rgb(255,255,255)" transform="translate(0,0)"></path>
<path d="M 1023.19 602.885 C 1028.01 602.798 1256.87 732.244 1283.64 747.434 L 1346.4 782.881 C 1357.92 789.297 1374.96 799.142 1386.92 803.863 L 1386.52 1020.68 C 1352.2 1002.6 1309.43 977.778 1277.01 957.271 C 1276.55 925.656 1277.9 893.265 1277.23 861.941 C 1258.61 848.881 1222.15 830.038 1200.71 817.781 L 1026.7 718.396 C 1006.17 726.772 986.137 741.134 966.659 751.659 C 941.721 765.134 917.652 778.858 893.053 792.837 L 807.652 840.302 C 793.993 847.857 780.186 854.863 766.96 863.168 C 766.37 895.215 766.477 927.719 766.326 959.804 C 754.805 967.684 737.912 976.71 725.414 983.809 L 660.237 1021.04 C 659.148 996.203 659.795 966.064 659.85 941.03 L 660.195 806.305 C 676.604 796.212 698.57 784.927 715.742 775.149 C 764.646 746.77 813.97 719.119 863.695 692.206 C 882.18 681.976 899.581 671.129 917.801 660.735 C 952.575 640.81 987.711 621.524 1023.19 602.885 z" fill="rgb(47,76,248)" transform="translate(0,0)"></path>
<path d="M 1007.61 754.959 C 1010.96 759.092 1009.22 848.276 1009.22 861.026 C 1000.11 867.245 985.516 875.002 975.718 880.697 C 947.852 896.894 919.886 911.867 892.271 928.561 C 891.155 959.819 891.724 993.123 891.854 1024.42 C 872.411 1036.31 851.274 1047.19 831.258 1058.09 L 746.461 1104.72 C 677.419 1142.48 606.494 1182.45 537.174 1219.2 L 537.094 913.445 C 537.057 863.842 535.652 804.86 537.627 755.865 C 551.82 761.535 619.515 798.137 629.889 807.088 C 632.667 812.604 631.509 880.119 631.514 890.843 L 631.907 1065.62 C 639.251 1061.77 646.921 1057.39 654.09 1053.21 C 700.37 1026.25 747.769 1001.16 794.057 974.234 C 795.288 944.135 794.388 906.831 794.247 876.116 C 804.277 869.66 817.4 862.931 828.085 856.814 C 850.814 843.641 873.615 830.596 896.489 817.677 C 930.312 798.441 973.607 771.983 1007.61 754.959 z" fill="rgb(6,38,103)" transform="translate(0,0)"></path>
<path d="M 1039.06 754.384 L 1162.3 823.68 C 1192.46 841.016 1222.18 858.835 1252.88 875.355 L 1252.96 973.478 C 1307.08 1002.38 1362.8 1038.1 1416.54 1066.4 C 1417.79 1039.88 1416.84 1005.84 1416.87 978.841 L 1416.8 807.978 C 1441.75 793.445 1484.94 768.4 1510.23 757.59 C 1510.86 774.005 1510.3 793.654 1510.3 810.361 L 1510.34 910.75 L 1510.75 1218.75 C 1497.78 1213.07 1477.3 1200.67 1464.4 1193.42 C 1440.18 1179.95 1415.89 1166.6 1391.54 1153.38 C 1312.8 1110.45 1229.78 1066.8 1152.2 1022.64 C 1151.33 992.321 1152.03 958.592 1152 928.003 C 1122.87 908.709 1069.87 879.024 1038.98 862.819 C 1038.43 827.124 1038.95 790.177 1039.06 754.384 z" fill="rgb(6,38,103)" transform="translate(0,0)"></path>
<path d="M 1008.97 471.25 C 1010.54 473.552 1009.2 571.747 1009.13 582.849 L 744.046 732.519 C 713.661 749.309 674.752 773.634 644.684 788.182 C 623.967 778.781 599.636 764.215 579.477 752.759 C 567.227 745.841 554.84 739.17 542.323 732.749 C 558.711 724.388 577.368 713.339 593.615 704.303 C 633.385 682.304 672.985 660.001 712.414 637.396 L 1008.97 471.25 z" fill="rgb(6,38,103)" transform="translate(0,0)"></path>
<path d="M 1038.99 471.487 C 1080.96 493.602 1124.81 519.057 1166.25 542.399 L 1406.85 678.002 C 1438.06 695.43 1473.56 716.838 1504.55 732.868 C 1492.31 739.558 1479.62 747.106 1467.46 754.076 L 1404.98 789.39 C 1377 775.538 1343.15 754.047 1314.5 738.098 C 1271.15 714.303 1227.95 690.226 1184.92 665.868 C 1137.05 638.712 1087.29 609.718 1039.04 583.609 L 1038.99 471.487 z" fill="rgb(6,38,103)" transform="translate(0,0)"></path>
<path d="M 1108.04 1269.12 C 1136.04 1269.01 1167.45 1267.68 1194.62 1270.27 C 1223.45 1273.02 1235.08 1312.46 1232.92 1336.77 C 1231.15 1356.69 1229.42 1367.23 1211.67 1378.48 C 1239.87 1396.49 1236.33 1430.93 1225.05 1457.92 C 1207.62 1488.83 1193.84 1482.41 1162.34 1482.43 L 1110.84 1482.98 C 1113.56 1468.76 1114.05 1455.55 1114.05 1441.16 C 1114.04 1397.38 1114.1 1353.61 1113.89 1309.83 C 1113.82 1294.83 1111.91 1283.52 1108.04 1269.12 z" fill="rgb(6,38,103)" transform="translate(0,0)"></path>
<path d="M 1154.53 1314.12 C 1164.16 1314.08 1181.94 1311.6 1187.78 1320.14 C 1194.65 1330.18 1192.04 1343.57 1185.43 1352.92 C 1175.55 1359.73 1166.52 1358.08 1154.49 1358.11 C 1154.33 1343.45 1154.34 1328.78 1154.53 1314.12 z" fill="rgb(255,255,255)" transform="translate(0,0)"></path>
<path d="M 1154.65 1396.94 C 1164.04 1396.83 1173.43 1396.9 1182.81 1397.16 C 1195.8 1406.41 1199.88 1416.95 1190.59 1430.83 C 1180.71 1439.01 1168.23 1436.29 1154.64 1436.02 C 1154.5 1423.17 1154.55 1409.81 1154.65 1396.94 z" fill="rgb(255,255,255)" transform="translate(0,0)"></path>
<path d="M 1586.82 1252.41 C 1599.64 1257.54 1611.56 1266.29 1624.9 1272.05 L 1624.98 1368.66 C 1624.98 1391.43 1626.35 1415.83 1622.5 1438.2 C 1616.06 1475.62 1581.76 1490.96 1547.25 1482.46 C 1504.57 1468.62 1511 1423.84 1510.71 1388.51 C 1510.98 1382.13 1511.4 1375.54 1512.95 1369.34 C 1522.97 1329.2 1551.56 1323.33 1586.19 1332.15 L 1586.82 1252.41 z" fill="rgb(6,38,103)" transform="translate(0,0)"></path>
<path d="M 1564.59 1369.31 C 1596.3 1370.84 1582.96 1398.8 1585.4 1422.66 C 1586.51 1433.45 1582.03 1439.43 1571.72 1443.05 C 1542.7 1443.67 1550.02 1424.51 1548.98 1401 C 1548.26 1384.91 1546.16 1372.93 1564.59 1369.31 z" fill="rgb(255,255,255)" transform="translate(0,0)"></path>
<path d="M 196.043 1268.05 L 243.444 1267.68 C 237.924 1276.17 228.257 1287.24 223.668 1295.48 C 210.726 1318.71 197.206 1343.84 185.371 1367.6 C 205.203 1405.54 222.867 1445.62 242.211 1483.96 L 201.738 1484.44 C 190.212 1461.63 172.513 1432.13 159.864 1408.79 C 158.649 1410.88 154.904 1417.22 154.547 1419.25 C 150.718 1440.93 153.38 1462.84 158.647 1483.45 C 141.794 1483.08 124.937 1482.91 108.079 1482.95 C 114.994 1454.5 112.747 1410.02 112.755 1379.28 C 112.763 1347.75 115.544 1297.71 109.739 1267.85 L 158.166 1267.9 C 150.347 1290.7 152.726 1322.05 153.127 1347 L 156.304 1346.85 C 158.499 1340.63 166.992 1325.02 170.289 1318.61 L 196.043 1268.05 z" fill="rgb(6,38,103)" transform="translate(0,0)"></path>
<path d="M 153.127 1347 L 156.304 1346.85 C 154.176 1350.77 153.159 1352.67 153.127 1347 z" fill="rgb(240,242,247)" transform="translate(0,0)"></path>
<path d="M 366.292 1330.18 L 407.248 1330.1 C 406.894 1336.54 406.604 1342.99 406.38 1349.45 C 405.836 1366.12 406.27 1382.91 406.359 1399.59 C 406.411 1409.29 405.436 1420.32 407.166 1429.83 C 407.668 1432.59 408.639 1434.6 410.677 1436.58 C 413.562 1439.38 416.72 1440.2 420.676 1440.07 C 425.073 1439.92 428.788 1438.42 431.624 1434.98 C 436.865 1428.61 435.076 1359.71 434.29 1347.8 C 433.907 1341.98 432.91 1336.27 431.786 1330.55 C 446.349 1330.22 460.918 1330.15 475.484 1330.32 C 467.717 1379.08 478.046 1446.12 470.687 1493.86 C 461.439 1538.22 422.267 1542.49 385.69 1555.92 C 386.674 1540.39 388.913 1523.12 390.622 1507.51 C 411.544 1499.83 424.654 1495.33 435.892 1475.19 C 406.789 1487.74 381.715 1484.94 370.417 1450.07 C 366.157 1436.92 368.058 1422.27 367.727 1408.68 C 367.099 1382.93 369.926 1355.72 366.292 1330.18 z" fill="rgb(6,38,103)" transform="translate(0,0)"></path>
<path d="M 731.509 1328.35 C 764.188 1326.02 788.929 1344.54 791.739 1377.86 C 795.414 1421.43 799.36 1476.6 743.237 1484.9 C 705.404 1485.97 684.83 1466.88 681.676 1429.32 C 678.246 1388.49 678.754 1333.8 731.509 1328.35 z" fill="rgb(6,38,103)" transform="translate(0,0)"></path>
<path d="M 729.819 1371.12 C 760.06 1368.87 755.654 1384.26 756.023 1409.08 C 756.245 1423.95 758.219 1433.67 744.398 1441.64 C 740.212 1442.28 736.735 1443.05 732.484 1442.22 C 727.909 1441.29 723.92 1438.51 721.464 1434.54 C 716.672 1426.76 718.968 1394.72 719.631 1383.99 C 720.008 1377.88 724.897 1374.16 729.819 1371.12 z" fill="rgb(255,255,255)" transform="translate(0,0)"></path>
<path d="M 288.494 1328.31 C 330.008 1326.17 346.234 1349.91 349.788 1388.26 C 350.796 1399.15 351.065 1420.46 336.003 1421.87 C 315.955 1423.74 294.931 1422.6 274.605 1423.07 C 278.578 1433.06 280.924 1435.85 289.888 1441.56 C 305.346 1442.63 326.51 1442.01 342.395 1441.95 C 341.616 1447.87 341.186 1453.19 340.73 1459.13 C 339.888 1467.42 339.283 1474.75 338.878 1483.07 C 314.657 1483.17 284.043 1486.63 263.621 1471.7 C 248.931 1460.95 239.711 1443.04 237.703 1425.05 C 233.135 1384.13 238.74 1335.03 288.494 1328.31 z" fill="rgb(6,38,103)" transform="translate(0,0)"></path>
<path d="M 287.912 1371.18 C 298.459 1370.21 305.718 1370.34 310.67 1381.62 C 316.965 1395.96 310.834 1392.96 298.926 1392.92 C 289.641 1392.92 270.063 1396.9 275.358 1386.04 C 279.904 1376.72 278.96 1376.28 287.912 1371.18 z" fill="rgb(255,255,255)" transform="translate(0,0)"></path>
<path d="M 989.453 1328.35 C 1005.28 1327.5 1016.85 1329.16 1030.94 1340.4 C 1048.03 1354.04 1058.01 1402.11 1043.86 1418.56 C 1037.5 1425.95 988.68 1423.07 975.711 1423.08 C 979.167 1433.95 980.639 1436.29 990.422 1441.87 C 1007.18 1442.48 1024.71 1442.39 1041.66 1442.84 L 1040.61 1458.24 L 1038.37 1483.14 C 1024.57 1483.29 1010.21 1483.98 996.574 1483.28 C 960.924 1481.44 940.796 1453.36 938.062 1420.15 C 934.842 1381.03 941.396 1332.8 989.453 1328.35 z" fill="rgb(6,38,103)" transform="translate(0,0)"></path>
<path d="M 991.05 1370.23 C 1007.56 1370.57 1010.71 1377.37 1014.39 1392.96 C 1009.42 1393.02 1004.46 1393.04 999.5 1393.03 C 995.405 1393.02 976.482 1393.48 976.211 1392.43 C 973.181 1380.75 984.521 1372.28 991.05 1370.23 z" fill="rgb(255,255,255)" transform="translate(0,0)"></path>
<path d="M 1699.52 1328.39 C 1698.28 1328.43 1703.85 1328.18 1702.82 1328.28 C 1746.11 1324.26 1768.99 1387.36 1749.89 1418.23 C 1745.25 1425.75 1690.69 1422.63 1680.92 1422.5 C 1681.73 1425.85 1682.86 1429.59 1683.79 1432.95 L 1685.01 1434.13 C 1687.38 1436.42 1690.97 1439.64 1694.19 1440.36 C 1708.9 1443.69 1731.97 1441.91 1747.35 1441.56 C 1747.07 1448.57 1746.32 1456.19 1745.75 1463.24 L 1744.09 1483.51 C 1719.88 1483.98 1687.65 1487.07 1668.09 1471.16 C 1653.26 1459.1 1644.78 1436.58 1643.52 1417.82 C 1640.7 1375.84 1649.75 1332.62 1699.52 1328.39 z" fill="rgb(6,38,103)" transform="translate(0,0)"></path>
<path d="M 1696.01 1371.15 C 1714.13 1370.19 1715.29 1374.97 1720.18 1392.79 C 1714.67 1393.13 1708.34 1392.95 1702.75 1392.95 C 1691.93 1392.94 1675.11 1397.24 1682.37 1384.23 C 1687.04 1375.85 1687.35 1374.77 1696.01 1371.15 z" fill="rgb(255,255,255)" transform="translate(0,0)"></path>
<path d="M 1250.56 1330.6 C 1264.92 1331.05 1280.18 1330.89 1294.61 1330.97 C 1290.24 1350.03 1292.47 1370.58 1292.35 1389.98 C 1292.28 1401.28 1291.23 1412.82 1291.8 1424.09 C 1292.07 1429.4 1292.97 1435.67 1297.33 1439.3 C 1300.5 1441.93 1304.67 1442.22 1308.58 1441.61 C 1312.49 1440.99 1315.51 1439.17 1317.63 1435.8 C 1322.99 1427.32 1320.73 1360.06 1319.72 1347.76 C 1319.27 1342.14 1318.19 1336.56 1317.08 1331.04 L 1362.8 1330.96 C 1359.55 1344.2 1358.9 1349.13 1358.89 1362.79 C 1358.93 1390.75 1360.26 1418.84 1356.52 1446.52 C 1351.51 1483.66 1302.84 1495.04 1275.14 1476.73 C 1267.36 1471.59 1261.44 1464.09 1258.26 1455.32 C 1247.7 1426.35 1257.54 1365.55 1250.56 1330.6 z" fill="rgb(6,38,103)" transform="translate(0,0)"></path>
<path d="M 858.669 1328.28 C 916.154 1323.21 920.593 1367.15 919.015 1410.44 C 918.182 1433.32 918.547 1461.09 921.478 1483.49 L 878.507 1483.81 C 882.484 1452.23 880.865 1419.05 880.842 1387.19 C 880.837 1380.14 879.816 1376.88 874.579 1372.22 C 871.069 1371.04 866.595 1370.36 862.912 1370.95 C 859.16 1371.55 855.648 1373.78 853.751 1377.14 C 849.226 1385.14 851.643 1469.72 854.622 1483.9 C 840.085 1483.71 825.547 1483.7 811.01 1483.89 C 815.441 1459.27 813.681 1426.13 813.734 1400.45 C 813.808 1365.03 815.17 1335.33 858.669 1328.28 z" fill="rgb(6,38,103)" transform="translate(0,0)"></path>
<path d="M 577.464 1329.52 L 578.232 1329.49 C 579.689 1332.43 578.885 1364.81 578.845 1370.66 C 566.307 1370.84 553.372 1369.47 540.856 1370.14 C 534.108 1370.5 529.825 1372.19 529.03 1379.41 C 532.59 1389.93 549.74 1385.65 558.735 1389.66 C 598.889 1407.59 592.812 1477.91 547.11 1482.8 C 529.894 1484.65 508.361 1483.41 490.221 1483.66 L 489.694 1483.38 C 487.707 1479.12 494.468 1450.65 495.622 1443.01 C 509.382 1442.99 545.303 1447.72 550.38 1433.43 C 546.911 1417.81 522.359 1432.05 507.129 1417.29 C 478.23 1389.27 488.7 1336.35 530.968 1330.25 C 543.565 1328.43 563.299 1329.77 577.464 1329.52 z" fill="rgb(6,38,103)" transform="translate(0,0)"></path>
<path d="M 1886.96 1329.43 L 1926.66 1329.24 C 1926.77 1342.91 1926.68 1356.59 1926.38 1370.26 C 1915.09 1370.08 1879.67 1366.17 1875.71 1377.85 C 1878.52 1396.17 1903.62 1379.94 1918.38 1396.49 C 1938.08 1418.58 1940.25 1448.83 1919.13 1471.19 C 1906.89 1484.13 1893.29 1484.19 1876.75 1484.06 L 1837.48 1483.79 C 1839.46 1470.54 1842.21 1456.32 1844.52 1443.04 C 1857.81 1442.89 1896.61 1447.72 1899.78 1432.6 C 1894.58 1418.37 1867.89 1428.38 1853.93 1415.04 C 1844.72 1407.1 1840.77 1394.74 1840.01 1382.59 C 1838.07 1351.24 1856.23 1331.65 1886.96 1329.43 z" fill="rgb(6,38,103)" transform="translate(0,0)"></path>
<path d="M 601.248 1266.82 C 613.5 1272.21 628.908 1281.16 640.787 1287.68 L 640.532 1330.31 C 650.304 1329.95 657.552 1329.05 667.114 1327.32 L 667.211 1371.18 L 640.076 1370.99 C 639.498 1385.33 639.476 1400.24 639.804 1414.6 C 640.366 1439.24 647.516 1438.59 668.655 1437.81 C 668.851 1443.39 668.495 1448.6 668.19 1454.15 C 667.853 1463.34 670.627 1476.86 665.311 1482.84 C 662.354 1484.45 661.137 1484.23 658.007 1484.29 C 593.299 1485.58 601.852 1412.38 601.624 1369.86 L 601.248 1266.82 z" fill="rgb(6,38,103)" transform="translate(0,0)"></path>
<path d="M 1440.81 1252.62 C 1452.36 1257.84 1467.63 1266.24 1479.16 1272.13 L 1478.96 1376.24 C 1478.93 1393.32 1478.41 1410.9 1479.46 1427.9 C 1480.18 1439.66 1491.45 1439.35 1499.78 1439.24 C 1500.21 1453.22 1499.94 1468.47 1499.96 1482.54 C 1431.76 1493.88 1440.74 1415.19 1440.72 1372.3 L 1440.81 1252.62 z" fill="rgb(6,38,103)" transform="translate(0,0)"></path>
<path d="M 1813.81 1330.22 C 1820.04 1329.62 1824.82 1329.67 1831.06 1329.7 C 1831.33 1344.05 1831.06 1359.17 1831.03 1373.58 C 1828.23 1373.69 1825.28 1373.7 1822.51 1374.13 C 1819.39 1374.61 1816.71 1376.35 1814.88 1378.9 C 1806.74 1390.21 1810.09 1468.01 1813.32 1484.12 L 1791.99 1484.02 L 1770.49 1484.45 C 1776.06 1449.01 1765.31 1380.59 1781.09 1353.2 C 1788.49 1340.35 1799.95 1333.95 1813.81 1330.22 z" fill="rgb(6,38,103)" transform="translate(0,0)"></path>
<path d="M 1377.42 1330.24 L 1421.68 1330.15 C 1416.8 1371.22 1420.83 1417.18 1419.58 1458.78 C 1419.37 1465.48 1421.4 1474.8 1421.69 1481.89 L 1421.75 1483.51 C 1407.16 1483.3 1392.56 1483.38 1377.98 1483.74 C 1380.27 1473.33 1381.02 1462.86 1380.95 1452.2 C 1380.7 1415.96 1381.69 1379.59 1380.35 1343.38 C 1380.2 1339.31 1378.62 1334.19 1377.42 1330.24 z" fill="rgb(6,38,103)" transform="translate(0,0)"></path>
<path d="M 1394.54 1268.29 C 1407.46 1265.67 1420.07 1273.96 1422.78 1286.86 C 1425.48 1299.76 1417.27 1312.42 1404.39 1315.21 C 1391.39 1318.02 1378.59 1309.72 1375.86 1296.7 C 1373.13 1283.69 1381.51 1270.94 1394.54 1268.29 z" fill="rgb(6,38,103)" transform="translate(0,0)"></path>
<metadata><recraft-signature>{"signed_by": "recraft", "signature_b64": "6omoyXORnMvO82NlwKYL73r7h2T5BJ/qQXlPlfNwPO3nBd1dObrch9vhjA0rBB6m1RLQO/mF6m6DjjXwPrjxDg==", "signing_algo": "Ed25519", "generation_timestamp": 1783365405, "identifier": "e9973ff7-111c-45b4-ab2c-8a76a88eeeca"}</recraft-signature></metadata></svg>