<svg xmlns="http://www.w3.org/2000/svg" height="1024" preserveAspectRatio="none" style="display: block;" version="1.1" viewBox="0 0 2048 2048" width="1024">
<path d="M 0 0 L 2048 0 L 2048 2048 L 0 2048 L 0 0 z" fill="rgb(255,255,255)" transform="translate(0,0)"></path>
<path d="M 1022.56 441.387 C 1032.93 441.376 1056.91 446.004 1064.89 451.597 C 1084.91 465.618 1103.33 493.96 1116 514.734 C 1136.16 548.493 1156.13 582.361 1175.91 616.338 C 1199.59 656.119 1222.62 702.985 1270.24 716.569 C 1264.49 741.046 1255.96 768.162 1248.82 792.516 C 1177.82 764.924 1128.75 663.052 1093.23 600.384 C 1088.06 591.268 1076.98 562.056 1066.39 564.701 C 1063.59 572.269 1064.94 632.446 1064.97 644.908 L 1064.91 771.413 L 1064.82 848.068 C 1064.8 898.676 1064.24 939.368 1108.48 973.739 C 1083.12 972.747 1051.29 973.548 1025.5 973.437 C 997.944 973.27 968.961 972.925 941.528 973.772 C 955.602 965.508 963.365 958.241 970.993 943.493 C 977.878 930.26 982.163 915.83 983.616 900.984 C 985.165 884.948 984.656 864.351 984.595 847.919 L 984.135 763.904 C 983.836 701.513 984.553 639.01 984.275 576.607 C 984.254 571.851 984.287 565.499 979.766 563.17 C 975.169 564.245 972.416 568.545 969.956 572.569 C 922.957 649.454 886.344 753.897 798.141 792.807 C 791.356 766.846 782.937 743.497 776.423 716.269 C 789.875 711.891 806.96 706.26 817.049 695.945 C 837.145 675.399 854.165 642.709 868.797 617.613 C 889.162 582.109 910.629 547.249 933.169 513.084 C 957.334 476.656 974.869 445.692 1022.56 441.387 z" fill="rgb(11,11,11)" transform="translate(0,0)"></path>
<path d="M 1010.14 1097.24 L 1126.72 1097.11 C 1149.71 1097.13 1172.81 1096.56 1195.72 1098.37 C 1279.03 1104.96 1324.98 1193.12 1293.55 1268.3 C 1280.77 1298.53 1256.28 1322.29 1225.68 1334.15 C 1194.2 1346.69 1161.77 1343.97 1131.1 1330.81 L 1131.62 1465.75 C 1131.16 1490.3 1133.51 1509.34 1157.63 1523.91 C 1164.03 1527.77 1168.28 1527.94 1171.4 1534.69 C 1171.22 1535.84 1171.23 1537.49 1170.33 1537.95 C 1159.24 1543.66 1126.29 1540.9 1114.97 1540.91 L 1009.95 1540.81 C 1009.69 1538.7 1009.33 1536.34 1009.43 1534.25 C 1009.52 1533.43 1009.61 1532.62 1009.7 1531.8 C 1032.08 1517.43 1046.05 1511.75 1046.24 1481.58 C 1046.45 1450.72 1046.79 1417.51 1046.36 1386.44 C 1046.08 1366.64 1047.37 1345.14 1044.58 1325.51 C 1043.92 1320.98 1040.08 1314.23 1036.74 1311.09 C 1028.53 1303.35 1021.72 1302.81 1011.49 1302.82 C 1018.61 1286.8 1028.04 1275.66 1045.92 1271.87 C 1046.78 1252.25 1048.14 1156.54 1043.68 1142.53 C 1038.82 1127.29 1023.19 1117.79 1009.99 1110.67 C 1009.95 1106.25 1010.08 1101.67 1010.14 1097.24 z" fill="rgb(11,11,11)" transform="translate(0,0)"></path>
<path d="M 1177.08 1166.01 C 1207.18 1163.42 1233.73 1185.6 1236.55 1215.67 C 1239.38 1245.75 1217.42 1272.48 1187.36 1275.55 C 1156.97 1278.65 1129.87 1256.38 1127.01 1225.96 C 1124.15 1195.54 1146.63 1168.62 1177.08 1166.01 z" fill="rgb(255,255,255)" transform="translate(0,0)"></path>
<path d="M 1624.63 1237.28 C 1639.59 1236.71 1733.52 1236.24 1743.44 1238.92 C 1727.13 1246.44 1712.14 1243.84 1709.74 1268.36 C 1708.12 1284.95 1708.93 1302 1708.94 1318.69 C 1709.09 1352.94 1709.03 1387.19 1708.76 1421.44 C 1725.19 1402.76 1737.86 1380.05 1756.35 1362.82 C 1757.5 1361.75 1757.31 1357.61 1757.01 1356.08 C 1755.65 1349.3 1747 1345.74 1741.54 1342.76 L 1742.72 1341.77 C 1774.3 1340.79 1806.25 1341.46 1837.86 1341.18 C 1843.92 1341.13 1849.82 1341.57 1855.76 1342.78 C 1848.1 1346.83 1836.31 1348.11 1828.59 1351.88 C 1808.72 1361.58 1787.79 1387.79 1774.47 1404.71 C 1782.9 1425.23 1796.63 1450.11 1806.81 1470 C 1818.84 1491.69 1828.95 1514.98 1842.54 1535.74 C 1862.73 1566.61 1885.57 1595.61 1923.98 1571.34 C 1915.89 1584.02 1906.62 1594.39 1893.06 1601.28 C 1877.36 1609.11 1859.21 1610.44 1842.53 1604.98 C 1791.17 1587.99 1758.92 1497.7 1735.56 1451.51 C 1728.16 1459.77 1715.6 1476.22 1709.05 1485.33 C 1708.32 1514.25 1704.6 1527.73 1737.79 1537.21 L 1737.11 1539.14 C 1734.64 1540.95 1708.97 1540.03 1703.4 1540.04 L 1533.65 1540.04 C 1543.83 1530.08 1549.23 1523.42 1555.74 1510.9 C 1548.88 1515.62 1543.22 1522.24 1536.93 1527.42 C 1494.69 1562.14 1437.23 1536.58 1415.09 1492.15 C 1392.54 1446.9 1402.29 1390.54 1440.31 1357.9 C 1465.16 1336.57 1504.47 1328.74 1533.12 1346.02 C 1544.55 1352.83 1551.36 1361.42 1559.69 1371.47 C 1553.68 1357.45 1549.73 1351.12 1537.94 1341.41 C 1558.49 1341.63 1579.04 1341.67 1599.59 1341.51 C 1610.16 1341.48 1627.4 1340.88 1637.41 1342.33 C 1632.14 1343.82 1626.58 1345.15 1621.65 1347.54 C 1614.55 1350.97 1608.05 1356.64 1605.58 1364.37 C 1602.18 1375.06 1602.26 1494.01 1603.71 1508.71 C 1604.13 1512.94 1605.44 1516.68 1607.51 1520.41 C 1612.27 1528.98 1619.3 1532.87 1628.31 1535.54 C 1629.79 1535.16 1631.26 1534.74 1632.72 1534.28 C 1640.2 1531.87 1646.82 1526.76 1650.36 1519.67 C 1652.68 1515.01 1652.94 1510.29 1653.17 1505.16 C 1654.14 1483.41 1654.2 1266.57 1651.35 1259.32 C 1647.03 1248.38 1635.26 1244.69 1625.53 1240.22 L 1624.63 1237.28 z" fill="rgb(11,11,11)" transform="translate(0,0)"></path>
<path d="M 1496.78 1387.11 C 1554.57 1381.23 1580.89 1466.33 1513.75 1490.33 C 1492.04 1493.75 1475.89 1487.69 1465.51 1467.16 C 1448.55 1433.59 1458.77 1399.3 1496.78 1387.11 z" fill="rgb(255,255,255)" transform="translate(0,0)"></path>
<path d="M 178.061 1139.48 L 345.547 1139.73 L 345.407 1149.09 C 328.069 1159.85 309.23 1171.31 308.867 1194.06 C 308.486 1217.86 308.623 1241.62 308.632 1265.42 C 308.407 1312.78 308.469 1360.14 308.817 1407.5 L 308.725 1483.76 C 308.651 1529.84 302.147 1542.78 346.845 1567.08 L 347.016 1579.72 C 334.33 1580.01 320.936 1579.83 308.193 1579.86 C 264.181 1580.11 220.168 1580.01 176.158 1579.56 C 176.255 1574.85 176.554 1569.85 176.754 1565.11 C 198.14 1557.33 214.176 1542.02 213.528 1517.62 C 212.381 1474.42 215.649 1429.35 211.963 1386.38 C 210.427 1368.47 195.035 1362.11 178.498 1361.99 C 185.165 1340.92 191.083 1331 213.25 1324.38 L 213.474 1238 C 213.539 1223.01 214.153 1204.08 212.661 1189.89 C 210.83 1172.48 193.163 1160.65 179.98 1152.06 C 176.4 1149.73 175.869 1148.24 175.254 1144.11 C 176.5 1140.1 175.307 1141.34 178.061 1139.48 z" fill="rgb(11,11,11)" transform="translate(0,0)"></path>
<path d="M 680.843 555.157 C 690.096 554.167 698.187 554.9 706.576 558.997 C 721.776 566.422 727.3 578.731 731.946 593.981 C 738.245 614.655 743.635 635.702 749.719 656.434 L 796.443 816.143 L 816.481 885.416 C 824.51 912.914 841.534 949.222 811.496 970.935 C 806.032 974.885 801.886 976.181 795.626 978.118 C 772.134 982.706 753.891 969.062 747.392 947.016 C 739.582 920.523 731.729 894.049 723.995 867.532 L 681.463 721.447 L 660.44 648.82 C 655.818 633.043 649.967 616.145 647.465 599.988 C 643.9 576.962 660.361 561.175 680.843 555.157 z" fill="rgb(11,11,11)" transform="translate(0,0)"></path>
<path d="M 1353.95 554.209 C 1363.43 553.848 1370.76 555.039 1379.01 560.027 C 1388.96 566.017 1395.96 575.871 1398.36 587.231 C 1402.27 606.023 1387.5 647.242 1381.86 666.738 L 1346.17 787.243 L 1317.29 885.657 C 1310.35 909.369 1303.77 936.363 1293.86 958.949 C 1289.21 969.54 1274.2 976.688 1263.06 978.702 C 1242.25 978.843 1225.26 970.016 1219.36 949.013 C 1214.22 930.71 1223.53 908.663 1228.75 890.976 L 1247.91 825.763 L 1297.99 655.156 C 1304.97 631.47 1311.38 606.96 1319.23 583.533 C 1324.59 567.563 1337.44 557.64 1353.95 554.209 z" fill="rgb(11,11,11)" transform="translate(0,0)"></path>
<path d="M 605.971 1338.25 C 662.122 1331.24 713.326 1371.07 720.356 1427.22 C 727.385 1483.36 687.58 1534.58 631.434 1541.64 C 575.258 1548.69 524.003 1508.86 516.969 1452.68 C 509.936 1396.5 549.789 1345.26 605.971 1338.25 z" fill="rgb(11,11,11)" transform="translate(0,0)"></path>
<path d="M 612.883 1388.33 C 674.639 1382.53 689.722 1480.92 623.944 1491.37 C 561.491 1495.7 544.889 1397.72 612.883 1388.33 z" fill="rgb(255,255,255)" transform="translate(0,0)"></path>
<path d="M 854.596 1336.29 C 887.522 1333.62 914.415 1350.22 925.061 1381.71 C 931.343 1400.29 930.2 1417.4 930.117 1436.65 L 929.873 1485.55 C 929.762 1516.35 927.222 1522.63 956.76 1537.89 L 956.828 1539.14 C 951.211 1540.92 855.165 1541.22 846.647 1539.77 L 846.571 1537.87 C 846.957 1537.64 848.612 1536.63 849.178 1536.45 C 863.071 1532.14 874.443 1520.4 874.473 1505.36 C 874.517 1483.81 873.947 1462.8 873.973 1441.34 C 873.991 1425.39 875.286 1409.75 863.5 1397.21 C 857.36 1390.63 848.845 1386.78 839.85 1386.51 C 829.896 1386.25 821.771 1390.36 814.951 1397.4 C 802.483 1410.26 803.721 1426.27 803.751 1442.68 C 803.992 1464.54 801.674 1493.6 805.179 1515.1 C 807.237 1527.73 824.708 1535.35 835.79 1539.88 C 829.229 1540.85 802.416 1540.46 794.863 1540.33 C 769.152 1539.89 740.622 1541.03 715.214 1539.27 C 720.124 1537.07 725.405 1535.89 730.213 1533.58 C 737.426 1530.12 744.056 1524.43 746.542 1516.56 C 750.562 1503.84 750.01 1395.25 748.535 1375.7 C 748.164 1370.77 747.733 1365.36 745.356 1360.97 C 738.675 1348.62 727.337 1345.97 714.977 1342.19 C 726.794 1340.64 744.727 1341.12 757.128 1341.13 L 818.956 1341.09 C 805.738 1352.1 801.013 1360.72 795.295 1376.64 C 815.659 1353.51 820.664 1341.72 854.596 1336.29 z" fill="rgb(11,11,11)" transform="translate(0,0)"></path>
<path d="M 1292.37 1337.32 C 1344.27 1332.93 1380.01 1367.32 1390.23 1416.5 C 1388.2 1423.94 1385.46 1429.73 1377.97 1432.74 C 1365.37 1437.79 1351.45 1441.15 1338.4 1444.88 C 1313.38 1452.1 1288.31 1459.14 1263.19 1466.02 C 1288.91 1502.94 1336.13 1500.45 1371.03 1477.11 C 1376.2 1473.66 1381.2 1466.15 1385.6 1463.84 C 1387.54 1466.05 1386.74 1466.62 1386.59 1470.62 C 1383.19 1500.19 1361.47 1529.37 1332.93 1538.97 C 1273.25 1559.03 1215.72 1510.55 1206.53 1452.26 C 1202.32 1425.44 1208.94 1398.04 1224.94 1376.1 C 1242.45 1352.55 1263.88 1341.61 1292.37 1337.32 z" fill="rgb(11,11,11)" transform="translate(0,0)"></path>
<path d="M 1292.6 1383.13 C 1313.36 1381.86 1332.72 1388.92 1338.25 1410.55 C 1325.6 1417.08 1310.97 1420.42 1297.25 1424.42 C 1286.02 1428.15 1273.01 1431.72 1261.58 1434.95 C 1261.53 1409.15 1265.76 1392.03 1292.6 1383.13 z" fill="rgb(255,255,255)" transform="translate(0,0)"></path>
<path d="M 1411.79 624.157 C 1423.18 623.198 1432.26 626.505 1443.05 628.989 C 1465.1 634.064 1474.96 640.95 1469.47 665 C 1464.28 687.712 1457.06 709.924 1450.52 732.247 C 1438.92 773.325 1426.77 814.247 1414.08 855.002 C 1406.26 880.682 1399.53 908.869 1390.26 934.068 C 1387.27 942.188 1383.35 946.038 1375.58 949.018 C 1365.84 950.543 1337.16 943.297 1327.93 937.896 C 1320.2 933.374 1318.8 929.17 1316.9 921.057 C 1319.73 908.648 1324.81 892.361 1328.38 879.973 L 1353.96 792.981 L 1380.18 705.332 C 1386.75 682.793 1393.09 659.76 1400.36 637.457 C 1402.97 629.452 1404.25 627.697 1411.79 624.157 z" fill="rgb(11,11,11)" transform="translate(0,0)"></path>
<path d="M 626.243 624.083 C 635.346 623.18 641.859 623.755 645.485 633.253 C 650.896 647.423 655.041 661.918 659.25 676.475 L 677.857 740.675 C 694.716 798.283 711.927 855.808 728.664 913.452 C 737.46 943.749 702.849 945.267 681.96 949.381 C 662.741 951.343 657.84 939.251 653.311 923.475 C 628.72 837.89 602.257 752.825 578.776 666.932 C 568.72 630.148 600.59 631.776 626.243 624.083 z" fill="rgb(11,11,11)" transform="translate(0,0)"></path>
<path d="M 465.667 1336.28 C 485.28 1334.58 499.324 1337.83 516.001 1348.06 C 508.99 1370.88 499.921 1394.62 491.177 1416.8 C 488.849 1406.83 484.49 1394.03 474.416 1389.99 C 450.703 1380.48 428.478 1390.35 418.067 1412.27 C 415.489 1417.69 413.843 1423.51 413.199 1429.47 C 411.733 1442.02 411.754 1507.95 415.023 1516.23 C 420.631 1530.44 434.094 1534.11 446.917 1539.25 C 436.768 1540.49 421.495 1540.07 410.719 1540.09 L 355.371 1540.32 C 348.498 1540.56 336.103 1541.42 329.811 1540.07 L 329.135 1538.6 C 332.456 1533.17 348.508 1531.78 355.145 1519.24 C 357.209 1515.34 357.672 1511.52 357.947 1507.18 C 359.038 1489.91 359.398 1373.6 355.411 1362.63 C 351.056 1350.64 337.044 1347.44 326.734 1342.39 C 338.323 1341.19 360.427 1341.6 372.627 1341.57 C 389.721 1341.54 411.26 1340.65 427.696 1341.9 C 415.315 1352.15 409.642 1364.2 403.771 1378.83 C 407.899 1374.73 413.075 1367.35 417.338 1362.65 C 431.234 1347.32 445.473 1339.52 465.667 1336.28 z" fill="rgb(11,11,11)" transform="translate(0,0)"></path>
<path d="M 1473.16 693.135 C 1476.49 692.849 1482.06 692.553 1485.42 693.446 C 1497.26 696.594 1518.65 698.382 1525.51 709.312 C 1528.58 714.204 1525.53 728.746 1524.03 734.23 C 1512.71 775.494 1500.97 816.359 1488.49 857.308 C 1483.33 874.218 1479.05 893.565 1472.38 910.05 C 1471.23 912.878 1467.13 915.088 1464.45 916.66 C 1453.36 918.932 1428.25 912.2 1417.36 908.056 C 1413.97 902.849 1413.29 900.385 1411.3 894.655 C 1417.38 868.07 1428.85 836.09 1436.57 809.427 L 1457.58 736.422 C 1460.41 726.864 1467.36 699.391 1473.16 693.135 z" fill="rgb(11,11,11)" transform="translate(0,0)"></path>
<path d="M 561.395 693.128 C 574.299 692.059 576.128 693.647 580.06 706.116 C 595.828 756.114 610.084 806.625 625.001 856.886 C 629 870.362 633.302 884.195 636.494 897.848 C 628.825 914.296 611.314 914.189 595.223 916.954 C 583.053 917.805 576.47 916.901 572.315 904.389 C 567.938 891.21 564.866 877.846 561.07 864.514 L 539.758 791.34 C 535.682 776.873 522.51 734.675 520.46 721.823 C 519.765 717.307 520.526 712.687 522.633 708.633 C 527.3 699.762 551.011 695.816 561.395 693.128 z" fill="rgb(11,11,11)" transform="translate(0,0)"></path>
<path d="M 1524.27 765.436 C 1562.47 774.72 1550.17 783.372 1541.64 818.129 C 1538.98 828.948 1528.99 867.034 1522.77 873.421 C 1512.38 875.783 1504.95 872.053 1495.35 868.267 C 1497.18 856.535 1502.85 838.198 1506.29 826.241 C 1512.07 806.186 1517.91 785.263 1524.27 765.436 z" fill="rgb(11,11,11)" transform="translate(0,0)"></path>
<path d="M 517.957 767.165 C 520.989 766.718 521.095 766.468 523.983 767.248 C 526.033 771.034 526.809 775.206 527.923 779.358 C 535.89 809.048 545.046 838.365 552.696 868.146 C 544.905 871.244 540.314 872.54 532.139 874.658 C 530.114 874.409 527.303 874.047 525.468 873.134 C 522.968 871.89 521.361 869.922 520.258 867.417 C 515.636 856.923 494.503 784.723 499 776.412 C 502.08 770.72 512.172 768.68 517.957 767.165 z" fill="rgb(11,11,11)" transform="translate(0,0)"></path>
<metadata><recraft-signature>{"signed_by": "recraft", "signature_b64": "AL1x7Hy3b0koUN/O4aKFu+wofV+rezZ1Yp7P71YfHs2mzoA/iOM0l6cg28VMDYEaIrTtq9agxiVzitTOgztwBg==", "signing_algo": "Ed25519", "generation_timestamp": 1783365361, "identifier": "e337e1ab-7107-496f-a79e-7af7f37b2c62"}</recraft-signature></metadata></svg>