<svg xmlns="http://www.w3.org/2000/svg" height="1024" preserveAspectRatio="none" style="display: block;" version="1.1" viewBox="0 0 2048 2048" width="1024">
<defs>
	<linearGradient gradientUnits="userSpaceOnUse" id="Gradient1" x1="962.268" x2="1017.29" y1="1050.8" y2="1003.04">
		<stop class="stop0" offset="0" stop-color="rgb(180,142,87)" stop-opacity="1"></stop>
		<stop class="stop1" offset="1" stop-color="rgb(220,185,137)" stop-opacity="1"></stop>
	</linearGradient>
	<linearGradient gradientUnits="userSpaceOnUse" id="Gradient2" x1="1198.06" x2="1197.65" y1="778.75" y2="791.12">
		<stop class="stop0" offset="0" stop-color="rgb(159,136,98)" stop-opacity="1"></stop>
		<stop class="stop1" offset="1" stop-color="rgb(197,170,123)" stop-opacity="1"></stop>
	</linearGradient>
	<linearGradient gradientUnits="userSpaceOnUse" id="Gradient3" x1="1107.22" x2="1118.82" y1="669.184" y2="670.746">
		<stop class="stop0" offset="0" stop-color="rgb(48,72,62)" stop-opacity="1"></stop>
		<stop class="stop1" offset="1" stop-color="rgb(81,93,77)" stop-opacity="1"></stop>
	</linearGradient>
	<linearGradient gradientUnits="userSpaceOnUse" id="Gradient4" x1="846.538" x2="844.488" y1="647.654" y2="660.4">
		<stop class="stop0" offset="0" stop-color="rgb(157,137,90)" stop-opacity="1"></stop>
		<stop class="stop1" offset="1" stop-color="rgb(186,157,116)" stop-opacity="1"></stop>
	</linearGradient>
	<linearGradient gradientUnits="userSpaceOnUse" id="Gradient5" x1="1042.88" x2="1116.96" y1="537.341" y2="535.64">
		<stop class="stop0" offset="0" stop-color="rgb(146,133,90)" stop-opacity="1"></stop>
		<stop class="stop1" offset="1" stop-color="rgb(183,147,102)" stop-opacity="1"></stop>
	</linearGradient>
</defs>
<path d="M 0 0 L 2048 0 L 2048 2048 L 0 2048 L 0 0 z" fill="rgb(254,253,252)" transform="translate(0,0)"></path>
<path d="M 917.165 421.613 C 922.973 415.235 932.344 401.628 938.914 399.513 C 947.846 400.516 957.899 409.666 966.363 409.251 C 993.882 407.903 1008.95 383.965 1038.29 398.213 C 1055.34 406.493 1063.73 415.972 1072.5 432.577 L 1073.29 432.96 C 1081.03 429.351 1085.06 427.534 1093.11 424.276 C 1110.4 421.086 1104.44 422.212 1104.75 441.008 C 1105.02 457.105 1109.45 457.255 1117.7 467.87 C 1122.28 471.847 1126.23 474.944 1129.62 480.098 C 1137.79 490.418 1137.64 505.56 1135.9 517.999 C 1132.43 542.778 1117.71 563.065 1099.06 578.671 C 1091.31 585.149 1062.19 597.939 1051.88 599.509 C 1031.48 607.918 1018.09 625.832 1026.45 647.507 C 1040.97 685.171 1050.21 723.305 1048.58 763.975 C 1048.38 768.99 1047.24 784.856 1045.21 789.153 C 1042.43 786.408 1041.67 772.715 1041.3 768.127 C 1038.81 737.86 1033.49 705.152 1018.72 678.161 C 1005.9 666.309 1003.68 654.863 980.5 655.579 C 959.918 656.214 946.719 668.072 930.965 679.872 C 927.462 682.496 926.196 684.309 921.837 686.674 C 885.166 709.42 818.588 706.949 789.695 673.005 C 773.391 657.723 788.144 639.601 780.432 620.035 C 779.398 619.186 779.514 619.255 778.734 618.204 C 773.476 611.119 765.752 604.994 759.286 598.72 C 767.207 595.843 773.291 593.623 781.051 590.431 C 781.636 589.945 782.227 589.465 782.823 588.992 C 790.417 583.06 786.01 581.006 782.224 572.181 C 767.092 538.277 774.596 518.248 807.073 503.471 C 823.349 496.065 829.675 475.561 832.024 458.213 C 840.161 458.048 851.054 458.135 858.929 457.187 C 853.791 467.046 851.099 472.658 848.408 483.478 C 845.119 481.873 836.998 477.43 834.042 477.023 C 832.107 480.97 832.935 483.601 833.624 488.352 C 836.967 511.41 828.33 534.724 831.814 557.247 C 832.383 560.924 836.739 569.272 838.511 572.998 C 880.085 628.264 916.669 598.97 972.56 607.264 C 969.221 610.12 965.919 608.319 964.898 610.099 C 964.431 610.338 960.818 610.532 958.967 611.16 C 977.123 614.703 986.805 615.768 1002.94 626.614 C 1003.46 627.727 1003.28 627.614 1004.07 628.323 C 1005.72 628.157 1001.51 609.473 1001.04 606.293 C 998.051 605.548 997.606 604.494 994.789 603.204 L 995.495 601.881 C 998.457 598.372 998.01 599.449 1001.7 597.105 C 1002.2 592.772 1002.94 588.525 1004.3 584.371 L 1002.15 582.028 C 1006.7 568.182 1012.74 556.035 1019.33 543.05 C 1031.07 519.919 1035.39 490.666 1026.75 465.815 C 1015.68 433.999 1000.45 434.438 973.377 421.12 C 964.895 416.946 957.025 410.54 947.521 405.992 C 951.083 415.112 951.032 418.764 951.082 428.233 C 936.695 425.074 932.504 423.046 917.165 421.613 z" fill="rgb(31,69,58)" transform="translate(0,0)"></path>
<path d="M 917.165 421.613 C 922.973 415.235 932.344 401.628 938.914 399.513 C 947.846 400.516 957.899 409.666 966.363 409.251 C 993.882 407.903 1008.95 383.965 1038.29 398.213 C 1055.34 406.493 1063.73 415.972 1072.5 432.577 L 1073.29 432.96 C 1066.68 440.131 1061.23 442.49 1055.19 451.819 C 1052.97 453.487 1052.52 455.443 1051.63 458.065 L 1050.9 460.152 L 1050.3 459.011 C 1048.82 456.286 1048.44 454.326 1047.17 451.554 C 1045.24 450.365 1042.04 448.247 1040.07 447.662 L 1038.24 447.054 C 1036.12 444.456 1033.58 441.832 1031.58 439.262 L 1027.75 440.054 C 1034.33 449.064 1041.42 458.855 1043.15 470.145 C 1049.51 511.552 1019.57 548.211 1004.3 584.371 L 1002.15 582.028 C 1006.7 568.182 1012.74 556.035 1019.33 543.05 C 1031.07 519.919 1035.39 490.666 1026.75 465.815 C 1015.68 433.999 1000.45 434.438 973.377 421.12 C 964.895 416.946 957.025 410.54 947.521 405.992 C 951.083 415.112 951.032 418.764 951.082 428.233 C 936.695 425.074 932.504 423.046 917.165 421.613 z" fill="rgb(192,155,107)" transform="translate(0,0)"></path>
<path d="M 1006.65 409.428 L 1004.87 409.498 C 1016.58 409.138 1037.11 416.952 1045.74 425.254 C 1048.04 427.462 1059.21 439.895 1059.9 439.827 C 1060.82 438.543 1058.84 437.58 1058.58 436.636 C 1057.05 430.994 1062.36 433.967 1061.83 437.574 C 1061.41 440.412 1070.1 433.842 1072.5 432.577 L 1073.29 432.96 C 1066.68 440.131 1061.23 442.49 1055.19 451.819 C 1052.97 453.487 1052.52 455.443 1051.63 458.065 L 1050.9 460.152 L 1050.3 459.011 C 1048.82 456.286 1048.44 454.326 1047.17 451.554 C 1045.24 450.365 1042.04 448.247 1040.07 447.662 L 1038.24 447.054 C 1036.12 444.456 1033.58 441.832 1031.58 439.262 L 1027.75 440.054 C 1024.84 437.699 1014.88 429.965 1015.69 426.478 C 1015.56 425.411 1015.44 423.8 1015.12 422.82 C 1013.56 422.047 1006.57 419.482 1005.97 418.751 C 1005.99 418.671 1006.02 418.591 1006.04 418.512 C 1007.6 417.947 1009.86 419.518 1011.04 419.769 C 1030.74 423.981 1040.55 432.763 1051.91 449.036 C 1053.89 447.169 1055.9 445.354 1057.76 443.372 C 1043.68 420.644 1030.34 417.735 1006.65 409.428 z" fill="rgb(226,215,192)" transform="translate(0,0)"></path>
<path d="M 1015.12 422.82 C 1016.78 423.646 1019.02 425.575 1020.48 425.717 C 1020.52 425.659 1020.55 425.601 1020.59 425.543 C 1022.68 425.035 1029.97 429.234 1031.8 430.76 C 1039.83 437.451 1045.49 440.826 1047.17 451.554 C 1045.24 450.365 1042.04 448.247 1040.07 447.662 L 1038.24 447.054 C 1036.12 444.456 1033.58 441.832 1031.58 439.262 L 1027.75 440.054 C 1024.84 437.699 1014.88 429.965 1015.69 426.478 C 1015.56 425.411 1015.44 423.8 1015.12 422.82 z" fill="rgb(200,166,117)" transform="translate(0,0)"></path>
<path d="M 1015.69 426.478 L 1016.9 426.906 C 1020.94 428.192 1028.54 435.936 1031.58 439.262 L 1027.75 440.054 C 1024.84 437.699 1014.88 429.965 1015.69 426.478 z" fill="rgb(165,143,100)" transform="translate(0,0)"></path>
<path d="M 1029.77 404.074 C 1039.11 407.099 1058.75 423.41 1062.87 432.481 C 1057.36 429.991 1052.07 421.374 1046.28 417.126 C 1041.49 413.603 1032.99 408.652 1029.77 404.074 z" fill="rgb(219,193,154)" transform="translate(0,0)"></path>
<path d="M 832.024 458.213 C 840.161 458.048 851.054 458.135 858.929 457.187 C 853.791 467.046 851.099 472.658 848.408 483.478 C 845.119 481.873 836.998 477.43 834.042 477.023 C 832.107 480.97 832.935 483.601 833.624 488.352 C 836.967 511.41 828.33 534.724 831.814 557.247 C 832.383 560.924 836.739 569.272 838.511 572.998 C 840.174 582.764 850.867 591.957 858.625 597.491 C 859.749 598.291 860.889 599.068 862.043 599.823 L 861.482 599.811 C 867.144 602.806 881.589 608.355 884.135 610.265 C 854.689 608.132 834.761 592.95 823.369 565.985 C 822.906 564.348 820.543 556.379 819.386 555.583 C 818.767 555.531 818.706 555.732 817.968 556.141 C 812.951 564.357 816.916 569.04 813.128 573.693 L 813.395 575.255 C 811.839 575.529 810.791 575.729 809.303 575.241 L 808.088 574.856 C 805.614 574.612 804.079 574.412 801.623 573.911 C 798.168 575.206 796.279 576.097 794.027 579.078 C 794.531 581.449 794.951 582.018 794.003 584.254 L 793.263 584.81 C 789.11 587.984 788.892 589.266 783.618 590.025 C 782.761 590.151 781.905 590.286 781.051 590.431 C 781.636 589.945 782.227 589.465 782.823 588.992 C 790.417 583.06 786.01 581.006 782.224 572.181 C 767.092 538.277 774.596 518.248 807.073 503.471 C 823.349 496.065 829.675 475.561 832.024 458.213 z" fill="rgb(192,155,107)" transform="translate(0,0)"></path>
<path d="M 784.297 559.124 C 783.892 553.755 784.657 531.927 789.912 529.342 C 790.495 529.462 790.342 529.343 790.524 529.581 C 790.171 531.668 788.194 537.478 788.12 539.016 C 787.87 544.173 791.237 573.035 793.608 574.806 C 800.124 575.401 797.942 564.77 796.764 562.058 C 794.398 556.614 797.527 522.861 802.52 521.307 C 802.713 521.49 800.287 533.721 799.939 534.99 C 795.56 550.944 799.441 559.047 801.623 573.911 C 798.168 575.206 796.279 576.097 794.027 579.078 C 794.531 581.449 794.951 582.018 794.003 584.254 L 793.263 584.81 C 789.11 587.984 788.892 589.266 783.618 590.025 C 782.761 590.151 781.905 590.286 781.051 590.431 C 781.636 589.945 782.227 589.465 782.823 588.992 C 790.417 583.06 786.01 581.006 782.224 572.181 C 783.103 569.887 783.737 568.498 783.926 566.001 C 784.117 563.713 784.24 561.419 784.297 559.124 z" fill="rgb(226,215,192)" transform="translate(0,0)"></path>
<path d="M 784.297 559.124 C 785.961 562.758 786.474 560.339 787.714 563.011 C 789.04 565.869 789.823 578.825 791.191 580.736 C 792.167 580.968 793.521 579.48 794.027 579.078 C 794.531 581.449 794.951 582.018 794.003 584.254 L 793.263 584.81 C 789.11 587.984 788.892 589.266 783.618 590.025 C 782.761 590.151 781.905 590.286 781.051 590.431 C 781.636 589.945 782.227 589.465 782.823 588.992 C 790.417 583.06 786.01 581.006 782.224 572.181 C 783.103 569.887 783.737 568.498 783.926 566.001 C 784.117 563.713 784.24 561.419 784.297 559.124 z" fill="rgb(200,166,117)" transform="translate(0,0)"></path>
<path d="M 808.088 574.856 C 807.729 564.376 805.103 553.025 807.524 542.764 C 808.247 539.7 808.187 534.832 809.437 532.691 C 809.477 532.948 809.517 533.205 809.556 533.462 C 809.275 548.279 807.993 559.138 813.128 573.693 L 813.395 575.255 C 811.839 575.529 810.791 575.729 809.303 575.241 L 808.088 574.856 z" fill="rgb(241,238,228)" transform="translate(0,0)"></path>
<path d="M 787.843 658.314 C 808.519 697.515 872.644 706.437 909.541 686.157 C 912.364 684.606 916.538 681.761 919.278 680.55 C 922.515 682.293 921.838 679.322 926.441 678.383 C 925.048 684.103 922.911 682.174 921.837 686.674 C 885.166 709.42 818.588 706.949 789.695 673.005 C 788.969 666.792 787.053 666.331 787.686 660.025 L 787.843 658.314 z" fill="rgb(165,143,100)" transform="translate(0,0)"></path>
<path d="M 817.968 556.141 C 818.706 555.732 818.767 555.531 819.386 555.583 C 820.543 556.379 822.906 564.348 823.369 565.985 C 820.401 568.739 820.748 568.961 820.121 573.005 C 835.844 640.437 958.579 602.412 985.31 625.15 L 984.794 625.823 C 939.534 609.486 886.289 632.971 840.549 605.388 C 826.888 597.15 821.219 587.034 813.077 581.2 C 814.42 581.19 813.869 581.409 814.83 580.798 C 814.823 580.426 814.571 579.992 814.267 579.786 C 811.913 578.194 814.567 577.972 814.858 577.075 C 814.808 576.828 814.349 576.108 814.171 575.959 L 813.395 575.255 L 813.128 573.693 C 816.916 569.04 812.951 564.357 817.968 556.141 z" fill="rgb(165,143,100)" transform="translate(0,0)"></path>
<path d="M 817.968 556.141 C 818.706 555.732 818.767 555.531 819.386 555.583 C 820.543 556.379 822.906 564.348 823.369 565.985 C 820.401 568.739 820.748 568.961 820.121 573.005 C 819.096 567.146 818.398 562.165 817.968 556.141 z" fill="rgb(69,85,70)" transform="translate(0,0)"></path>
<path d="M 955.314 653.525 C 965.211 647.427 976.894 644.406 988.499 647.017 C 1001.51 649.944 1014.93 665.759 1018.72 678.161 C 1005.9 666.309 1003.68 654.863 980.5 655.579 C 959.918 656.214 946.719 668.072 930.965 679.872 C 927.462 682.496 926.196 684.309 921.837 686.674 C 922.911 682.174 925.048 684.103 926.441 678.383 C 932.658 673.645 941.248 670.272 945.576 663.278 C 948.591 658.405 951.525 659.301 955.314 653.525 z" fill="rgb(192,155,107)" transform="translate(0,0)"></path>
<path d="M 1038.24 447.054 L 1040.07 447.662 C 1042.04 448.247 1045.24 450.365 1047.17 451.554 C 1048.44 454.326 1048.82 456.286 1050.3 459.011 L 1050.9 460.152 C 1051.11 465.098 1049.09 465.915 1052.68 468.23 C 1051.96 470.522 1051.78 479.26 1051.63 482.149 C 1050.93 495.306 1051.33 510.152 1046.73 522.696 C 1036.23 551.322 1019.77 565.579 1012 596.789 L 1011.09 597.229 L 1011.69 597.729 L 1011.15 598.562 C 1010.19 574.321 1041.04 536.325 1045.39 509.746 C 1049.5 484.636 1052.14 469.382 1038.24 447.054 z" fill="rgb(165,143,100)" transform="translate(0,0)"></path>
<path d="M 838.511 572.998 C 880.085 628.264 916.669 598.97 972.56 607.264 C 969.221 610.12 965.919 608.319 964.898 610.099 C 964.431 610.338 960.818 610.532 958.967 611.16 C 934.289 609.884 909.739 614.569 884.135 610.265 C 881.589 608.355 867.144 602.806 861.482 599.811 L 862.043 599.823 C 860.889 599.068 859.749 598.291 858.625 597.491 C 850.867 591.957 840.174 582.764 838.511 572.998 z" fill="rgb(200,166,117)" transform="translate(0,0)"></path>
<path d="M 794.027 579.078 C 796.279 576.097 798.168 575.206 801.623 573.911 C 804.079 574.412 805.614 574.612 808.088 574.856 L 809.303 575.241 C 810.791 575.729 811.839 575.529 813.395 575.255 L 814.171 575.959 C 814.349 576.108 814.808 576.828 814.858 577.075 C 814.567 577.972 811.913 578.194 814.267 579.786 C 814.571 579.992 814.823 580.426 814.83 580.798 C 813.869 581.409 814.42 581.19 813.077 581.2 C 810.04 581.775 807.017 582.424 804.012 583.146 C 799.681 584.15 795.668 587.052 792.127 589.587 C 785.824 594.218 777.049 597.609 769.883 600.859 C 774.344 608.051 776.217 610.01 782.099 616.361 C 781.45 617.671 781.002 618.686 780.432 620.035 C 779.398 619.186 779.514 619.255 778.734 618.204 C 773.476 611.119 765.752 604.994 759.286 598.72 C 767.207 595.843 773.291 593.623 781.051 590.431 C 781.905 590.286 782.761 590.151 783.618 590.025 C 788.892 589.266 789.11 587.984 793.263 584.81 L 794.003 584.254 C 794.951 582.018 794.531 581.449 794.027 579.078 z" fill="rgb(188,149,99)" transform="translate(0,0)"></path>
<path d="M 1129.62 480.098 C 1137.79 490.418 1137.64 505.56 1135.9 517.999 C 1132.43 542.778 1117.71 563.065 1099.06 578.671 C 1095.73 578.448 1093.25 578.488 1089.94 578.387 C 1111.02 561.312 1129.86 542.831 1133.9 514.501 C 1135.88 500.626 1133.23 493.01 1129.62 480.098 z" fill="rgb(188,149,99)" transform="translate(0,0)"></path>
<path d="M 782.099 616.361 C 785.775 620.734 786.848 622.87 789.68 627.773 C 788.943 640.385 787.716 645.421 787.843 658.314 L 787.686 660.025 C 787.053 666.331 788.969 666.792 789.695 673.005 C 773.391 657.723 788.144 639.601 780.432 620.035 C 781.002 618.686 781.45 617.671 782.099 616.361 z" fill="rgb(200,166,117)" transform="translate(0,0)"></path>
<path d="M 1073.29 432.96 C 1081.03 429.351 1085.06 427.534 1093.11 424.276 C 1094.06 424.551 1096.68 425.119 1097.42 426.057 L 1097.32 426.118 C 1098.61 427.223 1098.11 426.843 1100.07 427.304 C 1090.34 430.025 1084.92 435.007 1078.08 437.357 C 1064.86 440.219 1065.87 447.676 1057.09 451.073 L 1055.19 451.819 C 1061.23 442.49 1066.68 440.131 1073.29 432.96 z" fill="rgb(200,166,117)" transform="translate(0,0)"></path>
<path d="M 1093.11 424.276 C 1110.4 421.086 1104.44 422.212 1104.75 441.008 C 1105.02 457.105 1109.45 457.255 1117.7 467.87 C 1101.93 461.474 1100.37 441.609 1100.07 427.304 C 1098.11 426.843 1098.61 427.223 1097.32 426.118 L 1097.42 426.057 C 1096.68 425.119 1094.06 424.551 1093.11 424.276 z" fill="rgb(192,155,107)" transform="translate(0,0)"></path>
<path d="M 1055.19 451.819 L 1057.09 451.073 C 1065.87 447.676 1064.86 440.219 1078.08 437.357 C 1071.48 444.145 1065.81 448.396 1060.06 456.544 C 1057.18 460.635 1055.3 464.582 1052.68 468.23 C 1049.09 465.915 1051.11 465.098 1050.9 460.152 L 1051.63 458.065 C 1052.52 455.443 1052.97 453.487 1055.19 451.819 z" fill="rgb(188,149,99)" transform="translate(0,0)"></path>
<path d="M 1051.88 599.509 C 1057.53 596.166 1066.23 592.151 1072.47 588.931 C 1078.39 585.874 1085.33 580.711 1089.94 578.387 C 1093.25 578.488 1095.73 578.448 1099.06 578.671 C 1091.31 585.149 1062.19 597.939 1051.88 599.509 z" fill="rgb(200,166,117)" transform="translate(0,0)"></path>
<path d="M 955.314 653.525 C 951.525 659.301 948.591 658.405 945.576 663.278 C 941.248 670.272 932.658 673.645 926.441 678.383 C 921.838 679.322 922.515 682.293 919.278 680.55 C 927.789 672.724 945.483 658.561 955.314 653.525 z" fill="rgb(200,166,117)" transform="translate(0,0)"></path>
<path d="M 995.495 601.881 C 998.457 598.372 998.01 599.449 1001.7 597.105 C 1001.41 600.162 1001.19 603.226 1001.04 606.293 C 998.051 605.548 997.606 604.494 994.789 603.204 L 995.495 601.881 z" fill="rgb(219,193,154)" transform="translate(0,0)"></path>
<path d="M 1059.18 578.081 C 1084.13 564.951 1100.02 552.934 1109.97 524.529 C 1115.27 509.413 1112.62 495.246 1114.25 480.975 C 1120.65 501.258 1119.02 521.537 1109.17 540.355 C 1092.17 572.819 1071.09 576.625 1039.82 589.953 C 1043.83 586.85 1045.72 585.322 1050.2 582.851 C 1052.55 581.807 1057.43 579.835 1059.18 578.081 z" fill="url(#Gradient5)" transform="translate(0,0)"></path>
<path d="M 938.488 637.599 L 939.118 639.276 C 914.077 650.245 892.879 670.275 860.497 673.55 C 842.705 675.35 815.634 670.343 801.901 659.549 L 802.411 657.961 C 805.864 656.658 815.506 661.741 819.936 663.464 C 866.844 681.707 897.42 656.365 938.488 637.599 z" fill="rgb(200,166,117)" transform="translate(0,0)"></path>
<path d="M 1065.99 566.401 C 1084.62 548.849 1095.95 531.902 1100.44 506.718 C 1101.32 501.796 1100.67 480.858 1101.52 480.063 C 1104.71 479.466 1105.71 490.456 1105.77 492.001 C 1107.04 523.672 1092.73 548.581 1068.29 567.374 L 1065.99 566.401 z" fill="rgb(165,143,100)" transform="translate(0,0)"></path>
<path d="M 888.193 655.343 C 883.616 657.226 877.863 660.04 872.988 660.838 C 850.059 664.594 824.949 661.969 804.936 649.498 C 803.951 648.884 803.62 646.767 804.637 646.3 C 806.492 645.448 809.741 647.78 811.439 648.19 C 838.999 659.606 857.784 660.606 887.431 653.449 L 888.193 655.343 z" fill="url(#Gradient4)" transform="translate(0,0)"></path>
<path d="M 1085.11 477.616 C 1090.18 481.507 1087.07 493.811 1086.25 500.011 C 1082.39 529.166 1058.75 554.638 1037.73 573.424 C 1037.17 573.52 1036.75 573.749 1036.34 573.356 C 1036 571.693 1044.8 563.692 1046.5 561.999 C 1071.66 536.975 1083.07 512.951 1085.11 477.616 z" fill="rgb(165,143,100)" transform="translate(0,0)"></path>
<path d="M 816.751 629.1 C 841.448 641.618 860.504 640.54 887.506 637.19 C 891.441 636.702 916.42 632.516 918.333 633.491 C 917.988 633.697 918.229 633.589 917.515 633.78 C 891.084 641.496 856.541 646.664 830.01 637.85 C 824.291 635.95 819.6 634.431 816.751 629.1 z" fill="rgb(200,166,117)" transform="translate(0,0)"></path>
<path d="M 1073.52 481.806 C 1075.78 484.401 1072.95 493.923 1072.18 497.507 C 1067.82 517.987 1057.66 542.021 1044.15 558.26 C 1044.15 558.261 1043.44 558.048 1043.56 557.868 C 1059.53 533.985 1064.49 507.892 1073.52 481.806 z" fill="rgb(165,143,100)" transform="translate(0,0)"></path>
<path d="M 819.816 617.119 C 826.367 619.248 833.009 621.084 839.724 622.62 C 860.364 626.875 878.623 626.423 899.5 625.84 C 902.468 625.758 910.881 624.445 913.067 626.476 C 893.736 626.874 874.189 632.031 854.496 628.295 C 847.466 626.962 825.868 622.835 821.086 618.235 L 819.816 617.119 z" fill="rgb(165,143,100)" transform="translate(0,0)"></path>
<path d="M 1050.2 582.851 C 1052.05 576.433 1060.38 569.364 1065.99 566.401 L 1068.29 567.374 C 1064.04 570.97 1052.93 574.484 1059.18 578.081 C 1057.43 579.835 1052.55 581.807 1050.2 582.851 z" fill="rgb(108,106,77)" transform="translate(0,0)"></path>
<path d="M 938.488 637.599 C 940.276 636.355 946.152 633.59 948.054 634.635 C 948.58 636.203 940.212 638.92 939.118 639.276 L 938.488 637.599 z" fill="rgb(69,85,70)" transform="translate(0,0)"></path>
<path d="M 887.431 653.449 C 888.483 652.99 893.473 650.77 894.403 651.667 C 894.261 652.947 889.254 654.826 888.193 655.343 L 887.431 653.449 z" fill="rgb(165,143,100)" transform="translate(0,0)"></path>
<path d="M 1093.53 600.861 C 1097.51 601.584 1108.49 615.55 1111.74 619.518 C 1110.61 625.33 1109.29 630.894 1108.3 636.776 C 1108.79 639.776 1108.78 639.584 1110.45 642.231 C 1114.24 633.784 1118.89 626.068 1126.71 621.071 C 1127.32 620.108 1127.81 619.197 1128.97 618.908 C 1132.99 620.27 1126.25 631.129 1125.23 633.275 C 1127.31 631.198 1136.61 620.572 1138.56 621.504 C 1151.75 612.924 1164.2 610.77 1180.56 601.142 C 1179.5 605.019 1178.37 608.886 1177.31 612.759 C 1182.64 613.121 1186.87 613.763 1192.32 613.672 L 1192.72 617.084 C 1204.68 621.71 1219.27 625.913 1230.48 630.795 C 1229.7 656.532 1229.7 656.627 1249.85 670.523 C 1258.4 676.423 1255.12 691.579 1250.4 699.932 C 1248.8 703.357 1247.69 704.938 1245.5 708.034 C 1242.85 712.166 1241.01 714.758 1237.51 718.047 C 1237.66 718.863 1237.77 718.988 1237.7 719.621 C 1242.2 720.856 1250.23 722.3 1253.24 724.873 C 1252.93 728.133 1253.44 726.528 1250.2 729.433 L 1249.47 730.333 C 1248.48 733.961 1246.72 738.138 1245.35 741.686 C 1247.09 749.049 1249.28 756.453 1251.16 763.824 C 1248.5 771.613 1245.58 778.144 1237.29 782.424 C 1213.94 797.857 1179.11 796.291 1156.05 781.117 C 1150.76 777.635 1135.37 767.952 1133.1 762.271 C 1125.44 756.868 1114.44 749.691 1105.41 751.986 C 1089.33 756.068 1069 785.505 1060.03 799.171 C 1025.08 852.406 1040.18 919.842 1039.2 978.324 C 1038.49 1021.19 1034.33 1057.61 1036.07 1099.16 C 1035.68 1102.18 1034.99 1104.21 1036.47 1106.74 C 1039.82 1140.19 1037.28 1183.88 1035.77 1217.91 C 1035.1 1233.02 1032.68 1252.4 1032.92 1267.04 L 1030.96 1267.18 C 1031.34 1254.19 1030.58 1240.4 1030.05 1227.37 C 1028.95 1225.06 1022.7 1214.04 1025.57 1212.8 C 1027.97 1214.33 1026.69 1215.55 1029.36 1211.49 C 1028.05 1164.63 1026.06 1116.37 1025.24 1069.55 C 1023.8 1054.61 1022.01 1039.54 1023.1 1024.33 C 1027.35 1029.04 1024.88 1013.13 1025.29 1010.24 C 1027.79 1015.15 1023.79 1025.77 1027.84 1027.01 C 1031.37 964.857 1016.59 884.93 1034.23 827.869 C 1039.39 811.655 1046.68 796.197 1055.9 781.899 C 1073.61 754.921 1087.64 746.882 1092.35 711.895 L 1087.17 703.389 C 1076.76 686.088 1055.9 646.334 1072.68 627.789 C 1084.1 615.166 1088.12 622.606 1093.53 600.861 z" fill="rgb(31,69,58)" transform="translate(0,0)"></path>
<path d="M 1180.56 601.142 C 1179.5 605.019 1178.37 608.886 1177.31 612.759 C 1182.64 613.121 1186.87 613.763 1192.32 613.672 L 1192.72 617.084 C 1204.68 621.71 1219.27 625.913 1230.48 630.795 C 1229.7 656.532 1229.7 656.627 1249.85 670.523 C 1258.4 676.423 1255.12 691.579 1250.4 699.932 C 1248.8 703.357 1247.69 704.938 1245.5 708.034 C 1242.85 712.166 1241.01 714.758 1237.51 718.047 C 1237.66 718.863 1237.77 718.988 1237.7 719.621 C 1242.2 720.856 1250.23 722.3 1253.24 724.873 C 1252.93 728.133 1253.44 726.528 1250.2 729.433 L 1249.68 727.936 C 1248.2 726.279 1232.64 723.15 1226.99 721.075 C 1220.79 725.219 1219.61 730.517 1211.54 735.217 C 1191.35 746.985 1175.75 745.255 1154.4 738.204 C 1149.72 737.431 1146.45 736.563 1141.7 736.529 C 1132.52 733.67 1111.02 736.746 1104.42 743.88 C 1103.43 744.953 1102.32 745.431 1100.97 745.935 C 1103.04 740.768 1107.28 735.723 1110.42 730.715 C 1111.27 728.871 1111.98 727.354 1112.91 725.549 C 1114.03 714.498 1105.25 707.503 1109.13 698.224 C 1109.89 694.836 1109.44 692.845 1108.88 689.501 C 1106.38 674.549 1107.04 656.874 1110.45 642.231 C 1114.24 633.784 1118.89 626.068 1126.71 621.071 C 1127.32 620.108 1127.81 619.197 1128.97 618.908 C 1132.99 620.27 1126.25 631.129 1125.23 633.275 C 1127.31 631.198 1136.61 620.572 1138.56 621.504 C 1151.75 612.924 1164.2 610.77 1180.56 601.142 z" fill="rgb(226,215,192)" transform="translate(0,0)"></path>
<path d="M 1176.65 616.028 C 1182.62 616.144 1186.82 616.481 1192.72 617.084 C 1204.68 621.71 1219.27 625.913 1230.48 630.795 C 1229.7 656.532 1229.7 656.627 1249.85 670.523 C 1258.4 676.423 1255.12 691.579 1250.4 699.932 C 1248.8 703.357 1247.69 704.938 1245.5 708.034 C 1242.85 712.166 1241.01 714.758 1237.51 718.047 C 1237.66 718.863 1237.77 718.988 1237.7 719.621 C 1242.2 720.856 1250.23 722.3 1253.24 724.873 C 1252.93 728.133 1253.44 726.528 1250.2 729.433 L 1249.68 727.936 C 1248.2 726.279 1232.64 723.15 1226.99 721.075 C 1224.61 719.605 1224.73 719.668 1222 719.048 L 1220.82 720.685 L 1219.39 721.455 C 1216.54 722.925 1213.34 725.633 1210.43 727.36 C 1203.03 727.452 1199.86 732.216 1193.44 731.966 C 1209.52 717.34 1220.56 705.328 1220.03 682.112 C 1219.77 670.918 1220.26 665.947 1215.09 655.531 C 1198.32 662.153 1195.07 661.22 1177.53 660.608 C 1182.42 646.441 1179.02 630.615 1176.65 616.028 z" fill="rgb(192,155,107)" transform="translate(0,0)"></path>
<path d="M 1237.7 719.621 C 1235.51 719.385 1230.54 717.725 1230.04 718.028 C 1227.15 719.802 1228.48 717.146 1226.52 715.675 C 1223.77 715.351 1222.2 719.628 1219.49 716.507 C 1222.51 713.853 1225.68 715.089 1227.39 713.679 C 1234.19 708.079 1235.67 697.657 1236.85 689.487 C 1237.09 687.858 1237.51 681.38 1238.99 681.15 C 1241.11 682.325 1239.05 686.264 1240.13 686.777 C 1242.6 685.565 1239.93 681.785 1244.03 683.163 L 1243.31 688.158 C 1246.21 692.57 1244.66 695.514 1247.24 697.83 C 1248.3 698.528 1249.35 699.205 1250.4 699.932 C 1248.8 703.357 1247.69 704.938 1245.5 708.034 C 1242.85 712.166 1241.01 714.758 1237.51 718.047 C 1237.66 718.863 1237.77 718.988 1237.7 719.621 z" fill="rgb(219,193,154)" transform="translate(0,0)"></path>
<path d="M 1243.31 688.158 C 1246.21 692.57 1244.66 695.514 1247.24 697.83 C 1248.3 698.528 1249.35 699.205 1250.4 699.932 C 1248.8 703.357 1247.69 704.938 1245.5 708.034 C 1242.85 712.166 1241.01 714.758 1237.51 718.047 C 1237.42 711.171 1240.1 709.393 1241.66 703.325 C 1244 695.395 1242.9 696.303 1243.31 688.158 z" fill="rgb(200,166,117)" transform="translate(0,0)"></path>
<path d="M 1244.03 683.163 C 1246.03 681.723 1246.34 682.069 1246.45 679.634 C 1250.74 681.063 1248.36 694.426 1247.24 697.83 C 1244.66 695.514 1246.21 692.57 1243.31 688.158 L 1244.03 683.163 z" fill="rgb(219,193,154)" transform="translate(0,0)"></path>
<path d="M 1167.04 612.289 C 1168.64 613.602 1168.66 613.589 1170.46 614.524 C 1172.68 619.404 1173.46 623.453 1174.4 628.637 C 1174.58 629.589 1174.75 630.527 1174.81 631.496 C 1175.7 639.01 1179.3 653.276 1175.1 659.59 C 1174.85 659.958 1173.28 661.491 1173.09 661.57 C 1171.64 662.059 1169.45 668.817 1168.38 668.378 C 1164.33 666.717 1160.42 665.286 1156.02 664.806 C 1154.68 664.659 1153.18 664.08 1151.8 663.786 C 1148.49 668.338 1145.49 672.051 1143.66 677.343 C 1140.14 679.038 1137.09 677.426 1133 676.989 C 1131.55 676.943 1131.56 677.062 1130.27 676.568 C 1125.93 675.556 1123.24 675.155 1118.94 674.545 C 1120 657.248 1119.43 651.365 1128.33 636.209 C 1131.68 632.992 1133.75 629.456 1138.18 625.577 C 1148.29 616.714 1155.93 617.246 1167.04 612.289 z" fill="rgb(192,155,107)" transform="translate(0,0)"></path>
<path d="M 1130.27 676.568 C 1130.89 676.095 1142.69 644.601 1147.88 645.363 C 1148.69 646.477 1139.85 659.783 1138.81 662.107 C 1136.53 667.18 1135.26 672.045 1133 676.989 C 1131.55 676.943 1131.56 677.062 1130.27 676.568 z" fill="rgb(241,238,228)" transform="translate(0,0)"></path>
<path d="M 1211.97 662.365 C 1218.21 673.644 1215.01 687.661 1213.77 700.508 C 1212.28 715.92 1197.48 721.1 1185.83 727.713 C 1183.63 728.018 1162.59 732.073 1167.09 726.218 C 1170.47 719.759 1170.43 720.851 1169.99 712.409 C 1175.35 709.261 1181.91 708.205 1186.99 703.987 C 1188.36 702.857 1190.51 701.671 1192.12 700.837 L 1190.44 699.392 C 1186.34 702.42 1175.92 709.003 1170.59 706.95 C 1169.14 706.387 1168.99 700.054 1168.49 698.214 C 1184.17 690.845 1180.54 689.935 1171.08 677.591 L 1170.32 676.606 C 1171.55 672.471 1172.9 668.381 1174.25 664.284 L 1177.5 664.506 C 1192.53 665.681 1197.69 665.783 1211.97 662.365 z" fill="rgb(192,155,107)" transform="translate(0,0)"></path>
<path d="M 1190.44 699.392 C 1192.48 697.561 1200.16 691.789 1202.53 691.654 C 1204.1 693.19 1193.63 699.723 1192.12 700.837 L 1190.44 699.392 z" fill="rgb(226,215,192)" transform="translate(0,0)"></path>
<path d="M 1191.48 707.125 C 1192.52 707.073 1201.32 706.093 1201.27 708.232 C 1200.71 709.091 1199.79 709.139 1198.76 709.42 C 1196.46 709.714 1186.28 712.122 1191.48 707.125 z" fill="rgb(200,166,117)" transform="translate(0,0)"></path>
<path d="M 1126.71 621.071 C 1127.32 620.108 1127.81 619.197 1128.97 618.908 C 1132.99 620.27 1126.25 631.129 1125.23 633.275 C 1127.31 631.198 1136.61 620.572 1138.56 621.504 C 1135.29 625.961 1130.57 629.331 1126.58 634.757 L 1128.33 636.209 C 1119.43 651.365 1120 657.248 1118.94 674.545 C 1123.24 675.155 1125.93 675.556 1130.27 676.568 C 1131.56 677.062 1131.55 676.943 1133 676.989 C 1137.09 677.426 1140.14 679.038 1143.66 677.343 L 1145.08 679.606 C 1146.94 681.589 1147.42 682.406 1149.98 682.693 C 1152.67 683.289 1157.9 685.936 1155.29 689.031 C 1143.16 703.412 1126.29 720.742 1110.42 730.715 C 1111.27 728.871 1111.98 727.354 1112.91 725.549 C 1114.03 714.498 1105.25 707.503 1109.13 698.224 C 1109.89 694.836 1109.44 692.845 1108.88 689.501 C 1106.38 674.549 1107.04 656.874 1110.45 642.231 C 1114.24 633.784 1118.89 626.068 1126.71 621.071 z" fill="rgb(254,253,252)" transform="translate(0,0)"></path>
<path d="M 1126.71 621.071 C 1127.32 620.108 1127.81 619.197 1128.97 618.908 C 1132.99 620.27 1126.25 631.129 1125.23 633.275 C 1127.31 631.198 1136.61 620.572 1138.56 621.504 C 1135.29 625.961 1130.57 629.331 1126.58 634.757 C 1113.87 655.122 1116.1 655.623 1112.62 678.534 C 1114.89 691.521 1116.38 703.67 1115.75 716.885 C 1115.05 718.606 1114.67 720.052 1114.16 721.828 C 1113.76 723.564 1113.58 723.92 1112.91 725.549 C 1114.03 714.498 1105.25 707.503 1109.13 698.224 C 1109.89 694.836 1109.44 692.845 1108.88 689.501 C 1106.38 674.549 1107.04 656.874 1110.45 642.231 C 1114.24 633.784 1118.89 626.068 1126.71 621.071 z" fill="url(#Gradient3)" transform="translate(0,0)"></path>
<path d="M 1126.71 621.071 C 1127.32 620.108 1127.81 619.197 1128.97 618.908 C 1132.99 620.27 1126.25 631.129 1125.23 633.275 C 1127.31 631.198 1136.61 620.572 1138.56 621.504 C 1135.29 625.961 1130.57 629.331 1126.58 634.757 C 1113.87 655.122 1116.1 655.623 1112.62 678.534 C 1109.99 662.027 1115.58 640.624 1124.49 626.681 C 1126.27 623.894 1126.48 624.396 1126.71 621.071 z" fill="rgb(188,149,99)" transform="translate(0,0)"></path>
<path d="M 1115.75 716.885 C 1118.3 714.524 1121.01 710.485 1124.01 709.126 C 1124.9 708.722 1124.5 710.865 1124.15 710.964 C 1121.04 715.024 1117.25 717.729 1114.16 721.828 C 1114.67 720.052 1115.05 718.606 1115.75 716.885 z" fill="rgb(219,193,154)" transform="translate(0,0)"></path>
<path d="M 1136.98 690.072 C 1138.51 692.735 1127.83 699.668 1124.93 702.714 C 1122.23 698.392 1134.17 691.74 1136.98 690.072 z" fill="rgb(219,193,154)" transform="translate(0,0)"></path>
<path d="M 1157.62 686.989 C 1160.89 689.622 1164.3 694.086 1167.46 695.595 L 1168.49 698.214 C 1168.99 700.054 1169.14 706.387 1170.59 706.95 C 1175.92 709.003 1186.34 702.42 1190.44 699.392 L 1192.12 700.837 C 1190.51 701.671 1188.36 702.857 1186.99 703.987 C 1181.91 708.205 1175.35 709.261 1169.99 712.409 C 1167.51 713.494 1161.58 714.852 1158.99 714.977 C 1145.49 715.629 1134.13 720.824 1121.6 725.552 C 1133.87 714.754 1150.93 702 1157.62 686.989 z" fill="rgb(254,253,252)" transform="translate(0,0)"></path>
<path d="M 1133.08 722.69 C 1137.53 721.478 1161.48 714.872 1164.95 716.274 C 1165.08 716.506 1166.97 725.454 1167.09 726.218 C 1162.59 732.073 1183.63 728.018 1185.83 727.713 C 1189.74 728.775 1189.47 728.539 1192.07 731.716 C 1177.61 736.171 1175.39 734.183 1161.15 734.604 C 1158.73 733.432 1156.49 732.624 1154.08 731.471 C 1151.52 727.659 1137.44 723.821 1133.08 722.69 z" fill="rgb(254,253,252)" transform="translate(0,0)"></path>
<path d="M 1220.82 720.685 C 1220.27 728.54 1209.25 734.492 1203.13 737.554 C 1191.97 743.136 1163.97 741.951 1152.95 736.742 C 1153.54 734.212 1153.77 734.244 1152.77 732.021 L 1154.08 731.471 C 1156.49 732.624 1158.73 733.432 1161.15 734.604 C 1175.39 734.183 1177.61 736.171 1192.07 731.716 C 1193.15 731.971 1192.69 731.917 1193.44 731.966 C 1199.86 732.216 1203.03 727.452 1210.43 727.36 C 1213.34 725.633 1216.54 722.925 1219.39 721.455 L 1220.82 720.685 z" fill="rgb(69,85,70)" transform="translate(0,0)"></path>
<path d="M 1193.44 731.966 C 1199.86 732.216 1203.03 727.452 1210.43 727.36 C 1195.84 740.391 1178.5 739.266 1161.15 734.604 C 1175.39 734.183 1177.61 736.171 1192.07 731.716 C 1193.15 731.971 1192.69 731.917 1193.44 731.966 z" fill="rgb(188,149,99)" transform="translate(0,0)"></path>
<path d="M 1105.31 739.378 C 1109.01 736.779 1112.77 734.266 1116.59 731.842 C 1124.83 726.681 1132.56 726.493 1141.97 728.956 L 1145.97 730.027 C 1148.64 730.754 1150.18 731.095 1152.77 732.021 C 1153.77 734.244 1153.54 734.212 1152.95 736.742 L 1151.74 736.427 C 1133.18 731.407 1122.64 735.724 1105.31 739.378 z" fill="rgb(69,85,70)" transform="translate(0,0)"></path>
<path d="M 1145.08 679.606 L 1146.7 676.765 C 1147.67 675.057 1151.46 668.395 1153.47 668.14 C 1167.56 666.351 1173.75 676.864 1156.54 680.255 C 1154.59 680.637 1151.87 681.891 1149.98 682.693 C 1147.42 682.406 1146.94 681.589 1145.08 679.606 z" fill="rgb(192,155,107)" transform="translate(0,0)"></path>
<path d="M 1168.77 678.794 C 1169.08 679.001 1169.54 679.861 1169.76 680.135 C 1178.13 690.534 1177.74 688.117 1167.46 695.595 C 1164.3 694.086 1160.89 689.622 1157.62 686.989 C 1154.01 685.355 1166.43 680.306 1168.77 678.794 z" fill="rgb(200,166,117)" transform="translate(0,0)"></path>
<path d="M 1167.04 612.289 C 1168.3 611.444 1171.62 608.937 1173.19 609.721 C 1173.78 610.933 1171.11 613.635 1170.46 614.524 C 1168.66 613.589 1168.64 613.602 1167.04 612.289 z" fill="rgb(192,155,107)" transform="translate(0,0)"></path>
<path d="M 1133.1 762.271 C 1140.9 765.16 1149.41 772.699 1156.95 776.948 C 1178.95 789.356 1207.07 790.277 1230.33 781.003 L 1231.16 780.664 C 1234.95 780.828 1237.17 778.715 1237.29 782.424 C 1213.94 797.857 1179.11 796.291 1156.05 781.117 C 1150.76 777.635 1135.37 767.952 1133.1 762.271 z" fill="url(#Gradient2)" transform="translate(0,0)"></path>
<path d="M 1231.16 780.664 C 1263.88 763.276 1230.38 743.988 1248.26 731.257 L 1249.47 730.333 C 1248.48 733.961 1246.72 738.138 1245.35 741.686 C 1247.09 749.049 1249.28 756.453 1251.16 763.824 C 1248.5 771.613 1245.58 778.144 1237.29 782.424 C 1237.17 778.715 1234.95 780.828 1231.16 780.664 z" fill="rgb(200,166,117)" transform="translate(0,0)"></path>
<path d="M 1108.3 636.776 C 1108.79 639.776 1108.78 639.584 1110.45 642.231 C 1107.04 656.874 1106.38 674.549 1108.88 689.501 C 1109.44 692.845 1109.89 694.836 1109.13 698.224 C 1106.08 685.443 1103.89 674.099 1102.22 661.024 C 1102.02 659.384 1104.1 659.568 1104.73 655.97 C 1105.84 649.593 1107.15 643.219 1108.3 636.776 z" fill="rgb(165,143,100)" transform="translate(0,0)"></path>
<path d="M 1025.29 1010.24 C 1027.79 1015.15 1023.79 1025.77 1027.84 1027.01 C 1028.32 1031.22 1026.04 1065.04 1025.24 1069.55 C 1023.8 1054.61 1022.01 1039.54 1023.1 1024.33 C 1027.35 1029.04 1024.88 1013.13 1025.29 1010.24 z" fill="rgb(127,135,133)" transform="translate(0,0)"></path>
<path d="M 1029.36 1211.49 C 1029.66 1217.08 1029.96 1221.75 1030.05 1227.37 C 1028.95 1225.06 1022.7 1214.04 1025.57 1212.8 C 1027.97 1214.33 1026.69 1215.55 1029.36 1211.49 z" fill="rgb(241,238,228)" transform="translate(0,0)"></path>
<path d="M 1141.7 736.529 C 1146.45 736.563 1149.72 737.431 1154.4 738.204 C 1148.55 741.559 1146.21 744.534 1141.7 736.529 z" fill="rgb(31,69,58)" transform="translate(0,0)"></path>
<path d="M 1152.7 743.878 C 1154.49 744.255 1154.64 744.133 1156.03 745.139 C 1167.98 753.812 1182.99 762.08 1197.51 764.867 C 1205.26 766.356 1215.06 766.135 1222.99 765.676 C 1225.87 765.51 1231.12 763.579 1233.9 762.893 C 1234.06 763.03 1234.22 763.167 1234.38 763.304 C 1234.53 763.577 1234.68 763.85 1234.84 764.123 C 1210.45 778.199 1178.2 763.22 1157.72 748.638 C 1154.08 746.047 1155.94 748.854 1152.7 743.878 z" fill="rgb(165,143,100)" transform="translate(0,0)"></path>
<path d="M 1094.03 654.915 C 1094.05 658.377 1096.42 667.232 1096.84 670.027 C 1097.02 676.2 1102.66 682.155 1100.24 687.17 C 1099.42 688.89 1090.87 657.285 1090.98 654.498 C 1091.22 648.616 1086.98 636.448 1095.52 634.748 C 1098.26 638.569 1097.86 642.785 1097.69 647.48 C 1097.51 652.28 1100.22 656.356 1094.03 654.915 z" fill="rgb(165,143,100)" transform="translate(0,0)"></path>
<path d="M 1095.52 634.748 C 1098.26 638.569 1097.86 642.785 1097.69 647.48 C 1097.51 652.28 1100.22 656.356 1094.03 654.915 C 1092.51 641.597 1091.4 649.911 1095.52 634.748 z" fill="rgb(69,85,70)" transform="translate(0,0)"></path>
<path d="M 1084.37 633.772 C 1086.2 635.506 1084.72 651.754 1085.47 657.805 C 1086.81 668.592 1093.41 677.577 1095.2 686.771 C 1084.79 670.494 1078.34 652.93 1084.37 633.772 z" fill="rgb(165,143,100)" transform="translate(0,0)"></path>
<path d="M 1078.55 634.677 C 1079.12 636.875 1079.18 638.167 1078.87 640.493 C 1077 653.897 1080.63 666.8 1086.1 678.933 C 1087.03 680.996 1087.59 681.693 1087.92 683.924 L 1088.22 685.75 C 1079.33 671.092 1071.33 651.579 1078.55 634.677 z" fill="rgb(165,143,100)" transform="translate(0,0)"></path>
<path d="M 1188.81 756.191 C 1198.48 756.658 1207.75 760.113 1218 758.733 C 1221.44 758.27 1229.21 754.903 1230.85 757.249 C 1224.58 760.508 1217.53 761.958 1210.48 761.438 C 1202.91 760.81 1195.53 759.892 1188.81 756.191 z" fill="rgb(165,143,100)" transform="translate(0,0)"></path>
<path d="M 1228.16 748.194 C 1236.77 747.003 1222.83 752.07 1221.96 752.295 C 1211.53 754.975 1205.69 753.873 1195.21 752.282 C 1193.96 751.718 1193.41 751.604 1192.54 750.573 C 1194.4 750.279 1197.21 750.621 1199.01 750.898 C 1209.95 752.582 1217.45 750.904 1228.16 748.194 z" fill="rgb(165,143,100)" transform="translate(0,0)"></path>
<path d="M 1221.34 740.233 C 1221.78 740.319 1222.07 740.275 1222.35 740.544 C 1220.84 744.564 1201.85 747.915 1197.12 747.454 C 1196.34 747.41 1194.69 747.635 1194.05 747.18 C 1193.47 745.339 1203.79 744.808 1205.22 744.577 C 1210.97 743.65 1215.89 742.191 1221.34 740.233 z" fill="rgb(108,106,77)" transform="translate(0,0)"></path>
<path d="M 1087.09 684.387 C 1091.32 686.75 1091.57 687.958 1093.22 693.06 C 1088.3 690.153 1089.56 689.812 1087.09 684.387 z" fill="rgb(69,85,70)" transform="translate(0,0)"></path>
<path d="M 1100.1 702.784 C 1101.21 702.538 1101.41 702.38 1102.14 703.275 L 1101.74 703.394 C 1100.45 703.628 1100.93 703.72 1100.1 702.784 z" fill="rgb(69,85,70)" transform="translate(0,0)"></path>
<path d="M 936.186 1261.05 C 958.584 1255.55 965.711 1252.1 983.049 1236.65 L 983.201 1383.51 C 983.237 1407.85 982.709 1432.51 983.919 1456.79 C 984.511 1468.69 987.761 1475.36 999.837 1477.22 L 999.88 1478.83 C 982.855 1480.16 969.45 1487.67 956.834 1498.48 C 957.124 1484.38 957.008 1469.84 957.069 1455.71 L 953.979 1456.65 C 948.439 1469.77 941.728 1477.96 929.662 1485.62 C 926.151 1487.62 921.818 1489.72 917.969 1490.64 C 846.319 1507.65 817.653 1418.69 849.468 1367.43 C 861.382 1348.24 874.876 1339.36 895.979 1334.14 C 906.435 1332.68 917.399 1331.55 927.945 1333.78 C 939.986 1335.76 946.208 1338.34 956.997 1344.43 C 957.062 1328.11 960.268 1280.05 951.842 1265.91 C 949.939 1262.72 943.076 1262.06 939.447 1261.54 L 936.186 1261.05 z" fill="rgb(254,253,252)" transform="translate(0,0)"></path>
<path d="M 936.186 1261.05 C 958.584 1255.55 965.711 1252.1 983.049 1236.65 L 983.201 1383.51 C 983.237 1407.85 982.709 1432.51 983.919 1456.79 C 984.511 1468.69 987.761 1475.36 999.837 1477.22 L 999.88 1478.83 C 982.855 1480.16 969.45 1487.67 956.834 1498.48 C 957.124 1484.38 957.008 1469.84 957.069 1455.71 C 957.034 1453.37 956.999 1453.38 956.466 1450.94 L 954.436 1449.67 C 956.213 1443.42 957.721 1433.7 957.364 1427.12 C 955.462 1392.07 967.907 1351.42 926.251 1335.69 L 927.945 1333.78 C 939.986 1335.76 946.208 1338.34 956.997 1344.43 C 957.062 1328.11 960.268 1280.05 951.842 1265.91 C 949.939 1262.72 943.076 1262.06 939.447 1261.54 L 936.186 1261.05 z" fill="rgb(31,69,58)" transform="translate(0,0)"></path>
<path d="M 929.662 1485.62 C 926.151 1487.62 921.818 1489.72 917.969 1490.64 C 846.319 1507.65 817.653 1418.69 849.468 1367.43 C 861.382 1348.24 874.876 1339.36 895.979 1334.14 L 899.026 1336.7 C 881.171 1345.16 876.075 1354.6 868.733 1372.05 C 853.013 1409.42 864.409 1510.96 926.765 1484.76 L 929.662 1485.62 z" fill="rgb(31,69,58)" transform="translate(0,0)"></path>
<path d="M 954.436 1449.67 L 956.466 1450.94 C 956.999 1453.38 957.034 1453.37 957.069 1455.71 L 953.979 1456.65 C 948.439 1469.77 941.728 1477.96 929.662 1485.62 L 926.765 1484.76 C 941.549 1476.12 948.961 1465.9 954.436 1449.67 z" fill="rgb(52,69,68)" transform="translate(0,0)"></path>
<path d="M 956.466 1450.94 C 956.999 1453.38 957.034 1453.37 957.069 1455.71 L 953.979 1456.65 C 954.801 1454.48 955.425 1453.02 956.466 1450.94 z" fill="rgb(241,238,228)" transform="translate(0,0)"></path>
<path d="M 895.979 1334.14 C 906.435 1332.68 917.399 1331.55 927.945 1333.78 L 926.251 1335.69 C 916.647 1334.17 908.376 1334.32 899.026 1336.7 L 895.979 1334.14 z" fill="rgb(95,110,104)" transform="translate(0,0)"></path>
<path d="M 1215.23 1465.23 C 1198.12 1436.68 1194.42 1401.25 1210.49 1371.25 C 1219.72 1353.78 1235.65 1340.82 1254.62 1335.34 C 1275.62 1329.28 1301.63 1330.61 1321.54 1341.73 C 1334.82 1349.15 1358 1370.88 1338.28 1383.61 C 1328.49 1389.93 1302.19 1394.62 1289.43 1397.48 C 1273.82 1400.35 1258.04 1404.45 1242.49 1407.72 L 1235.01 1409.22 C 1231.62 1409.92 1229.23 1410.54 1225.74 1411.06 C 1224.3 1420.88 1232.55 1440.03 1238.87 1448.5 C 1248.94 1461.82 1263.9 1470.59 1280.44 1472.88 C 1297.39 1475.07 1314.51 1470.26 1327.83 1459.55 C 1338.05 1451.48 1341.44 1444.7 1347.38 1433.52 C 1341.69 1471.54 1301 1500.12 1263.38 1493.59 C 1244.28 1490.27 1230.54 1482.33 1217.65 1468.02 L 1214.18 1469.84 L 1215.23 1465.23 z" fill="rgb(31,69,58)" transform="translate(0,0)"></path>
<path d="M 1225.04 1408.86 C 1224.19 1378.07 1231.4 1344.22 1265.5 1334.98 C 1293.5 1327.39 1328.79 1354.11 1316 1383.48 C 1313.15 1390.03 1294.98 1394.15 1288.61 1395.6 L 1289.43 1397.48 C 1273.82 1400.35 1258.04 1404.45 1242.49 1407.72 L 1235.01 1409.22 C 1231.62 1409.92 1229.23 1410.54 1225.74 1411.06 C 1225.57 1410.38 1225.46 1409.46 1225.04 1408.86 z" fill="rgb(254,253,252)" transform="translate(0,0)"></path>
<path d="M 1225.04 1408.86 C 1246.23 1404.9 1267.6 1399.19 1288.61 1395.6 L 1289.43 1397.48 C 1273.82 1400.35 1258.04 1404.45 1242.49 1407.72 L 1235.01 1409.22 C 1231.62 1409.92 1229.23 1410.54 1225.74 1411.06 C 1225.57 1410.38 1225.46 1409.46 1225.04 1408.86 z" fill="rgb(69,85,70)" transform="translate(0,0)"></path>
<path d="M 1215.23 1465.23 C 1216.02 1466.17 1216.83 1467.1 1217.65 1468.02 L 1214.18 1469.84 L 1215.23 1465.23 z" fill="rgb(254,253,252)" transform="translate(0,0)"></path>
<path d="M 930.96 495.326 C 927.169 491.075 925.769 483.694 926.191 478.177 C 928.525 447.709 957.714 443.282 955.172 415.773 L 956.068 415.313 C 958.597 417.14 969.705 425.249 971.554 425.982 C 1001.08 437.688 1017.38 441.7 1024.22 476.538 C 1027.06 490.998 1023.51 513.796 1015.91 527.109 C 1010.52 523.635 1007.72 522.145 1001.96 519.379 C 1000.8 517.862 1000.88 518.009 998.992 517.402 C 995.009 517.296 985.502 515.263 981.209 514.442 C 979.086 514.364 978.024 514.304 975.945 514.636 C 970.785 514.835 963.527 515.572 958.163 516.033 C 957.609 515.933 957.041 515.084 956.991 514.651 C 955.841 504.803 959.619 497.1 964.462 488.802 L 961.936 488.333 C 955.206 499.746 952.392 502.61 952.661 515.713 C 952.491 517.854 952.261 517.517 950.218 517.672 C 946.133 519.019 944.816 518.996 942.001 522.265 L 940.113 524.016 C 935.941 526.203 934.118 528.154 930.335 531.009 L 929.81 529.832 C 925.854 521.144 919.026 502.88 930.297 497.272 L 930.96 495.326 z" fill="rgb(192,155,107)" transform="translate(0,0)"></path>
<path d="M 930.297 497.272 C 938.202 502.909 946.684 506.216 949.785 516.309 L 950.218 517.672 C 946.133 519.019 944.816 518.996 942.001 522.265 L 940.113 524.016 C 935.941 526.203 934.118 528.154 930.335 531.009 L 929.81 529.832 C 925.854 521.144 919.026 502.88 930.297 497.272 z" fill="rgb(188,149,99)" transform="translate(0,0)"></path>
<path d="M 964.462 488.802 C 973.822 494.203 975.425 504.798 975.945 514.636 C 970.785 514.835 963.527 515.572 958.163 516.033 C 957.609 515.933 957.041 515.084 956.991 514.651 C 955.841 504.803 959.619 497.1 964.462 488.802 z" fill="rgb(192,155,107)" transform="translate(0,0)"></path>
<path d="M 998.992 517.402 C 995.538 505.398 998.861 486.142 991.476 473.044 C 990.784 471.818 987.36 462.442 987.569 461.461 C 998.951 473.789 1002.13 503.19 1001.96 519.379 C 1000.8 517.862 1000.88 518.009 998.992 517.402 z" fill="rgb(241,238,228)" transform="translate(0,0)"></path>
<path d="M 961.936 488.333 C 962.558 487.079 963.094 485.311 964.385 484.576 C 965.938 484.616 970.51 489.966 971.798 491.129 C 979.077 497.704 980.063 504.734 981.209 514.442 C 979.086 514.364 978.024 514.304 975.945 514.636 C 975.425 504.798 973.822 494.203 964.462 488.802 L 961.936 488.333 z" fill="rgb(241,238,228)" transform="translate(0,0)"></path>
<path d="M 930.96 495.326 C 948.232 499.59 950.771 515.402 952.661 515.713 C 952.491 517.854 952.261 517.517 950.218 517.672 L 949.785 516.309 C 946.684 506.216 938.202 502.909 930.297 497.272 L 930.96 495.326 z" fill="rgb(241,238,228)" transform="translate(0,0)"></path>
<path d="M 837.553 481.609 C 862.108 503.318 877.597 469.354 921.17 500.807 C 920.01 510.652 921.356 514.795 923.861 524.112 C 913.626 520.372 894.082 514.563 899.541 536.519 C 901.36 543.832 908.448 549.823 915.346 552.942 C 913.371 561.3 911.623 568.45 910.445 576.998 C 891.699 573.028 879.369 566.997 866.45 552.563 L 864.897 553.827 C 880.82 570.526 888.81 574.091 910.233 582.003 C 911.801 590.143 912.88 592.75 916.012 600.218 C 893.783 596.531 873.634 598.882 854.833 582.357 C 829.855 560.402 834.996 539.221 837.882 509.853 C 838.734 501.182 838.163 490.301 837.553 481.609 z" fill="rgb(192,155,107)" transform="translate(0,0)"></path>
<path d="M 864.897 553.827 C 858.825 548.139 861.086 543.743 866.45 552.563 L 864.897 553.827 z" fill="rgb(219,193,154)" transform="translate(0,0)"></path>
<path d="M 763.045 1266.11 C 766.836 1265.47 770.062 1265.89 773.89 1265.23 C 790.856 1262.29 801.625 1255.13 814.596 1244.67 C 812.626 1281.12 814.693 1322.34 814.166 1359.23 C 813.698 1392.02 813.952 1426.22 814.611 1459.03 C 814.838 1470.33 816.235 1480.27 824.86 1488.01 C 823.302 1490.33 823.954 1490.42 821.739 1490.7 C 808.815 1492.32 792.52 1490.18 779.893 1491 L 777.924 1488.72 C 780.824 1486.12 785.625 1479.64 786.136 1475.94 C 790.23 1446.23 788.088 1409.08 788.717 1379.13 C 788.512 1350.13 789.508 1321.02 788.686 1292.04 C 788.075 1270.48 781.707 1270.08 763.045 1266.11 z" fill="rgb(31,69,58)" transform="translate(0,0)"></path>
<path d="M 444.901 1231.32 C 461.587 1235.9 476.495 1244.09 484.529 1260 C 496.966 1284.65 504.833 1320.38 512.311 1347.44 C 522.557 1385.71 533.45 1423.8 544.987 1461.71 L 546.841 1463.22 L 532.501 1504.96 C 515.983 1451.52 500.269 1397.83 485.362 1343.91 L 469.814 1287.32 C 464.839 1269.42 460.524 1243.07 443.729 1233.17 L 444.901 1231.32 z" fill="rgb(31,69,58)" transform="translate(0,0)"></path>
<path d="M 1494.96 1350.43 C 1510.74 1330.52 1536.87 1325.39 1557.76 1340.97 C 1579.41 1357.12 1573.68 1402.78 1574.33 1428.17 C 1575.29 1456.75 1576.89 1485.3 1579.12 1513.8 C 1580.99 1537.81 1579.85 1577.1 1609.15 1583.88 C 1610.42 1583.41 1610.57 1583.48 1611.94 1583.4 L 1616.12 1582.93 L 1614.09 1585.06 C 1600.48 1585.08 1590.87 1581.42 1580.54 1572.05 C 1572.43 1564.61 1566.11 1555.44 1562.07 1545.21 C 1546.01 1505 1548.6 1415.93 1547 1371.96 C 1546.63 1361.65 1543.92 1348.41 1535.81 1341.45 C 1531.36 1337.64 1524.67 1336.29 1518.9 1337.02 C 1508.7 1338.32 1502.29 1344.43 1496.26 1352.08 L 1494.96 1350.43 z" fill="rgb(31,69,58)" transform="translate(0,0)"></path>
<path d="M 1609.15 1583.88 C 1610.42 1583.41 1610.57 1583.48 1611.94 1583.4 C 1610.64 1584.38 1610.65 1584.56 1609.15 1583.88 z" fill="rgb(95,110,104)" transform="translate(0,0)"></path>
<path d="M 1102.59 1463.96 C 1096.83 1437.98 1078.21 1435.66 1057.26 1425.17 C 1041.27 1417.41 1017.62 1406.55 1012.35 1387.5 C 1004.39 1358.73 1019.5 1341.89 1044.76 1333.44 L 1044.46 1337.27 C 1026.17 1344.48 1022.15 1364.75 1037.31 1377.11 C 1062.29 1396.99 1116.79 1403.11 1119.5 1442.17 C 1124.3 1511.27 1003.89 1508.57 1000.42 1446.68 C 1000.05 1440.08 1009.24 1428.59 1017.31 1429.24 C 1025.06 1437.35 1023.55 1486.12 1048.62 1490.24 C 1072.48 1494.16 1095.55 1490.48 1102.59 1463.96 z" fill="rgb(31,69,58)" transform="translate(0,0)"></path>
<path d="M 540.657 1270.87 C 560.656 1271.05 580.655 1271.04 600.654 1270.86 L 600.454 1273.84 C 588.402 1278.3 586.744 1284.65 590.093 1297.02 C 604.659 1350.84 620.499 1404.55 636.895 1457.85 C 637.095 1458.5 637.597 1459.33 637.951 1459.96 L 640.55 1460 L 625.753 1502.41 C 620.984 1490.9 616.06 1473.66 612.43 1461.58 C 606.182 1440.9 600.1 1420.17 594.184 1399.4 C 591.797 1391.08 585.688 1368.47 582.788 1362.08 L 579.383 1362.59 C 583.884 1349.51 570.892 1321.85 567.486 1307.59 C 564.194 1293.8 555.411 1279.64 541.652 1274.17 L 540.657 1270.87 z" fill="rgb(31,69,58)" transform="translate(0,0)"></path>
<path d="M 1170.39 1301.24 C 1173.49 1307.38 1170.37 1311.59 1172.8 1320.6 L 1173.08 1338.1 C 1173.38 1339.17 1173.34 1339.44 1173.42 1340.59 C 1171.26 1360.46 1173.66 1384.05 1173.04 1404.39 C 1172.54 1420.84 1172.58 1438.64 1173.45 1455.04 C 1174.52 1475.25 1192.73 1488.03 1209.79 1473.8 C 1211.3 1472.53 1212.76 1471.21 1214.18 1469.84 C 1206.78 1504.28 1151.25 1504.97 1148.1 1466.12 C 1146.76 1449.6 1146.83 1435.22 1146.81 1418.6 L 1146.79 1340.3 C 1146.68 1338.19 1146.6 1336.07 1146.56 1333.96 C 1162.5 1327.13 1166.46 1316.9 1170.39 1301.24 z" fill="rgb(31,69,58)" transform="translate(0,0)"></path>
<path d="M 1396.71 1324.91 C 1398.86 1335.65 1395.14 1358.08 1398.44 1364.35 C 1398.02 1366.64 1397.66 1367.5 1396.87 1369.68 L 1399.31 1368.94 C 1395.24 1383.01 1393.34 1463 1400.21 1480.05 C 1402.16 1484.89 1407.61 1488.12 1412.37 1490.33 C 1412.79 1490.33 1413.21 1490.33 1413.64 1490.33 L 1414.05 1490.86 L 1414.88 1490.7 C 1414.99 1490.88 1415.11 1491.07 1415.22 1491.25 C 1415.2 1491.4 1415.21 1491.5 1415.05 1491.53 C 1410.89 1492.44 1398.3 1491.98 1394.48 1491.85 C 1387.48 1492.14 1380.57 1491.94 1373.57 1491.81 C 1371.23 1491.88 1352.11 1492.43 1351.73 1491.61 C 1352.15 1490.95 1355.09 1490.37 1355.95 1490.27 C 1362.09 1486.82 1366.18 1482.63 1368.31 1475.77 C 1371.56 1465.25 1371.96 1362.4 1367.06 1354.66 C 1364.79 1351.07 1362.01 1350.02 1358.06 1348.95 C 1357.3 1348.08 1356.55 1347.2 1355.82 1346.31 C 1373.41 1342.36 1383.47 1337.01 1396.71 1324.91 z" fill="rgb(31,69,58)" transform="translate(0,0)"></path>
<path d="M 1396.71 1324.91 C 1398.86 1335.65 1395.14 1358.08 1398.44 1364.35 C 1398.02 1366.64 1397.66 1367.5 1396.87 1369.68 C 1395.06 1366.6 1396.35 1330.44 1396.71 1324.91 z" fill="rgb(241,238,228)" transform="translate(0,0)"></path>
<path d="M 1373.57 1491.81 C 1371.23 1491.88 1352.11 1492.43 1351.73 1491.61 C 1352.15 1490.95 1355.09 1490.37 1355.95 1490.27 C 1363.02 1491.54 1366.14 1490.13 1373.57 1491.81 z" fill="rgb(69,85,70)" transform="translate(0,0)"></path>
<path d="M 1412.37 1490.33 C 1412.79 1490.33 1413.21 1490.33 1413.64 1490.33 L 1414.05 1490.86 L 1414.88 1490.7 C 1414.99 1490.88 1415.11 1491.07 1415.22 1491.25 C 1415.2 1491.4 1415.21 1491.5 1415.05 1491.53 C 1410.89 1492.44 1398.3 1491.98 1394.48 1491.85 C 1401.44 1490.65 1405.86 1491.48 1412.37 1490.33 z" fill="rgb(95,110,104)" transform="translate(0,0)"></path>
<path d="M 700.359 1351.61 C 722.768 1347.37 732.786 1346.49 749.51 1328.76 C 751.224 1374.39 747.705 1421.81 751.35 1467.45 C 752.087 1476.68 755.425 1485.02 763.776 1489.75 C 762.583 1490.25 761.328 1490.57 760.045 1490.72 C 752.472 1491.58 718.698 1493.46 713.175 1488.63 C 718.727 1484.95 721.951 1481.35 723.233 1474.63 C 725.747 1461.43 726.625 1366.27 720.463 1358.01 C 715.981 1352 706.972 1352.62 700.359 1351.61 z" fill="rgb(31,69,58)" transform="translate(0,0)"></path>
<path d="M 1415.27 1341.13 C 1433.31 1326.67 1460.62 1328.65 1475.09 1346.82 C 1480.83 1354.03 1481.39 1362.01 1485.38 1368.74 L 1488.03 1369.03 C 1481.28 1392.49 1486.17 1442.86 1486.08 1468.57 C 1486.05 1476.04 1491.38 1485.37 1498.27 1489.17 L 1497.41 1492.18 C 1486.52 1491.65 1471.59 1492.05 1460.22 1491.86 C 1458.44 1491.91 1443.03 1492.37 1442.56 1491.54 L 1442.75 1491.4 L 1442.83 1491.5 C 1444.87 1490.56 1445.07 1490.48 1447.29 1489.86 C 1452.88 1486.86 1456.66 1482.62 1458.57 1476.52 C 1462.56 1463.8 1461.87 1384.65 1459.72 1368.41 C 1458.81 1361.6 1457.18 1354.66 1453.8 1348.63 C 1450.76 1343.19 1446.31 1338.76 1440.15 1337.16 C 1431.69 1334.97 1423.25 1338.81 1416.11 1342.98 L 1415.27 1341.13 z" fill="rgb(31,69,58)" transform="translate(0,0)"></path>
<path d="M 1447.29 1489.86 C 1450.76 1491.46 1454.94 1490.69 1460.22 1491.86 C 1458.44 1491.91 1443.03 1492.37 1442.56 1491.54 L 1442.75 1491.4 L 1442.83 1491.5 C 1444.87 1490.56 1445.07 1490.48 1447.29 1489.86 z" fill="rgb(69,85,70)" transform="translate(0,0)"></path>
<path d="M 914.976 425.203 C 915.757 423.837 916.259 422.862 917.165 421.613 C 932.504 423.046 936.695 425.074 951.082 428.233 C 951.262 431.495 950.475 430.611 949.095 433.499 C 944.026 440.771 936.898 445.127 931.697 453.381 C 919.479 472.767 923.43 481.091 927.076 500.135 C 907.906 486.992 892.3 477.208 867.532 483.302 C 847.654 488.192 849.812 483.452 858.145 467.011 C 866.02 451.474 876.226 442.363 882.048 425.238 C 893.281 425.811 903.765 425.346 914.976 425.203 z" fill="rgb(192,155,107)" transform="translate(0,0)"></path>
<path d="M 914.976 425.203 C 915.757 423.837 916.259 422.862 917.165 421.613 C 932.504 423.046 936.695 425.074 951.082 428.233 C 951.262 431.495 950.475 430.611 949.095 433.499 C 936.537 426.648 928.225 426.544 914.976 425.203 z" fill="rgb(241,238,228)" transform="translate(0,0)"></path>
<path d="M 1093.53 600.861 C 1089.77 582.492 1099.97 612.193 1108.64 595.357 C 1114.49 583.993 1134.37 586.261 1142.68 592.397 C 1148.34 595.276 1153.48 597.139 1159.57 599.023 L 1161.37 599.562 L 1167.99 597.813 C 1174.36 596.116 1177.39 594.449 1183.15 591.667 C 1186.62 599.747 1189.21 605.257 1192.32 613.672 C 1186.87 613.763 1182.64 613.121 1177.31 612.759 C 1178.37 608.886 1179.5 605.019 1180.56 601.142 C 1164.2 610.77 1151.75 612.924 1138.56 621.504 C 1136.61 620.572 1127.31 631.198 1125.23 633.275 C 1126.25 631.129 1132.99 620.27 1128.97 618.908 C 1127.81 619.197 1127.32 620.108 1126.71 621.071 C 1118.89 626.068 1114.24 633.784 1110.45 642.231 C 1108.78 639.584 1108.79 639.776 1108.3 636.776 C 1109.29 630.894 1110.61 625.33 1111.74 619.518 C 1108.49 615.55 1097.51 601.584 1093.53 600.861 z" fill="rgb(192,155,107)" transform="translate(0,0)"></path>
<path d="M 1112.54 597.112 C 1118.98 596.53 1122.64 596.218 1129.05 598.708 C 1130.64 599.325 1144.91 604.515 1136.95 607.865 C 1133.58 609.285 1129.43 607.189 1126.34 605.602 C 1119.88 607.07 1115.14 609.231 1109.07 611.198 C 1107.84 611.599 1102.22 604.36 1101.87 603.478 C 1102.04 603.152 1111.65 597.544 1112.54 597.112 z" fill="rgb(219,193,154)" transform="translate(0,0)"></path>
<path d="M 1043.1 1132.68 C 1041.27 1081.67 1048.63 994.988 1113.95 981.835 C 1118.47 980.925 1125.78 981.95 1126.19 987.748 C 1121.2 993.817 1111.87 989.278 1105.98 987.112 C 1062.66 1001.04 1056 1048.7 1047.33 1087 L 1050.04 1087.72 C 1055.9 1063.97 1062.79 1031.77 1085.03 1017.43 C 1094.15 1011.55 1112.41 1009.19 1118.51 1020.69 C 1120.23 1023.87 1120.55 1027.63 1119.38 1031.06 C 1114.41 1045.15 1094.77 1044.29 1097.36 1027.66 C 1099.94 1031.35 1101.94 1035.18 1105.79 1037.16 C 1108.72 1036.96 1109.12 1036.99 1111.21 1034.54 C 1123.03 1020.67 1105.65 1011.67 1093.41 1016.21 C 1071.11 1024.5 1060.93 1057.89 1055.47 1078.56 C 1063.32 1070.45 1070.87 1065.59 1082.64 1065.08 C 1096.85 1064.47 1107.44 1072.4 1106.5 1087.42 C 1106.23 1092.47 1103.79 1097.16 1099.81 1100.27 C 1093.05 1105.49 1081.86 1105.48 1076.75 1097.89 C 1074.5 1094.62 1073.69 1090.57 1074.49 1086.69 C 1075.94 1079.53 1080.88 1077.7 1087.31 1077.38 C 1083.5 1079.95 1077.26 1083.55 1077.12 1088.86 C 1076.53 1111.29 1106.68 1098.75 1103.08 1082.84 C 1097.22 1056.91 1062.62 1066.88 1053.65 1085.28 C 1047.11 1098.7 1044.4 1114.06 1045.36 1127.95 C 1044.49 1129.52 1043.65 1130.97 1043.1 1132.68 z" fill="rgb(200,166,117)" transform="translate(0,0)"></path>
<path d="M 1047.33 1087 L 1050.04 1087.72 C 1049.6 1089.04 1047.15 1097.45 1046.14 1097.81 C 1044.64 1097.51 1046.32 1091.76 1046.51 1090.87 L 1047.33 1087 z" fill="rgb(241,238,228)" transform="translate(0,0)"></path>
<path d="M 427.201 1233.19 C 413.829 1240.79 411.948 1254.7 416.151 1268.5 C 416.579 1271.4 420.522 1277.04 420.713 1279.52 C 421.694 1292.25 410.085 1300.99 398.588 1294.75 C 384.113 1286.9 384.558 1265.82 392.23 1253.61 C 400.46 1240.5 411.487 1234.75 426.161 1231.39 L 427.201 1233.19 z" fill="rgb(31,69,58)" transform="translate(0,0)"></path>
<path d="M 1624.21 1581.41 C 1630.75 1575.43 1631.58 1570.8 1631.89 1562 C 1632.13 1554.96 1628.25 1548.81 1627.41 1542 C 1626.14 1526.71 1646.5 1518.72 1656.14 1530.45 C 1663.07 1538.86 1660.23 1553.06 1655.77 1562 C 1649.02 1575.57 1637.82 1579.94 1623.99 1583.58 L 1624.21 1581.41 z" fill="rgb(31,69,58)" transform="translate(0,0)"></path>
<path d="M 1065.35 978.716 C 1089.21 952.629 1116.33 942.715 1146.35 926.148 C 1184.06 905.339 1198.91 861.405 1177.03 823.392 C 1173.65 817.519 1168.44 811.769 1164.62 805.801 C 1196.5 834.593 1201.14 875.542 1171.95 909.547 C 1163.64 919.232 1153.86 925.495 1142.97 932.066 C 1140.36 933.489 1138.85 934.046 1136.67 936.004 L 1138.95 938.581 C 1127.18 941.63 1120.62 943.91 1109.83 949.552 C 1106.76 950.989 1101.08 953.846 1098.67 956.13 C 1099.41 957.05 1100.15 957.966 1100.89 958.878 C 1044.09 981.478 1040.91 1039.2 1039.07 1092.46 C 1038.88 1097.96 1036.45 1102.07 1036.47 1106.74 C 1034.99 1104.21 1035.68 1102.18 1036.07 1099.16 C 1039.81 1096.47 1038.52 1076.38 1038.7 1070.79 C 1039.3 1054.51 1041.17 1038.29 1044.3 1022.29 C 1044.84 1019.68 1045.21 1016.76 1045.61 1014.09 C 1046.31 1012.44 1047 1010.79 1047.67 1009.12 C 1051.04 999.643 1054.73 990.831 1058.58 981.559 L 1060.41 983.499 C 1062.77 982.964 1063.83 980.84 1065.35 978.716 z" fill="rgb(31,69,58)" transform="translate(0,0)"></path>
<path d="M 884.903 732.426 L 885.106 735.147 C 870.394 749.201 863.111 774.679 862.446 794.536 C 860.178 862.175 926.387 877.535 968.151 910.8 C 965.006 911.744 965.902 911.105 963.509 913.022 L 965.238 915.009 L 963.96 916.757 L 959.981 915.026 C 961.251 913.198 961.317 913.403 961.799 911.339 C 939.93 891.699 907.364 885.581 879 883.771 L 879.084 881.411 C 899.555 883.027 908.96 884.657 928.945 889.432 C 890.927 867.715 857.005 844.091 857.7 794.796 C 858.073 768.382 866.244 750.864 884.903 732.426 z" fill="rgb(31,69,58)" transform="translate(0,0)"></path>
<path d="M 729.793 1286.14 C 737.066 1285.9 747.281 1286.23 750.627 1294.28 C 756.432 1308.24 753.666 1317.67 739.918 1324.21 C 730.988 1324.57 723.21 1322.09 718.899 1313.54 C 716.516 1308.87 716.182 1303.42 717.979 1298.5 C 720.281 1291.99 723.971 1289.08 729.793 1286.14 z" fill="rgb(31,69,58)" transform="translate(0,0)"></path>
<path d="M 946.832 980.179 C 955.217 979.758 963.084 979.065 970.803 983 C 998.429 997.082 1004.86 1051.27 1014.21 1080.02 C 999.995 1057.73 991.269 1054.49 965.945 1056.64 C 956.947 1064.48 951.499 1073.27 960.577 1084.85 C 967.207 1093.3 987.325 1090.18 983.889 1076.41 C 982.224 1069.73 977.579 1069.35 972.102 1066.1 L 972.261 1064.32 C 991.561 1062.86 996.043 1095.62 967.052 1092.96 C 944.334 1084.8 948.644 1063.59 967.802 1053.37 C 983.274 1053.21 993.955 1055.35 1006.58 1064.43 C 999.75 1041.1 993.454 1007.53 975.661 990.355 C 967.767 982.733 948.105 977.929 940.758 988.793 C 935.484 996.592 944.961 1008.72 953.625 1006.66 C 957.805 1005.55 958.556 1000.03 960.259 996.521 C 960.656 1001.7 959.859 1008.29 954.744 1010.42 C 936.751 1017.9 925.873 989.666 946.832 980.179 z" fill="rgb(200,166,117)" transform="translate(0,0)"></path>
<path d="M 1032.18 820.172 L 1030.82 814.044 C 1025.53 790.828 1017.81 774.553 997.057 760.977 C 972.655 745.014 936.427 747.878 920.443 774.768 C 914.456 784.927 912.951 797.114 916.287 808.424 C 918.803 817.021 924.646 824.259 932.519 828.53 C 941.198 833.218 951.396 834.221 960.822 831.315 C 974.893 827.045 982.1 813.365 976.831 798.939 C 972.771 787.824 963.111 789.995 955.273 786.99 L 956.028 785.042 C 963.948 780.093 975.449 786.757 979.69 794.324 C 983.173 800.643 983.907 808.115 981.721 814.991 C 975.848 833.839 951.84 839.355 935.091 832.668 C 925.867 829.046 918.49 821.863 914.623 812.739 C 910.394 802.759 911.204 788.828 915.277 778.864 C 927.062 750.026 963.272 741.374 990.04 753.443 C 1009.61 762.267 1020.26 775.234 1028.07 794.968 L 1030.23 801.508 C 1030.77 803.099 1031.04 803.479 1031.87 804.923 C 1033.42 807.778 1033.35 808.205 1034.01 811.308 C 1033.89 813.181 1032.66 818.084 1032.18 820.172 z" fill="rgb(31,69,58)" transform="translate(0,0)"></path>
<path d="M 877.113 933.02 C 894.972 913.103 905.02 901.14 934.997 904.393 C 946.14 905.602 951.476 908.124 961.799 911.339 C 961.317 913.403 961.251 913.198 959.981 915.026 C 946.868 910.369 929.443 905.268 916.39 913.747 C 907.345 919.622 897.374 932.53 904.619 943.81 C 905.109 944.573 907.578 946.794 906.568 947.883 C 902.249 948.934 883.446 936.393 877.113 933.02 z" fill="rgb(31,69,58)" transform="translate(0,0)"></path>
<path d="M 917.029 734.952 C 931.303 725.302 942.843 719.356 962.538 718.129 C 1010.08 715.167 1038.13 768.545 1034.28 810.295 C 1034.19 810.633 1034.1 810.971 1034.01 811.308 C 1033.35 808.205 1033.42 807.778 1031.87 804.923 C 1031.04 803.479 1030.77 803.099 1030.23 801.508 L 1028.07 794.968 L 1031.03 793.976 C 1028.72 782.365 1027.67 775.053 1022.13 764.304 C 1000.6 722.48 956.798 716.39 917.271 737.324 L 917.029 734.952 z" fill="rgb(31,69,58)" transform="translate(0,0)"></path>
<path d="M 1028.07 794.968 L 1031.03 793.976 C 1031.63 798.394 1031.8 800.477 1031.87 804.923 C 1031.04 803.479 1030.77 803.099 1030.23 801.508 L 1028.07 794.968 z" fill="rgb(241,238,228)" transform="translate(0,0)"></path>
<path d="M 699.372 1271.14 C 704.409 1271.08 719.968 1271.19 724.217 1270.37 L 725.01 1274.45 C 712.577 1278.82 699.82 1287.11 694.599 1299.42 C 687.691 1315.72 682.376 1334.27 676.553 1351.11 C 667.683 1376.55 659.092 1402.08 650.782 1427.7 C 648.599 1434.4 641.764 1453.89 640.55 1460 L 637.951 1459.96 C 646.637 1435.09 655.437 1406.14 663.737 1381.06 C 669.864 1362.55 691.665 1304.17 693.002 1286.74 C 689.504 1278.64 688.23 1276.41 680.377 1273.04 C 679.361 1273.06 675.931 1273.13 675.392 1271.71 C 676.263 1270.36 696.609 1271.07 699.372 1271.14 z" fill="rgb(31,69,58)" transform="translate(0,0)"></path>
<path d="M 680.377 1273.04 C 679.361 1273.06 675.931 1273.13 675.392 1271.71 C 676.263 1270.36 696.609 1271.07 699.372 1271.14 C 692.046 1272.58 685.081 1271.14 680.377 1273.04 z" fill="rgb(52,69,68)" transform="translate(0,0)"></path>
<path d="M 800.919 845.918 C 813.705 843.029 819.048 842.283 831.992 841.588 C 834.77 850.174 835.1 860.239 840.173 867.394 C 848.99 879.829 865.877 879.454 879.084 881.411 L 879 883.771 C 872.629 882.901 865.048 882.618 858.497 882.116 C 831.649 880.06 817.458 865.448 800.919 845.918 z" fill="rgb(31,69,58)" transform="translate(0,0)"></path>
<path d="M 981.886 879.203 C 989.582 856.459 990.435 854.776 1013.06 845.94 C 1012.97 851.513 1013.02 857.879 1012.74 863.375 C 1008.79 870.255 1002.78 875.617 999.413 881.442 C 986.268 904.167 1008.16 939.188 1014.4 959.841 L 1010.78 959.25 C 1009.15 956.94 1006.42 952.199 1005.28 949.618 L 1006.42 947.477 C 994.353 919.335 989.829 902.257 993.425 871.212 C 989.368 873.872 985.743 876.218 981.886 879.203 z" fill="rgb(31,69,58)" transform="translate(0,0)"></path>
<path d="M 1006.42 947.477 C 1008.64 951.878 1009.22 953.45 1010.45 958.07 L 1010.78 959.25 C 1009.15 956.94 1006.42 952.199 1005.28 949.618 L 1006.42 947.477 z" fill="rgb(170,173,169)" transform="translate(0,0)"></path>
<path d="M 1040.92 913.745 C 1042.02 889.786 1037.67 873.163 1050.86 850.182 C 1059.19 835.594 1073.17 825.085 1089.49 821.13 C 1113.62 815.203 1139.88 827.802 1145.25 853.653 C 1151.76 885.056 1117.09 907.646 1092.31 887.071 C 1091.16 886.274 1091.11 886.006 1090.18 884.763 C 1075.75 863.481 1096.6 842.532 1110 853.243 L 1110.57 854.537 C 1106.39 852.995 1104.82 851.907 1100.56 853.894 C 1095.16 856.344 1091.03 860.945 1089.18 866.578 C 1079.15 897.496 1137.72 902.789 1141.95 867.701 C 1144.5 846.55 1132.2 825.476 1110.16 823.025 C 1066.2 818.138 1044.84 854.285 1042.84 892.381 C 1043.06 899.468 1043.04 906.559 1042.78 913.644 L 1042.91 916.054 L 1040.92 913.745 z" fill="rgb(31,69,58)" transform="translate(0,0)"></path>
<path d="M 1042.78 913.644 C 1040.69 906.708 1040.71 899.305 1042.84 892.381 C 1043.06 899.468 1043.04 906.559 1042.78 913.644 z" fill="rgb(127,135,133)" transform="translate(0,0)"></path>
<path d="M 953.035 947.013 C 956.992 948.07 962.817 949.498 966.421 951.229 C 1021.04 977.464 1019.99 1065.09 1019.95 1116.15 L 1018.04 1116.54 C 1017 1065.54 1012.77 961.351 948.307 950.62 C 950.784 949.369 950.584 948.434 953.035 947.013 z" fill="url(#Gradient1)" transform="translate(0,0)"></path>
<path d="M 1109.83 949.552 C 1111.69 950.917 1111.59 950.898 1113.78 951.609 C 1142.71 947.529 1155.08 948.746 1171.27 976.252 C 1161.93 981.094 1154.91 984.585 1144.94 988.015 L 1145.41 987.227 C 1152.43 975.719 1151.14 968.57 1138.87 959.541 C 1128.93 952.231 1112.2 955.608 1100.89 958.878 C 1100.15 957.966 1099.41 957.05 1098.67 956.13 C 1101.08 953.846 1106.76 950.989 1109.83 949.552 z" fill="rgb(31,69,58)" transform="translate(0,0)"></path>
<path d="M 1109.83 949.552 C 1111.69 950.917 1111.59 950.898 1113.78 951.609 C 1109.7 953.072 1102.84 955.15 1098.67 956.13 C 1101.08 953.846 1106.76 950.989 1109.83 949.552 z" fill="rgb(241,238,228)" transform="translate(0,0)"></path>
<path d="M 986.16 1111.75 C 991.641 1112.38 997.676 1112.89 1003.01 1113.81 C 1006.2 1114.34 1009.37 1114.99 1012.51 1115.75 C 1015.21 1116.39 1015.17 1116.5 1018.04 1116.54 L 1019.95 1116.15 C 1020.4 1137.42 1019.84 1170.34 1022.19 1190.95 L 1020.53 1194.69 C 1016.62 1154.64 1014.82 1141.3 986.16 1111.75 z" fill="rgb(192,155,107)" transform="translate(0,0)"></path>
<path d="M 1144.4 935.37 L 1148.5 934.825 C 1161.37 933.115 1176.19 933.058 1187.5 930.925 C 1209.18 926.833 1206.88 915.54 1213.13 899.26 C 1213.94 897.131 1234.56 902.402 1238.02 903.36 C 1209.33 941.477 1180.4 931.344 1138.95 938.581 L 1136.67 936.004 C 1138.85 934.046 1140.36 933.489 1142.97 932.066 L 1144.4 935.37 z" fill="rgb(31,69,58)" transform="translate(0,0)"></path>
<path d="M 1142.97 932.066 L 1144.4 935.37 C 1141.24 935.869 1139.88 935.999 1136.67 936.004 C 1138.85 934.046 1140.36 933.489 1142.97 932.066 z" fill="rgb(254,253,252)" transform="translate(0,0)"></path>
<path d="M 1070.12 1332.07 C 1097.01 1331.88 1134.51 1359.49 1099.18 1381.61 C 1094.17 1361.39 1093.97 1337.87 1070.21 1333.59 L 1070.12 1332.07 z" fill="rgb(31,69,58)" transform="translate(0,0)"></path>
<path d="M 1052.29 898.148 C 1074.92 908.009 1079.34 902.678 1079.34 928.516 C 1076.67 926.607 1073.86 924.926 1071.03 923.273 C 1075.73 943.299 1072.94 956.264 1063.72 974.825 L 1065.35 978.716 C 1063.83 980.84 1062.77 982.964 1060.41 983.499 L 1058.58 981.559 C 1063.19 970.619 1067.1 961.405 1068.96 950.494 C 1071.99 932.724 1068.21 931.478 1058.14 919.013 C 1056.67 917.195 1053.07 901.905 1052.29 898.148 z" fill="rgb(31,69,58)" transform="translate(0,0)"></path>
<path d="M 1060.41 983.499 L 1063.72 974.825 L 1065.35 978.716 C 1063.83 980.84 1062.77 982.964 1060.41 983.499 z" fill="rgb(241,238,228)" transform="translate(0,0)"></path>
<path d="M 968.151 910.8 C 983.17 922.475 995.397 933.322 1005.28 949.618 C 1006.42 952.199 1009.15 956.94 1010.78 959.25 L 1014.4 959.841 C 1019.24 971.931 1024.74 997.107 1025.29 1010.24 C 1024.88 1013.13 1027.35 1029.04 1023.1 1024.33 C 1022.64 976.993 1003.87 941.829 963.96 916.757 L 965.238 915.009 L 963.509 913.022 C 965.902 911.105 965.006 911.744 968.151 910.8 z" fill="rgb(31,69,58)" transform="translate(0,0)"></path>
<path d="M 1045.36 1127.95 C 1052.22 1121.51 1055.21 1121.41 1065 1121.76 L 1071.61 1122.04 C 1051.99 1141.11 1046.95 1152.82 1042.53 1179.81 L 1040.51 1176.05 C 1041.42 1162.55 1042.63 1145.93 1043.1 1132.68 C 1043.65 1130.97 1044.49 1129.52 1045.36 1127.95 z" fill="rgb(192,155,107)" transform="translate(0,0)"></path>
<path d="M 982.195 607.717 L 981.231 606.226 C 976.54 599.086 931.627 559.929 931.619 559.904 L 931.688 559.608 C 936.285 557.114 980.875 602.099 986.284 607.919 C 987.529 608.398 987.434 608.323 988.764 607.883 C 989.419 608.737 990.667 611.174 991.592 611.374 C 992.533 611.039 992.549 609.871 992.637 609.017 L 993.286 605.698 C 995.258 610.07 997.444 613.506 995.39 617.764 C 998.56 621.847 999.605 621.2 1002.94 626.614 C 986.805 615.768 977.123 614.703 958.967 611.16 C 960.818 610.532 964.431 610.338 964.898 610.099 C 965.919 608.319 969.221 610.12 972.56 607.264 C 970.679 601.801 921.894 586.946 922.266 587.417 C 922.999 583.04 948.678 594.248 951.6 594.764 C 958.143 595.918 977.978 607.317 982.195 607.717 z" fill="rgb(219,193,154)" transform="translate(0,0)"></path>
<path d="M 903.487 523.155 L 904.995 523.003 C 913.839 522.05 915.871 523.216 923.749 526.812 C 925.392 529.09 926.995 531.331 928.812 533.477 C 926.265 536.691 923.869 539.477 921.31 542.602 C 918.328 546.645 917.136 550.874 912.595 546.818 C 905.943 540.877 896.263 531.712 903.487 523.155 z" fill="rgb(188,149,99)" transform="translate(0,0)"></path>
<path d="M 1063.05 815.631 C 1076.08 802.783 1086.76 795.818 1105.75 795.906 C 1121.46 796.009 1136.51 802.269 1147.66 813.342 C 1149.19 814.866 1149.83 816.003 1151.01 817.818 C 1151.92 818.352 1151.96 818.261 1152.42 819.081 L 1152.25 819.541 C 1150.42 820.465 1145.68 814.798 1144.83 813.339 C 1118.59 795.81 1088.27 799.119 1064.29 818.782 L 1063.05 815.631 z" fill="rgb(31,69,58)" transform="translate(0,0)"></path>
<path d="M 1144.83 813.339 C 1147.02 814.791 1148.68 816.339 1151.01 817.818 C 1151.92 818.352 1151.96 818.261 1152.42 819.081 L 1152.25 819.541 C 1150.42 820.465 1145.68 814.798 1144.83 813.339 z" fill="rgb(170,173,169)" transform="translate(0,0)"></path>
<path d="M 970.113 692.221 C 990.289 691.04 992.147 698.844 1002.25 715.109 C 1003.91 717.783 999.89 715.479 999.641 715.309 C 996.223 713.542 948.507 697.929 968.326 692.751 L 970.113 692.221 z" fill="rgb(200,166,117)" transform="translate(0,0)"></path>
<path d="M 1093.52 920.01 C 1121.82 918.669 1092.87 938.838 1085.61 944.244 C 1083.14 946.129 1080.66 947.963 1078.12 949.758 C 1082.03 938.96 1085.2 928.143 1093.52 920.01 z" fill="rgb(192,155,107)" transform="translate(0,0)"></path>
<path d="M 985.117 904.962 C 978.655 895.714 973.274 893.143 964.642 886.352 C 962.771 884.879 956.968 873.826 959.978 872.954 C 978.744 867.513 980.434 892.596 986.376 904.376 L 985.117 904.962 z" fill="rgb(192,155,107)" transform="translate(0,0)"></path>
<path d="M 1027.78 745.172 C 1026.08 739.659 1022.79 734.404 1020.62 729.157 C 1016.87 720.092 1011.81 712.907 1006.32 704.795 C 1003.93 701.508 1003.06 687.624 1010.52 689.892 C 1018.27 692.252 1015.07 703.956 1017.2 709.987 C 1021.3 721.536 1025.51 732.964 1029.48 744.502 L 1027.78 745.172 z" fill="rgb(31,69,58)" transform="translate(0,0)"></path>
<path d="M 971.907 537.003 L 973.65 537.1 C 979.727 559.341 988.377 581.481 994.393 602.793 L 994.789 603.204 C 997.606 604.494 998.051 605.548 1001.04 606.293 C 1001.51 609.473 1005.72 628.157 1004.07 628.323 C 1003.28 627.614 1003.46 627.727 1002.94 626.614 C 999.605 621.2 998.56 621.847 995.39 617.764 C 997.444 613.506 995.258 610.07 993.286 605.698 L 992.994 605.251 C 987.423 590.933 982.412 576.24 978.252 561.466 C 976.001 553.468 974.312 544.825 971.907 537.003 z" fill="rgb(200,166,117)" transform="translate(0,0)"></path>
<path d="M 544.987 1461.71 C 546.744 1455.93 548.974 1449.74 551.086 1444.08 C 561.089 1417.3 569.083 1389.21 579.383 1362.59 L 582.788 1362.08 C 578.27 1370.12 571.343 1391.57 567.948 1401.38 C 560.733 1421.93 553.697 1442.54 546.841 1463.22 L 544.987 1461.71 z" fill="rgb(52,69,68)" transform="translate(0,0)"></path>
<path d="M 1040.92 913.745 L 1042.91 916.054 C 1046.14 938.296 1045.06 983.012 1044.98 1007.31 C 1045.9 1008 1046.71 1008.51 1047.67 1009.12 C 1047 1010.79 1046.31 1012.44 1045.61 1014.09 C 1045.21 1016.76 1044.84 1019.68 1044.3 1022.29 C 1044.46 1020.17 1044.48 1019.77 1044.24 1017.65 C 1042.52 1002.33 1042.87 985.429 1042.93 969.92 C 1043 950.51 1042.35 933.063 1040.92 913.745 z" fill="rgb(127,135,133)" transform="translate(0,0)"></path>
<path d="M 1044.98 1007.31 C 1045.9 1008 1046.71 1008.51 1047.67 1009.12 C 1047 1010.79 1046.31 1012.44 1045.61 1014.09 C 1045.11 1011.12 1045.04 1010.32 1044.98 1007.31 z" fill="rgb(241,238,228)" transform="translate(0,0)"></path>
<path d="M 945.67 529.439 C 960.59 544.035 983.953 589.154 992.637 609.017 C 992.549 609.871 992.533 611.039 991.592 611.374 C 990.667 611.174 989.419 608.737 988.764 607.883 C 977.14 584.816 967.402 560.549 951.555 539.776 C 949.631 537.253 947.728 534.1 946.475 531.192 L 945.67 529.439 z" fill="rgb(200,166,117)" transform="translate(0,0)"></path>
<path d="M 1117.36 778.064 C 1136.55 777.062 1128.35 786.308 1115.33 790.091 C 1094.65 789.409 1105.21 782.596 1117.36 778.064 z" fill="rgb(200,166,117)" transform="translate(0,0)"></path>
<path d="M 995.495 601.881 C 997.447 587.475 998.891 573.005 999.824 558.498 C 1000.06 555.089 1002.07 529.738 1003.32 529.475 C 1004.03 530.309 1003.23 544.443 1003.11 546.501 C 1002.77 552.457 1002.35 558.526 1001.74 564.494 C 1001.62 565.64 1001.21 567.279 1001.17 568.501 C 1001.09 571.134 1000.56 573.368 1000.27 576.004 C 1000.12 577.325 1000.22 577.504 999.938 578.995 C 999.655 580.471 998.99 584.722 999.699 586.197 C 999.753 586.309 999.994 586.239 1000.09 586.23 C 1001.38 585.159 1001.73 583.574 1002.15 582.028 L 1004.3 584.371 C 1002.94 588.525 1002.2 592.772 1001.7 597.105 C 998.01 599.449 998.457 598.372 995.495 601.881 z" fill="rgb(219,193,154)" transform="translate(0,0)"></path>
<path d="M 924.196 947.909 C 938.915 943.019 937.769 943.158 953.035 947.013 C 950.584 948.434 950.784 949.369 948.307 950.62 C 935.921 957.69 934.92 957.382 924.196 947.909 z" fill="rgb(192,155,107)" transform="translate(0,0)"></path>
<path d="M 977.773 1030.63 C 986.806 1031.96 993.229 1036.33 998.37 1043.85 C 999.21 1045.08 998.458 1046.15 997.327 1046.67 C 991.718 1044.25 983.996 1040.79 977.949 1040.12 C 971.868 1039.45 973.39 1035.64 976.696 1031.92 L 977.773 1030.63 z" fill="rgb(200,166,117)" transform="translate(0,0)"></path>
<path d="M 824.86 1488.01 L 831.735 1490.83 L 829.755 1492.47 C 818.658 1491.42 800.091 1491.88 788.52 1491.85 L 705.036 1492.06 C 708.008 1490.61 710.07 1489.8 713.175 1488.63 C 718.698 1493.46 752.472 1491.58 760.045 1490.72 C 761.328 1490.57 762.583 1490.25 763.776 1489.75 C 767.003 1490.02 769.704 1490.32 772.961 1490.17 C 774.782 1489.57 776.045 1489.14 777.924 1488.72 L 779.893 1491 C 792.52 1490.18 808.815 1492.32 821.739 1490.7 C 823.954 1490.42 823.302 1490.33 824.86 1488.01 z" fill="rgb(95,110,104)" transform="translate(0,0)"></path>
<path d="M 772.961 1490.17 C 774.782 1489.57 776.045 1489.14 777.924 1488.72 L 779.893 1491 C 777.319 1490.79 775.504 1490.57 772.961 1490.17 z" fill="rgb(31,69,58)" transform="translate(0,0)"></path>
<path d="M 1087.07 781.883 C 1095.8 761.308 1109.34 773.003 1090.36 786.053 C 1088.24 784.311 1088.38 784.343 1087.07 781.883 z" fill="rgb(69,85,70)" transform="translate(0,0)"></path>
<path d="M 1120.76 1340.27 C 1125.92 1338.97 1130.8 1337.89 1135.99 1336.75 C 1139.56 1336 1143.09 1335.07 1146.56 1333.96 C 1146.6 1336.07 1146.68 1338.19 1146.79 1340.3 C 1137.68 1340.22 1129.81 1340.88 1120.76 1340.27 z" fill="rgb(31,69,58)" transform="translate(0,0)"></path>
<path d="M 1173.08 1338.1 C 1177.62 1338.12 1206.37 1337.09 1207.78 1337.8 C 1208.27 1338.96 1205.16 1339.53 1204.51 1339.55 C 1194.19 1340.01 1183.75 1340.27 1173.42 1340.59 C 1173.34 1339.44 1173.38 1339.17 1173.08 1338.1 z" fill="rgb(69,85,70)" transform="translate(0,0)"></path>
<path d="M 1170.39 1301.24 C 1170.62 1295.15 1171.11 1289.12 1170.86 1282.98 C 1170.84 1282.5 1171.09 1279.3 1172.48 1280.21 C 1173.38 1280.79 1173 1284.02 1173.03 1284.51 C 1172.89 1296.54 1173.13 1308.57 1172.8 1320.6 C 1170.37 1311.59 1173.49 1307.38 1170.39 1301.24 z" fill="rgb(52,69,68)" transform="translate(0,0)"></path>
<path d="M 1398.44 1364.35 C 1402.07 1355.48 1407.54 1346.94 1415.27 1341.13 L 1416.11 1342.98 C 1408 1350.33 1402.23 1358.15 1399.31 1368.94 L 1396.87 1369.68 C 1397.66 1367.5 1398.02 1366.64 1398.44 1364.35 z" fill="rgb(52,69,68)" transform="translate(0,0)"></path>
<path d="M 1081.22 792.204 C 1074.9 798.064 1067.81 802.272 1061.83 809.898 C 1059.89 812.363 1056.53 818.057 1055.53 819.204 L 1055.07 819.017 C 1053.46 814.201 1073.35 794.676 1078.29 792.064 L 1081.22 792.204 z" fill="rgb(170,173,169)" transform="translate(0,0)"></path>
<path d="M 1044.76 1333.44 C 1053.87 1331.84 1060.79 1331.47 1070.12 1332.07 L 1070.21 1333.59 C 1060.51 1334.31 1053.98 1334.16 1044.46 1337.27 L 1044.76 1333.44 z" fill="rgb(69,85,70)" transform="translate(0,0)"></path>
<path d="M 1029.48 744.502 C 1031.33 748.339 1037.52 765.768 1036.29 769.399 L 1036.25 769.272 L 1035.74 768.932 C 1032.79 761.199 1031.04 753.145 1027.78 745.172 L 1029.48 744.502 z" fill="rgb(127,135,133)" transform="translate(0,0)"></path>
<path d="M 1494.96 1350.43 L 1496.26 1352.08 C 1492.72 1358.32 1490.56 1362.2 1488.03 1369.03 L 1485.38 1368.74 C 1489.2 1360.9 1489.9 1358.09 1494.96 1350.43 z" fill="rgb(52,69,68)" transform="translate(0,0)"></path>
<path d="M 1078.29 792.064 C 1082.95 788.059 1084.34 787.124 1087.07 781.883 C 1088.38 784.343 1088.24 784.311 1090.36 786.053 C 1089.22 787.098 1083.28 790.703 1081.22 792.204 L 1078.29 792.064 z" fill="rgb(108,106,77)" transform="translate(0,0)"></path>
<path d="M 426.161 1231.39 C 431.785 1229.39 439.178 1229.88 444.901 1231.32 L 443.729 1233.17 C 435.832 1231.55 435.292 1231.39 427.201 1233.19 L 426.161 1231.39 z" fill="rgb(95,110,104)" transform="translate(0,0)"></path>
<path d="M 1063.05 815.631 L 1064.29 818.782 C 1061.42 821.514 1056.44 827.515 1053.48 830.376 C 1053.38 830.472 1053.27 830.334 1053.11 830.194 L 1053.34 829.995 C 1053.15 827.061 1060.9 818.223 1063.05 815.631 z" fill="rgb(69,85,70)" transform="translate(0,0)"></path>
<path d="M 1022.19 1190.95 C 1022.53 1193.09 1025.14 1210.09 1024.65 1211.06 C 1022.68 1211.4 1020.81 1196.42 1020.53 1194.69 L 1022.19 1190.95 z" fill="rgb(226,215,192)" transform="translate(0,0)"></path>
<path d="M 971.907 537.003 C 971.483 535.621 968.557 522.408 969.858 521.337 C 971.129 521.941 973.34 534.929 973.65 537.1 L 971.907 537.003 z" fill="rgb(241,238,228)" transform="translate(0,0)"></path>
<path d="M 1032.92 1267.04 C 1033.3 1271.88 1032.33 1278.83 1031.93 1284.02 C 1031.32 1281.88 1031.3 1279.71 1031.12 1277.5 C 1030.88 1274.07 1030.82 1270.62 1030.96 1267.18 L 1032.92 1267.04 z" fill="rgb(170,173,169)" transform="translate(0,0)"></path>
<path d="M 1040.2 1191.96 C 1039.94 1187.24 1039.68 1180.58 1040.51 1176.05 L 1042.53 1179.81 C 1041.84 1184.28 1041.07 1187.57 1040.2 1191.96 z" fill="rgb(219,193,154)" transform="translate(0,0)"></path>
<path d="M 917.271 737.324 C 915.376 738.609 908.548 742.932 906.732 742.839 C 906.475 742.583 906.552 742.724 906.48 742.424 C 906.81 741.651 915.657 735.924 917.029 734.952 L 917.271 737.324 z" fill="rgb(127,135,133)" transform="translate(0,0)"></path>
<path d="M 1358.06 1348.95 C 1350.87 1349.16 1343.73 1348.21 1355.82 1346.31 C 1356.55 1347.2 1357.3 1348.08 1358.06 1348.95 z" fill="rgb(69,85,70)" transform="translate(0,0)"></path>
<path d="M 1616.12 1582.93 C 1618.83 1582.53 1621.52 1581.95 1624.21 1581.41 L 1623.99 1583.58 C 1620.69 1584.08 1617.41 1584.65 1614.09 1585.06 L 1616.12 1582.93 z" fill="rgb(95,110,104)" transform="translate(0,0)"></path>
<path d="M 940.113 524.016 L 942.001 522.265 L 942.625 523.655 C 943.847 526.678 945.41 526.258 945.67 529.439 C 942.724 528.178 941.767 526.843 940.113 524.016 z" fill="rgb(241,238,228)" transform="translate(0,0)"></path>
<path d="M 600.654 1270.86 L 604.053 1270.91 C 611.758 1271.04 602.64 1273.49 600.454 1273.84 L 600.654 1270.86 z" fill="rgb(69,85,70)" transform="translate(0,0)"></path>
<path d="M 724.217 1270.37 C 725.537 1270.54 730.055 1270.53 730.271 1272.32 C 729.543 1273.23 726.191 1274.05 725.01 1274.45 L 724.217 1270.37 z" fill="rgb(69,85,70)" transform="translate(0,0)"></path>
<path d="M 1498.27 1489.17 C 1499.91 1489.68 1502.97 1490.55 1504.29 1491.58 C 1504.4 1492.51 1498.22 1492.17 1497.41 1492.18 L 1498.27 1489.17 z" fill="rgb(69,85,70)" transform="translate(0,0)"></path>
<path d="M 986.376 904.376 C 986.951 905.295 989.754 909.176 988.49 910.326 C 987.079 909.916 985.674 906.213 985.117 904.962 L 986.376 904.376 z" fill="rgb(226,215,192)" transform="translate(0,0)"></path>
<path d="M 831.735 1490.83 C 833.292 1491 833.881 1490.9 835.128 1491.79 C 835.341 1492.23 835.319 1492.05 835.284 1492.36 C 833.94 1493.61 831.279 1492.73 829.755 1492.47 L 831.735 1490.83 z" fill="rgb(170,173,169)" transform="translate(0,0)"></path>
<path d="M 884.903 732.426 C 885.936 731.475 886.065 731.127 887.222 730.793 C 887.659 730.905 887.486 730.794 887.761 731.094 C 888.058 732.363 885.847 734.29 885.106 735.147 L 884.903 732.426 z" fill="rgb(170,173,169)" transform="translate(0,0)"></path>
<path d="M 541.652 1274.17 C 538.649 1272.92 533.886 1271.22 540.657 1270.87 L 541.652 1274.17 z" fill="rgb(52,69,68)" transform="translate(0,0)"></path>
<path d="M 999.837 1477.22 C 1001.15 1477.39 1002.44 1477.41 1003.48 1478.23 L 1003.53 1478.4 C 1003.05 1479.14 1000.61 1478.83 999.88 1478.83 L 999.837 1477.22 z" fill="rgb(127,135,133)" transform="translate(0,0)"></path>
<metadata><recraft-signature>{"signed_by": "recraft", "signature_b64": "wfYG0a/656syM2ek0vK8u/28TFF8q1bSC2MQSrAbr06fw9OKHli84KF+AxF88kY6Sz/nLgdiUVw8XZAjHT5hAw==", "signing_algo": "Ed25519", "generation_timestamp": 1783365433, "identifier": "c17310c1-e695-4201-b5c0-f82d36767560"}</recraft-signature></metadata></svg>