<svg xmlns="http://www.w3.org/2000/svg" height="1024" preserveAspectRatio="none" style="display: block;" version="1.1" viewBox="0 0 2048 2048" width="1024">
<path d="M 0 0 L 2048 0 L 2048 2048 L 0 2048 L 0 0 z" fill="rgb(255,255,255)" transform="translate(0,0)"></path>
<path d="M 1143.35 541.535 C 1153.42 527.016 1174.5 504.482 1186.54 490.492 C 1209.49 463.828 1236.95 410.41 1276.73 411.661 C 1312.83 412.796 1314.77 474.43 1311.92 499.93 C 1311.73 505.5 1311.16 517.766 1310.42 523.283 C 1310.27 529.861 1310.45 534.263 1310.92 540.84 L 1315.23 536.891 C 1330.06 512.212 1367.3 479.296 1389.78 460.862 C 1399.75 452.686 1415.3 447.021 1428.01 444.523 C 1437.01 447.295 1445.15 450.245 1449.87 459.109 C 1466.91 491.129 1431.6 598.138 1420.58 633.177 C 1472.89 649.618 1535.89 702.507 1538.86 760.859 C 1539.7 779.837 1538.99 794.184 1545.1 812.54 C 1557.52 849.819 1637.23 878.038 1623.01 920.851 C 1615.9 942.241 1590.65 955.299 1586.92 985.888 C 1584 1009.87 1562.41 1030.62 1539.82 1039.9 C 1531.44 1062.48 1523.48 1078.01 1500.5 1088.81 C 1474.48 1101.04 1450.18 1092.02 1424.76 1091.13 C 1375.92 1089.4 1326.92 1112.11 1310.31 1160.72 C 1309.81 1162.21 1308.25 1166.4 1307.44 1167.71 C 1305.29 1182.49 1303.58 1190.04 1303.11 1205.61 C 1303.4 1207.43 1304.65 1216.42 1303.32 1217.68 L 1303.25 1217.66 L 1303.17 1217.51 L 1302.92 1217.68 C 1302.4 1216.47 1302.51 1216.86 1302.36 1215.5 C 1300.93 1212.64 1299.74 1209.94 1298.37 1207.12 C 1275.29 1158.39 1272 1085.47 1327.73 1056.62 C 1382.42 1028.31 1425.56 1057.28 1480.21 1047.28 C 1510.05 1041.82 1522.86 1015.23 1537.29 991.835 C 1540.54 983.417 1542.55 977.85 1543.38 968.89 C 1537.14 954.724 1526.22 929.209 1531.27 913.322 C 1530.76 906.182 1531.3 908.1 1524.86 904.686 C 1506.26 897.449 1467.11 875.419 1459 856.059 C 1453.39 842.667 1455.21 825.376 1453.84 810.503 C 1449.08 759.184 1417.33 717.756 1370.37 697.407 C 1343.87 685.927 1303.71 679.197 1274.14 678.852 C 1277.13 621.718 1276.51 576.373 1268.44 519.107 C 1245.01 559.261 1211.39 615.262 1183.82 652.221 C 1196.44 726.991 1183 775.875 1152.59 842.152 C 1124.49 906.178 1105.87 967.264 1128.57 1036.87 C 1143.42 1082.39 1165.57 1116.75 1198.19 1151.61 C 1215.26 1169.84 1230.77 1179.02 1248.61 1194.6 C 1251.44 1198.98 1252.73 1199.52 1248.68 1203.19 C 1194.65 1182.71 1123.39 1145.16 1084.87 1102.1 C 1061.76 1076.51 1045.96 1045.17 1039.11 1011.38 C 1010.04 869.9 1158.11 821.474 1164.98 687.401 C 1166.94 649.258 1160.51 622.664 1141.21 589.398 C 1135.2 579.039 1131.03 571.056 1122.72 561.911 C 1128.35 556.154 1137.4 546.35 1143.35 541.535 z" fill="rgb(54,71,148)" transform="translate(0,0)"></path>
<path d="M 1428.01 444.523 C 1437.01 447.295 1445.15 450.245 1449.87 459.109 C 1466.91 491.129 1431.6 598.138 1420.58 633.177 C 1472.89 649.618 1535.89 702.507 1538.86 760.859 C 1539.7 779.837 1538.99 794.184 1545.1 812.54 C 1557.52 849.819 1637.23 878.038 1623.01 920.851 C 1615.9 942.241 1590.65 955.299 1586.92 985.888 C 1584 1009.87 1562.41 1030.62 1539.82 1039.9 C 1531.44 1062.48 1523.48 1078.01 1500.5 1088.81 C 1474.48 1101.04 1450.18 1092.02 1424.76 1091.13 C 1375.92 1089.4 1326.92 1112.11 1310.31 1160.72 C 1309.81 1162.21 1308.25 1166.4 1307.44 1167.71 C 1305.29 1182.49 1303.58 1190.04 1303.11 1205.61 C 1303.4 1207.43 1304.65 1216.42 1303.32 1217.68 L 1303.25 1217.66 L 1303.17 1217.51 L 1302.92 1217.68 C 1302.4 1216.47 1302.51 1216.86 1302.36 1215.5 C 1300.93 1212.64 1299.74 1209.94 1298.37 1207.12 C 1275.29 1158.39 1272 1085.47 1327.73 1056.62 C 1382.42 1028.31 1425.56 1057.28 1480.21 1047.28 C 1510.05 1041.82 1522.86 1015.23 1537.29 991.835 C 1541.81 986.88 1543.78 977.647 1545.52 971.143 C 1577.78 959.992 1601.91 929.134 1591.32 894.109 C 1587.71 891.725 1574.96 885.394 1570.8 883.435 C 1556.67 876.78 1547.87 870.846 1535.85 862.486 C 1476.05 820.908 1516.44 782.215 1485.72 727.169 C 1459 679.311 1412.79 659.161 1363.55 644.19 L 1367.22 629.676 C 1364.56 632.505 1363.25 640.16 1362.2 644.33 C 1349.48 642.04 1330.55 638.544 1317.76 637.672 C 1315.43 638.366 1316.33 638.294 1313.92 637.787 C 1312.61 634.128 1313.14 601.127 1312.72 593.927 C 1311.72 576.834 1311.42 559.18 1309.63 541.959 L 1310.92 540.84 L 1315.23 536.891 C 1330.06 512.212 1367.3 479.296 1389.78 460.862 C 1399.75 452.686 1415.3 447.021 1428.01 444.523 z" fill="rgb(250,166,34)" transform="translate(0,0)"></path>
<path d="M 1317.76 637.672 C 1315.23 636.276 1314.87 636.163 1314.45 633.429 C 1309.68 602.457 1337.12 567.633 1353.29 543.046 C 1367.81 520.947 1409.94 482.506 1436.49 478.533 C 1432.27 486.164 1407.13 520.492 1407.67 527.169 C 1400.39 545.914 1388.86 565.495 1381.4 585.948 C 1377.87 595.603 1370.2 623.684 1367.22 629.676 C 1364.56 632.505 1363.25 640.16 1362.2 644.33 C 1349.48 642.04 1330.55 638.544 1317.76 637.672 z" fill="rgb(226,70,48)" transform="translate(0,0)"></path>
<path d="M 1314.22 607.239 C 1332.29 569.256 1353.87 532.154 1386.66 504.896 C 1397.87 495.578 1421.86 477.613 1437.07 476.978 L 1436.49 478.533 C 1409.94 482.506 1367.81 520.947 1353.29 543.046 C 1337.12 567.633 1309.68 602.457 1314.45 633.429 C 1314.87 636.163 1315.23 636.276 1317.76 637.672 C 1315.43 638.366 1316.33 638.294 1313.92 637.787 C 1312.61 634.128 1313.14 601.127 1312.72 593.927 C 1311.72 576.834 1311.42 559.18 1309.63 541.959 L 1310.92 540.84 L 1315.23 536.891 C 1314.33 540.312 1313.28 540.858 1310.92 543.787 C 1313.1 565.365 1313.88 585.567 1314.22 607.239 z" fill="rgb(115,41,31)" transform="translate(0,0)"></path>
<path d="M 1437.07 476.978 C 1438.19 476.531 1438.83 476.083 1439.95 476.316 C 1441.09 477.354 1432.86 487.137 1431.52 489.011 C 1423.3 500.553 1415.86 512.632 1409.25 525.165 C 1408.58 526.439 1408.72 526.387 1407.67 527.169 C 1407.13 520.492 1432.27 486.164 1436.49 478.533 L 1437.07 476.978 z" fill="rgb(59,24,17)" transform="translate(0,0)"></path>
<path d="M 1298.37 1207.12 C 1298.78 1207.43 1300.98 1209.33 1301.64 1209.22 C 1302.12 1208.49 1301.8 1178.25 1307.44 1167.71 C 1305.29 1182.49 1303.58 1190.04 1303.11 1205.61 C 1303.4 1207.43 1304.65 1216.42 1303.32 1217.68 L 1303.25 1217.66 L 1303.17 1217.51 L 1302.92 1217.68 C 1302.4 1216.47 1302.51 1216.86 1302.36 1215.5 C 1300.93 1212.64 1299.74 1209.94 1298.37 1207.12 z" fill="rgb(112,71,33)" transform="translate(0,0)"></path>
<path d="M 1303.11 1205.61 C 1303.4 1207.43 1304.65 1216.42 1303.32 1217.68 L 1303.25 1217.66 L 1303.17 1217.51 L 1302.92 1217.68 C 1302.4 1216.47 1302.51 1216.86 1302.36 1215.5 C 1302.74 1212.13 1302.84 1208.97 1303.11 1205.61 z" fill="rgb(116,107,103)" transform="translate(0,0)"></path>
<path d="M 1143.35 541.535 C 1153.42 527.016 1174.5 504.482 1186.54 490.492 C 1209.49 463.828 1236.95 410.41 1276.73 411.661 C 1312.83 412.796 1314.77 474.43 1311.92 499.93 C 1311.73 505.5 1311.16 517.766 1310.42 523.283 C 1307.57 519.577 1305.53 501.283 1304.43 495.077 C 1302.27 483.256 1296.61 443.071 1278.04 450.091 C 1250.76 460.403 1234.74 494.171 1218.51 516.594 C 1198.2 544.422 1176.92 571.527 1154.7 597.859 C 1144.77 585.429 1134.85 573.809 1124.94 561.637 C 1128.66 557.939 1141.92 545.472 1143.35 541.535 z" fill="rgb(250,166,34)" transform="translate(0,0)"></path>
<path d="M 1524.86 904.686 C 1532.95 904.112 1534.26 906.164 1531.27 913.322 C 1530.76 906.182 1531.3 908.1 1524.86 904.686 z" fill="rgb(53,57,97)" transform="translate(0,0)"></path>
<path d="M 434.438 705.893 C 431.038 700.538 428.075 694.105 425.395 688.469 C 406.178 648.049 405.691 607.304 458.762 597.042 C 481.312 592.682 505.433 593.032 528.628 589.565 C 560.018 584.874 606.844 577.102 625.475 547.634 C 637.654 528.37 645.283 506.504 657.94 487.437 C 727.691 383.031 857.562 358.695 970.282 402.728 C 1008.83 417.989 1043.43 441.777 1071.48 472.309 C 1075.71 476.933 1084.14 486.623 1086.44 491.861 C 1087.66 495.185 1087.93 496.071 1090.3 498.838 C 1088.64 500.833 1088.45 500.731 1087.96 503.045 C 1083.38 500.168 1072.72 491.928 1068.84 488.4 C 1065.48 487.475 1047.03 474.72 1042.67 472.332 C 972.636 434.022 890.696 420.211 812.905 439.38 C 800.173 445.117 789.203 448.603 777.229 456.657 C 760.458 467.937 743.208 485.853 731.586 502.24 C 720.335 518.107 707.142 536.786 696.564 552.617 C 676.497 582.646 661.139 593.683 625.186 600.701 C 601.454 605.334 571.327 608.824 546.752 609.385 C 547.887 634.555 544.211 655.606 525.974 673.916 C 504.944 695.031 484.714 699.708 487.467 734.825 C 493.853 816.279 578.853 857.904 652.428 858.559 C 670.566 858.72 688.509 859.591 706.375 861.496 C 773.647 872.634 798.05 917.208 799.797 981.583 C 800.214 996.948 800.447 1020.23 802.073 1035.42 C 807.33 1089.5 832.449 1139.71 872.576 1176.34 C 939.686 1238.23 1024.34 1254.96 1112 1262.15 C 1139.96 1264.1 1171.5 1263.42 1199.66 1262.86 L 1201.97 1266.17 C 1142.06 1278.75 1091.49 1285.42 1029.74 1281.55 C 961.923 1277.24 890.065 1263.18 834.023 1223.12 C 779.069 1183.83 745.272 1133.58 733.518 1067.25 C 732.19 1056.99 730.852 1049.74 730.859 1039.12 L 730.555 1038.27 C 728.101 1018.73 730.411 1000.26 727.145 980.993 C 726.488 977.117 725.671 973.597 724.927 969.768 L 724.782 969.301 C 722.081 960.814 719.622 953.241 714.923 945.558 C 665.867 865.363 562.213 946.355 506.999 878.007 C 493.505 861.304 490.652 848.193 484.516 828.605 C 474.336 823.443 456.615 812.684 451.515 801.992 C 436.85 785.465 436.169 750.756 437.219 729.968 C 437.8 718.461 436.997 716.603 434.438 705.893 z" fill="rgb(226,70,48)" transform="translate(0,0)"></path>
<path d="M 812.905 439.38 C 825.082 430.654 866.066 428.648 881.133 428.679 C 943.008 428.805 1006.84 446.878 1059.14 480.088 C 1062.52 482.245 1065.69 484.492 1068.68 487.149 L 1068.84 488.4 C 1065.48 487.475 1047.03 474.72 1042.67 472.332 C 972.636 434.022 890.696 420.211 812.905 439.38 z" fill="rgb(156,50,27)" transform="translate(0,0)"></path>
<path d="M 1112 1262.15 C 1139.96 1264.1 1171.5 1263.42 1199.66 1262.86 L 1201.97 1266.17 C 1142.06 1278.75 1091.49 1285.42 1029.74 1281.55 C 1034.5 1279.86 1073.26 1281.69 1082.13 1280.97 C 1114.74 1278.33 1152.02 1275.69 1183.84 1267.92 C 1181.36 1266.38 1180.59 1266.47 1177.71 1265.48 L 1176.72 1265.13 C 1164.78 1264.36 1120.37 1266.63 1112 1262.15 z" fill="rgb(115,41,31)" transform="translate(0,0)"></path>
<path d="M 1176.72 1265.13 C 1179.19 1265.04 1191.41 1263.59 1192.39 1265.39 C 1191.71 1267.12 1185.58 1267.67 1183.84 1267.92 C 1181.36 1266.38 1180.59 1266.47 1177.71 1265.48 L 1176.72 1265.13 z" fill="rgb(222,89,47)" transform="translate(0,0)"></path>
<path d="M 434.438 705.893 L 435.328 707.249 C 442.987 718.593 436.327 753.155 440.177 767.494 C 440.412 768.37 441.13 772.525 441.186 773.488 C 441.798 783.983 448.926 793.039 451.515 801.992 C 436.85 785.465 436.169 750.756 437.219 729.968 C 437.8 718.461 436.997 716.603 434.438 705.893 z" fill="rgb(115,41,31)" transform="translate(0,0)"></path>
<path d="M 724.927 969.768 C 728.607 969.057 731.504 996.844 731.222 1000.09 C 730.315 1010.55 732.914 1028.93 730.555 1038.27 C 728.101 1018.73 730.411 1000.26 727.145 980.993 C 726.488 977.117 725.671 973.597 724.927 969.768 z" fill="rgb(156,50,27)" transform="translate(0,0)"></path>
<path d="M 730.859 1039.12 L 731.568 1040.52 C 733.603 1044.33 734.79 1062.48 733.518 1067.25 C 732.19 1056.99 730.852 1049.74 730.859 1039.12 z" fill="rgb(156,50,27)" transform="translate(0,0)"></path>
<path d="M 1091.35 698.025 C 1108.18 659.917 1111.41 628.397 1106.66 587.593 C 1122.81 622.073 1129.57 656.367 1123.17 694.399 C 1121.64 707.913 1114.85 729.069 1109.39 741.106 C 1065.23 838.409 969.539 875.382 972.602 996.054 C 975.751 1120.09 1091 1206.1 1206.07 1223.6 C 1210.81 1224.27 1219.02 1225.41 1223.29 1226.52 C 1244.08 1228.8 1263.72 1229.99 1284.68 1228.96 C 1231.56 1247.43 1160.12 1247.93 1105.67 1233.39 C 1073.86 1226.54 1043.05 1215.64 1014.01 1200.95 C 954.135 1170.17 906.257 1123.8 885.764 1058.38 C 859.482 978.621 885.424 878.559 957.213 830.688 C 1017.59 790.43 1056.04 766.444 1091.35 698.025 z" fill="rgb(250,166,34)" transform="translate(0,0)"></path>
<path d="M 1245.66 1230.19 C 1241.12 1229.84 1226.04 1229.41 1223.29 1226.52 C 1244.08 1228.8 1263.72 1229.99 1284.68 1228.96 C 1231.56 1247.43 1160.12 1247.93 1105.67 1233.39 C 1112.66 1232.73 1133.84 1237.57 1142.66 1238.68 C 1177.93 1243.1 1211.67 1244.08 1246.78 1237.34 C 1250.61 1236.6 1260.04 1234.99 1262.99 1233.77 C 1261.77 1229.43 1254.51 1235.73 1245.66 1230.19 z" fill="rgb(112,71,33)" transform="translate(0,0)"></path>
<path d="M 1245.66 1230.19 C 1250.08 1230.53 1253.8 1231.13 1258.28 1231.03 C 1260.61 1230.98 1266.59 1230.63 1268.38 1231.56 C 1270.47 1232.65 1262.5 1233.84 1262.99 1233.77 C 1261.77 1229.43 1254.51 1235.73 1245.66 1230.19 z" fill="rgb(250,158,46)" transform="translate(0,0)"></path>
<path d="M 1091.35 698.025 C 1108.18 659.917 1111.41 628.397 1106.66 587.593 C 1122.81 622.073 1129.57 656.367 1123.17 694.399 C 1123.31 685.707 1124.24 677.365 1124.24 668.855 C 1124.18 644.089 1119.08 619.594 1109.26 596.861 C 1110.96 627.313 1109.26 654.544 1098.92 683.682 C 1097.64 687.272 1094.56 696.259 1091.35 698.025 z" fill="rgb(112,71,33)" transform="translate(0,0)"></path>
<path d="M 827.83 451.273 C 829.35 451.123 830.872 450.987 832.394 450.865 C 871.823 447.741 895.312 476.642 910.132 509.188 C 934.785 563.329 904.445 601.796 905.609 655.287 C 906.29 686.574 933.395 718.774 966.405 700.494 C 989.916 687.222 1011.94 666.733 1028.64 645.63 C 1055.24 612.006 1064.33 582.444 1059.21 540.234 C 1058.6 536.291 1057.84 532.365 1057 528.468 L 1056.62 526.675 C 1064.29 534.732 1070.75 541.426 1075.51 551.823 C 1105.51 593.604 1084.77 661.402 1055.47 698.177 C 1003.42 763.505 883.556 821.454 837.549 718.427 C 798.719 631.472 916.164 520.909 827.83 451.273 z" fill="rgb(54,71,148)" transform="translate(0,0)"></path>
<path d="M 1059.21 540.234 C 1058.6 536.291 1057.84 532.365 1057 528.468 L 1056.62 526.675 C 1064.29 534.732 1070.75 541.426 1075.51 551.823 C 1068.98 549.028 1066.86 532.214 1059.21 540.234 z" fill="rgb(53,57,97)" transform="translate(0,0)"></path>
<path d="M 345.484 1281.2 C 361.216 1280.06 372.292 1283.29 381.147 1297.54 C 389.478 1310.94 386.681 1330.82 371.726 1338.26 C 356.666 1345.74 341.944 1337.61 327.608 1332.46 C 326.851 1332.74 326.099 1333.04 325.354 1333.35 C 289.111 1348.53 280.496 1439.15 268.243 1474.26 C 259.494 1499.32 257.713 1518.02 268.101 1542.93 C 245.913 1543.44 218.629 1543.64 196.559 1542.71 C 207.815 1517.33 198.418 1499.05 191.957 1473.63 C 187.995 1458.04 183.248 1442.51 178.891 1427.01 C 176.022 1438.85 173.816 1451.17 170.974 1463.3 C 166.798 1481.12 161.733 1498.45 160.023 1516.74 C 159.208 1525.46 165.319 1536.2 164.657 1541.35 C 159.167 1543.92 106.666 1543.74 98.8614 1542.69 C 94.5001 1539.03 99.5135 1534.51 99.7689 1529.61 C 101.405 1498.19 87.2171 1462.09 79.5882 1431.83 C 73.5136 1407.74 66.7397 1381.84 57.782 1359.7 C 53.3635 1349.28 50.5775 1346.42 43.3928 1337.89 C 41.4975 1335.64 41.3463 1334.53 41.7506 1332.18 C 48.0485 1327.67 110.695 1330.81 122.949 1330.06 C 125.099 1329.93 125.89 1331.56 126.74 1333.12 C 126.03 1337.72 122.205 1339.83 120.317 1343.78 C 111.331 1362.57 142.146 1462.64 150.147 1486.36 C 154.966 1456.6 168.571 1421.58 170.608 1391.36 C 171.179 1382.89 166.805 1367.63 164.748 1359.19 C 162.948 1351.81 149.427 1336.62 148.146 1332.2 L 149.812 1330.91 C 161.12 1328.55 212.706 1330.09 227.721 1330.47 C 229.709 1330.52 229.331 1330.58 230.586 1332.54 C 229.384 1337.69 225.047 1340.35 223.103 1344.92 C 215.892 1361.88 243.084 1460.69 250.174 1483.67 C 263.147 1439.35 277.258 1344.57 300.184 1310.93 C 311.447 1294.41 325.929 1284.92 345.484 1281.2 z" fill="rgb(16,16,16)" transform="translate(0,0)"></path>
<path d="M 1232.44 1315 C 1236.42 1314.85 1236.16 1315.05 1238.15 1316.83 C 1237.69 1320.53 1227.13 1331.16 1224.29 1335.26 C 1196.1 1376.09 1190.6 1430.05 1175.55 1476.6 C 1167.39 1501.83 1163.79 1518.09 1175.7 1542.83 C 1157.54 1543.58 1121.64 1544.07 1104.38 1542.83 C 1105.78 1539.02 1108.73 1531.34 1108.77 1527.63 C 1109.06 1498.11 1094.68 1455.82 1086.56 1427.05 C 1079.57 1455.99 1072.42 1486.88 1067.88 1516.31 C 1066.3 1526.58 1072.83 1537.36 1071.89 1541.76 C 1068.13 1545.08 1011.77 1542.98 1003.9 1542.86 C 1006.04 1535.32 1008.2 1527.92 1008.04 1519.99 C 1007.65 1500.12 975.107 1382.51 966.155 1361.63 C 961.931 1351.78 956.549 1342.78 948.618 1335.49 C 947.022 1334.03 947.601 1335 947.175 1332.53 C 949.681 1330.29 950.383 1330.57 953.75 1330.13 C 977.54 1330.02 1001.43 1329.72 1025.22 1329.75 C 1029.01 1329.75 1032.98 1329.71 1035.46 1332.32 C 1034.92 1336.9 1030.59 1338.42 1029.27 1341.58 C 1020.4 1362.79 1033.88 1400.66 1039.47 1421.28 C 1045.28 1443.39 1051.38 1465.42 1057.78 1487.37 C 1060.38 1469.64 1066.76 1443.5 1071.47 1426.31 C 1080.27 1394.26 1081.18 1376.96 1065.33 1346.39 C 1062.98 1341.86 1056.19 1335 1055.79 1331.48 L 1057.49 1330.24 C 1063.41 1329.1 1132.29 1329.77 1137.41 1331.01 L 1138.06 1332.83 C 1137.06 1339.2 1134.18 1341.74 1131.17 1347.52 C 1129.44 1350.78 1128.65 1354.46 1128.87 1358.15 C 1129.5 1368.41 1135.15 1391.32 1137.41 1401.61 C 1143.62 1429.9 1150.19 1457.23 1158.71 1484.92 C 1168.56 1444.43 1181.13 1399.95 1180.72 1358.23 C 1180.57 1342.69 1170.23 1337.65 1169.8 1332.32 C 1171.79 1330.59 1223.2 1318.03 1232.44 1315 z" fill="rgb(16,16,16)" transform="translate(0,0)"></path>
<path d="M 554.013 1387.33 C 555.641 1374.04 558.507 1365.66 569.402 1356.71 C 577.477 1350.07 589.314 1345.79 599.764 1347.14 C 627.378 1350.69 624.626 1396.01 595.189 1392.12 C 583.436 1390.57 585.924 1376.69 573.077 1380.37 C 567.974 1381.81 565.668 1381.66 562.421 1386.42 L 562.359 1387.82 C 583.606 1397.52 602.88 1403.96 612.468 1429.35 C 617.304 1442.38 616.61 1456.81 610.547 1469.32 C 595.199 1501.11 558.279 1508.8 526.572 1505.18 C 520.252 1504.45 497.382 1497.94 500.38 1515.07 C 501.629 1522.2 511.721 1524.57 517.701 1524.05 C 528.087 1523.15 539.045 1523.01 549.703 1521.24 C 584.419 1515.45 636.606 1518.02 622.107 1568.76 C 615.792 1585.31 598.814 1600.68 582.961 1607.14 C 552.896 1619.4 522.123 1621.09 491.638 1610.79 C 459.287 1599.87 452.265 1558.2 486.289 1546.01 C 487.888 1545.42 489.512 1544.9 491.154 1544.45 L 491.453 1543.72 C 465.285 1532.82 455.943 1506.89 486.952 1496.62 C 489.068 1495.94 491.2 1495.3 493.345 1494.71 C 443.63 1472.48 455.109 1406.49 503.147 1391.33 C 523.174 1385.01 533.226 1385.74 554.013 1387.33 z" fill="rgb(16,16,16)" transform="translate(0,0)"></path>
<path d="M 491.453 1543.72 C 491.969 1543.73 493.315 1543.22 493.651 1543.97 C 493.198 1544.76 491.801 1544.47 491.154 1544.45 L 491.453 1543.72 z" fill="rgb(154,154,157)" transform="translate(0,0)"></path>
<path d="M 533.169 1396 C 552.739 1396.39 560.135 1415.91 562.929 1432.51 C 566.6 1454.3 570.391 1489.37 544.125 1497.1 C 524.06 1495.67 518.337 1475.81 514.14 1458.49 C 510.977 1445.44 511.415 1426.1 516.063 1413.51 C 519.33 1404.65 524.48 1399.78 533.169 1396 z" fill="rgb(255,255,255)" transform="translate(0,0)"></path>
<path d="M 536.295 1562.5 C 548.976 1561.18 591.321 1560.09 581.237 1585.02 C 577.463 1594.35 565.574 1599.86 556.575 1603.27 L 554.287 1604.15 C 550.887 1605.15 547.496 1606.34 543.996 1606.95 L 540.402 1607.57 C 517.174 1611.65 501.423 1592.43 513.237 1569.17 C 516.02 1563.69 530.221 1563.14 536.295 1562.5 z" fill="rgb(255,255,255)" transform="translate(0,0)"></path>
<path d="M 1270.47 1316.45 C 1273 1316.96 1272.94 1317.1 1275.16 1318.5 C 1276.41 1321.67 1273.76 1409.93 1273.28 1416.82 C 1282.23 1399.49 1295.98 1383.95 1317.08 1387.65 C 1392.69 1400.91 1343.96 1492.04 1378.47 1536.59 L 1379.33 1537.67 C 1389.85 1518.96 1392.58 1499.95 1393.08 1478.78 C 1393.34 1468.02 1395.11 1445.02 1388.08 1437.38 C 1385.51 1434.59 1378.4 1427.9 1375.06 1424.33 C 1376.95 1422.69 1378.91 1421.13 1380.93 1419.64 C 1388.44 1414.12 1433.01 1386.64 1439.96 1387.69 C 1445.74 1400.25 1435.74 1497.14 1444.02 1517.14 C 1445.27 1520.17 1451.2 1539.16 1451.11 1540.91 C 1446.91 1544.54 1436.35 1543.31 1430.54 1543.16 C 1389.44 1543.19 1338.61 1544.57 1298.06 1542.86 C 1312.31 1512.02 1316.73 1477.81 1308.54 1444.38 C 1303.91 1423.23 1282.2 1411.59 1276.84 1439.79 C 1271.54 1467.7 1271.89 1517.88 1286.75 1542.42 C 1269.93 1544.21 1225.93 1543.37 1207.99 1542.88 C 1225.93 1500.14 1229.62 1436.81 1219.26 1390.83 C 1217.93 1384.9 1213.5 1378.74 1209.8 1373.94 C 1215.9 1367.34 1224.87 1359.56 1231.57 1353.26 L 1270.47 1316.45 z" fill="rgb(16,16,16)" transform="translate(0,0)"></path>
<path d="M 758.465 1327.27 C 778.11 1325 799.783 1328.35 815.548 1340.97 C 825.973 1349.38 833.803 1367.92 822.307 1379.18 C 807.496 1393.68 782.355 1387.67 782.131 1364.9 C 782.057 1357.28 790.671 1352.17 796.354 1347.38 C 797.487 1341.59 794.696 1339.87 789.878 1337.61 C 757.874 1322.56 743.695 1366.29 755.607 1389.47 C 762.982 1403.81 769.167 1403.34 781.727 1407.76 L 782.097 1410.15 C 779.879 1412.79 765.2 1419.43 760.921 1421.82 C 737.704 1434.91 724.257 1455.74 740.739 1481.68 C 761.632 1514.56 824.73 1511.05 842.078 1476.27 C 845.005 1470.4 845.172 1459.61 840.87 1453.85 C 826.426 1447.71 811.807 1473.16 796.678 1477.14 C 784.579 1480.32 765.455 1475.38 764.569 1460.91 C 762.223 1422.62 825.722 1414 852.531 1409.22 C 861.666 1406.9 880.152 1402 879.722 1390.13 C 876.447 1386.62 841.57 1391.03 855.112 1367.17 C 862.453 1354.24 878.081 1353.46 889.824 1360.72 C 910.46 1373.47 912.639 1406.46 899.75 1425.38 C 888.398 1442.05 870.94 1446.88 852.442 1450.87 C 854.334 1454.87 856.023 1458.97 857.502 1463.15 C 862.773 1478.14 863.516 1494.66 856.083 1508.89 C 830.502 1554.36 777.264 1563.05 732.063 1541.71 C 685.09 1519.54 675.109 1457.02 717.613 1425.32 C 728.635 1417.11 742.441 1413.3 755.863 1409.09 C 737.856 1403.18 719.334 1395.21 715.212 1374.17 C 713.366 1364.77 715.5 1355.04 721.103 1347.28 C 730.136 1334.6 743.832 1329.65 758.465 1327.27 z" fill="rgb(16,16,16)" transform="translate(0,0)"></path>
<path d="M 1652.46 1317.92 L 1654.85 1318.36 C 1657.4 1323.44 1652.98 1439.18 1653.11 1456.14 C 1672.55 1434.5 1689.26 1420.52 1683.43 1388.79 C 1705.25 1389.28 1728.75 1388.03 1750.57 1389.18 C 1753.07 1389.31 1752.73 1389.68 1754.05 1391.48 C 1753.43 1399.53 1738.45 1402.95 1731.53 1406.85 C 1708.93 1419.56 1692.42 1435.11 1673.74 1452.52 C 1720.89 1443.57 1721.65 1494.49 1746.31 1521.86 C 1748.91 1524.75 1763.43 1540.12 1763.77 1541.05 C 1761.29 1543.29 1761.37 1542.59 1757.25 1543.07 C 1747.14 1542.99 1689.79 1544.11 1684.27 1541.84 C 1682.3 1534.97 1686.56 1523.58 1684.35 1515.99 C 1678.28 1495.15 1671.68 1486.44 1653.02 1476.3 C 1652.7 1490.32 1654.21 1501.29 1656.2 1514.89 C 1657.26 1522.15 1663.63 1537.73 1663.22 1541.52 C 1657.1 1544.55 1598.27 1543.09 1587.75 1542.95 C 1589.28 1539.81 1593.15 1532.64 1594.28 1529.63 C 1607.94 1492.24 1606.93 1451.27 1605.36 1412.16 C 1604.22 1383.73 1601.17 1385.08 1590.91 1360.42 C 1597.4 1351.05 1640.73 1324.67 1652.46 1317.92 z" fill="rgb(16,16,16)" transform="translate(0,0)"></path>
<path d="M 359.621 1387.37 C 367.766 1386.7 376.366 1387.01 384.471 1388.04 C 458.728 1397.56 425.967 1490.97 441.187 1508.99 C 444.397 1512.79 450.716 1512.29 455.295 1512.56 C 454.327 1515.44 453.292 1518.31 452.189 1521.14 C 441.693 1547.48 409.707 1554.82 392.188 1530.45 C 388.661 1525.54 387.092 1520.74 385.129 1515.09 C 382.438 1520.06 379.315 1525.87 375.619 1530.07 C 367.647 1539.27 356.276 1544.83 344.119 1545.48 C 330.441 1546.2 320.357 1541.69 310.259 1532.93 C 304.987 1526.92 301.424 1519.62 299.94 1511.77 C 297.85 1501.68 299.136 1491.19 303.6 1481.92 C 313.807 1461.01 335.411 1453.06 355.913 1445.69 C 369.051 1441.46 396.426 1429.66 390.795 1411.68 C 384.163 1390.5 363.15 1395.49 354.631 1412.86 L 355.134 1433.32 C 350.067 1439.17 343.739 1444.35 336.117 1445.33 C 312.451 1448.37 305.633 1420.38 319.324 1405.04 C 330.824 1392.16 343.933 1389.06 359.621 1387.37 z" fill="rgb(16,16,16)" transform="translate(0,0)"></path>
<path d="M 371.697 1450.6 C 384.956 1456.54 382.467 1485.34 380.266 1497.02 C 377.321 1512.64 375.085 1515.39 360.705 1514.93 C 341.275 1504.94 349.189 1471.4 361.144 1458.57 C 364.441 1455.03 367.618 1453 371.697 1450.6 z" fill="rgb(255,255,255)" transform="translate(0,0)"></path>
<path d="M 1805.89 1387.37 C 1828.69 1386.86 1850.14 1394.51 1865.43 1412.01 C 1876.37 1424.19 1883.52 1445.08 1867.64 1456.63 C 1849.69 1469.69 1814.5 1465.97 1793.74 1464.12 C 1794.14 1465.23 1794.57 1466.33 1795.03 1467.42 C 1806.48 1494.69 1830.44 1511.98 1860.44 1499.05 C 1867.29 1496.09 1877.4 1480.17 1882.03 1478.17 C 1884.22 1483.39 1881.47 1495.19 1880.37 1500.93 C 1871.44 1525.03 1854.58 1542.2 1828.03 1545.27 C 1805.19 1547.88 1782.25 1541.29 1764.28 1526.94 C 1730.49 1499.59 1729.66 1445.74 1756.1 1412.58 C 1769.09 1396.3 1785.47 1389.48 1805.89 1387.37 z" fill="rgb(16,16,16)" transform="translate(0,0)"></path>
<path d="M 1801.94 1397.94 C 1806.43 1397.6 1812.05 1397.41 1816.46 1401.03 C 1827.83 1410.36 1837.28 1438.67 1830.61 1452.59 C 1829.38 1455.14 1822.72 1455.42 1820.07 1455.73 C 1810.2 1455.68 1800.5 1455.19 1790.64 1454.88 C 1786.32 1437.84 1784.51 1408.39 1801.94 1397.94 z" fill="rgb(255,255,255)" transform="translate(0,0)"></path>
<path d="M 1513.69 1387.39 C 1533.84 1385.98 1572.02 1395.35 1576.18 1421.88 C 1578.01 1433.54 1568.56 1441.52 1556.89 1440.56 C 1540.34 1440.44 1540.68 1430.82 1543.97 1417.96 C 1549.97 1394.48 1505.62 1391.18 1503 1410.67 C 1501.86 1419.17 1510.96 1427.25 1516.9 1432.04 C 1541.96 1452.26 1587.4 1462.52 1583.26 1503.23 C 1579.75 1544.46 1537.91 1547.74 1505.79 1543.8 C 1498.86 1542.94 1493.41 1541.17 1486.77 1538.78 C 1466.63 1531.52 1452.37 1513.17 1461.59 1491.54 C 1463.88 1486.18 1468.58 1481.42 1474.39 1479.66 C 1479.13 1478.21 1484.26 1478.81 1488.52 1481.33 C 1498.18 1487.01 1501.26 1497.65 1503.96 1507.56 L 1503.14 1508.48 C 1475.88 1539.69 1544.91 1547 1539.92 1513.23 C 1538.16 1501.28 1519.45 1491.92 1509.46 1486.45 C 1480.85 1470.8 1440.61 1445.45 1469.37 1408.7 C 1480.93 1393.94 1495.52 1389.17 1513.69 1387.39 z" fill="rgb(16,16,16)" transform="translate(0,0)"></path>
<path d="M 1885.14 1542.94 C 1897.43 1515.79 1902.19 1499.8 1903.22 1469.31 C 1903.15 1459.72 1905.1 1446.66 1899.16 1438.46 C 1896.24 1434.43 1885.83 1429.04 1886.14 1424.26 C 1892.48 1416.52 1937.09 1389.5 1946.8 1386.29 C 1947.07 1396.35 1946.78 1407.66 1946.86 1417.87 C 1947.44 1423.38 1946.47 1427.97 1948.5 1431.91 C 1948.7 1431.16 1948.91 1430.41 1949.12 1429.67 C 1955.86 1406.45 1977.67 1380.9 2005.1 1388.89 C 2023.59 1394.29 2031.15 1419.55 2023.16 1434.93 C 2007.3 1465.47 1988.35 1448.62 1968.94 1434.78 C 1963.63 1430.98 1954.9 1436.59 1952.87 1443.11 C 1945.88 1465.6 1948.43 1492.91 1953.07 1515.73 C 1954.76 1523.73 1960.07 1535.17 1963.13 1542.95 C 1937.13 1543.14 1911.14 1543.14 1885.14 1542.94 z" fill="rgb(16,16,16)" transform="translate(0,0)"></path>
<path d="M 1946.86 1417.87 C 1947.44 1423.38 1946.47 1427.97 1948.5 1431.91 C 1948.3 1432.8 1948.16 1433.69 1947.91 1434.59 C 1947.79 1435.07 1947.44 1435.91 1946.91 1436.14 C 1946.8 1436.19 1946.56 1436.25 1946.48 1436.07 C 1945.36 1433.26 1946.57 1420.15 1946.86 1417.87 z" fill="rgb(204,208,211)" transform="translate(0,0)"></path>
<path d="M 1404.71 1322.16 C 1416.13 1319.62 1428.03 1323.44 1435.82 1332.16 C 1443.62 1340.87 1446.11 1353.12 1442.32 1364.18 C 1438.53 1375.24 1429.07 1383.4 1417.56 1385.51 C 1400.24 1388.68 1383.56 1377.4 1380.06 1360.14 C 1376.56 1342.88 1387.52 1325.99 1404.71 1322.16 z" fill="rgb(16,16,16)" transform="translate(0,0)"></path>
<path d="M 1248.61 1194.6 C 1258.96 1201.88 1269.27 1207.86 1279.34 1214.93 C 1269.06 1211.4 1258.71 1207.38 1248.68 1203.19 C 1252.73 1199.52 1251.44 1198.98 1248.61 1194.6 z" fill="rgb(67,65,77)" transform="translate(0,0)"></path>
<path d="M 1086.44 491.861 C 1092.3 497.887 1101.04 512.432 1105.01 519.893 C 1098.72 513.196 1094.75 509.752 1088.39 503.681 L 1087.96 503.045 C 1088.45 500.731 1088.64 500.833 1090.3 498.838 C 1087.93 496.071 1087.66 495.185 1086.44 491.861 z" fill="rgb(112,71,33)" transform="translate(0,0)"></path>
<path d="M 1087.96 503.045 C 1088.45 500.731 1088.64 500.833 1090.3 498.838 C 1090.94 500.011 1093.41 503.405 1092.79 504.534 C 1092.16 504.733 1089.84 503.766 1088.39 503.681 L 1087.96 503.045 z" fill="rgb(222,89,47)" transform="translate(0,0)"></path>
<path d="M 1199.66 1262.86 C 1206.35 1261.99 1222.23 1259.31 1228.26 1260.69 C 1218.32 1262.17 1211.7 1262.95 1201.97 1266.17 L 1199.66 1262.86 z" fill="rgb(116,107,103)" transform="translate(0,0)"></path>
<metadata><recraft-signature>{"signed_by": "recraft", "signature_b64": "dq2aW+bQTId3Y6Opze0ekr9FtJD3ZgS/MwsE9IL6PyNlIcurauMo3jspegZANCvxZgHonp2glJT5A6rOaGyvAQ==", "signing_algo": "Ed25519", "generation_timestamp": 1783365389, "identifier": "7acd832f-5f9b-4437-8413-d4f38b08e08e"}</recraft-signature></metadata></svg>