<svg xmlns="http://www.w3.org/2000/svg" height="1024" preserveAspectRatio="none" style="display: block;" version="1.1" viewBox="0 0 2048 2048" width="1024">
<path d="M 0 0 L 2048 0 L 2048 2048 L 0 2048 L 0 0 z" fill="rgb(255,255,255)" transform="translate(0,0)"></path>
<path d="M 690.958 1277.97 C 692.775 1275.78 694.657 1273.66 696.603 1271.59 C 711.21 1256.19 723.252 1245.45 746.01 1245.06 C 770.905 1244.63 784.872 1261.9 787.538 1285.31 C 789.104 1299.06 788.457 1314.28 788.526 1328.37 L 788.803 1402.41 C 794.333 1409.96 800.9 1417.26 807.449 1423.94 C 785.143 1424.45 762.062 1424.16 739.699 1424.17 C 745.723 1417.61 751.548 1410.44 757.282 1403.6 C 758.909 1388.26 757.717 1362.31 757.811 1345.97 C 756.645 1328.25 759.735 1307.49 756.431 1290.12 C 749.703 1254.75 709.019 1259.48 691.934 1285.53 C 693.698 1293.91 692.852 1315.24 692.926 1324.76 C 693.129 1350.7 692.192 1376.95 693.078 1402.92 C 698.123 1410.47 705.406 1417.71 711.831 1424.07 L 689.75 1424.29 L 643.328 1424.36 C 650.124 1416.95 656.864 1410.84 662.535 1402.51 C 663.486 1374.19 661.35 1344.65 662.089 1316.29 C 662.796 1289.14 659.59 1262.08 624.228 1267.05 C 611.862 1268.79 604.05 1277.33 597.262 1286.92 L 597.28 1402.41 C 602.411 1410.05 610.255 1417.63 616.763 1424.31 L 548.15 1423.98 C 555.376 1417.13 560.744 1410.25 566.98 1402.56 C 566.272 1364.78 567.477 1326.18 566.445 1288.83 C 561.734 1286.13 556.434 1284.05 551.417 1281.9 C 570.571 1269.54 584.086 1258.98 601.495 1244.52 C 600.264 1255.64 598.866 1266.74 597.3 1277.82 C 599.04 1275.46 600.809 1273.12 602.606 1270.8 C 614.615 1255.38 630.264 1247.69 649.361 1245.31 C 673.452 1244.16 683.355 1257.33 690.958 1277.97 z" fill="rgb(24,27,108)" transform="translate(0,0)"></path>
<path d="M 1028.65 1024.27 C 1031.85 1025.51 1037.84 1029.13 1041.01 1030.92 C 1072.03 1048.51 1103.97 1057.88 1138.93 1064.37 C 1112.03 1111.19 1078.61 1138.68 1022.88 1139.43 C 969.169 1138.31 932.996 1111.12 910.664 1063.31 C 950.34 1057.92 994.606 1045.63 1028.65 1024.27 z" fill="rgb(24,27,108)" transform="translate(0,0)"></path>
<path d="M 770.164 848.59 C 775.339 853.684 784.399 867.02 790.296 873.644 C 812.27 898.148 837.747 919.269 865.9 936.321 C 865.896 974.917 877.222 1017.8 891.91 1053.24 C 886.476 1053.64 881.672 1053.42 876.25 1053.27 C 855.951 1052.96 836.034 1047.71 818.228 1037.96 C 787.932 1020.94 765.722 992.497 756.567 958.98 C 746.845 924.523 752.942 879.511 770.164 848.59 z" fill="rgb(24,27,108)" transform="translate(0,0)"></path>
<path d="M 1274.47 848.709 C 1284.38 859.432 1292.38 894.629 1293.57 909.007 C 1299.94 986.12 1252.91 1046.92 1175.25 1053.74 C 1169.02 1054 1162.08 1053.88 1155.78 1053.9 C 1168.42 1029.76 1178.77 995.35 1182.4 968.539 C 1184.06 956.24 1184.45 943.602 1186.3 931.058 C 1227.33 906.299 1246.26 886.31 1274.47 848.709 z" fill="rgb(24,27,108)" transform="translate(0,0)"></path>
<path d="M 1154.93 621.008 C 1174.15 620.98 1192.12 622.305 1210.08 629.148 C 1260.32 648.291 1295.28 695.738 1295.4 749.934 C 1295.45 773.432 1291.43 790.314 1282.99 812.1 C 1281.55 815.775 1279.18 820.512 1277.47 824.192 C 1270.02 815.415 1263.63 806.685 1255.72 797.78 C 1234.62 774.085 1209.98 753.798 1182.67 737.637 C 1180.18 694.873 1173.64 660.361 1154.93 621.008 z" fill="rgb(24,27,108)" transform="translate(0,0)"></path>
<path d="M 1017.28 538.412 C 1029.88 537.552 1042.54 538.7 1054.78 541.813 C 1095.42 552.431 1117.67 575.885 1137.82 610.637 C 1126.14 612.791 1115.3 613.957 1103.36 616.641 C 1074.99 623.013 1053.3 633.343 1027.79 646.071 L 1020.33 649.9 C 988.998 630.367 946.763 616.155 910.465 609.973 C 930.229 568.268 972.078 542.405 1017.28 538.412 z" fill="rgb(24,27,108)" transform="translate(0,0)"></path>
<path d="M 868.784 622.387 C 876.524 621.514 884.227 621.659 892.013 621.645 C 872.056 663.834 862.791 697.056 860.98 743.932 C 824.901 764.82 797.748 789.999 773.02 823.408 L 771.986 824.776 C 764.902 818.897 755.535 784.295 754.4 774.096 C 745.805 696.848 790.46 631.87 868.784 622.387 z" fill="rgb(24,27,108)" transform="translate(0,0)"></path>
<path d="M 1181.78 749.765 C 1213.24 769.648 1249.87 803.815 1270.41 834.541 C 1250.22 873.43 1202.97 912.175 1163.55 930.998 C 1135.47 943.742 1122.6 946.128 1094.01 954.267 C 1148.1 894.244 1174.37 829.877 1181.78 749.765 z" fill="rgb(71,115,251)" transform="translate(0,0)"></path>
<path d="M 946.897 721.131 L 948.711 721.381 C 948.265 723.933 928.713 747.666 925.824 751.691 C 890.675 800.662 870.899 862.629 865.827 922.008 C 846.431 910.414 833.628 899.984 817.029 885.284 C 802.894 872.023 787.812 854.367 777.546 838.184 C 822.794 769.174 870.046 743.796 946.897 721.131 z" fill="rgb(71,115,251)" transform="translate(0,0)"></path>
<path d="M 1063.56 1245.34 C 1086.21 1242.56 1108.12 1260.07 1111.16 1281.64 C 1116.69 1320.97 1111.65 1363.9 1113.9 1403.65 C 1120.28 1411.33 1125.4 1416.95 1132.37 1424.11 C 1110.26 1424.74 1086.66 1424.19 1064.44 1424.03 C 1069.34 1417.89 1077.49 1409.58 1083.05 1403.23 C 1082.8 1380.14 1082.74 1357.04 1082.87 1333.95 C 1082.87 1320.74 1083.52 1307.38 1081.69 1294.3 C 1077.28 1262.92 1040.53 1260.44 1019.39 1276.89 C 1014.39 1280.78 1011.35 1284.45 1010.69 1290.75 C 1010.27 1312.4 1010.11 1334.05 1010.24 1355.71 C 1010.22 1370.81 1009.77 1389.21 1011.13 1403.95 C 1017.52 1412.85 1021.97 1417.09 1030.45 1423.95 C 1007.83 1424.62 984.433 1424.23 961.771 1424.03 C 967.319 1416.96 974.284 1409.25 980.117 1402.09 C 980.831 1378.65 979.753 1354.68 980.09 1331.18 C 980.286 1317.5 980.202 1303.24 979.464 1289.61 C 973.718 1285.09 971.838 1284.11 965.304 1280.97 C 982.206 1269.98 998.425 1257.5 1014.13 1244.88 C 1012.86 1255.71 1011.91 1266.9 1010.7 1277.82 C 1025.64 1258.75 1039.58 1248.49 1063.56 1245.34 z" fill="rgb(24,27,108)" transform="translate(0,0)"></path>
<path d="M 1620.49 1245.32 L 1621.76 1245.27 C 1633.74 1244.85 1644.66 1247.78 1653.43 1256.32 C 1673.39 1275.76 1669.94 1305.44 1670.25 1330.71 C 1670.55 1354.77 1669.98 1378.67 1670.67 1402.64 C 1677.35 1412.03 1681.15 1416.68 1689.95 1424.05 C 1667.03 1424.1 1644.1 1424.01 1621.18 1423.79 C 1627.99 1416.89 1634.09 1410.98 1639.48 1402.89 C 1638.73 1379.81 1639.63 1355.29 1639.15 1332.1 C 1638.94 1318.99 1639.98 1306.74 1637.98 1293.7 C 1632.73 1259.63 1592.11 1260.78 1571.81 1280.09 C 1568.11 1283.61 1566.83 1285.66 1566.9 1290.75 L 1566.69 1401.84 C 1571.85 1409.91 1578.82 1417.06 1585.37 1424.05 C 1562.8 1424.17 1540.24 1424.16 1517.68 1424.03 C 1524.94 1416.76 1531.03 1409.75 1536.77 1401.24 C 1536.4 1363.9 1536.84 1325.89 1536.87 1288.5 C 1531.67 1284.95 1526.9 1283.33 1521.09 1280.97 C 1541.15 1269.06 1552.89 1256.99 1570.74 1245.59 C 1569.69 1256.79 1568.65 1266.81 1567.03 1277.97 C 1581.8 1259.36 1596.37 1248.2 1620.49 1245.32 z" fill="rgb(24,27,108)" transform="translate(0,0)"></path>
<path d="M 904.246 622.205 C 970.394 627.991 1037.52 664.269 1080.81 714.346 C 1062.33 710.924 1043.62 707.135 1024.88 705.708 C 977.974 699.939 915.894 718.844 872.857 736.728 C 873.873 698.162 886.134 656.114 904.246 622.205 z" fill="rgb(71,115,251)" transform="translate(0,0)"></path>
<path d="M 885.136 860.609 C 887.2 862.441 894.736 878.875 896.783 882.953 C 925.504 940.174 969.612 977.462 1017.12 1018.26 C 1007.82 1023.75 998.541 1027.59 988.694 1031.91 C 957.478 1044.93 937.68 1048.35 905.109 1052.92 C 878.852 992.601 868.199 924.977 885.136 860.609 z" fill="rgb(71,115,251)" transform="translate(0,0)"></path>
<path d="M 527.867 1240.93 C 530.207 1243.52 528.486 1363.88 528.798 1375.91 C 529.445 1400.88 529.439 1397.02 543.145 1419.3 C 528.295 1422.15 513.788 1426.88 498.651 1429.73 C 498.488 1415.64 498.888 1400.86 499.062 1386.73 C 473.483 1432.21 418.179 1447.69 400.526 1391 C 396.121 1376.85 398.575 1318.12 398.588 1300.25 L 398.438 1286.28 C 393.186 1283.74 387.161 1281.42 381.724 1279.18 C 398.018 1268.19 413.158 1255.75 428.998 1245.19 C 427.747 1281.91 429.274 1319.33 428.806 1356.12 C 429.08 1370.14 427.776 1387.66 441.603 1396.12 C 464.008 1409.83 485.886 1397.64 498.99 1378.24 C 499.413 1345.74 498.991 1312.32 498.977 1279.74 C 493.633 1277.12 488.279 1275.75 482.581 1274.06 C 498.066 1263.1 512.898 1252.63 527.867 1240.93 z" fill="rgb(24,27,108)" transform="translate(0,0)"></path>
<path d="M 1171.55 939.894 C 1172.73 939.778 1171.98 939.746 1173.7 940.519 C 1170.63 981.616 1162.6 1015.98 1144.43 1053.21 C 1094.5 1046.68 1058.4 1031.12 1016.52 1003.64 C 999.29 991.902 982.206 975.854 968.742 960.01 C 1038.9 978.921 1105.6 965.732 1171.55 939.894 z" fill="rgb(71,115,251)" transform="translate(0,0)"></path>
<path d="M 1139.12 622.412 L 1141.93 622.374 C 1150.1 629.043 1161.32 671.188 1164.71 683.659 C 1176.16 725.745 1171.78 771.743 1162 813.839 C 1152.94 789.563 1143.61 771.965 1127.72 751.659 C 1097.44 712.756 1070.1 686.871 1031.89 656.848 C 1062.89 637.698 1103.18 626.275 1139.12 622.412 z" fill="rgb(71,115,251)" transform="translate(0,0)"></path>
<path d="M 878.244 1246.19 C 922.207 1242.3 947.288 1269.45 953.973 1310.8 C 916.843 1311.3 878.328 1310.77 840.951 1310.99 C 840.867 1314.74 840.901 1318.5 841.052 1322.25 C 843.754 1387.01 901.206 1431.09 951.572 1374.77 C 955.951 1368.89 960.28 1362.78 964.588 1356.83 C 953.759 1384.4 933.214 1417.37 902.066 1424.3 C 885.309 1427.97 867.78 1424.76 853.405 1415.4 C 793.217 1376.79 804.332 1262.28 878.244 1246.19 z" fill="rgb(24,27,108)" transform="translate(0,0)"></path>
<path d="M 879.141 1250.2 C 909.43 1248.73 920.471 1282.47 924.741 1306.81 L 888.053 1306.85 L 840.64 1307.01 C 845.141 1283.01 850.989 1255.24 879.141 1250.2 z" fill="rgb(255,255,255)" transform="translate(0,0)"></path>
<path d="M 1517.41 1363.47 C 1511.63 1373.78 1505.97 1383.87 1499.4 1393.58 C 1477.23 1426.35 1438.25 1437.42 1405.19 1412.72 C 1386.38 1398.67 1374.33 1377.38 1371.06 1354.03 C 1367.67 1325.45 1372.14 1298.21 1389.14 1274.64 C 1411.29 1243.93 1450.95 1236.55 1481.7 1259.35 C 1498.25 1271.62 1504.85 1290.3 1507.42 1310.41 C 1495.66 1311.11 1479.75 1310.69 1467.74 1310.73 L 1396.01 1311.07 C 1395.83 1321.16 1396.78 1331.24 1398.85 1341.12 C 1413.16 1407.3 1478.9 1422.52 1515.93 1361.87 L 1517.41 1363.47 z" fill="rgb(24,27,108)" transform="translate(0,0)"></path>
<path d="M 1434.93 1249.26 C 1464.45 1250 1473.97 1282.69 1478.74 1306.36 L 1439.73 1306.38 C 1425.26 1306.45 1410.85 1306.73 1396.38 1306.53 C 1399.29 1282.01 1407.18 1254.56 1434.93 1249.26 z" fill="rgb(255,255,255)" transform="translate(0,0)"></path>
<path d="M 227.908 1188.96 C 249.209 1188.4 273.353 1188.95 294.838 1189.01 C 289.501 1196.18 283.229 1204.1 278.909 1211.81 L 278.953 1421.86 C 328.744 1421.94 353.912 1410.04 378.399 1367.13 L 381.456 1369.14 C 377.835 1387.53 374.508 1405.97 371.476 1424.46 C 323.946 1425 276.41 1424.9 228.883 1424.15 C 234.866 1416.57 241.527 1410.93 246.978 1402.92 C 248.755 1389.09 247.555 1350.05 247.425 1334.15 L 246.996 1210.81 C 241.737 1203.91 233.841 1195.58 227.908 1188.96 z" fill="rgb(24,27,108)" transform="translate(0,0)"></path>
<path d="M 1208.77 1188.97 C 1230.79 1188.42 1255.57 1189.02 1277.79 1189.08 C 1274.13 1194.03 1261.97 1207.79 1261.45 1212.41 C 1259.07 1233.45 1260.14 1262.52 1260.21 1283.68 L 1260.51 1420.14 C 1267.53 1420.82 1274.6 1420.88 1281.62 1420.3 C 1309.67 1418.02 1335.36 1406.94 1351.29 1383.28 C 1354.47 1378.55 1361.99 1365.16 1364.47 1362.22 L 1364.95 1364.22 C 1360.05 1383.96 1356.61 1404.08 1353.15 1424.11 C 1305.99 1425 1256.9 1424.36 1209.65 1424.12 C 1215.86 1416.9 1222.33 1409.91 1229.04 1403.16 L 1228.91 1211.36 C 1222.69 1203.84 1215.41 1196.2 1208.77 1188.97 z" fill="rgb(24,27,108)" transform="translate(0,0)"></path>
<path d="M 1694.79 1357.85 C 1708.9 1381.87 1724.97 1409.12 1752.08 1419.73 C 1768.31 1426.08 1788.2 1421.51 1793.4 1403.82 C 1807.88 1352.4 1718.27 1353.32 1702.59 1314.83 C 1691.91 1288.63 1704.52 1262.41 1729.83 1251.29 C 1753.91 1240.72 1784.07 1246.57 1807.89 1255.68 C 1809.57 1270.46 1810.97 1285.49 1812.49 1300.3 L 1809.18 1301.55 C 1800.95 1288 1783.63 1263.07 1770.05 1254.67 C 1761.03 1249.16 1750.11 1247.7 1739.97 1250.64 C 1733.77 1252.37 1723.99 1258.57 1721.61 1264.68 C 1699.03 1322.55 1803.45 1315.98 1815.68 1359.74 C 1823.77 1388.68 1807.41 1414.36 1781.06 1423.05 C 1751.5 1432.8 1724.11 1422.73 1697.99 1409.32 C 1697.21 1392.04 1695.21 1375.14 1694.79 1357.85 z" fill="rgb(24,27,108)" transform="translate(0,0)"></path>
<path d="M 378.399 1367.13 C 379.215 1365.22 380.265 1363.39 381.312 1361.6 L 380.974 1362.11 C 381.315 1361.66 381.656 1361.21 381.997 1360.76 L 382.381 1360.65 C 382.95 1361.28 381.592 1368.29 381.456 1369.14 L 378.399 1367.13 z" fill="rgb(52,49,113)" transform="translate(0,0)"></path>
<path d="M 1812.49 1300.3 C 1812.87 1301.7 1813.75 1305.12 1812.43 1306.15 C 1810.87 1305.63 1809.81 1302.86 1809.18 1301.55 L 1812.49 1300.3 z" fill="rgb(52,49,113)" transform="translate(0,0)"></path>
<path d="M 1515.93 1361.87 C 1518.95 1356.03 1520.7 1356.8 1517.41 1363.47 L 1515.93 1361.87 z" fill="rgb(52,49,113)" transform="translate(0,0)"></path>
<metadata><recraft-signature>{"signed_by": "recraft", "signature_b64": "Xo8YXKrCiPsIA/UcF31SfIlj17brsn4Khbmo/fczq1CYOWD1ExZKhk3QcUDen2VKAxDDPPxj1kYXr1ODfT5FBQ==", "signing_algo": "Ed25519", "generation_timestamp": 1783365374, "identifier": "d782f3df-ae37-4626-b204-1cd47cec5cc5"}</recraft-signature></metadata></svg>